<svg id="Layer_1" xmlns="http://www.w3.org/2000/svg" width="433" height="382.1" viewBox="0 0 433 382.1"><style>.st0{fill:#fff;stroke:rgb(255, 115, 0);stroke-width:2.5}.st0,.st1,.st2,.st3,.st4{stroke-linecap:round;stroke-linejoin:round;stroke-miterlimit:10}.st1{fill:none;stroke:#e0e0e0;stroke-width:2}.st2{fill:none;stroke:rgb(255, 115, 0)}.st2,.st3,.st4{stroke-width:2.5}.st3{fill:#fff;stroke:rgb(255, 115, 0)}.st4{fill:none;stroke:#e0e0e0}</style><path class="st0" d="M298.4 131.1H1.5v237.4c0 6.7 5.4 12.1 12.1 12.1h405.8c6.7 0 12.1-5.4 12.1-12.1V131.1h-93.2"/><path id="XMLID_21_" class="st1" d="M46.7 177.4h214.1"/><path id="XMLID_20_" class="st1" d="M76.2 216.9h109.7"/><path id="XMLID_19_" class="st1" d="M70 256.4h79.7"/><path id="XMLID_18_" class="st1" d="M46.7 296h116.2"/><path id="XMLID_16_" class="st1" d="M88.4 335.5h68.1"/><path class="st0" d="M298.4 86.8H31.3c-16.5 0-29.8 13.3-29.8 29.8v14.5h296.9m39.9 0h93.2v-14.5c0-16.5-13.3-29.8-29.8-29.8h-63.4"/><path class="st2" d="M318.4 1.5v200.9c0 20.6 16.7 37.4 37.4 37.4"/><circle class="st0" cx="318.4" cy="56.4" r="9.9"/><path transform="rotate(-110.022 289.088 268.563)" class="st3" d="M236.5 178.5h105.1v180.1H236.5z"/><path class="st3" d="M355.7 188.4L291.8 276l-105.3-26z"/><path class="st2" d="M343.4 237.7c3.9 1.3 8 2.1 12.3 2.1 20.6 0 37.4-16.7 37.4-37.4v-16.5l-11.9 16.5"/><circle class="st4" cx="33.9" cy="110.1" r="6.3"/><circle class="st4" cx="58.4" cy="110.1" r="6.3"/><circle class="st4" cx="82.8" cy="110.1" r="6.3"/></svg>