<svg id="Layer_1" xmlns="http://www.w3.org/2000/svg" width="400" height="362.5" viewBox="-220 116.8 400 362.5"><style>.st0,.st1{stroke-width:2.5;stroke-miterlimit:10}.st0{fill:none;stroke:rgb(255, 115, 0)}.st1{stroke:rgb(255, 115, 0);stroke-linecap:round;stroke-linejoin:round}.st1,.st2{fill:#fff}.st3{fill:rgb(255, 115, 0)}</style><path id="XMLID_35_" class="st0" d="M-140.2 226.4h-55.1c-12.8 0-23.1 10.3-23.1 23.1v146.7c0 12.7 10.3 23 23.1 23h30.2v56c0 1.1.5 2.2 1.6 2.7.3.3.8.3 1.1.3.5 0 1.4-.3 1.9-.8l68.3-58.2H4.6c12.8 0 23.1-10.3 23.1-23.1V352"/><path id="XMLID_34_" class="st1" d="M155.7 118.3c12.5 0 23.1 10.3 23.1 23.1v146.7c0 12.8-10.3 23.1-23.1 23.1h-30.2v56c0 1.1-.5 2.2-1.6 2.7-.3.3-.5.3-1.1.3-.8 0-1.4-.3-1.9-.8l-68.3-58.2H-84.9c-12.8 0-23.1-10.3-23.1-23.1V141.4c0-12.8 10.3-23.1 23.1-23.1h240.6z"/><path id="XMLID_33_" class="st0" d="M-144.7 355.9c0 4.9 4.1 8.9 8.9 8.9s8.9-4.1 8.9-8.9c0-4.9-4.1-8.9-8.9-8.9-4.8-.1-8.9 3.9-8.9 8.9z"/><path id="XMLID_32_" class="st0" d="M-88.6 355.9c0-4.9-4.1-8.9-8.9-8.9-4.9 0-8.9 4.1-8.9 8.9 0 4.9 4.1 8.9 8.9 8.9 4.9 0 8.9-4 8.9-8.9z"/><path id="XMLID_31_" class="st0" d="M-50.5 355.9c0-4.9-4.1-8.9-8.9-8.9s-8.9 4.1-8.9 8.9c0 4.9 4.1 8.9 8.9 8.9s8.9-4 8.9-8.9z"/><path class="st1" d="M-23 254.4l53-91.9c2.2-3.7 7.5-3.7 9.6 0l53 91.9c2.2 3.7-.5 8.3-4.8 8.3H-18.1c-4.3 0-7-4.6-4.9-8.3z"/><path class="st3" d="M34.4 246.2c4.8 0 4.8-7.5 0-7.5-4.8.1-4.8 7.5 0 7.5zm0-18.8l-7.5-16.7c-2.5-5.6 1.5-11.8 7.5-11.8 6.1 0 10.1 6.3 7.5 11.8l-7.5 16.7z"/></svg>