<svg xmlns="http://www.w3.org/2000/svg" viewBox="0 0 559 430"><style>.st0{fill:none}.st1,.st2{stroke-miterlimit:10}.st1{fill:none;stroke:#e0e0e0;stroke-width:2.7088}.st2{stroke-width:2.4037}.st2,.st3,.st4{fill:none;stroke:rgb(255, 115, 0)}.st3{stroke-miterlimit:10;stroke-width:2.2314}.st4{stroke-width:1.9532}.st4,.st5,.st6,.st7{stroke-miterlimit:10}.st5{stroke:rgb(255, 115, 0);stroke-linecap:round;stroke-linejoin:round;fill:none;stroke-width:2.4613}.st6,.st7{fill:#fff;stroke-width:2.7411}.st6{stroke-linecap:round;stroke-linejoin:round;stroke:rgb(255, 115, 0)}.st7{stroke:rgb(255, 115, 0)}.st8{fill:rgb(255, 115, 0)}.st9{fill:#fff;stroke:rgb(255, 115, 0);stroke-width:2.7411;stroke-miterlimit:10}</style><path id="XMLID_28_" class="st0" d="M92.5 268.6c-1.3-4.8-2.5-9.8-3.5-14.8"/><path id="XMLID_29_" class="st1" d="M226.6 401c-64.9-17-116.2-67.7-134.1-132.3"/><path id="XMLID_30_" class="st0" d="M320.7 401.5c-14.7 3.7-30.1 5.6-45.9 5.6-16.6 0-32.8-2.1-48.1-6.2"/><path id="XMLID_31_" class="st1" d="M457 268.9c-18.2 65.2-70.4 116.2-136.3 132.6"/><path id="XMLID_32_" class="st0" d="M460.7 252.9c-1 5.4-2.3 10.8-3.7 16"/><path id="XMLID_33_" class="st0" d="M452.1 152.1c7.6 20.5 11.8 42.8 11.8 66 0 11.9-1.1 23.5-3.2 34.8"/><path id="XMLID_34_" class="st1" d="M320.6 34.5C381.4 49.6 430.5 94.1 452.1 152"/><path id="XMLID_35_" class="st0" d="M226.7 35.1c15.4-4 31.5-6.2 48.1-6.2 15.8 0 31.1 1.9 45.8 5.6"/><path id="XMLID_36_" class="st1" d="M97.5 152.1c21.3-57.2 69.5-101.3 129.2-117"/><path id="XMLID_37_" class="st0" d="M89.1 253.9c-2.2-11.6-3.4-23.6-3.4-35.8 0-23.2 4.2-45.4 11.8-66"/><g id="XMLID_95_"><g id="XMLID_96_"><path id="XMLID_97_" class="st2" d="M243.4 33.8c-7.4 0-13.4 6-13.4 13.4s6 13.4 13.4 13.4V32.3C243.4-.3 274.8 0 274.8 0s31.3-.3 31.3 32.3v28.5s1.7 15-12.7 15"/><path id="XMLID_205_" class="st2" d="M306.1 33.8c7.4 0 13.4 6 13.4 13.4s-6 13.4-13.4 13.4"/><circle id="XMLID_98_" class="st2" cx="287.3" cy="75" r="6"/></g></g><g id="XMLID_99_"><g id="XMLID_125_"><path id="XMLID_200_" class="st3" d="M318.2 359.7c.4 16.8-6.9 34.3-20 47.9l-.3.3c-13.7 14.2-31.3 22-48.4 21.8h-1.3l-1-.8c-1.6-1.2-8.9-9.9-11.4-15.9-.3-.7-.5-1.6-.5-2.5-.1-2 .9-6.6 4-7.8 5.7-2.1 11.3-3 18.4-5 2-.5 6.8-.1 8.7 2.7l4.4 6.6c.1-.1 1.1 0 2.3-.9 3.5-2.6 8.7-7.5 12-10.9 3.2-3.4 7.9-8.7 10.3-12.3.5-.7.8-1.5.7-2.1l-3.3-2.3-3.4-2.1c-2.9-1.8-3.1-6.4-3.1-7 0-.5 0-1 .1-1.5 1.7-8.8 1.5-12.2 4.4-19 1.3-3 6.6-4.9 10.1-3.6 6.1 2.3 15.1 9.3 16.3 10.7l.8 1 .2 2.7z"/></g></g><circle id="XMLID_126_" class="st4" cx="457" cy="212.5" r="27.3"/><path id="XMLID_129_" class="st2" d="M121.3 237.1c-21.1 0-38.3-17.1-38.3-38.3 0-7.8 2.3-15.1 6.4-21.1.7-1.1-.3-2.4-1.5-2.1-17.1 4.6-29.4 20.6-28.3 39.4 1.2 19.1 16.7 34.6 35.8 35.8 11.7.7 22.3-3.8 29.8-11.4.9-.9.1-2.4-1.1-2.3-1-.1-1.9 0-2.8 0z"/><g id="XMLID_130_"><path id="XMLID_131_" class="st5" d="M457 178.9v-10.3"/><path id="XMLID_194_" class="st5" d="M480.8 188.7l7.2-7.2"/><path id="XMLID_193_" class="st5" d="M490.6 212.5h10.3"/><path id="XMLID_192_" class="st5" d="M480.8 236.3l7.2 7.2"/><path id="XMLID_191_" class="st5" d="M457 246.2v10.2"/><path id="XMLID_190_" class="st5" d="M433.2 236.3l-7.3 7.2"/><path id="XMLID_189_" class="st5" d="M423.3 212.5h-10.2"/><path id="XMLID_188_" class="st5" d="M433.2 188.7l-7.3-7.2"/></g><path id="XMLID_142_" class="st6" d="M235.9 196h-23.6c-4.7 0-8.5 3.8-8.5 8.5v53.9c0 4.7 3.8 8.5 8.5 8.5h11.1v20.6c0 .4.2.8.6 1 .1.1.3.1.4.1.2 0 .5-.1.7-.3l25.1-21.4h35.6c4.7 0 8.5-3.8 8.5-8.5v-16.2"/><path id="XMLID_141_" class="st7" d="M341.3 161.3h-88.4c-4.7 0-8.5 3.8-8.5 8.5v53.9c0 4.7 3.8 8.5 8.5 8.5h50.5l25.1 21.4c.2.2.4.3.7.3.2 0 .3 0 .4-.1.4-.2.6-.6.6-1v-20.6h11.1c4.7 0 8.5-3.8 8.5-8.5v-53.9c0-4.7-3.9-8.5-8.5-8.5z"/><path id="XMLID_139_" class="st8" d="M232.6 238.6c0 1.8 1.5 3.3 3.3 3.3 1.8 0 3.3-1.5 3.3-3.3 0-1.8-1.5-3.3-3.3-3.3-1.8 0-3.3 1.5-3.3 3.3z"/><path id="XMLID_137_" class="st8" d="M253.2 238.6c0-1.8-1.5-3.3-3.3-3.3-1.8 0-3.3 1.5-3.3 3.3 0 1.8 1.5 3.3 3.3 3.3 1.8 0 3.3-1.5 3.3-3.3z"/><path id="XMLID_135_" class="st8" d="M267.2 238.6c0-1.8-1.5-3.3-3.3-3.3-1.8 0-3.3 1.5-3.3 3.3 0 1.8 1.5 3.3 3.3 3.3 1.8 0 3.3-1.5 3.3-3.3z"/><path id="XMLID_133_" class="st9" d="M336 194.4h-78.6"/><path id="XMLID_132_" class="st9" d="M330.5 180.4h-73.1"/><path id="XMLID_145_" class="st9" d="M310 208.4h-52.6"/></svg>