<?xml version="1.0" encoding="utf-8"?>
<!-- Generator: Adobe Illustrator 18.1.1, SVG Export Plug-In . SVG Version: 6.00 Build 0)  -->
<svg version="1.1" xmlns="http://www.w3.org/2000/svg" xmlns:xlink="http://www.w3.org/1999/xlink" x="0px" y="0px"
	 viewBox="0 0 20 20" width="20px" height="20px" enable-background="new 0 0 20 20" xml:space="preserve">
<g id="Pink">
</g>
<g id="Layer_3">
	<g>
		<path fill="rgb(255, 115, 0)" d="M11.1,20H8.9c-0.8,0-1.5-0.7-1.5-1.5v-1.4l-0.6-0.2l-0.9,0.9c-0.5,0.5-1.6,0.5-2.1,0l-1.5-1.5
			c-0.3-0.3-0.4-0.7-0.4-1.1c0-0.4,0.2-0.8,0.4-1.1l1-1l-0.3-0.6l-1.3,0c-0.8,0-1.5-0.7-1.5-1.5V8.9c0-0.8,0.7-1.5,1.5-1.5h1.4
			l0.2-0.6L2.2,5.8C1.9,5.6,1.7,5.2,1.7,4.8c0-0.4,0.2-0.8,0.4-1.1l1.5-1.5c0.5-0.6,1.6-0.6,2.1,0l1,1l0.6-0.3l0-1.3
			C7.4,0.7,8.1,0,8.9,0h2.2c0.8,0,1.5,0.7,1.5,1.5v1.4l0.6,0.2l0.9-0.9c0.5-0.6,1.6-0.6,2.1,0l1.5,1.5c0.3,0.3,0.4,0.7,0.4,1.1
			c0,0.4-0.2,0.8-0.4,1.1l-1,1l0.3,0.6l1.3,0c0.8,0,1.5,0.7,1.5,1.5v2.2c0,0.8-0.7,1.5-1.5,1.5h-1.4l-0.2,0.6l0.9,0.9
			c0.3,0.3,0.4,0.7,0.4,1.1c0,0.4-0.2,0.8-0.4,1.1l-1.5,1.5c-0.6,0.6-1.6,0.6-2.1,0l-1-1l-0.6,0.3l0,1.3C12.6,19.3,11.9,20,11.1,20z
			 M6.8,15.9c0.1,0,0.3,0,0.4,0.1l0.6,0.3c0.3,0.1,0.6,0.5,0.6,0.8v1.4c0,0.3,0.2,0.5,0.5,0.5h2.2c0.3,0,0.5-0.2,0.5-0.5v-1.4
			c0-0.4,0.3-0.7,0.6-0.9l0.6-0.3c0.2-0.1,0.8-0.1,1,0.2l1,1c0.2,0.2,0.5,0.2,0.7,0l1.5-1.5c0.1-0.1,0.2-0.2,0.2-0.4
			c0-0.1-0.1-0.3-0.1-0.4l-1-1c-0.3-0.3-0.3-0.7-0.2-1.1l0.3-0.6c0.1-0.3,0.5-0.6,0.8-0.6h1.4c0.3,0,0.5-0.2,0.5-0.5V8.9
			c0-0.3-0.2-0.5-0.5-0.5h-1.4c-0.4,0-0.7-0.3-0.9-0.6L16,7.1c-0.1-0.3-0.1-0.8,0.2-1l1-1c0.1-0.1,0.2-0.2,0.2-0.4
			c0-0.1-0.1-0.3-0.1-0.4l-1.5-1.5c-0.2-0.2-0.5-0.2-0.7,0l-1,1c-0.3,0.3-0.7,0.3-1.1,0.2l-0.6-0.3c-0.3-0.1-0.6-0.5-0.6-0.8V1.5
			c0-0.3-0.2-0.5-0.5-0.5H8.9C8.6,1,8.4,1.2,8.4,1.5v1.4c0,0.4-0.3,0.7-0.6,0.9L7.1,4c-0.2,0.1-0.8,0.1-1-0.2l-1-1
			C5,2.7,4.6,2.7,4.4,2.9L2.9,4.4C2.8,4.5,2.7,4.6,2.7,4.8c0,0.1,0.1,0.3,0.2,0.4l1,1C4.1,6.4,4.2,6.8,4,7.2L3.8,7.8
			C3.7,8.1,3.3,8.4,2.9,8.4H1.5C1.2,8.4,1,8.6,1,8.9v2.2c0,0.3,0.2,0.5,0.5,0.5h1.4c0.4,0,0.7,0.3,0.9,0.6L4,12.9
			c0.1,0.3,0.1,0.8-0.2,1l-1,1c-0.1,0.1-0.2,0.2-0.2,0.4c0,0.1,0.1,0.3,0.1,0.4l1.5,1.5c0.2,0.2,0.5,0.2,0.7,0l1-1
			C6.3,16,6.5,15.9,6.8,15.9z M10,13.8c-2.1,0-3.8-1.7-3.8-3.8c0-2.1,1.7-3.8,3.8-3.8s3.8,1.7,3.8,3.8C13.8,12.1,12.1,13.8,10,13.8z
			 M10,7.2c-1.5,0-2.8,1.2-2.8,2.8c0,1.5,1.2,2.8,2.8,2.8s2.8-1.2,2.8-2.8C12.8,8.5,11.5,7.2,10,7.2z"/>
	</g>
</g>
</svg>
