<?xml version="1.0" encoding="utf-8"?>
<!-- Generator: Adobe Illustrator 18.1.1, SVG Export Plug-In . SVG Version: 6.00 Build 0)  -->
<svg version="1.1" id="Layer_1" xmlns="http://www.w3.org/2000/svg" xmlns:xlink="http://www.w3.org/1999/xlink" x="0px" y="0px"
	 viewBox="0 0 20 20" enable-background="new 0 0 20 20" xml:space="preserve">
<path fill="rgb(255, 115, 0)" d="M16.9,19.3l-4.4-7.2c1.6-1.2,2.6-3.2,2.6-5.3C15.1,3,12,0,8.3,0C4.6,0,1.5,3,1.5,6.8c0,3.7,3,6.8,6.8,6.8
	c1.2,0,2.4-0.3,3.4-0.9l4.4,7.1c0.1,0.1,0.2,0.2,0.4,0.2c0.1,0,0.2,0,0.3-0.1C17,19.8,17,19.5,16.9,19.3z M2.5,6.8
	C2.5,3.6,5.1,1,8.3,1s5.8,2.6,5.8,5.8s-2.6,5.8-5.8,5.8S2.5,10,2.5,6.8z"/>
</svg>
