<svg id="Layer_1" data-name="Layer 1" xmlns="http://www.w3.org/2000/svg" width="40" height="40" viewBox="0 0 40 40"><defs><style>.cls-1{fill:#e0e0e0;}.cls-2{fill:#d1d1d1;}.cls-3{fill:#1d4354;}.cls-4{fill:rgb(255, 115, 0);}</style></defs><path class="cls-1" d="M2.12,5.41A.56.56,0,0,0,1.59,6v27.5a.56.56,0,0,0,.53.57.56.56,0,0,0,.53-.57V6A.56.56,0,0,0,2.12,5.41Z"/><path class="cls-1" d="M11.11,5.41a.56.56,0,0,0-.53.57v27.5a.56.56,0,0,0,.53.57.55.55,0,0,0,.53-.57V6A.55.55,0,0,0,11.11,5.41Z"/><path class="cls-1" d="M20,5.41a.56.56,0,0,0-.53.57v27.5a.53.53,0,1,0,1.06,0V6A.56.56,0,0,0,20,5.41Z"/><path class="cls-1" d="M29.1,5.41a.56.56,0,0,0-.53.57v27.5a.53.53,0,1,0,1.06,0V6A.56.56,0,0,0,29.1,5.41Z"/><path class="cls-1" d="M38.09,5.41a.56.56,0,0,0-.53.57v27.5a.56.56,0,0,0,.53.57.55.55,0,0,0,.53-.57V6A.55.55,0,0,0,38.09,5.41Z"/><path class="cls-2" d="M39.38,34.49H.62a.54.54,0,0,1,0-1.08H39.38a.54.54,0,0,1,0,1.08Z"/><rect class="cls-3" x="5.49" y="11.56" width="17.13" height="3.63" rx="1.82"/><rect class="cls-4" x="11.65" y="18.18" width="17.13" height="3.63" rx="1.82"/><rect class="cls-3" x="17.38" y="24.81" width="17.99" height="3.63" rx="1.82"/></svg>