<svg id="Layer_1" data-name="Layer 1" xmlns="http://www.w3.org/2000/svg" width="40" height="40" viewBox="0 0 40 40"><defs><style>.cls-1{fill:#1d4354;}.cls-2{fill:#f2f2f2;}.cls-3{fill:rgb(255, 115, 0);}.cls-4{fill:#d1d1d1;}.cls-5{fill:#e0e0e0;}.cls-6{fill:rgb(255, 115, 0);}</style></defs><polygon class="cls-1" points="28.64 30.5 25.13 30.5 26.37 38.28 29.88 38.28 28.64 30.5"/><polygon class="cls-1" points="11.43 30.5 14.93 30.5 13.69 38.28 10.19 38.28 11.43 30.5"/><rect class="cls-2" x="0.75" y="1.72" width="38.51" height="28.12" rx="0.5"/><rect class="cls-3" y="28.01" width="40" height="3.87"/><rect class="cls-4" x="4.99" y="6.85" width="9.65" height="9.65"/><rect class="cls-3" x="10.42" y="12.5" width="9.65" height="9.65"/><rect class="cls-5" x="23.76" y="6.87" width="11.75" height="15.25"/><path class="cls-6" d="M26.6,13.13h6.07a.63.63,0,1,0,0-1.25H26.6a.63.63,0,0,0,0,1.25Z"/><path class="cls-6" d="M26.6,16.53h2.88a.63.63,0,0,0,.63-.63.63.63,0,0,0-.63-.63H26.6a.63.63,0,0,0-.62.63A.63.63,0,0,0,26.6,16.53Z"/></svg>