<svg id="Layer_1" data-name="Layer 1" xmlns="http://www.w3.org/2000/svg" width="262" height="165" viewBox="0 0 262 165"><defs><style>.cls-1{fill:#1d4354;}.cls-1,.cls-2,.cls-3,.cls-4,.cls-5,.cls-6,.cls-7{fill-rule:evenodd;}.cls-2{fill:#2b5468;}.cls-3{fill:#336278;}.cls-4{fill:rgb(255, 115, 0);}.cls-5{fill:#295164;}.cls-6{fill:#33637a;}.cls-7{fill:#fff;}</style></defs><title>illo-cs</title><g id="Page-1"><g id="Group"><g id="Tile-Copy-8"><g id="Stacked-Group"><g id="illo-cs"><polygon id="Fill-1" class="cls-1" points="0 165 262 165 262 0 0 0 0 165"/><polygon id="Fill-2" class="cls-2" points="1.1 16.5 261.7 16.5 261.7 16.3 1.1 16.3 1.1 16.5"/><polygon id="Fill-3" class="cls-2" points="1.1 43.3 261.7 43.3 261.7 43.1 1.1 43.1 1.1 43.3"/><polygon id="Fill-4" class="cls-2" points="1.1 70.2 261.7 70.2 261.7 69.9 1.1 69.9 1.1 70.2"/><polygon id="Fill-5" class="cls-2" points="1.1 97 261.7 97 261.7 96.8 1.1 96.8 1.1 97"/><polygon id="Fill-6" class="cls-2" points="1.1 123.8 261.7 123.8 261.7 123.6 1.1 123.6 1.1 123.8"/><polygon id="Fill-7" class="cls-2" points="1.1 150.6 261.7 150.6 261.7 150.4 1.1 150.4 1.1 150.6"/><polygon id="Fill-8" class="cls-2" points="9.4 164.8 9.6 164.8 9.6 0.8 9.4 0.8 9.4 164.8"/><polygon id="Fill-9" class="cls-2" points="36.2 164.8 36.4 164.8 36.4 0.8 36.2 0.8 36.2 164.8"/><polygon id="Fill-10" class="cls-2" points="63 164.8 63.2 164.8 63.2 0.8 63 0.8 63 164.8"/><polygon id="Fill-11" class="cls-2" points="89.9 164.8 90.1 164.8 90.1 0.8 89.9 0.8 89.9 164.8"/><polygon id="Fill-12" class="cls-2" points="116.7 164.8 116.9 164.8 116.9 0.8 116.7 0.8 116.7 164.8"/><polygon id="Fill-13" class="cls-2" points="143.5 164.8 143.7 164.8 143.7 0.8 143.5 0.8 143.5 164.8"/><polygon id="Fill-14" class="cls-2" points="170.3 164.8 170.5 164.8 170.5 0.8 170.3 0.8 170.3 164.8"/><polygon id="Fill-15" class="cls-2" points="197.1 164.8 197.4 164.8 197.4 0.8 197.1 0.8 197.1 164.8"/><polygon id="Fill-16" class="cls-2" points="224 164.8 224.2 164.8 224.2 0.8 224 0.8 224 164.8"/><polygon id="Fill-17" class="cls-2" points="250.8 164.8 251 164.8 251 0.8 250.8 0.8 250.8 164.8"/><g id="Group-152"><path id="Fill-18" class="cls-2" d="M11,16.4a1.5,1.5,0,1,1-1.5-1.5A1.54,1.54,0,0,1,11,16.4"/><path id="Fill-20" class="cls-2" d="M37.8,16.4a1.5,1.5,0,1,1-1.5-1.5,1.47,1.47,0,0,1,1.5,1.5"/><path id="Fill-22" class="cls-2" d="M64.7,16.4a1.5,1.5,0,1,1-1.5-1.5,1.54,1.54,0,0,1,1.5,1.5"/><path id="Fill-24" class="cls-2" d="M91.5,16.4A1.5,1.5,0,1,1,90,14.9a1.54,1.54,0,0,1,1.5,1.5"/><path id="Fill-26" class="cls-2" d="M118.3,16.4a1.5,1.5,0,1,1-1.5-1.5,1.54,1.54,0,0,1,1.5,1.5"/><path id="Fill-28" class="cls-2" d="M145.1,16.4a1.5,1.5,0,1,1-1.5-1.5,1.54,1.54,0,0,1,1.5,1.5"/><path id="Fill-30" class="cls-2" d="M171.9,16.4a1.5,1.5,0,1,1-1.5-1.5,1.47,1.47,0,0,1,1.5,1.5"/><path id="Fill-32" class="cls-2" d="M198.8,16.4a1.5,1.5,0,1,1-1.5-1.5,1.54,1.54,0,0,1,1.5,1.5"/><path id="Fill-34" class="cls-2" d="M225.6,16.4a1.5,1.5,0,1,1-1.5-1.5,1.54,1.54,0,0,1,1.5,1.5"/><path id="Fill-36" class="cls-2" d="M252.4,16.4a1.5,1.5,0,1,1-1.5-1.5,1.54,1.54,0,0,1,1.5,1.5"/><path id="Fill-38" class="cls-2" d="M11,43.2a1.54,1.54,0,0,1-1.5,1.5A1.47,1.47,0,0,1,8,43.2a1.5,1.5,0,0,1,3,0"/><path id="Fill-40" class="cls-2" d="M37.8,43.2a1.5,1.5,0,1,1-1.5-1.5,1.47,1.47,0,0,1,1.5,1.5"/><path id="Fill-42" class="cls-2" d="M64.7,43.2a1.5,1.5,0,1,1-1.5-1.5,1.54,1.54,0,0,1,1.5,1.5"/><path id="Fill-44" class="cls-2" d="M91.5,43.2A1.5,1.5,0,1,1,90,41.7a1.54,1.54,0,0,1,1.5,1.5"/><path id="Fill-46" class="cls-2" d="M118.3,43.2a1.5,1.5,0,1,1-1.5-1.5,1.54,1.54,0,0,1,1.5,1.5"/><path id="Fill-48" class="cls-2" d="M145.1,43.2a1.5,1.5,0,1,1-1.5-1.5,1.54,1.54,0,0,1,1.5,1.5"/><path id="Fill-50" class="cls-2" d="M171.9,43.2a1.5,1.5,0,1,1-1.5-1.5,1.47,1.47,0,0,1,1.5,1.5"/><path id="Fill-52" class="cls-2" d="M198.8,43.2a1.5,1.5,0,1,1-1.5-1.5,1.54,1.54,0,0,1,1.5,1.5"/><path id="Fill-54" class="cls-2" d="M225.6,43.2a1.5,1.5,0,1,1-1.5-1.5,1.54,1.54,0,0,1,1.5,1.5"/><path id="Fill-56" class="cls-2" d="M252.4,43.2a1.5,1.5,0,1,1-1.5-1.5,1.54,1.54,0,0,1,1.5,1.5"/><path id="Fill-58" class="cls-2" d="M11,70a1.54,1.54,0,0,1-1.5,1.5A1.47,1.47,0,0,1,8,70a1.5,1.5,0,0,1,3,0"/><path id="Fill-60" class="cls-2" d="M37.8,70a1.5,1.5,0,1,1-1.5-1.5A1.47,1.47,0,0,1,37.8,70"/><path id="Fill-62" class="cls-2" d="M64.7,70a1.5,1.5,0,1,1-1.5-1.5A1.54,1.54,0,0,1,64.7,70"/><path id="Fill-64" class="cls-2" d="M91.5,70A1.5,1.5,0,1,1,90,68.5,1.54,1.54,0,0,1,91.5,70"/><path id="Fill-66" class="cls-2" d="M118.3,70a1.5,1.5,0,1,1-1.5-1.5,1.54,1.54,0,0,1,1.5,1.5"/><path id="Fill-68" class="cls-2" d="M145.1,70a1.5,1.5,0,1,1-1.5-1.5,1.54,1.54,0,0,1,1.5,1.5"/><path id="Fill-70" class="cls-2" d="M171.9,70a1.5,1.5,0,1,1-1.5-1.5,1.47,1.47,0,0,1,1.5,1.5"/><path id="Fill-72" class="cls-2" d="M198.8,70a1.5,1.5,0,1,1-1.5-1.5,1.54,1.54,0,0,1,1.5,1.5"/><path id="Fill-74" class="cls-2" d="M225.6,70a1.5,1.5,0,1,1-1.5-1.5,1.54,1.54,0,0,1,1.5,1.5"/><path id="Fill-76" class="cls-2" d="M252.4,70a1.5,1.5,0,1,1-1.5-1.5,1.54,1.54,0,0,1,1.5,1.5"/><path id="Fill-78" class="cls-2" d="M11,96.9a1.5,1.5,0,1,1-1.5-1.5A1.47,1.47,0,0,1,11,96.9"/><path id="Fill-80" class="cls-2" d="M37.8,96.9a1.5,1.5,0,1,1-1.5-1.5,1.42,1.42,0,0,1,1.5,1.5"/><path id="Fill-82" class="cls-2" d="M64.7,96.9a1.5,1.5,0,1,1-1.5-1.5,1.47,1.47,0,0,1,1.5,1.5"/><path id="Fill-84" class="cls-2" d="M91.5,96.9A1.5,1.5,0,1,1,90,95.4a1.47,1.47,0,0,1,1.5,1.5"/><path id="Fill-86" class="cls-2" d="M118.3,96.9a1.5,1.5,0,1,1-1.5-1.5,1.47,1.47,0,0,1,1.5,1.5"/><path id="Fill-88" class="cls-2" d="M145.1,96.9a1.5,1.5,0,1,1-1.5-1.5,1.47,1.47,0,0,1,1.5,1.5"/><path id="Fill-90" class="cls-2" d="M171.9,96.9a1.5,1.5,0,1,1-1.5-1.5,1.42,1.42,0,0,1,1.5,1.5"/><path id="Fill-92" class="cls-2" d="M198.8,96.9a1.5,1.5,0,1,1-1.5-1.5,1.47,1.47,0,0,1,1.5,1.5"/><path id="Fill-94" class="cls-2" d="M225.6,96.9a1.5,1.5,0,1,1-1.5-1.5,1.47,1.47,0,0,1,1.5,1.5"/><path id="Fill-96" class="cls-2" d="M252.4,96.9a1.5,1.5,0,1,1-1.5-1.5,1.47,1.47,0,0,1,1.5,1.5"/><path id="Fill-98" class="cls-2" d="M11,123.7a1.5,1.5,0,1,1-1.5-1.5,1.54,1.54,0,0,1,1.5,1.5"/><path id="Fill-100" class="cls-2" d="M37.8,123.7a1.5,1.5,0,1,1-1.5-1.5,1.47,1.47,0,0,1,1.5,1.5"/><path id="Fill-102" class="cls-2" d="M64.7,123.7a1.5,1.5,0,1,1-1.5-1.5,1.54,1.54,0,0,1,1.5,1.5"/><path id="Fill-104" class="cls-2" d="M91.5,123.7a1.5,1.5,0,1,1-1.5-1.5,1.54,1.54,0,0,1,1.5,1.5"/><path id="Fill-106" class="cls-2" d="M118.3,123.7a1.5,1.5,0,1,1-1.5-1.5,1.54,1.54,0,0,1,1.5,1.5"/><path id="Fill-108" class="cls-2" d="M145.1,123.7a1.5,1.5,0,1,1-1.5-1.5,1.54,1.54,0,0,1,1.5,1.5"/><path id="Fill-110" class="cls-2" d="M171.9,123.7a1.5,1.5,0,1,1-1.5-1.5,1.47,1.47,0,0,1,1.5,1.5"/><path id="Fill-112" class="cls-2" d="M198.8,123.7a1.5,1.5,0,1,1-1.5-1.5,1.54,1.54,0,0,1,1.5,1.5"/><path id="Fill-114" class="cls-2" d="M225.6,123.7a1.5,1.5,0,1,1-1.5-1.5,1.54,1.54,0,0,1,1.5,1.5"/><path id="Fill-116" class="cls-2" d="M252.4,123.7a1.5,1.5,0,1,1-1.5-1.5,1.54,1.54,0,0,1,1.5,1.5"/><path id="Fill-118" class="cls-2" d="M11,150.5A1.5,1.5,0,1,1,9.5,149a1.54,1.54,0,0,1,1.5,1.5"/><path id="Fill-120" class="cls-2" d="M37.8,150.5a1.5,1.5,0,1,1-1.5-1.5,1.47,1.47,0,0,1,1.5,1.5"/><path id="Fill-122" class="cls-2" d="M64.7,150.5a1.5,1.5,0,1,1-1.5-1.5,1.54,1.54,0,0,1,1.5,1.5"/><path id="Fill-124" class="cls-2" d="M91.5,150.5A1.5,1.5,0,1,1,90,149a1.54,1.54,0,0,1,1.5,1.5"/><path id="Fill-126" class="cls-2" d="M118.3,150.5a1.5,1.5,0,1,1-1.5-1.5,1.54,1.54,0,0,1,1.5,1.5"/><path id="Fill-128" class="cls-2" d="M145.1,150.5a1.5,1.5,0,1,1-1.5-1.5,1.54,1.54,0,0,1,1.5,1.5"/><path id="Fill-130" class="cls-2" d="M171.9,150.5a1.5,1.5,0,1,1-1.5-1.5,1.47,1.47,0,0,1,1.5,1.5"/><path id="Fill-132" class="cls-2" d="M198.8,150.5a1.5,1.5,0,1,1-1.5-1.5,1.54,1.54,0,0,1,1.5,1.5"/><path id="Fill-134" class="cls-2" d="M225.6,150.5a1.5,1.5,0,1,1-1.5-1.5,1.54,1.54,0,0,1,1.5,1.5"/><path id="Fill-136" class="cls-2" d="M252.4,150.5a1.5,1.5,0,1,1-1.5-1.5,1.54,1.54,0,0,1,1.5,1.5"/><path id="Fill-138" class="cls-3" d="M164.9,84.6V72.9a34,34,0,0,0-67.9,0v9.3l4.7,3.8V73a29.2,29.2,0,1,1,58.4,0V83.4Z"/><path id="Fill-140" class="cls-3" d="M100.4,110.6h-3c-4.6,0-6.9-6.3-6.9-14.2s2.6-14.2,6.9-14.2h3"/><path id="Fill-142" class="cls-4" d="M128.3,120.8a1.6,1.6,0,0,1,0-3.2l25.4-.1c4.9,0,7.4-2.1,7.4-6.2v-1a1.6,1.6,0,0,1,3.2,0v1c0,5.9-4,9.5-10.6,9.5Z"/><path id="Fill-144" class="cls-5" d="M102.8,82.3H99.2v28.4h3.6a2.48,2.48,0,0,0,2.5-2.5V84.8a2.48,2.48,0,0,0-2.5-2.5"/><path id="Fill-146" class="cls-6" d="M161.6,82.3h3c4.6,0,6.9,6.3,6.9,14.2s-2.6,14.2-6.9,14.2h-3"/><path id="Fill-148" class="cls-5" d="M159.2,110.6h3.6V82.3h-3.6a2.48,2.48,0,0,0-2.5,2.5v23.4a2.46,2.46,0,0,0,2.5,2.4"/><path id="Fill-150" class="cls-7" d="M134.2,122.4h-8.6a.47.47,0,0,1-.5-.5V116a.47.47,0,0,1,.5-.5h8.6a.47.47,0,0,1,.5.5v5.9a.54.54,0,0,1-.5.5"/></g></g></g></g></g></g></svg>