<svg id="Layer_1" data-name="Layer 1" xmlns="http://www.w3.org/2000/svg" xmlns:xlink="http://www.w3.org/1999/xlink" width="262" height="165" viewBox="0 0 262 165"><defs><style>.cls-1{fill:#fff;}.cls-1,.cls-2,.cls-3,.cls-5,.cls-6,.cls-7{fill-rule:evenodd;}.cls-2{fill:#1d4354;}.cls-3{fill:#2f5a6e;}.cls-4{mask:url(#mask);}.cls-5{fill:#2b5468;}.cls-6{fill:#336278;}.cls-7{fill:rgb(255, 115, 0);}</style><mask id="mask" x="0" y="0" width="262" height="165" maskUnits="userSpaceOnUse"><g id="mask-2"><polygon id="path-1" class="cls-1" points="0 165 262 165 262 0 0 0 0 165"/></g></mask></defs><title>illo-legal</title><g id="Page-1"><g id="Group"><g id="Tile-Copy-10"><g id="Stacked-Group"><g id="illo-legal"><polygon id="Fill-1" class="cls-2" points="0 165 262 165 262 0 0 0 0 165"/><g id="Group-865"><path id="Fill-2" class="cls-3" d="M4.38,5.78a.67.67,0,0,1-.67.67A.68.68,0,0,1,3,5.78a.69.69,0,0,1,.68-.68.68.68,0,0,1,.67.68"/><path id="Fill-4" class="cls-3" d="M15,5.78a.67.67,0,1,1-1.34,0,.67.67,0,1,1,1.34,0"/><path id="Fill-6" class="cls-3" d="M25.59,5.78a.68.68,0,1,1-.68-.68.68.68,0,0,1,.68.68"/><path id="Fill-8" class="cls-3" d="M36.19,5.78a.68.68,0,0,1-1.35,0,.68.68,0,1,1,1.35,0"/><path id="Fill-10" class="cls-3" d="M46.79,5.78a.67.67,0,0,1-.67.67.68.68,0,0,1-.68-.67.69.69,0,0,1,.68-.68.68.68,0,0,1,.67.68"/><path id="Fill-12" class="cls-3" d="M57.39,5.78a.67.67,0,1,1-1.34,0,.67.67,0,1,1,1.34,0"/><path id="Fill-14" class="cls-3" d="M68,5.78a.68.68,0,0,1-.68.67.67.67,0,0,1-.67-.67.68.68,0,0,1,.67-.68.69.69,0,0,1,.68.68"/><path id="Fill-16" class="cls-3" d="M78.6,5.78a.68.68,0,0,1-1.35,0,.68.68,0,1,1,1.35,0"/><path id="Fill-18" class="cls-3" d="M89.2,5.78a.67.67,0,0,1-.67.67.68.68,0,0,1-.68-.67.69.69,0,0,1,.68-.68.68.68,0,0,1,.67.68"/><path id="Fill-20" class="cls-3" d="M99.8,5.78a.67.67,0,0,1-1.34,0,.67.67,0,1,1,1.34,0"/><path id="Fill-22" class="cls-3" d="M110.41,5.78a.68.68,0,0,1-.68.67.67.67,0,0,1-.67-.67.68.68,0,0,1,.67-.68.69.69,0,0,1,.68.68"/><path id="Fill-24" class="cls-3" d="M121,5.78a.68.68,0,1,1-.68-.68.68.68,0,0,1,.68.68"/><path id="Fill-26" class="cls-3" d="M131.61,5.78a.68.68,0,0,1-1.35,0,.68.68,0,1,1,1.35,0"/><path id="Fill-28" class="cls-3" d="M142.21,5.78a.67.67,0,1,1-1.34,0,.67.67,0,1,1,1.34,0"/><path id="Fill-30" class="cls-3" d="M152.82,5.78a.68.68,0,0,1-.68.67.67.67,0,0,1-.67-.67.68.68,0,0,1,.67-.68.69.69,0,0,1,.68.68"/><path id="Fill-32" class="cls-3" d="M163.42,5.78a.68.68,0,1,1-.68-.68.68.68,0,0,1,.68.68"/><path id="Fill-34" class="cls-3" d="M174,5.78a.68.68,0,0,1-1.35,0,.68.68,0,1,1,1.35,0"/><path id="Fill-36" class="cls-3" d="M184.62,5.78a.67.67,0,0,1-.67.67.68.68,0,0,1-.68-.67A.69.69,0,0,1,184,5.1a.68.68,0,0,1,.67.68"/><path id="Fill-38" class="cls-3" d="M195.22,5.78a.67.67,0,0,1-1.34,0,.67.67,0,1,1,1.34,0"/><path id="Fill-40" class="cls-3" d="M205.83,5.78a.68.68,0,0,1-.68.67.67.67,0,0,1-.67-.67.68.68,0,0,1,.67-.68.69.69,0,0,1,.68.68"/><path id="Fill-42" class="cls-3" d="M4.38,15.4a.67.67,0,0,1-.67.67A.68.68,0,0,1,3,15.4a.69.69,0,0,1,.68-.68.68.68,0,0,1,.67.68"/><path id="Fill-44" class="cls-3" d="M15,15.4a.67.67,0,0,1-1.34,0,.67.67,0,1,1,1.34,0"/><path id="Fill-46" class="cls-3" d="M25.59,15.4a.68.68,0,1,1-.68-.68.68.68,0,0,1,.68.68"/><path id="Fill-48" class="cls-3" d="M36.19,15.4a.68.68,0,0,1-1.35,0,.68.68,0,1,1,1.35,0"/><path id="Fill-50" class="cls-3" d="M46.79,15.4a.67.67,0,0,1-.67.67.68.68,0,0,1-.68-.67.69.69,0,0,1,.68-.68.68.68,0,0,1,.67.68"/><path id="Fill-52" class="cls-3" d="M57.39,15.4a.67.67,0,0,1-1.34,0,.67.67,0,1,1,1.34,0"/><path id="Fill-54" class="cls-3" d="M68,15.4a.68.68,0,0,1-.68.67.67.67,0,0,1-.67-.67.68.68,0,0,1,.67-.68.69.69,0,0,1,.68.68"/><path id="Fill-56" class="cls-3" d="M78.6,15.4a.68.68,0,0,1-1.35,0,.68.68,0,1,1,1.35,0"/><path id="Fill-58" class="cls-3" d="M89.2,15.4a.67.67,0,0,1-.67.67.68.68,0,0,1-.68-.67.69.69,0,0,1,.68-.68.68.68,0,0,1,.67.68"/><path id="Fill-60" class="cls-3" d="M99.8,15.4a.67.67,0,0,1-1.34,0,.67.67,0,1,1,1.34,0"/><path id="Fill-62" class="cls-3" d="M110.41,15.4a.68.68,0,0,1-.68.67.67.67,0,0,1-.67-.67.68.68,0,0,1,.67-.68.69.69,0,0,1,.68.68"/><path id="Fill-64" class="cls-3" d="M121,15.4a.68.68,0,1,1-.68-.68.68.68,0,0,1,.68.68"/><path id="Fill-66" class="cls-3" d="M131.61,15.4a.68.68,0,0,1-1.35,0,.68.68,0,1,1,1.35,0"/><path id="Fill-68" class="cls-3" d="M142.21,15.4a.67.67,0,1,1-1.34,0,.67.67,0,1,1,1.34,0"/><path id="Fill-70" class="cls-3" d="M152.82,15.4a.68.68,0,0,1-.68.67.67.67,0,0,1-.67-.67.68.68,0,0,1,.67-.68.69.69,0,0,1,.68.68"/><path id="Fill-72" class="cls-3" d="M163.42,15.4a.68.68,0,1,1-.68-.68.68.68,0,0,1,.68.68"/><path id="Fill-74" class="cls-3" d="M174,15.4a.68.68,0,0,1-1.35,0,.68.68,0,1,1,1.35,0"/><path id="Fill-76" class="cls-3" d="M184.62,15.4a.67.67,0,0,1-.67.67.68.68,0,0,1-.68-.67.69.69,0,0,1,.68-.68.68.68,0,0,1,.67.68"/><path id="Fill-78" class="cls-3" d="M195.22,15.4a.67.67,0,0,1-1.34,0,.67.67,0,1,1,1.34,0"/><path id="Fill-80" class="cls-3" d="M205.83,15.4a.68.68,0,0,1-.68.67.67.67,0,0,1-.67-.67.68.68,0,0,1,.67-.68.69.69,0,0,1,.68.68"/><path id="Fill-82" class="cls-3" d="M4.38,25a.67.67,0,0,1-.67.67.67.67,0,1,1,0-1.34.67.67,0,0,1,.67.67"/><path id="Fill-84" class="cls-3" d="M15,25a.67.67,0,1,1-.67-.67A.67.67,0,0,1,15,25"/><path id="Fill-86" class="cls-3" d="M25.59,25a.68.68,0,1,1-.68-.67.67.67,0,0,1,.68.67"/><path id="Fill-88" class="cls-3" d="M36.19,25a.68.68,0,1,1-.67-.67.67.67,0,0,1,.67.67"/><path id="Fill-90" class="cls-3" d="M46.79,25a.67.67,0,0,1-.67.67.67.67,0,1,1,0-1.34.67.67,0,0,1,.67.67"/><path id="Fill-92" class="cls-3" d="M57.39,25a.67.67,0,1,1-.67-.67.67.67,0,0,1,.67.67"/><path id="Fill-94" class="cls-3" d="M68,25a.68.68,0,0,1-.68.67.67.67,0,1,1,0-1.34A.68.68,0,0,1,68,25"/><path id="Fill-96" class="cls-3" d="M78.6,25a.68.68,0,1,1-.67-.67.67.67,0,0,1,.67.67"/><path id="Fill-98" class="cls-3" d="M89.2,25a.67.67,0,0,1-.67.67.67.67,0,1,1,0-1.34.67.67,0,0,1,.67.67"/><path id="Fill-100" class="cls-3" d="M99.8,25a.67.67,0,1,1-.67-.67.67.67,0,0,1,.67.67"/><path id="Fill-102" class="cls-3" d="M110.41,25a.68.68,0,0,1-.68.67.67.67,0,0,1,0-1.34.68.68,0,0,1,.68.67"/><path id="Fill-104" class="cls-3" d="M121,25a.68.68,0,1,1-.68-.67A.67.67,0,0,1,121,25"/><path id="Fill-106" class="cls-3" d="M131.61,25a.68.68,0,1,1-.67-.67.67.67,0,0,1,.67.67"/><path id="Fill-108" class="cls-3" d="M142.21,25a.67.67,0,1,1-.67-.67.67.67,0,0,1,.67.67"/><path id="Fill-110" class="cls-3" d="M152.82,25a.68.68,0,0,1-.68.67.67.67,0,0,1,0-1.34.68.68,0,0,1,.68.67"/><path id="Fill-112" class="cls-3" d="M163.42,25a.68.68,0,1,1-.68-.67.67.67,0,0,1,.68.67"/><path id="Fill-114" class="cls-3" d="M174,25a.68.68,0,1,1-.67-.67A.67.67,0,0,1,174,25"/><path id="Fill-116" class="cls-3" d="M184.62,25a.67.67,0,0,1-.67.67.67.67,0,1,1,0-1.34.67.67,0,0,1,.67.67"/><path id="Fill-118" class="cls-3" d="M195.22,25a.67.67,0,1,1-.67-.67.67.67,0,0,1,.67.67"/><path id="Fill-120" class="cls-3" d="M205.83,25a.68.68,0,0,1-.68.67.67.67,0,1,1,0-1.34.68.68,0,0,1,.68.67"/><path id="Fill-122" class="cls-3" d="M4.38,34.64a.67.67,0,0,1-.67.67.67.67,0,1,1,0-1.34.67.67,0,0,1,.67.67"/><path id="Fill-124" class="cls-3" d="M15,34.64a.67.67,0,1,1-.67-.67.67.67,0,0,1,.67.67"/><path id="Fill-126" class="cls-3" d="M25.59,34.64a.68.68,0,1,1-.68-.67.67.67,0,0,1,.68.67"/><path id="Fill-128" class="cls-3" d="M36.19,34.64a.68.68,0,1,1-.67-.67.67.67,0,0,1,.67.67"/><path id="Fill-130" class="cls-3" d="M46.79,34.64a.67.67,0,0,1-.67.67.67.67,0,1,1,0-1.34.67.67,0,0,1,.67.67"/><path id="Fill-132" class="cls-3" d="M57.39,34.64a.67.67,0,1,1-.67-.67.67.67,0,0,1,.67.67"/><path id="Fill-134" class="cls-3" d="M68,34.64a.68.68,0,0,1-.68.67.67.67,0,1,1,0-1.34.68.68,0,0,1,.68.67"/><path id="Fill-136" class="cls-3" d="M78.6,34.64a.68.68,0,1,1-.67-.67.67.67,0,0,1,.67.67"/><path id="Fill-138" class="cls-3" d="M89.2,34.64a.67.67,0,0,1-.67.67.67.67,0,1,1,0-1.34.67.67,0,0,1,.67.67"/><path id="Fill-140" class="cls-3" d="M99.8,34.64a.67.67,0,1,1-.67-.67.67.67,0,0,1,.67.67"/><path id="Fill-142" class="cls-3" d="M110.41,34.64a.68.68,0,0,1-.68.67.67.67,0,0,1,0-1.34.68.68,0,0,1,.68.67"/><path id="Fill-144" class="cls-3" d="M121,34.64a.68.68,0,1,1-.68-.67.67.67,0,0,1,.68.67"/><path id="Fill-146" class="cls-3" d="M131.61,34.64a.68.68,0,1,1-.67-.67.67.67,0,0,1,.67.67"/><path id="Fill-148" class="cls-3" d="M142.21,34.64a.67.67,0,1,1-.67-.67.67.67,0,0,1,.67.67"/><path id="Fill-150" class="cls-3" d="M152.82,34.64a.68.68,0,0,1-.68.67.67.67,0,0,1,0-1.34.68.68,0,0,1,.68.67"/><path id="Fill-152" class="cls-3" d="M163.42,34.64a.68.68,0,1,1-.68-.67.67.67,0,0,1,.68.67"/><path id="Fill-154" class="cls-3" d="M174,34.64a.68.68,0,1,1-.67-.67.67.67,0,0,1,.67.67"/><path id="Fill-156" class="cls-3" d="M184.62,34.64a.67.67,0,0,1-.67.67A.67.67,0,1,1,184,34a.67.67,0,0,1,.67.67"/><path id="Fill-158" class="cls-3" d="M195.22,34.64a.67.67,0,1,1-.67-.67.67.67,0,0,1,.67.67"/><path id="Fill-160" class="cls-3" d="M205.83,34.64a.68.68,0,0,1-.68.67.67.67,0,1,1,0-1.34.68.68,0,0,1,.68.67"/><path id="Fill-162" class="cls-3" d="M4.38,44.26a.67.67,0,0,1-.67.67.67.67,0,1,1,0-1.34.67.67,0,0,1,.67.67"/><path id="Fill-164" class="cls-3" d="M15,44.26a.67.67,0,1,1-.67-.67.67.67,0,0,1,.67.67"/><path id="Fill-166" class="cls-3" d="M25.59,44.26a.68.68,0,1,1-.68-.67.67.67,0,0,1,.68.67"/><path id="Fill-168" class="cls-3" d="M36.19,44.26a.68.68,0,1,1-.67-.67.67.67,0,0,1,.67.67"/><path id="Fill-170" class="cls-3" d="M46.79,44.26a.67.67,0,0,1-.67.67.67.67,0,1,1,0-1.34.67.67,0,0,1,.67.67"/><path id="Fill-172" class="cls-3" d="M57.39,44.26a.67.67,0,1,1-.67-.67.67.67,0,0,1,.67.67"/><path id="Fill-174" class="cls-3" d="M68,44.26a.68.68,0,0,1-.68.67.67.67,0,1,1,0-1.34.68.68,0,0,1,.68.67"/><path id="Fill-176" class="cls-3" d="M78.6,44.26a.68.68,0,1,1-.67-.67.67.67,0,0,1,.67.67"/><path id="Fill-178" class="cls-3" d="M89.2,44.26a.67.67,0,0,1-.67.67.67.67,0,1,1,0-1.34.67.67,0,0,1,.67.67"/><path id="Fill-180" class="cls-3" d="M99.8,44.26a.67.67,0,1,1-.67-.67.67.67,0,0,1,.67.67"/><path id="Fill-182" class="cls-3" d="M110.41,44.26a.68.68,0,0,1-.68.67.67.67,0,1,1,0-1.34.68.68,0,0,1,.68.67"/><path id="Fill-184" class="cls-3" d="M121,44.26a.68.68,0,1,1-.68-.67.67.67,0,0,1,.68.67"/><path id="Fill-186" class="cls-3" d="M131.61,44.26a.68.68,0,1,1-.67-.67.67.67,0,0,1,.67.67"/><path id="Fill-188" class="cls-3" d="M142.21,44.26a.67.67,0,1,1-.67-.67.67.67,0,0,1,.67.67"/><path id="Fill-190" class="cls-3" d="M152.82,44.26a.68.68,0,0,1-.68.67.67.67,0,0,1,0-1.34.68.68,0,0,1,.68.67"/><path id="Fill-192" class="cls-3" d="M163.42,44.26a.68.68,0,1,1-.68-.67.67.67,0,0,1,.68.67"/><path id="Fill-194" class="cls-3" d="M174,44.26a.68.68,0,1,1-.67-.67.67.67,0,0,1,.67.67"/><path id="Fill-196" class="cls-3" d="M184.62,44.26a.67.67,0,0,1-.67.67.67.67,0,1,1,0-1.34.67.67,0,0,1,.67.67"/><path id="Fill-198" class="cls-3" d="M195.22,44.26a.67.67,0,1,1-.67-.67.67.67,0,0,1,.67.67"/><path id="Fill-200" class="cls-3" d="M205.83,44.26a.68.68,0,0,1-.68.67.67.67,0,1,1,0-1.34.68.68,0,0,1,.68.67"/><path id="Fill-202" class="cls-3" d="M4.38,53.88a.68.68,0,0,1-.67.68A.69.69,0,0,1,3,53.88a.68.68,0,0,1,.68-.67.67.67,0,0,1,.67.67"/><path id="Fill-204" class="cls-3" d="M15,53.88a.67.67,0,1,1-1.34,0,.67.67,0,0,1,1.34,0"/><path id="Fill-206" class="cls-3" d="M25.59,53.88a.68.68,0,1,1-1.35,0,.68.68,0,0,1,1.35,0"/><path id="Fill-208" class="cls-3" d="M36.19,53.88a.68.68,0,1,1-.67-.67.67.67,0,0,1,.67.67"/><path id="Fill-210" class="cls-3" d="M46.79,53.88a.68.68,0,0,1-.67.68.69.69,0,0,1-.68-.68.68.68,0,0,1,.68-.67.67.67,0,0,1,.67.67"/><path id="Fill-212" class="cls-3" d="M57.39,53.88a.67.67,0,1,1-1.34,0,.67.67,0,1,1,1.34,0"/><path id="Fill-214" class="cls-3" d="M68,53.88a.69.69,0,0,1-.68.68.68.68,0,0,1-.67-.68.67.67,0,0,1,.67-.67.68.68,0,0,1,.68.67"/><path id="Fill-216" class="cls-3" d="M78.6,53.88a.68.68,0,1,1-.67-.67.67.67,0,0,1,.67.67"/><path id="Fill-218" class="cls-3" d="M89.2,53.88a.68.68,0,0,1-.67.68.69.69,0,0,1-.68-.68.68.68,0,0,1,.68-.67.67.67,0,0,1,.67.67"/><path id="Fill-220" class="cls-3" d="M99.8,53.88a.67.67,0,1,1-1.34,0,.67.67,0,0,1,1.34,0"/><path id="Fill-222" class="cls-3" d="M110.41,53.88a.69.69,0,0,1-.68.68.68.68,0,0,1-.67-.68.67.67,0,0,1,.67-.67.68.68,0,0,1,.68.67"/><path id="Fill-224" class="cls-3" d="M121,53.88a.68.68,0,1,1-1.35,0,.68.68,0,0,1,1.35,0"/><path id="Fill-226" class="cls-3" d="M131.61,53.88a.68.68,0,1,1-.67-.67.67.67,0,0,1,.67.67"/><path id="Fill-228" class="cls-3" d="M142.21,53.88a.67.67,0,1,1-1.34,0,.67.67,0,1,1,1.34,0"/><path id="Fill-230" class="cls-3" d="M152.82,53.88a.69.69,0,0,1-.68.68.68.68,0,0,1-.67-.68.67.67,0,0,1,.67-.67.68.68,0,0,1,.68.67"/><path id="Fill-232" class="cls-3" d="M163.42,53.88a.68.68,0,1,1-1.35,0,.68.68,0,0,1,1.35,0"/><path id="Fill-234" class="cls-3" d="M174,53.88a.68.68,0,1,1-.67-.67.67.67,0,0,1,.67.67"/><path id="Fill-236" class="cls-3" d="M184.62,53.88a.68.68,0,0,1-.67.68.69.69,0,0,1-.68-.68.68.68,0,0,1,.68-.67.67.67,0,0,1,.67.67"/><path id="Fill-238" class="cls-3" d="M195.22,53.88a.67.67,0,1,1-1.34,0,.67.67,0,0,1,1.34,0"/><path id="Fill-240" class="cls-3" d="M205.83,53.88a.69.69,0,0,1-.68.68.68.68,0,0,1-.67-.68.67.67,0,0,1,.67-.67.68.68,0,0,1,.68.67"/><path id="Fill-242" class="cls-3" d="M4.38,63.5a.67.67,0,0,1-.67.68.68.68,0,1,1,0-1.35.67.67,0,0,1,.67.67"/><path id="Fill-244" class="cls-3" d="M15,63.5a.67.67,0,1,1-.67-.67.67.67,0,0,1,.67.67"/><path id="Fill-246" class="cls-3" d="M25.59,63.5a.68.68,0,1,1-.68-.67.67.67,0,0,1,.68.67"/><path id="Fill-248" class="cls-3" d="M36.19,63.5a.68.68,0,1,1-.67-.67.67.67,0,0,1,.67.67"/><path id="Fill-250" class="cls-3" d="M46.79,63.5a.67.67,0,0,1-.67.68.68.68,0,1,1,0-1.35.67.67,0,0,1,.67.67"/><path id="Fill-252" class="cls-3" d="M57.39,63.5a.67.67,0,1,1-.67-.67.67.67,0,0,1,.67.67"/><path id="Fill-254" class="cls-3" d="M68,63.5a.68.68,0,0,1-.68.68A.68.68,0,1,1,68,63.5"/><path id="Fill-256" class="cls-3" d="M78.6,63.5a.68.68,0,1,1-.67-.67.67.67,0,0,1,.67.67"/><path id="Fill-258" class="cls-3" d="M89.2,63.5a.67.67,0,0,1-.67.68.68.68,0,1,1,0-1.35.67.67,0,0,1,.67.67"/><path id="Fill-260" class="cls-3" d="M99.8,63.5a.67.67,0,1,1-.67-.67.67.67,0,0,1,.67.67"/><path id="Fill-262" class="cls-3" d="M110.41,63.5a.68.68,0,0,1-.68.68.68.68,0,1,1,.68-.68"/><path id="Fill-264" class="cls-3" d="M121,63.5a.68.68,0,1,1-.68-.67.67.67,0,0,1,.68.67"/><path id="Fill-266" class="cls-3" d="M131.61,63.5a.68.68,0,1,1-.67-.67.67.67,0,0,1,.67.67"/><path id="Fill-268" class="cls-3" d="M142.21,63.5a.67.67,0,1,1-.67-.67.67.67,0,0,1,.67.67"/><path id="Fill-270" class="cls-3" d="M152.82,63.5a.68.68,0,0,1-.68.68.68.68,0,1,1,.68-.68"/><path id="Fill-272" class="cls-3" d="M163.42,63.5a.68.68,0,1,1-.68-.67.67.67,0,0,1,.68.67"/><path id="Fill-274" class="cls-3" d="M174,63.5a.68.68,0,1,1-.67-.67.67.67,0,0,1,.67.67"/><path id="Fill-276" class="cls-3" d="M184.62,63.5a.67.67,0,0,1-.67.68.68.68,0,1,1,0-1.35.67.67,0,0,1,.67.67"/><path id="Fill-278" class="cls-3" d="M195.22,63.5a.67.67,0,1,1-.67-.67.67.67,0,0,1,.67.67"/><path id="Fill-280" class="cls-3" d="M205.83,63.5a.68.68,0,0,1-.68.68.68.68,0,1,1,.68-.68"/><path id="Fill-282" class="cls-3" d="M4.38,73.12a.67.67,0,0,1-.67.68.68.68,0,1,1,0-1.35.67.67,0,0,1,.67.67"/><path id="Fill-284" class="cls-3" d="M15,73.12a.67.67,0,1,1-.67-.67.67.67,0,0,1,.67.67"/><path id="Fill-286" class="cls-3" d="M25.59,73.12a.68.68,0,1,1-.68-.67.67.67,0,0,1,.68.67"/><path id="Fill-288" class="cls-3" d="M36.19,73.12a.68.68,0,1,1-.67-.67.67.67,0,0,1,.67.67"/><path id="Fill-290" class="cls-3" d="M46.79,73.12a.67.67,0,0,1-.67.68.68.68,0,1,1,0-1.35.67.67,0,0,1,.67.67"/><path id="Fill-292" class="cls-3" d="M57.39,73.12a.67.67,0,1,1-.67-.67.67.67,0,0,1,.67.67"/><path id="Fill-294" class="cls-3" d="M68,73.12a.68.68,0,0,1-.68.68.68.68,0,1,1,.68-.68"/><path id="Fill-296" class="cls-3" d="M78.6,73.12a.68.68,0,1,1-.67-.67.67.67,0,0,1,.67.67"/><path id="Fill-298" class="cls-3" d="M89.2,73.12a.67.67,0,0,1-.67.68.68.68,0,1,1,0-1.35.67.67,0,0,1,.67.67"/><path id="Fill-300" class="cls-3" d="M99.8,73.12a.67.67,0,1,1-.67-.67.67.67,0,0,1,.67.67"/><path id="Fill-302" class="cls-3" d="M110.41,73.12a.68.68,0,0,1-.68.68.68.68,0,1,1,.68-.68"/><path id="Fill-304" class="cls-3" d="M121,73.12a.68.68,0,1,1-.68-.67.67.67,0,0,1,.68.67"/><path id="Fill-306" class="cls-3" d="M131.61,73.12a.68.68,0,1,1-.67-.67.67.67,0,0,1,.67.67"/><path id="Fill-308" class="cls-3" d="M142.21,73.12a.67.67,0,1,1-.67-.67.67.67,0,0,1,.67.67"/><path id="Fill-310" class="cls-3" d="M152.82,73.12a.68.68,0,0,1-.68.68.68.68,0,1,1,.68-.68"/><path id="Fill-312" class="cls-3" d="M163.42,73.12a.68.68,0,1,1-.68-.67.67.67,0,0,1,.68.67"/><path id="Fill-314" class="cls-3" d="M174,73.12a.68.68,0,1,1-.67-.67.67.67,0,0,1,.67.67"/><path id="Fill-316" class="cls-3" d="M184.62,73.12a.67.67,0,0,1-.67.68.68.68,0,1,1,0-1.35.67.67,0,0,1,.67.67"/><path id="Fill-318" class="cls-3" d="M195.22,73.12a.67.67,0,1,1-.67-.67.67.67,0,0,1,.67.67"/><path id="Fill-320" class="cls-3" d="M205.83,73.12a.68.68,0,0,1-.68.68.68.68,0,1,1,.68-.68"/><path id="Fill-322" class="cls-3" d="M4.38,82.74a.67.67,0,0,1-.67.68.68.68,0,1,1,0-1.35.67.67,0,0,1,.67.67"/><path id="Fill-324" class="cls-3" d="M15,82.74a.67.67,0,1,1-.67-.67.67.67,0,0,1,.67.67"/><path id="Fill-326" class="cls-3" d="M25.59,82.74a.68.68,0,1,1-.68-.67.67.67,0,0,1,.68.67"/><path id="Fill-328" class="cls-3" d="M36.19,82.74a.68.68,0,1,1-.67-.67.67.67,0,0,1,.67.67"/><path id="Fill-330" class="cls-3" d="M46.79,82.74a.67.67,0,0,1-.67.68.68.68,0,1,1,0-1.35.67.67,0,0,1,.67.67"/><path id="Fill-332" class="cls-3" d="M57.39,82.74a.67.67,0,1,1-.67-.67.67.67,0,0,1,.67.67"/><path id="Fill-334" class="cls-3" d="M68,82.74a.68.68,0,0,1-.68.68.68.68,0,1,1,.68-.68"/><path id="Fill-336" class="cls-3" d="M78.6,82.74a.68.68,0,1,1-.67-.67.67.67,0,0,1,.67.67"/><path id="Fill-338" class="cls-3" d="M89.2,82.74a.67.67,0,0,1-.67.68.68.68,0,1,1,0-1.35.67.67,0,0,1,.67.67"/><path id="Fill-340" class="cls-3" d="M99.8,82.74a.67.67,0,1,1-.67-.67.67.67,0,0,1,.67.67"/><path id="Fill-342" class="cls-3" d="M110.41,82.74a.68.68,0,0,1-.68.68.68.68,0,1,1,.68-.68"/><path id="Fill-344" class="cls-3" d="M121,82.74a.68.68,0,1,1-.68-.67.67.67,0,0,1,.68.67"/><path id="Fill-346" class="cls-3" d="M131.61,82.74a.68.68,0,1,1-.67-.67.67.67,0,0,1,.67.67"/><path id="Fill-348" class="cls-3" d="M142.21,82.74a.67.67,0,1,1-.67-.67.67.67,0,0,1,.67.67"/><path id="Fill-350" class="cls-3" d="M152.82,82.74a.68.68,0,0,1-.68.68.68.68,0,1,1,.68-.68"/><path id="Fill-352" class="cls-3" d="M163.42,82.74a.68.68,0,1,1-.68-.67.67.67,0,0,1,.68.67"/><path id="Fill-354" class="cls-3" d="M174,82.74a.68.68,0,1,1-.67-.67.67.67,0,0,1,.67.67"/><path id="Fill-356" class="cls-3" d="M184.62,82.74a.67.67,0,0,1-.67.68.68.68,0,1,1,0-1.35.67.67,0,0,1,.67.67"/><path id="Fill-358" class="cls-3" d="M195.22,82.74a.67.67,0,1,1-.67-.67.67.67,0,0,1,.67.67"/><path id="Fill-360" class="cls-3" d="M205.83,82.74a.68.68,0,0,1-.68.68.68.68,0,1,1,.68-.68"/><path id="Fill-362" class="cls-3" d="M4.38,92.37a.67.67,0,0,1-.67.67.68.68,0,1,1,.67-.67"/><path id="Fill-364" class="cls-3" d="M15,92.37a.67.67,0,1,1-.67-.68.67.67,0,0,1,.67.68"/><path id="Fill-366" class="cls-3" d="M25.59,92.37a.68.68,0,1,1-.68-.68.67.67,0,0,1,.68.68"/><path id="Fill-368" class="cls-3" d="M36.19,92.37a.68.68,0,1,1-.67-.68.67.67,0,0,1,.67.68"/><path id="Fill-370" class="cls-3" d="M46.79,92.37a.67.67,0,0,1-.67.67.68.68,0,1,1,.67-.67"/><path id="Fill-372" class="cls-3" d="M57.39,92.37a.67.67,0,1,1-.67-.68.67.67,0,0,1,.67.68"/><path id="Fill-374" class="cls-3" d="M68,92.37a.68.68,0,0,1-.68.67.68.68,0,0,1,0-1.35.68.68,0,0,1,.68.68"/><path id="Fill-376" class="cls-3" d="M78.6,92.37a.68.68,0,1,1-.67-.68.67.67,0,0,1,.67.68"/><path id="Fill-378" class="cls-3" d="M89.2,92.37a.67.67,0,0,1-.67.67.68.68,0,1,1,.67-.67"/><path id="Fill-380" class="cls-3" d="M99.8,92.37a.67.67,0,1,1-.67-.68.67.67,0,0,1,.67.68"/><path id="Fill-382" class="cls-3" d="M110.41,92.37a.68.68,0,0,1-.68.67.68.68,0,0,1,0-1.35.68.68,0,0,1,.68.68"/><path id="Fill-384" class="cls-3" d="M121,92.37a.68.68,0,1,1-.68-.68.67.67,0,0,1,.68.68"/><path id="Fill-386" class="cls-3" d="M131.61,92.37a.68.68,0,1,1-.67-.68.67.67,0,0,1,.67.68"/><path id="Fill-388" class="cls-3" d="M142.21,92.37a.67.67,0,1,1-.67-.68.67.67,0,0,1,.67.68"/><path id="Fill-390" class="cls-3" d="M152.82,92.37a.68.68,0,0,1-.68.67.68.68,0,0,1,0-1.35.68.68,0,0,1,.68.68"/><path id="Fill-392" class="cls-3" d="M163.42,92.37a.68.68,0,1,1-.68-.68.67.67,0,0,1,.68.68"/><path id="Fill-394" class="cls-3" d="M174,92.37a.68.68,0,1,1-.67-.68.67.67,0,0,1,.67.68"/><path id="Fill-396" class="cls-3" d="M184.62,92.37A.67.67,0,0,1,184,93a.68.68,0,1,1,.67-.67"/><path id="Fill-398" class="cls-3" d="M195.22,92.37a.67.67,0,1,1-.67-.68.67.67,0,0,1,.67.68"/><path id="Fill-400" class="cls-3" d="M205.83,92.37a.68.68,0,0,1-.68.67.68.68,0,0,1,0-1.35.68.68,0,0,1,.68.68"/><path id="Fill-402" class="cls-3" d="M4.38,102a.67.67,0,0,1-.67.67.68.68,0,1,1,.67-.67"/><path id="Fill-404" class="cls-3" d="M15,102a.67.67,0,1,1-.67-.68A.67.67,0,0,1,15,102"/><path id="Fill-406" class="cls-3" d="M25.59,102a.68.68,0,1,1-.68-.68.67.67,0,0,1,.68.68"/><path id="Fill-408" class="cls-3" d="M36.19,102a.68.68,0,1,1-.67-.68.67.67,0,0,1,.67.68"/><path id="Fill-410" class="cls-3" d="M46.79,102a.67.67,0,0,1-.67.67.68.68,0,1,1,.67-.67"/><path id="Fill-412" class="cls-3" d="M57.39,102a.67.67,0,1,1-.67-.68.67.67,0,0,1,.67.68"/><path id="Fill-414" class="cls-3" d="M68,102a.68.68,0,0,1-.68.67.68.68,0,0,1,0-1.35A.68.68,0,0,1,68,102"/><path id="Fill-416" class="cls-3" d="M78.6,102a.68.68,0,1,1-.67-.68.67.67,0,0,1,.67.68"/><path id="Fill-418" class="cls-3" d="M89.2,102a.67.67,0,0,1-.67.67.68.68,0,1,1,.67-.67"/><path id="Fill-420" class="cls-3" d="M99.8,102a.67.67,0,1,1-.67-.68.67.67,0,0,1,.67.68"/><path id="Fill-422" class="cls-3" d="M110.41,102a.68.68,0,0,1-.68.67.68.68,0,0,1,0-1.35.68.68,0,0,1,.68.68"/><path id="Fill-424" class="cls-3" d="M121,102a.68.68,0,1,1-.68-.68.67.67,0,0,1,.68.68"/><path id="Fill-426" class="cls-3" d="M131.61,102a.68.68,0,1,1-.67-.68.67.67,0,0,1,.67.68"/><path id="Fill-428" class="cls-3" d="M142.21,102a.67.67,0,1,1-.67-.68.67.67,0,0,1,.67.68"/><path id="Fill-430" class="cls-3" d="M152.82,102a.68.68,0,0,1-.68.67.68.68,0,0,1,0-1.35.68.68,0,0,1,.68.68"/><path id="Fill-432" class="cls-3" d="M163.42,102a.68.68,0,1,1-.68-.68.67.67,0,0,1,.68.68"/><path id="Fill-434" class="cls-3" d="M174,102a.68.68,0,1,1-.67-.68.67.67,0,0,1,.67.68"/><path id="Fill-436" class="cls-3" d="M184.62,102a.67.67,0,0,1-.67.67.68.68,0,1,1,.67-.67"/><path id="Fill-438" class="cls-3" d="M195.22,102a.67.67,0,1,1-.67-.68.67.67,0,0,1,.67.68"/><path id="Fill-440" class="cls-3" d="M205.83,102a.68.68,0,0,1-.68.67.68.68,0,0,1,0-1.35.68.68,0,0,1,.68.68"/><path id="Fill-442" class="cls-3" d="M4.38,111.61a.67.67,0,0,1-.67.67.68.68,0,0,1-.68-.67.69.69,0,0,1,.68-.68.68.68,0,0,1,.67.68"/><path id="Fill-444" class="cls-3" d="M15,111.61a.67.67,0,0,1-1.34,0,.67.67,0,1,1,1.34,0"/><path id="Fill-446" class="cls-3" d="M25.59,111.61a.68.68,0,1,1-.68-.68.68.68,0,0,1,.68.68"/><path id="Fill-448" class="cls-3" d="M36.19,111.61a.68.68,0,0,1-1.35,0,.68.68,0,1,1,1.35,0"/><path id="Fill-450" class="cls-3" d="M46.79,111.61a.67.67,0,0,1-.67.67.68.68,0,0,1-.68-.67.69.69,0,0,1,.68-.68.68.68,0,0,1,.67.68"/><path id="Fill-452" class="cls-3" d="M57.39,111.61a.67.67,0,0,1-1.34,0,.67.67,0,1,1,1.34,0"/><path id="Fill-454" class="cls-3" d="M68,111.61a.68.68,0,0,1-.68.67.67.67,0,0,1-.67-.67.68.68,0,0,1,.67-.68.69.69,0,0,1,.68.68"/><path id="Fill-456" class="cls-3" d="M78.6,111.61a.68.68,0,0,1-1.35,0,.68.68,0,1,1,1.35,0"/><path id="Fill-458" class="cls-3" d="M89.2,111.61a.67.67,0,0,1-.67.67.68.68,0,0,1-.68-.67.69.69,0,0,1,.68-.68.68.68,0,0,1,.67.68"/><path id="Fill-460" class="cls-3" d="M99.8,111.61a.67.67,0,0,1-1.34,0,.67.67,0,1,1,1.34,0"/><path id="Fill-462" class="cls-3" d="M110.41,111.61a.68.68,0,0,1-.68.67.67.67,0,0,1-.67-.67.68.68,0,0,1,.67-.68.69.69,0,0,1,.68.68"/><path id="Fill-464" class="cls-3" d="M121,111.61a.68.68,0,1,1-.68-.68.68.68,0,0,1,.68.68"/><path id="Fill-466" class="cls-3" d="M131.61,111.61a.68.68,0,0,1-1.35,0,.68.68,0,1,1,1.35,0"/><path id="Fill-468" class="cls-3" d="M142.21,111.61a.67.67,0,1,1-1.34,0,.67.67,0,1,1,1.34,0"/><path id="Fill-470" class="cls-3" d="M152.82,111.61a.68.68,0,0,1-.68.67.67.67,0,0,1-.67-.67.68.68,0,0,1,.67-.68.69.69,0,0,1,.68.68"/><path id="Fill-472" class="cls-3" d="M163.42,111.61a.68.68,0,1,1-.68-.68.68.68,0,0,1,.68.68"/><path id="Fill-474" class="cls-3" d="M174,111.61a.68.68,0,0,1-1.35,0,.68.68,0,1,1,1.35,0"/><path id="Fill-476" class="cls-3" d="M184.62,111.61a.67.67,0,0,1-.67.67.68.68,0,0,1-.68-.67.69.69,0,0,1,.68-.68.68.68,0,0,1,.67.68"/><path id="Fill-478" class="cls-3" d="M195.22,111.61a.67.67,0,1,1-1.34,0,.67.67,0,1,1,1.34,0"/><path id="Fill-480" class="cls-3" d="M205.83,111.61a.68.68,0,0,1-.68.67.67.67,0,0,1-.67-.67.68.68,0,0,1,.67-.68.69.69,0,0,1,.68.68"/><path id="Fill-482" class="cls-3" d="M4.38,121.23a.67.67,0,0,1-.67.67.68.68,0,0,1-.68-.67.69.69,0,0,1,.68-.68.68.68,0,0,1,.67.68"/><path id="Fill-484" class="cls-3" d="M15,121.23a.67.67,0,0,1-1.34,0,.67.67,0,1,1,1.34,0"/><path id="Fill-486" class="cls-3" d="M25.59,121.23a.68.68,0,1,1-.68-.68.68.68,0,0,1,.68.68"/><path id="Fill-488" class="cls-3" d="M36.19,121.23a.68.68,0,0,1-1.35,0,.68.68,0,1,1,1.35,0"/><path id="Fill-490" class="cls-3" d="M46.79,121.23a.67.67,0,0,1-.67.67.68.68,0,0,1-.68-.67.69.69,0,0,1,.68-.68.68.68,0,0,1,.67.68"/><path id="Fill-492" class="cls-3" d="M57.39,121.23a.67.67,0,0,1-1.34,0,.67.67,0,1,1,1.34,0"/><path id="Fill-494" class="cls-3" d="M68,121.23a.68.68,0,0,1-.68.67.67.67,0,0,1-.67-.67.68.68,0,0,1,.67-.68.69.69,0,0,1,.68.68"/><path id="Fill-496" class="cls-3" d="M78.6,121.23a.68.68,0,0,1-1.35,0,.68.68,0,1,1,1.35,0"/><path id="Fill-498" class="cls-3" d="M89.2,121.23a.67.67,0,0,1-.67.67.68.68,0,0,1-.68-.67.69.69,0,0,1,.68-.68.68.68,0,0,1,.67.68"/><path id="Fill-500" class="cls-3" d="M99.8,121.23a.67.67,0,0,1-1.34,0,.67.67,0,1,1,1.34,0"/><path id="Fill-502" class="cls-3" d="M110.41,121.23a.68.68,0,0,1-.68.67.67.67,0,0,1-.67-.67.68.68,0,0,1,.67-.68.69.69,0,0,1,.68.68"/><path id="Fill-504" class="cls-3" d="M121,121.23a.68.68,0,1,1-.68-.68.68.68,0,0,1,.68.68"/><path id="Fill-506" class="cls-3" d="M131.61,121.23a.68.68,0,0,1-1.35,0,.68.68,0,1,1,1.35,0"/><path id="Fill-508" class="cls-3" d="M142.21,121.23a.67.67,0,0,1-1.34,0,.67.67,0,1,1,1.34,0"/><path id="Fill-510" class="cls-3" d="M152.82,121.23a.68.68,0,0,1-.68.67.67.67,0,0,1-.67-.67.68.68,0,0,1,.67-.68.69.69,0,0,1,.68.68"/><path id="Fill-512" class="cls-3" d="M163.42,121.23a.68.68,0,1,1-.68-.68.68.68,0,0,1,.68.68"/><path id="Fill-514" class="cls-3" d="M174,121.23a.68.68,0,0,1-1.35,0,.68.68,0,1,1,1.35,0"/><path id="Fill-516" class="cls-3" d="M184.62,121.23a.67.67,0,0,1-.67.67.68.68,0,0,1-.68-.67.69.69,0,0,1,.68-.68.68.68,0,0,1,.67.68"/><path id="Fill-518" class="cls-3" d="M195.22,121.23a.67.67,0,1,1-1.34,0,.67.67,0,1,1,1.34,0"/><path id="Fill-520" class="cls-3" d="M205.83,121.23a.68.68,0,0,1-.68.67.67.67,0,0,1-.67-.67.68.68,0,0,1,.67-.68.69.69,0,0,1,.68.68"/><path id="Fill-522" class="cls-3" d="M4.38,130.85a.67.67,0,0,1-.67.67.67.67,0,1,1,0-1.34.67.67,0,0,1,.67.67"/><path id="Fill-524" class="cls-3" d="M15,130.85a.67.67,0,1,1-.67-.67.67.67,0,0,1,.67.67"/><path id="Fill-526" class="cls-3" d="M25.59,130.85a.68.68,0,1,1-.68-.67.67.67,0,0,1,.68.67"/><path id="Fill-528" class="cls-3" d="M36.19,130.85a.68.68,0,1,1-.67-.67.67.67,0,0,1,.67.67"/><path id="Fill-530" class="cls-3" d="M46.79,130.85a.67.67,0,0,1-.67.67.67.67,0,1,1,0-1.34.67.67,0,0,1,.67.67"/><path id="Fill-532" class="cls-3" d="M57.39,130.85a.67.67,0,1,1-.67-.67.67.67,0,0,1,.67.67"/><path id="Fill-534" class="cls-3" d="M68,130.85a.68.68,0,0,1-.68.67.67.67,0,1,1,0-1.34.68.68,0,0,1,.68.67"/><path id="Fill-536" class="cls-3" d="M78.6,130.85a.68.68,0,1,1-.67-.67.67.67,0,0,1,.67.67"/><path id="Fill-538" class="cls-3" d="M89.2,130.85a.67.67,0,0,1-.67.67.67.67,0,1,1,0-1.34.67.67,0,0,1,.67.67"/><path id="Fill-540" class="cls-3" d="M99.8,130.85a.67.67,0,1,1-.67-.67.67.67,0,0,1,.67.67"/><path id="Fill-542" class="cls-3" d="M110.41,130.85a.68.68,0,0,1-.68.67.67.67,0,0,1,0-1.34.68.68,0,0,1,.68.67"/><path id="Fill-544" class="cls-3" d="M121,130.85a.68.68,0,1,1-.68-.67.67.67,0,0,1,.68.67"/><path id="Fill-546" class="cls-3" d="M131.61,130.85a.68.68,0,1,1-.67-.67.67.67,0,0,1,.67.67"/><path id="Fill-548" class="cls-3" d="M142.21,130.85a.67.67,0,1,1-.67-.67.67.67,0,0,1,.67.67"/><path id="Fill-550" class="cls-3" d="M152.82,130.85a.68.68,0,0,1-.68.67.67.67,0,0,1,0-1.34.68.68,0,0,1,.68.67"/><path id="Fill-552" class="cls-3" d="M163.42,130.85a.68.68,0,1,1-.68-.67.67.67,0,0,1,.68.67"/><path id="Fill-554" class="cls-3" d="M174,130.85a.68.68,0,1,1-.67-.67.67.67,0,0,1,.67.67"/><path id="Fill-556" class="cls-3" d="M184.62,130.85a.67.67,0,0,1-.67.67.67.67,0,1,1,0-1.34.67.67,0,0,1,.67.67"/><path id="Fill-558" class="cls-3" d="M195.22,130.85a.67.67,0,1,1-.67-.67.67.67,0,0,1,.67.67"/><path id="Fill-560" class="cls-3" d="M205.83,130.85a.68.68,0,0,1-.68.67.67.67,0,1,1,0-1.34.68.68,0,0,1,.68.67"/><path id="Fill-562" class="cls-3" d="M4.38,140.47a.67.67,0,0,1-.67.67.67.67,0,1,1,0-1.34.67.67,0,0,1,.67.67"/><path id="Fill-564" class="cls-3" d="M15,140.47a.67.67,0,1,1-.67-.67.67.67,0,0,1,.67.67"/><path id="Fill-566" class="cls-3" d="M25.59,140.47a.68.68,0,1,1-.68-.67.67.67,0,0,1,.68.67"/><path id="Fill-568" class="cls-3" d="M36.19,140.47a.68.68,0,1,1-.67-.67.67.67,0,0,1,.67.67"/><path id="Fill-570" class="cls-3" d="M46.79,140.47a.67.67,0,0,1-.67.67.67.67,0,1,1,0-1.34.67.67,0,0,1,.67.67"/><path id="Fill-572" class="cls-3" d="M57.39,140.47a.67.67,0,1,1-.67-.67.67.67,0,0,1,.67.67"/><path id="Fill-574" class="cls-3" d="M68,140.47a.68.68,0,0,1-.68.67.67.67,0,0,1,0-1.34.68.68,0,0,1,.68.67"/><path id="Fill-576" class="cls-3" d="M78.6,140.47a.68.68,0,1,1-.67-.67.67.67,0,0,1,.67.67"/><path id="Fill-578" class="cls-3" d="M89.2,140.47a.67.67,0,0,1-.67.67.67.67,0,1,1,0-1.34.67.67,0,0,1,.67.67"/><path id="Fill-580" class="cls-3" d="M99.8,140.47a.67.67,0,1,1-.67-.67.67.67,0,0,1,.67.67"/><path id="Fill-582" class="cls-3" d="M110.41,140.47a.68.68,0,0,1-.68.67.67.67,0,1,1,0-1.34.68.68,0,0,1,.68.67"/><path id="Fill-584" class="cls-3" d="M121,140.47a.68.68,0,1,1-.68-.67.67.67,0,0,1,.68.67"/><path id="Fill-586" class="cls-3" d="M131.61,140.47a.68.68,0,1,1-.67-.67.67.67,0,0,1,.67.67"/><path id="Fill-588" class="cls-3" d="M142.21,140.47a.67.67,0,1,1-.67-.67.67.67,0,0,1,.67.67"/><path id="Fill-590" class="cls-3" d="M152.82,140.47a.68.68,0,0,1-.68.67.67.67,0,0,1,0-1.34.68.68,0,0,1,.68.67"/><path id="Fill-592" class="cls-3" d="M163.42,140.47a.68.68,0,1,1-.68-.67.67.67,0,0,1,.68.67"/><path id="Fill-594" class="cls-3" d="M174,140.47a.68.68,0,1,1-.67-.67.67.67,0,0,1,.67.67"/><path id="Fill-596" class="cls-3" d="M184.62,140.47a.67.67,0,0,1-.67.67.67.67,0,1,1,0-1.34.67.67,0,0,1,.67.67"/><path id="Fill-598" class="cls-3" d="M195.22,140.47a.67.67,0,1,1-.67-.67.67.67,0,0,1,.67.67"/><path id="Fill-600" class="cls-3" d="M205.83,140.47a.68.68,0,0,1-.68.67.67.67,0,1,1,0-1.34.68.68,0,0,1,.68.67"/><path id="Fill-602" class="cls-3" d="M4.38,150.09a.67.67,0,0,1-.67.67.67.67,0,1,1,0-1.34.67.67,0,0,1,.67.67"/><path id="Fill-604" class="cls-3" d="M15,150.09a.67.67,0,1,1-.67-.67.67.67,0,0,1,.67.67"/><path id="Fill-606" class="cls-3" d="M25.59,150.09a.68.68,0,1,1-.68-.67.67.67,0,0,1,.68.67"/><path id="Fill-608" class="cls-3" d="M36.19,150.09a.68.68,0,1,1-.67-.67.67.67,0,0,1,.67.67"/><path id="Fill-610" class="cls-3" d="M46.79,150.09a.67.67,0,0,1-.67.67.67.67,0,1,1,0-1.34.67.67,0,0,1,.67.67"/><path id="Fill-612" class="cls-3" d="M57.39,150.09a.67.67,0,1,1-.67-.67.67.67,0,0,1,.67.67"/><path id="Fill-614" class="cls-3" d="M68,150.09a.68.68,0,0,1-.68.67.67.67,0,0,1,0-1.34.68.68,0,0,1,.68.67"/><path id="Fill-616" class="cls-3" d="M78.6,150.09a.68.68,0,1,1-.67-.67.67.67,0,0,1,.67.67"/><path id="Fill-618" class="cls-3" d="M89.2,150.09a.67.67,0,0,1-.67.67.67.67,0,1,1,0-1.34.67.67,0,0,1,.67.67"/><path id="Fill-620" class="cls-3" d="M99.8,150.09a.67.67,0,1,1-.67-.67.67.67,0,0,1,.67.67"/><path id="Fill-622" class="cls-3" d="M110.41,150.09a.68.68,0,0,1-.68.67.67.67,0,0,1,0-1.34.68.68,0,0,1,.68.67"/><path id="Fill-624" class="cls-3" d="M121,150.09a.68.68,0,1,1-.68-.67.67.67,0,0,1,.68.67"/><path id="Fill-626" class="cls-3" d="M131.61,150.09a.68.68,0,1,1-.67-.67.67.67,0,0,1,.67.67"/><path id="Fill-628" class="cls-3" d="M142.21,150.09a.67.67,0,1,1-.67-.67.67.67,0,0,1,.67.67"/><path id="Fill-630" class="cls-3" d="M152.82,150.09a.68.68,0,0,1-.68.67.67.67,0,0,1,0-1.34.68.68,0,0,1,.68.67"/><path id="Fill-632" class="cls-3" d="M163.42,150.09a.68.68,0,1,1-.68-.67.67.67,0,0,1,.68.67"/><path id="Fill-634" class="cls-3" d="M174,150.09a.68.68,0,1,1-.67-.67.67.67,0,0,1,.67.67"/><path id="Fill-636" class="cls-3" d="M184.62,150.09a.67.67,0,0,1-.67.67.67.67,0,1,1,0-1.34.67.67,0,0,1,.67.67"/><path id="Fill-638" class="cls-3" d="M195.22,150.09a.67.67,0,1,1-.67-.67.67.67,0,0,1,.67.67"/><path id="Fill-640" class="cls-3" d="M205.83,150.09a.68.68,0,0,1-.68.67.67.67,0,1,1,0-1.34.68.68,0,0,1,.68.67"/><path id="Fill-642" class="cls-3" d="M4.38,159.71a.68.68,0,0,1-.67.68.69.69,0,0,1-.68-.68.68.68,0,0,1,.68-.67.67.67,0,0,1,.67.67"/><path id="Fill-644" class="cls-3" d="M15,159.71a.67.67,0,1,1-1.34,0,.67.67,0,1,1,1.34,0"/><path id="Fill-646" class="cls-3" d="M25.59,159.71a.68.68,0,1,1-1.35,0,.68.68,0,0,1,1.35,0"/><path id="Fill-648" class="cls-3" d="M36.19,159.71a.68.68,0,1,1-.67-.67.67.67,0,0,1,.67.67"/><path id="Fill-650" class="cls-3" d="M46.79,159.71a.68.68,0,0,1-.67.68.69.69,0,0,1-.68-.68.68.68,0,0,1,.68-.67.67.67,0,0,1,.67.67"/><path id="Fill-652" class="cls-3" d="M57.39,159.71a.67.67,0,1,1-1.34,0,.67.67,0,0,1,1.34,0"/><path id="Fill-654" class="cls-3" d="M68,159.71a.69.69,0,0,1-.68.68.68.68,0,0,1-.67-.68.67.67,0,0,1,.67-.67.68.68,0,0,1,.68.67"/><path id="Fill-656" class="cls-3" d="M78.6,159.71a.68.68,0,1,1-.67-.67.67.67,0,0,1,.67.67"/><path id="Fill-658" class="cls-3" d="M89.2,159.71a.68.68,0,0,1-.67.68.69.69,0,0,1-.68-.68.68.68,0,0,1,.68-.67.67.67,0,0,1,.67.67"/><path id="Fill-660" class="cls-3" d="M99.8,159.71a.67.67,0,1,1-1.34,0,.67.67,0,1,1,1.34,0"/><path id="Fill-662" class="cls-3" d="M110.41,159.71a.69.69,0,0,1-.68.68.68.68,0,0,1-.67-.68.67.67,0,0,1,.67-.67.68.68,0,0,1,.68.67"/><path id="Fill-664" class="cls-3" d="M121,159.71a.68.68,0,1,1-1.35,0,.68.68,0,0,1,1.35,0"/><path id="Fill-666" class="cls-3" d="M131.61,159.71a.68.68,0,1,1-.67-.67.67.67,0,0,1,.67.67"/><path id="Fill-668" class="cls-3" d="M142.21,159.71a.67.67,0,1,1-1.34,0,.67.67,0,1,1,1.34,0"/><path id="Fill-670" class="cls-3" d="M152.82,159.71a.69.69,0,0,1-.68.68.68.68,0,0,1-.67-.68.67.67,0,0,1,.67-.67.68.68,0,0,1,.68.67"/><path id="Fill-672" class="cls-3" d="M163.42,159.71a.68.68,0,1,1-1.35,0,.68.68,0,0,1,1.35,0"/><path id="Fill-674" class="cls-3" d="M174,159.71a.68.68,0,1,1-.67-.67.67.67,0,0,1,.67.67"/><path id="Fill-676" class="cls-3" d="M184.62,159.71a.68.68,0,0,1-.67.68.69.69,0,0,1-.68-.68A.68.68,0,0,1,184,159a.67.67,0,0,1,.67.67"/><path id="Fill-678" class="cls-3" d="M195.22,159.71a.67.67,0,1,1-1.34,0,.67.67,0,0,1,1.34,0"/><path id="Fill-680" class="cls-3" d="M205.83,159.71a.69.69,0,0,1-.68.68.68.68,0,0,1-.67-.68.67.67,0,0,1,.67-.67.68.68,0,0,1,.68.67"/><path id="Fill-682" class="cls-3" d="M217.29,5.78a.68.68,0,0,1-1.35,0,.68.68,0,1,1,1.35,0"/><path id="Fill-684" class="cls-3" d="M227.89,5.78a.67.67,0,0,1-.67.67.68.68,0,0,1-.68-.67.69.69,0,0,1,.68-.68.68.68,0,0,1,.67.68"/><path id="Fill-686" class="cls-3" d="M238.49,5.78a.67.67,0,1,1-1.34,0,.67.67,0,1,1,1.34,0"/><path id="Fill-688" class="cls-3" d="M249.1,5.78a.68.68,0,0,1-.68.67.67.67,0,0,1-.67-.67.68.68,0,0,1,.67-.68.69.69,0,0,1,.68.68"/><path id="Fill-690" class="cls-3" d="M259.7,5.78A.68.68,0,1,1,259,5.1a.68.68,0,0,1,.68.68"/><path id="Fill-692" class="cls-3" d="M217.29,15.4a.68.68,0,0,1-1.35,0,.68.68,0,1,1,1.35,0"/><path id="Fill-694" class="cls-3" d="M227.89,15.4a.67.67,0,0,1-.67.67.68.68,0,0,1-.68-.67.69.69,0,0,1,.68-.68.68.68,0,0,1,.67.68"/><path id="Fill-696" class="cls-3" d="M238.49,15.4a.67.67,0,1,1-1.34,0,.67.67,0,1,1,1.34,0"/><path id="Fill-698" class="cls-3" d="M249.1,15.4a.68.68,0,0,1-.68.67.67.67,0,0,1-.67-.67.68.68,0,0,1,.67-.68.69.69,0,0,1,.68.68"/><path id="Fill-700" class="cls-3" d="M259.7,15.4a.68.68,0,1,1-.68-.68.68.68,0,0,1,.68.68"/><path id="Fill-702" class="cls-3" d="M217.29,25a.68.68,0,1,1-.67-.67.67.67,0,0,1,.67.67"/><path id="Fill-704" class="cls-3" d="M227.89,25a.67.67,0,0,1-.67.67.67.67,0,1,1,0-1.34.67.67,0,0,1,.67.67"/><path id="Fill-706" class="cls-3" d="M238.49,25a.67.67,0,1,1-.67-.67.67.67,0,0,1,.67.67"/><path id="Fill-708" class="cls-3" d="M249.1,25a.68.68,0,0,1-.68.67.67.67,0,1,1,0-1.34.68.68,0,0,1,.68.67"/><path id="Fill-710" class="cls-3" d="M259.7,25a.68.68,0,1,1-.68-.67.67.67,0,0,1,.68.67"/><path id="Fill-712" class="cls-3" d="M217.29,34.64a.68.68,0,1,1-.67-.67.67.67,0,0,1,.67.67"/><path id="Fill-714" class="cls-3" d="M227.89,34.64a.67.67,0,0,1-.67.67.67.67,0,1,1,0-1.34.67.67,0,0,1,.67.67"/><path id="Fill-716" class="cls-3" d="M238.49,34.64a.67.67,0,1,1-.67-.67.67.67,0,0,1,.67.67"/><path id="Fill-718" class="cls-3" d="M249.1,34.64a.68.68,0,0,1-.68.67.67.67,0,1,1,0-1.34.68.68,0,0,1,.68.67"/><path id="Fill-720" class="cls-3" d="M259.7,34.64A.68.68,0,1,1,259,34a.67.67,0,0,1,.68.67"/><path id="Fill-722" class="cls-3" d="M217.29,44.26a.68.68,0,1,1-.67-.67.67.67,0,0,1,.67.67"/><path id="Fill-724" class="cls-3" d="M227.89,44.26a.67.67,0,0,1-.67.67.67.67,0,1,1,0-1.34.67.67,0,0,1,.67.67"/><path id="Fill-726" class="cls-3" d="M238.49,44.26a.67.67,0,1,1-.67-.67.67.67,0,0,1,.67.67"/><path id="Fill-728" class="cls-3" d="M249.1,44.26a.68.68,0,0,1-.68.67.67.67,0,1,1,0-1.34.68.68,0,0,1,.68.67"/><path id="Fill-730" class="cls-3" d="M259.7,44.26a.68.68,0,1,1-.68-.67.67.67,0,0,1,.68.67"/><path id="Fill-732" class="cls-3" d="M217.29,53.88a.68.68,0,1,1-.67-.67.67.67,0,0,1,.67.67"/><path id="Fill-734" class="cls-3" d="M227.89,53.88a.68.68,0,0,1-.67.68.69.69,0,0,1-.68-.68.68.68,0,0,1,.68-.67.67.67,0,0,1,.67.67"/><path id="Fill-736" class="cls-3" d="M238.49,53.88a.67.67,0,1,1-1.34,0,.67.67,0,0,1,1.34,0"/><path id="Fill-738" class="cls-3" d="M249.1,53.88a.69.69,0,0,1-.68.68.68.68,0,0,1-.67-.68.67.67,0,0,1,.67-.67.68.68,0,0,1,.68.67"/><path id="Fill-740" class="cls-3" d="M259.7,53.88a.68.68,0,1,1-1.35,0,.68.68,0,0,1,1.35,0"/><path id="Fill-742" class="cls-3" d="M217.29,63.5a.68.68,0,1,1-.67-.67.67.67,0,0,1,.67.67"/><path id="Fill-744" class="cls-3" d="M227.89,63.5a.67.67,0,0,1-.67.68.68.68,0,1,1,0-1.35.67.67,0,0,1,.67.67"/><path id="Fill-746" class="cls-3" d="M238.49,63.5a.67.67,0,1,1-.67-.67.67.67,0,0,1,.67.67"/><path id="Fill-748" class="cls-3" d="M249.1,63.5a.68.68,0,0,1-.68.68.68.68,0,1,1,.68-.68"/><path id="Fill-750" class="cls-3" d="M259.7,63.5a.68.68,0,1,1-.68-.67.67.67,0,0,1,.68.67"/><path id="Fill-752" class="cls-3" d="M217.29,73.12a.68.68,0,1,1-.67-.67.67.67,0,0,1,.67.67"/><path id="Fill-754" class="cls-3" d="M227.89,73.12a.67.67,0,0,1-.67.68.68.68,0,1,1,0-1.35.67.67,0,0,1,.67.67"/><path id="Fill-756" class="cls-3" d="M238.49,73.12a.67.67,0,1,1-.67-.67.67.67,0,0,1,.67.67"/><path id="Fill-758" class="cls-3" d="M249.1,73.12a.68.68,0,0,1-.68.68.68.68,0,1,1,.68-.68"/><path id="Fill-760" class="cls-3" d="M259.7,73.12a.68.68,0,1,1-.68-.67.67.67,0,0,1,.68.67"/><path id="Fill-762" class="cls-3" d="M217.29,82.74a.68.68,0,1,1-.67-.67.67.67,0,0,1,.67.67"/><path id="Fill-764" class="cls-3" d="M227.89,82.74a.67.67,0,0,1-.67.68.68.68,0,1,1,0-1.35.67.67,0,0,1,.67.67"/><path id="Fill-766" class="cls-3" d="M238.49,82.74a.67.67,0,1,1-.67-.67.67.67,0,0,1,.67.67"/><path id="Fill-768" class="cls-3" d="M249.1,82.74a.68.68,0,0,1-.68.68.68.68,0,1,1,.68-.68"/><path id="Fill-770" class="cls-3" d="M259.7,82.74a.68.68,0,1,1-.68-.67.67.67,0,0,1,.68.67"/><path id="Fill-772" class="cls-3" d="M217.29,92.37a.68.68,0,1,1-.67-.68.67.67,0,0,1,.67.68"/><path id="Fill-774" class="cls-3" d="M227.89,92.37a.67.67,0,0,1-.67.67.68.68,0,1,1,.67-.67"/><path id="Fill-776" class="cls-3" d="M238.49,92.37a.67.67,0,1,1-.67-.68.67.67,0,0,1,.67.68"/><path id="Fill-778" class="cls-3" d="M249.1,92.37a.68.68,0,0,1-.68.67.68.68,0,0,1,0-1.35.68.68,0,0,1,.68.68"/><path id="Fill-780" class="cls-3" d="M259.7,92.37a.68.68,0,1,1-.68-.68.67.67,0,0,1,.68.68"/><path id="Fill-782" class="cls-3" d="M217.29,102a.68.68,0,1,1-.67-.68.67.67,0,0,1,.67.68"/><path id="Fill-784" class="cls-3" d="M227.89,102a.67.67,0,0,1-.67.67.68.68,0,1,1,.67-.67"/><path id="Fill-786" class="cls-3" d="M238.49,102a.67.67,0,1,1-.67-.68.67.67,0,0,1,.67.68"/><path id="Fill-788" class="cls-3" d="M249.1,102a.68.68,0,0,1-.68.67.68.68,0,0,1,0-1.35.68.68,0,0,1,.68.68"/><path id="Fill-790" class="cls-3" d="M259.7,102a.68.68,0,1,1-.68-.68.67.67,0,0,1,.68.68"/><path id="Fill-792" class="cls-3" d="M217.29,111.61a.68.68,0,0,1-1.35,0,.68.68,0,1,1,1.35,0"/><path id="Fill-794" class="cls-3" d="M227.89,111.61a.67.67,0,0,1-.67.67.68.68,0,0,1-.68-.67.69.69,0,0,1,.68-.68.68.68,0,0,1,.67.68"/><path id="Fill-796" class="cls-3" d="M238.49,111.61a.67.67,0,0,1-1.34,0,.67.67,0,1,1,1.34,0"/><path id="Fill-798" class="cls-3" d="M249.1,111.61a.68.68,0,0,1-.68.67.67.67,0,0,1-.67-.67.68.68,0,0,1,.67-.68.69.69,0,0,1,.68.68"/><path id="Fill-800" class="cls-3" d="M259.7,111.61a.68.68,0,1,1-.68-.68.68.68,0,0,1,.68.68"/><path id="Fill-802" class="cls-3" d="M217.29,121.23a.68.68,0,0,1-1.35,0,.68.68,0,1,1,1.35,0"/><path id="Fill-804" class="cls-3" d="M227.89,121.23a.67.67,0,0,1-.67.67.68.68,0,0,1-.68-.67.69.69,0,0,1,.68-.68.68.68,0,0,1,.67.68"/><path id="Fill-806" class="cls-3" d="M238.49,121.23a.67.67,0,0,1-1.34,0,.67.67,0,1,1,1.34,0"/><path id="Fill-808" class="cls-3" d="M249.1,121.23a.68.68,0,0,1-.68.67.67.67,0,0,1-.67-.67.68.68,0,0,1,.67-.68.69.69,0,0,1,.68.68"/><path id="Fill-810" class="cls-3" d="M259.7,121.23a.68.68,0,1,1-.68-.68.68.68,0,0,1,.68.68"/><path id="Fill-812" class="cls-3" d="M217.29,130.85a.68.68,0,1,1-.67-.67.67.67,0,0,1,.67.67"/><path id="Fill-814" class="cls-3" d="M227.89,130.85a.67.67,0,0,1-.67.67.67.67,0,1,1,0-1.34.67.67,0,0,1,.67.67"/><path id="Fill-816" class="cls-3" d="M238.49,130.85a.67.67,0,1,1-.67-.67.67.67,0,0,1,.67.67"/><path id="Fill-818" class="cls-3" d="M249.1,130.85a.68.68,0,0,1-.68.67.67.67,0,0,1,0-1.34.68.68,0,0,1,.68.67"/><path id="Fill-820" class="cls-3" d="M259.7,130.85a.68.68,0,1,1-.68-.67.67.67,0,0,1,.68.67"/><path id="Fill-822" class="cls-3" d="M217.29,140.47a.68.68,0,1,1-.67-.67.67.67,0,0,1,.67.67"/><path id="Fill-824" class="cls-3" d="M227.89,140.47a.67.67,0,0,1-.67.67.67.67,0,1,1,0-1.34.67.67,0,0,1,.67.67"/><path id="Fill-826" class="cls-3" d="M238.49,140.47a.67.67,0,1,1-.67-.67.67.67,0,0,1,.67.67"/><path id="Fill-828" class="cls-3" d="M249.1,140.47a.68.68,0,0,1-.68.67.67.67,0,0,1,0-1.34.68.68,0,0,1,.68.67"/><path id="Fill-830" class="cls-3" d="M259.7,140.47a.68.68,0,1,1-.68-.67.67.67,0,0,1,.68.67"/><path id="Fill-832" class="cls-3" d="M217.29,150.09a.68.68,0,1,1-.67-.67.67.67,0,0,1,.67.67"/><path id="Fill-834" class="cls-3" d="M227.89,150.09a.67.67,0,0,1-.67.67.67.67,0,1,1,0-1.34.67.67,0,0,1,.67.67"/><path id="Fill-836" class="cls-3" d="M238.49,150.09a.67.67,0,1,1-.67-.67.67.67,0,0,1,.67.67"/><path id="Fill-838" class="cls-3" d="M249.1,150.09a.68.68,0,0,1-.68.67.67.67,0,0,1,0-1.34.68.68,0,0,1,.68.67"/><path id="Fill-840" class="cls-3" d="M259.7,150.09a.68.68,0,1,1-.68-.67.67.67,0,0,1,.68.67"/><path id="Fill-842" class="cls-3" d="M217.29,159.71a.68.68,0,1,1-.67-.67.67.67,0,0,1,.67.67"/><path id="Fill-844" class="cls-3" d="M227.89,159.71a.68.68,0,0,1-.67.68.69.69,0,0,1-.68-.68.68.68,0,0,1,.68-.67.67.67,0,0,1,.67.67"/><path id="Fill-846" class="cls-3" d="M238.49,159.71a.67.67,0,1,1-1.34,0,.67.67,0,1,1,1.34,0"/><path id="Fill-848" class="cls-3" d="M249.1,159.71a.69.69,0,0,1-.68.68.68.68,0,0,1-.67-.68.67.67,0,0,1,.67-.67.68.68,0,0,1,.68.67"/><path id="Fill-850" class="cls-3" d="M259.7,159.71a.68.68,0,1,1-1.35,0,.68.68,0,0,1,1.35,0"/><g class="cls-4"><polygon id="Fill-852" class="cls-5" points="99.67 54.98 162.49 54.98 162.49 50.66 99.67 50.66 99.67 54.98"/></g><g class="cls-4"><polygon id="Fill-854" class="cls-6" points="110.53 123.74 151.63 123.74 151.63 117.99 110.53 117.99 110.53 123.74"/></g><g class="cls-4"><polygon id="Fill-855" class="cls-5" points="128.91 114.14 133.24 114.14 133.24 51.32 128.91 51.32 128.91 114.14"/></g><g class="cls-4"><path id="Fill-856" class="cls-3" d="M138,52.82a6.93,6.93,0,1,1-6.92-6.93A6.92,6.92,0,0,1,138,52.82"/></g><g class="cls-4"><path id="Fill-857" class="cls-2" d="M134.29,52.82a3.21,3.21,0,1,1-3.21-3.21,3.21,3.21,0,0,1,3.21,3.21"/></g><g class="cls-4"><path id="Fill-858" class="cls-1" d="M86.87,84.51a.71.71,0,0,1-.65-1L99,54.88a.71.71,0,0,1,1.3,0L113,83.51a.71.71,0,1,1-1.29.58L99.6,56.91,87.51,84.09a.7.7,0,0,1-.64.42"/></g><g class="cls-4"><path id="Fill-859" class="cls-7" d="M82.2,83.46H117a10,10,0,0,1-10,10H92.19a10,10,0,0,1-10-10"/></g><g class="cls-4"><path id="Fill-860" class="cls-1" d="M175.17,84.51a.72.72,0,0,1-.65-.42L162.44,56.91,150.35,84.09a.71.71,0,1,1-1.29-.58l12.73-28.63a.71.71,0,0,1,1.29,0l12.73,28.63a.71.71,0,0,1-.35.94.79.79,0,0,1-.29.06"/></g><g class="cls-4"><path id="Fill-861" class="cls-7" d="M145,83.46H179.8a10,10,0,0,1-10,10H155a10,10,0,0,1-10-10"/></g><g class="cls-4"><path id="Fill-862" class="cls-6" d="M102.43,53.06a2.83,2.83,0,1,1-2.83-2.83,2.83,2.83,0,0,1,2.83,2.83"/></g><g class="cls-4"><path id="Fill-863" class="cls-6" d="M165.32,53.06a2.84,2.84,0,1,1-2.83-2.83,2.83,2.83,0,0,1,2.83,2.83"/></g><g class="cls-4"><polygon id="Fill-864" class="cls-5" points="117.03 118.01 145.12 118.01 145.12 112.83 117.03 112.83 117.03 118.01"/></g></g></g></g></g></g></g></svg>