<svg id="Layer_1" data-name="Layer 1" xmlns="http://www.w3.org/2000/svg" width="40" height="40" viewBox="0 0 40 40"><defs><style>.cls-1{fill:#1d4354;}.cls-2{fill:rgb(255, 115, 0);}.cls-3{fill:#fff;}</style></defs><path class="cls-1" d="M34.25,14.25A14.25,14.25,0,1,0,13.42,26.87a1.42,1.42,0,0,1,.64,1l1,4a1.17,1.17,0,0,0,1.14.94h7.66A1.17,1.17,0,0,0,25,31.86l1-4a1.36,1.36,0,0,1,.64-1A14.23,14.23,0,0,0,34.25,14.25Z"/><rect class="cls-2" x="15.47" y="34.74" width="9.06" height="2.12" rx="0.3"/><rect class="cls-2" x="15.47" y="37.88" width="9.06" height="2.12" rx="0.3"/><path class="cls-3" d="M27.76,11.37a.23.23,0,0,0-.25-.2l-1.42.16a.25.25,0,0,1-.17-.13,6.14,6.14,0,0,0-.56-1.08.21.21,0,0,1,0-.26l.84-1a.23.23,0,0,0,0-.31L23.87,6.62a.22.22,0,0,0-.31,0l-.84,1a.23.23,0,0,1-.26.06,5.59,5.59,0,0,0-1.16-.36.22.22,0,0,1-.17-.2L21,5.86a.22.22,0,0,0-.24-.2l-3,.27a.22.22,0,0,0-.2.24l.12,1.31a.22.22,0,0,1-.14.22,6.94,6.94,0,0,0-1.08.57.21.21,0,0,1-.26,0l-1-.83a.22.22,0,0,0-.31,0L13,9.75a.23.23,0,0,0,0,.32l1,.83a.23.23,0,0,1,.06.26,5.78,5.78,0,0,0-.36,1.16.24.24,0,0,1-.07.12l-1.54.17a.21.21,0,0,0-.2.25l.33,3a.23.23,0,0,0,.25.2l1.37-.15a.21.21,0,0,1,.2.13,6.94,6.94,0,0,0,.57,1.08.21.21,0,0,1,0,.26l-.83,1a.21.21,0,0,0,0,.31l2.3,1.92a.21.21,0,0,0,.31,0l.84-1a.23.23,0,0,1,.26-.07,6.53,6.53,0,0,0,1.16.37.22.22,0,0,1,.18.19L19,21.4a.24.24,0,0,0,.25.21l3-.28a.22.22,0,0,0,.21-.24l-.12-1.3a.22.22,0,0,1,.13-.23A6.14,6.14,0,0,0,23.5,19a.21.21,0,0,1,.26,0l1,.84a.22.22,0,0,0,.31,0L27,17.51a.21.21,0,0,0,0-.31l-1-.84a.22.22,0,0,1-.07-.25,6.64,6.64,0,0,0,.37-1.17.21.21,0,0,1,.1-.13l1.52-.17a.21.21,0,0,0,.2-.25ZM20,16.73a3.1,3.1,0,1,1,3.1-3.1A3.1,3.1,0,0,1,20,16.73Z"/></svg>