<svg id="Layer_1" data-name="Layer 1" xmlns="http://www.w3.org/2000/svg" width="40" height="40" viewBox="0 0 40 40"><defs><style>.cls-1{fill:#1d4354;}.cls-2{fill:#f2f2f2;}.cls-3{fill:rgb(255, 115, 0);}</style></defs><title>Digital Transformation</title><path class="cls-1" d="M26.46,25.62a4.44,4.44,0,0,0,0-8.88,3.46,3.46,0,0,0-.46,0,6.46,6.46,0,0,0-12,0,3.62,3.62,0,0,0-.47,0,4.44,4.44,0,1,0,0,8.88Z"/><path class="cls-2" d="M3.72,14.62a.81.81,0,0,0,.27.05.79.79,0,0,0,.74-.52,16.36,16.36,0,0,1,7.84-8.81.79.79,0,0,0,.34-1.06.78.78,0,0,0-1.06-.34,17.9,17.9,0,0,0-8.6,9.66A.8.8,0,0,0,3.72,14.62Z"/><path class="cls-2" d="M13.08,34.65a16.54,16.54,0,0,1-8.4-9.19.77.77,0,0,0-.4-.45.81.81,0,0,0-.61,0,.79.79,0,0,0-.47,1,18,18,0,0,0,9.21,10.07.77.77,0,0,0,.34.08.79.79,0,0,0,.74-1.06A.74.74,0,0,0,13.08,34.65Z"/><path class="cls-2" d="M28.27,5.78a16.45,16.45,0,0,1,7,8.27.78.78,0,0,0,.74.51.87.87,0,0,0,.28-.05.77.77,0,0,0,.44-.41.81.81,0,0,0,0-.61,18,18,0,0,0-7.7-9.08.79.79,0,0,0-.79,1.37Z"/><path class="cls-2" d="M36.45,24.75a.8.8,0,0,0-1,.49,16.28,16.28,0,0,1-7.33,8.81.79.79,0,0,0-.37.48.8.8,0,0,0,1.16.89,17.93,17.93,0,0,0,8-9.66A.8.8,0,0,0,36.45,24.75Z"/><circle class="cls-3" cx="37.36" cy="20" r="2.64"/><circle class="cls-3" cx="2.64" cy="20" r="2.64"/><circle class="cls-3" cx="20" cy="2.64" r="2.64"/><circle class="cls-3" cx="20" cy="37.36" r="2.64"/></svg>