<?xml version="1.0" encoding="UTF-8"?>
<svg width="138px" height="22px" viewBox="0 0 138 22" version="1.1" xmlns="http://www.w3.org/2000/svg" xmlns:xlink="http://www.w3.org/1999/xlink">
    <!-- Generator: Sketch 56.3 (81716) - https://sketch.com -->
    <title>logo_samsung</title>
    <desc>Created with Sketch.</desc>
    <g id="Page-1" stroke="none" stroke-width="1" fill="none" fill-rule="evenodd">
        <g id="Quote---Samsung" transform="translate(-211.000000, -50.000000)" fill="#034EA2" fill-rule="nonzero">
            <g id="Quote-3">
                <g id="content" transform="translate(211.000000, 50.000000)">
                    <g id="logo_samsung">
                        <path d="M9.11785582,14.7547114 C9.30683467,15.2294631 9.24691455,15.8378829 9.15472974,16.2066221 C8.99340633,16.8611342 8.55091925,17.5294741 7.24189498,17.5294741 C6.01583704,17.5294741 5.2691401,16.8196511 5.2691401,15.7503073 L5.2691401,13.846691 L0.000778355879,13.846691 L0.000778355879,15.3585219 C0.000778355879,19.7373002 3.44388092,21.0601522 7.13588246,21.0601522 C10.6849975,21.0601522 13.6072559,19.8525312 14.0727892,16.5753613 C14.3124697,14.8791609 14.1373186,13.7683339 14.0543523,13.3581116 C13.224689,9.24666914 5.77615655,8.0206112 5.21843846,5.72060025 C5.14099234,5.38141779 5.13471456,5.02986167 5.2000015,4.68813041 C5.33827871,4.05666447 5.76693806,3.36988766 6.992996,3.36988766 C8.1453061,3.36988766 8.81364595,4.07971068 8.81364595,5.14905444 L8.81364595,6.3658939 L13.7132685,6.3658939 L13.7132685,4.98312179 C13.7132685,0.705746722 9.87377124,0.0374068678 7.09900853,0.0374068678 C3.60520433,0.0374068678 0.752084537,1.1943262 0.231240375,4.39774826 C0.0929631634,5.27350393 0.0699169615,6.0570748 0.277332778,7.04345224 C1.13004225,11.0534914 8.10382293,12.2150199 9.11785582,14.7547114" id="S"></path>
                        <path d="M21.0189145,0.664263559 L17.3776146,20.2950183 L22.6828502,20.2950183 L25.3700374,2.48030427 L25.4806591,2.48030427 L28.0940984,20.2950183 L33.3716787,20.2950183 L29.753425,0.659654318 L21.0189145,0.664263559 Z M50.6793763,0.664263559 L48.2595251,15.6719502 L48.1442941,15.6719502 L45.7290521,0.664263559 L37.7228016,0.664263559 L37.289533,20.2950183 L42.2029832,20.2950183 L42.3228235,2.64623692 L42.4334452,2.64623692 L45.7106152,20.2950183 L50.693204,20.2950183 L53.9749831,2.65084616 L54.0809957,2.65084616 L54.2054452,20.2950183 L59.1142862,20.2950183 L58.6810176,0.659654318 L50.6793763,0.664263559 Z" id="Shape"></path>
                        <g id="S-link" transform="translate(63.824930, 0.000533)">
                            <path d="M9.11707746,14.7173045 C9.30605632,15.1920563 9.24613619,15.800476 9.15395138,16.1692152 C8.99262797,16.8237274 8.55014089,17.4920672 7.24111663,17.4920672 C6.01505869,17.4920672 5.26836175,16.7822442 5.26836175,15.7129004 L5.26836175,13.8092842 L0,13.8092842 L0,15.321115 C0,19.6998934 3.44310256,21.0227453 7.1351041,21.0227453 C10.6842192,21.0227453 13.6064776,19.8151244 14.0720109,16.5379545 C14.3116914,14.841754 14.1365402,13.7309271 14.0535739,13.3207047 C13.2239106,9.20926227 5.77537819,7.98320433 5.2176601,5.68319338 C5.14021399,5.34401093 5.1339362,4.9924548 5.19922314,4.65072354 C5.33750035,4.01925761 5.76615971,3.33248079 6.99221765,3.33248079 C8.14452774,3.33248079 8.8128676,4.04230381 8.8128676,5.11164758 L8.8128676,6.32848703 L13.7124901,6.32848703 L13.7124901,4.94571492 C13.7124901,0.668339854 9.87299288,0 7.09823018,0 C3.60442597,0 0.751306181,1.15691933 0.230462019,4.36034139 C0.0921848075,5.23609707 0.0691386056,6.01966793 0.276554422,7.00604537 C1.12926389,11.0160845 8.10304458,12.1776131 9.11707746,14.7173045" id="S"></path>
                        </g>
                        <path d="M89.4200416,17.354323 C90.7843768,17.354323 91.2038176,16.4140379 91.3006117,15.9346769 C91.3420949,15.7226519 91.3467041,15.436879 91.3467041,15.1833707 L91.3467041,0.664263559 L96.3155054,0.664263559 L96.3155054,14.7362744 C96.3164005,15.1668978 96.3010253,15.5974022 96.2693728,16.0268617 C95.9236798,19.6912078 93.0290768,20.8803918 89.4200416,20.8803918 C85.8063972,20.8803918 82.9117942,19.6912078 82.5661012,16.0268617 C82.5522735,15.8332736 82.5153995,15.0957952 82.5200088,14.7362744 L82.5200088,0.659654318 L87.4887699,0.659654318 L87.4887699,15.1787615 C87.4841607,15.436879 87.4933791,15.7226519 87.5348623,15.9346769 C87.6270471,16.4140379 88.0510972,17.354323 89.4200416,17.354323 L89.4200416,17.354323 Z M113.424965,0.664263559 L113.692301,16.0729541 L113.586289,16.0729541 L109.069233,0.664263559 L101.786634,0.664263559 L101.786634,20.0876025 L106.612508,20.0876025 L106.345172,4.14424004 L106.451185,4.14424004 L111.295496,20.0876025 L118.287714,20.0876025 L118.287714,0.664263559 L113.424965,0.664263559 Z M130.363924,17.1515164 C131.78357,17.1515164 132.281368,16.2527145 132.368943,15.7226519 C132.410427,15.5060176 132.415036,15.2294631 132.415036,14.9851734 L132.415036,12.1274444 L130.400798,12.1274444 L130.400798,9.26971534 L137.356142,9.26971534 L137.356142,14.5334678 C137.356142,14.9022071 137.346923,15.169543 137.287003,15.8240552 C136.964356,19.4008257 133.862337,20.6775853 130.382361,20.6775853 C126.902384,20.6775853 123.804975,19.4008257 123.477719,15.8240552 C123.422408,15.169543 123.40858,14.9022071 123.40858,14.5334678 L123.40858,6.27370909 C123.40858,5.92340683 123.454673,5.30576862 123.491546,4.98312179 C123.929424,1.30955721 126.902384,0.129591675 130.382361,0.129591675 C133.862337,0.129591675 136.913654,1.30033873 137.273175,4.97851255 C137.337705,5.60536924 137.319268,6.26909985 137.319268,6.26909985 L137.319268,6.92822123 L132.368943,6.92822123 L132.368943,5.82661278 C132.368943,5.82661278 132.368943,5.36568874 132.309023,5.07991584 C132.216839,4.64664724 131.848099,3.65105132 130.345487,3.65105132 C128.916622,3.65105132 128.497182,4.5959456 128.391169,5.07991584 C128.331249,5.3380333 128.308203,5.68833557 128.308203,6.00637315 L128.308203,14.9805642 C128.308203,15.2294631 128.317421,15.5060176 128.354295,15.7272611 C128.44648,16.2527145 128.944278,17.1515164 130.363924,17.1515164 L130.363924,17.1515164 Z" id="Shape"></path>
                    </g>
                </g>
            </g>
        </g>
    </g>
</svg>