<svg id="Layer_1" data-name="Layer 1" xmlns="http://www.w3.org/2000/svg" width="40" height="40" viewBox="0 0 40 40"><defs><style>.cls-1{fill:#1d4354;}.cls-2{fill:#fff;}.cls-3{fill:#f3756c;}.cls-4{fill:rgb(255, 115, 0);}.cls-5{fill:#f2f2f2;}</style></defs><path class="cls-1" d="M0,27.77v8.54a.43.43,0,0,0,.43.43H39.57a.43.43,0,0,0,.43-.43V27.77Z"/><path class="cls-2" d="M28.5,33H4.69a.72.72,0,0,1,0-1.43H28.5a.72.72,0,1,1,0,1.43Z"/><circle class="cls-3" cx="33.8" cy="32.26" r="1.02"/><circle class="cls-4" cx="20.03" cy="32.26" r="2.19"/><path class="cls-5" d="M40,27.77v-24a.57.57,0,0,0-.5-.62H.5a.57.57,0,0,0-.5.62v24Z"/><circle class="cls-1" cx="19.93" cy="15.47" r="5.44"/><polygon class="cls-2" points="18.43 12.37 23.09 15.47 18.43 18.58 18.43 12.37"/></svg>