<?xml version="1.0" encoding="UTF-8"?>
<svg width="55px" height="55px" viewBox="0 0 55 55" version="1.1" xmlns="http://www.w3.org/2000/svg" xmlns:xlink="http://www.w3.org/1999/xlink">
    <!-- Generator: Sketch 56.3 (81716) - https://sketch.com -->
    <title>logo_wikimedia</title>
    <desc>Created with Sketch.</desc>
    <defs>
        <polygon id="path-1" points="0 0.2873 54.7798 0.2873 54.7798 48 0 48"></polygon>
    </defs>
    <g id="Page-1" stroke="none" stroke-width="1" fill="none" fill-rule="evenodd">
        <g id="Quote---Microsoft-Copy" transform="translate(-211.000000, -50.000000)">
            <g id="Quote-3">
                <g id="content" transform="translate(211.000000, 50.000000)">
                    <g id="logo_wikimedia">
                        <path d="M10.9175,27.6099 C10.9175,35.9179 17.0685,42.7889 25.0645,43.9189 L25.0645,23.3259 L16.7635,15.0249 C13.1885,18.0459 10.9175,22.5629 10.9175,27.6099" id="Fill-1" fill="#339966"></path>
                        <path d="M29.7153,43.9185 C37.7123,42.7885 43.8633,35.9185 43.8633,27.6095 C43.8633,22.5625 41.5923,18.0455 38.0173,15.0245 L29.7153,23.3265 L29.7153,43.9185 Z" id="Fill-3" fill="#339966"></path>
                        <g id="Group-7" transform="translate(0.000000, 7.000000)">
                            <mask id="mask-2" fill="white">
                                <use xlink:href="#path-1"></use>
                            </mask>
                            <g id="Clip-6"></g>
                            <path d="M46.7578,1.2423 C46.4308,0.9143 46.0958,0.5963 45.7548,0.2873 L40.2578,5.7843 C40.6038,6.0863 40.9428,6.4013 41.2708,6.7293 C44.9778,10.4373 47.0198,15.3673 47.0198,20.6103 C47.0198,25.8533 44.9778,30.7833 41.2708,34.4903 C37.5628,38.1983 32.6328,40.2403 27.3898,40.2403 C22.1468,40.2403 17.2168,38.1983 13.5098,34.4903 C9.8018,30.7833 7.7598,25.8533 7.7598,20.6103 C7.7598,15.3673 9.8018,10.4373 13.5098,6.7293 C13.8378,6.4013 14.1758,6.0863 14.5238,5.7843 L9.0258,0.2873 C8.6848,0.5963 8.3498,0.9143 8.0228,1.2423 C5.5078,3.7563 3.5338,6.6853 2.1538,9.9473 C0.7248,13.3263 -0.0002,16.9143 -0.0002,20.6103 C-0.0002,24.3053 0.7248,27.8933 2.1538,31.2723 C3.5338,34.5343 5.5078,37.4633 8.0228,39.9773 C10.5368,42.4923 13.4658,44.4663 16.7278,45.8463 C20.1068,47.2753 23.6948,48.0003 27.3898,48.0003 C31.0858,48.0003 34.6738,47.2753 38.0528,45.8463 C41.3148,44.4663 44.2438,42.4923 46.7578,39.9773 C49.2718,37.4633 51.2468,34.5343 52.6268,31.2723 C54.0558,27.8933 54.7798,24.3053 54.7798,20.6103 C54.7798,16.9143 54.0558,13.3263 52.6268,9.9473 C51.2468,6.6853 49.2718,3.7563 46.7578,1.2423" id="Fill-5" fill="#006699" mask="url(#mask-2)"></path>
                        </g>
                        <path d="M27.3901,0.0001 C32.3781,0.0001 36.4221,4.0431 36.4221,9.0321 C36.4221,14.0201 32.3781,18.0641 27.3901,18.0641 C22.4021,18.0641 18.3581,14.0201 18.3581,9.0321 C18.3581,4.0431 22.4021,0.0001 27.3901,0.0001" id="Fill-8" fill="#990000"></path>
                    </g>
                </g>
            </g>
        </g>
    </g>
</svg>