<svg id="Layer_1" data-name="Layer 1" xmlns="http://www.w3.org/2000/svg" width="40" height="40" viewBox="0 0 40 40"><defs><style>.cls-1{fill:#e0e0e0;}.cls-2{fill:#1d4354;}.cls-3{fill:rgb(255, 115, 0);}</style></defs><path class="cls-1" d="M37.58,12.67a7.47,7.47,0,0,0,1.83-7.3.44.44,0,0,0-.74-.2l-2.26,2.3a3,3,0,1,1-4.28-4.19L34.38,1a.44.44,0,0,0-.21-.73,7.46,7.46,0,0,0-8.84,10h0L1.77,33.79A3,3,0,1,0,6.06,38L29.62,14.43h0A7.47,7.47,0,0,0,37.58,12.67Z"/><rect class="cls-2" x="3.86" y="15.21" width="23.25" height="1.87" transform="translate(15.02 38.51) rotate(-135)"/><path class="cls-2" d="M2.79,1,7,4.85,8.31,7.17,6.54,8.94,4.21,7.65.39,3.4a.37.37,0,0,1,0-.5L2.29,1A.36.36,0,0,1,2.79,1Z"/><path class="cls-3" d="M27.38,15.77h0a5,5,0,0,1,5,5V39.82a.5.5,0,0,1-.5.5h-9a.5.5,0,0,1-.5-.5V20.74A5,5,0,0,1,27.38,15.77Z" transform="translate(-11.81 27.58) rotate(-45)"/></svg>