<svg id="Layer_1" data-name="Layer 1" xmlns="http://www.w3.org/2000/svg" width="40" height="40" viewBox="0 0 40 40"><defs><style>.cls-1{fill:#f2f2f2;}.cls-2{fill:#1d4354;}.cls-3{fill:#fff;}.cls-4{fill:#d1d1d1;}.cls-5{fill:rgb(255, 115, 0);}</style></defs><path class="cls-1" d="M0,8.58H40a0,0,0,0,1,0,0V36.37a.5.5,0,0,1-.5.5H.5a.5.5,0,0,1-.5-.5V8.58A0,0,0,0,1,0,8.58Z"/><path class="cls-2" d="M40,8.58V3.47a.34.34,0,0,0-.33-.34H.33A.34.34,0,0,0,0,3.47V8.58Z"/><circle class="cls-3" cx="3.33" cy="5.73" r="0.67"/><circle class="cls-3" cx="6.92" cy="5.73" r="0.67"/><circle class="cls-3" cx="10.5" cy="5.73" r="0.67"/><path class="cls-4" d="M8.56,28.4a.39.39,0,0,1-.29-.11.41.41,0,0,1,0-.58l8.09-8.39a.41.41,0,0,1,.51-.07l7.41,4.51L31,17a.41.41,0,0,1,.58,0,.39.39,0,0,1,0,.58l-7,7a.39.39,0,0,1-.5.06l-7.41-4.5L8.85,28.28A.42.42,0,0,1,8.56,28.4Z"/><circle class="cls-5" cx="31.31" cy="17.3" r="1.66"/><circle class="cls-5" cx="24.02" cy="23.93" r="1.66"/><circle class="cls-5" cx="16.72" cy="19.8" r="1.66"/><circle class="cls-5" cx="8.56" cy="27.99" r="1.66"/></svg>