<svg id="Layer_1" data-name="Layer 1" xmlns="http://www.w3.org/2000/svg" width="262" height="165" viewBox="0 0 262 165"><defs><style>.cls-1{fill:#1d4354;}.cls-1,.cls-2,.cls-3,.cls-4,.cls-5,.cls-6{fill-rule:evenodd;}.cls-2{fill:#2f5a6e;}.cls-3{fill:#295164;}.cls-4{fill:#336278;}.cls-5{fill:rgb(255, 115, 0);}.cls-6{fill:#b2b2b2;}</style></defs><title>illo-accounting</title><g id="Page-1"><g id="Group"><g id="Tile-Copy-11"><g id="Stacked-Group"><g id="illo-accounting"><polygon id="Fill-1" class="cls-1" points="0 165 262 165 262 0 0 0 0 165"/><g id="Group-861"><path id="Fill-2" class="cls-2" d="M3.9,5.89a.68.68,0,0,1-.7.7c-.4,0-.6-.3-.6-.7a.68.68,0,0,1,.7-.7c.4,0,.6.3.6.7"/><path id="Fill-4" class="cls-2" d="M14.5,5.89a.7.7,0,1,1-.7-.7.68.68,0,0,1,.7.7"/><path id="Fill-6" class="cls-2" d="M25.1,5.89a.7.7,0,1,1-.7-.7.68.68,0,0,1,.7.7"/><path id="Fill-8" class="cls-2" d="M35.7,5.89a.7.7,0,1,1-.7-.7.68.68,0,0,1,.7.7"/><path id="Fill-10" class="cls-2" d="M46.3,5.89a.7.7,0,1,1-.7-.7.68.68,0,0,1,.7.7"/><path id="Fill-12" class="cls-2" d="M56.9,5.89a.7.7,0,1,1-.7-.7.68.68,0,0,1,.7.7"/><path id="Fill-14" class="cls-2" d="M67.5,5.89a.7.7,0,1,1-.7-.7.68.68,0,0,1,.7.7"/><path id="Fill-16" class="cls-2" d="M78.1,5.89a.7.7,0,1,1-.7-.7.68.68,0,0,1,.7.7"/><path id="Fill-18" class="cls-2" d="M88.7,5.89a.7.7,0,1,1-.7-.7.68.68,0,0,1,.7.7"/><path id="Fill-20" class="cls-2" d="M99.3,5.89a.7.7,0,1,1-.7-.7.68.68,0,0,1,.7.7"/><path id="Fill-22" class="cls-2" d="M109.9,5.89a.7.7,0,1,1-.7-.7.68.68,0,0,1,.7.7"/><path id="Fill-24" class="cls-2" d="M120.5,5.89a.7.7,0,1,1-.7-.7.68.68,0,0,1,.7.7"/><path id="Fill-26" class="cls-2" d="M131.1,5.89a.7.7,0,1,1-.7-.7.68.68,0,0,1,.7.7"/><path id="Fill-28" class="cls-2" d="M141.7,5.89a.7.7,0,1,1-.7-.7.68.68,0,0,1,.7.7"/><path id="Fill-30" class="cls-2" d="M152.3,5.89a.68.68,0,0,1-.7.7c-.4,0-.6-.3-.6-.7a.68.68,0,0,1,.7-.7c.4,0,.6.3.6.7"/><path id="Fill-32" class="cls-2" d="M162.9,5.89a.7.7,0,1,1-.7-.7.68.68,0,0,1,.7.7"/><path id="Fill-34" class="cls-2" d="M173.5,5.89a.7.7,0,1,1-.7-.7.68.68,0,0,1,.7.7"/><path id="Fill-36" class="cls-2" d="M184.1,5.89a.7.7,0,1,1-.7-.7.68.68,0,0,1,.7.7"/><path id="Fill-38" class="cls-2" d="M194.7,5.89a.7.7,0,1,1-.7-.7.68.68,0,0,1,.7.7"/><path id="Fill-40" class="cls-2" d="M205.3,5.89a.7.7,0,1,1-.7-.7.68.68,0,0,1,.7.7"/><path id="Fill-42" class="cls-2" d="M3.9,15.49a.68.68,0,0,1-.7.7.7.7,0,1,1,0-1.4.68.68,0,0,1,.7.7"/><path id="Fill-44" class="cls-2" d="M14.5,15.49a.7.7,0,1,1-.7-.7.68.68,0,0,1,.7.7"/><path id="Fill-46" class="cls-2" d="M25.1,15.49a.7.7,0,1,1-.7-.7.68.68,0,0,1,.7.7"/><path id="Fill-48" class="cls-2" d="M35.7,15.49a.7.7,0,1,1-.7-.7.68.68,0,0,1,.7.7"/><path id="Fill-50" class="cls-2" d="M46.3,15.49a.7.7,0,1,1-.7-.7.68.68,0,0,1,.7.7"/><path id="Fill-52" class="cls-2" d="M56.9,15.49a.7.7,0,1,1-.7-.7.68.68,0,0,1,.7.7"/><path id="Fill-54" class="cls-2" d="M67.5,15.49a.7.7,0,1,1-.7-.7.68.68,0,0,1,.7.7"/><path id="Fill-56" class="cls-2" d="M78.1,15.49a.7.7,0,1,1-.7-.7.68.68,0,0,1,.7.7"/><path id="Fill-58" class="cls-2" d="M88.7,15.49a.7.7,0,1,1-.7-.7.68.68,0,0,1,.7.7"/><path id="Fill-60" class="cls-2" d="M99.3,15.49a.7.7,0,1,1-.7-.7.68.68,0,0,1,.7.7"/><path id="Fill-62" class="cls-2" d="M109.9,15.49a.7.7,0,1,1-.7-.7.68.68,0,0,1,.7.7"/><path id="Fill-64" class="cls-2" d="M120.5,15.49a.7.7,0,1,1-.7-.7.68.68,0,0,1,.7.7"/><path id="Fill-66" class="cls-2" d="M131.1,15.49a.7.7,0,1,1-.7-.7.68.68,0,0,1,.7.7"/><path id="Fill-68" class="cls-2" d="M141.7,15.49a.7.7,0,1,1-.7-.7.68.68,0,0,1,.7.7"/><path id="Fill-70" class="cls-2" d="M152.3,15.49a.7.7,0,1,1-.7-.7.68.68,0,0,1,.7.7"/><path id="Fill-72" class="cls-2" d="M162.9,15.49a.7.7,0,1,1-.7-.7.68.68,0,0,1,.7.7"/><path id="Fill-74" class="cls-2" d="M173.5,15.49a.7.7,0,1,1-.7-.7.68.68,0,0,1,.7.7"/><path id="Fill-76" class="cls-2" d="M184.1,15.49a.7.7,0,1,1-.7-.7.68.68,0,0,1,.7.7"/><path id="Fill-78" class="cls-2" d="M194.7,15.49a.7.7,0,1,1-.7-.7.68.68,0,0,1,.7.7"/><path id="Fill-80" class="cls-2" d="M205.3,15.49a.7.7,0,1,1-.7-.7.68.68,0,0,1,.7.7"/><path id="Fill-82" class="cls-2" d="M3.9,25.09a.68.68,0,0,1-.7.7.7.7,0,0,1,0-1.4.75.75,0,0,1,.7.7"/><path id="Fill-84" class="cls-2" d="M14.5,25.09a.7.7,0,1,1-.7-.7.84.84,0,0,1,.7.7"/><path id="Fill-86" class="cls-2" d="M25.1,25.09a.7.7,0,1,1-.7-.7.75.75,0,0,1,.7.7"/><path id="Fill-88" class="cls-2" d="M35.7,25.09a.7.7,0,1,1-.7-.7.84.84,0,0,1,.7.7"/><path id="Fill-90" class="cls-2" d="M46.3,25.09a.7.7,0,1,1-.7-.7.84.84,0,0,1,.7.7"/><path id="Fill-92" class="cls-2" d="M56.9,25.09a.7.7,0,1,1-.7-.7.84.84,0,0,1,.7.7"/><path id="Fill-94" class="cls-2" d="M67.5,25.09a.7.7,0,1,1-.7-.7.84.84,0,0,1,.7.7"/><path id="Fill-96" class="cls-2" d="M78.1,25.09a.7.7,0,1,1-.7-.7.75.75,0,0,1,.7.7"/><path id="Fill-98" class="cls-2" d="M88.7,25.09a.7.7,0,1,1-.7-.7.75.75,0,0,1,.7.7"/><path id="Fill-100" class="cls-2" d="M99.3,25.09a.7.7,0,1,1-.7-.7.84.84,0,0,1,.7.7"/><path id="Fill-102" class="cls-2" d="M109.9,25.09a.7.7,0,1,1-.7-.7.75.75,0,0,1,.7.7"/><path id="Fill-104" class="cls-2" d="M120.5,25.09a.7.7,0,1,1-.7-.7.75.75,0,0,1,.7.7"/><path id="Fill-106" class="cls-2" d="M131.1,25.09a.7.7,0,1,1-.7-.7.75.75,0,0,1,.7.7"/><path id="Fill-108" class="cls-2" d="M141.7,25.09a.7.7,0,1,1-.7-.7.84.84,0,0,1,.7.7"/><path id="Fill-110" class="cls-2" d="M152.3,25.09a.7.7,0,1,1-.7-.7.75.75,0,0,1,.7.7"/><path id="Fill-112" class="cls-2" d="M162.9,25.09a.7.7,0,1,1-.7-.7.84.84,0,0,1,.7.7"/><path id="Fill-114" class="cls-2" d="M173.5,25.09a.7.7,0,1,1-.7-.7.84.84,0,0,1,.7.7"/><path id="Fill-116" class="cls-2" d="M184.1,25.09a.7.7,0,1,1-.7-.7.75.75,0,0,1,.7.7"/><path id="Fill-118" class="cls-2" d="M194.7,25.09a.7.7,0,1,1-.7-.7.84.84,0,0,1,.7.7"/><path id="Fill-120" class="cls-2" d="M205.3,25.09a.7.7,0,1,1-.7-.7.84.84,0,0,1,.7.7"/><path id="Fill-122" class="cls-2" d="M3.9,34.79a.68.68,0,0,1-.7.7.7.7,0,0,1,0-1.4.68.68,0,0,1,.7.7"/><path id="Fill-124" class="cls-2" d="M14.5,34.79a.7.7,0,1,1-.7-.7.68.68,0,0,1,.7.7"/><path id="Fill-126" class="cls-2" d="M25.1,34.79a.7.7,0,1,1-.7-.7.68.68,0,0,1,.7.7"/><path id="Fill-128" class="cls-2" d="M35.7,34.79a.7.7,0,1,1-.7-.7.68.68,0,0,1,.7.7"/><path id="Fill-130" class="cls-2" d="M46.3,34.79a.7.7,0,1,1-.7-.7.68.68,0,0,1,.7.7"/><path id="Fill-132" class="cls-2" d="M56.9,34.79a.7.7,0,1,1-.7-.7.68.68,0,0,1,.7.7"/><path id="Fill-134" class="cls-2" d="M67.5,34.79a.7.7,0,1,1-.7-.7.68.68,0,0,1,.7.7"/><path id="Fill-136" class="cls-2" d="M78.1,34.79a.7.7,0,1,1-.7-.7.68.68,0,0,1,.7.7"/><path id="Fill-138" class="cls-2" d="M88.7,34.79a.7.7,0,1,1-.7-.7.68.68,0,0,1,.7.7"/><path id="Fill-140" class="cls-2" d="M99.3,34.79a.7.7,0,1,1-.7-.7.68.68,0,0,1,.7.7"/><path id="Fill-142" class="cls-2" d="M109.9,34.79a.7.7,0,1,1-.7-.7.68.68,0,0,1,.7.7"/><path id="Fill-144" class="cls-2" d="M120.5,34.79a.7.7,0,1,1-.7-.7.68.68,0,0,1,.7.7"/><path id="Fill-146" class="cls-2" d="M131.1,34.79a.7.7,0,1,1-.7-.7.68.68,0,0,1,.7.7"/><path id="Fill-148" class="cls-2" d="M141.7,34.79a.7.7,0,1,1-.7-.7.68.68,0,0,1,.7.7"/><path id="Fill-150" class="cls-2" d="M152.3,34.79a.7.7,0,1,1-.7-.7.68.68,0,0,1,.7.7"/><path id="Fill-152" class="cls-2" d="M162.9,34.79a.7.7,0,1,1-.7-.7.68.68,0,0,1,.7.7"/><path id="Fill-154" class="cls-2" d="M173.5,34.79a.7.7,0,1,1-.7-.7.68.68,0,0,1,.7.7"/><path id="Fill-156" class="cls-2" d="M184.1,34.79a.7.7,0,1,1-.7-.7.68.68,0,0,1,.7.7"/><path id="Fill-158" class="cls-2" d="M194.7,34.79a.7.7,0,1,1-.7-.7.68.68,0,0,1,.7.7"/><path id="Fill-160" class="cls-2" d="M205.3,34.79a.7.7,0,1,1-.7-.7.68.68,0,0,1,.7.7"/><path id="Fill-162" class="cls-2" d="M3.9,44.39a.68.68,0,0,1-.7.7.66.66,0,0,1-.6-.7.68.68,0,0,1,.7-.7c.4,0,.6.3.6.7"/><path id="Fill-164" class="cls-2" d="M14.5,44.39a.7.7,0,1,1-.7-.7.68.68,0,0,1,.7.7"/><path id="Fill-166" class="cls-2" d="M25.1,44.39a.7.7,0,1,1-.7-.7.68.68,0,0,1,.7.7"/><path id="Fill-168" class="cls-2" d="M35.7,44.39a.7.7,0,1,1-.7-.7.68.68,0,0,1,.7.7"/><path id="Fill-170" class="cls-2" d="M46.3,44.39a.7.7,0,1,1-.7-.7.68.68,0,0,1,.7.7"/><path id="Fill-172" class="cls-2" d="M56.9,44.39a.7.7,0,1,1-.7-.7.68.68,0,0,1,.7.7"/><path id="Fill-174" class="cls-2" d="M67.5,44.39a.7.7,0,1,1-.7-.7.68.68,0,0,1,.7.7"/><path id="Fill-176" class="cls-2" d="M78.1,44.39a.7.7,0,1,1-.7-.7.68.68,0,0,1,.7.7"/><path id="Fill-178" class="cls-2" d="M88.7,44.39a.7.7,0,1,1-.7-.7.68.68,0,0,1,.7.7"/><path id="Fill-180" class="cls-2" d="M99.3,44.39a.7.7,0,1,1-.7-.7.68.68,0,0,1,.7.7"/><path id="Fill-182" class="cls-2" d="M109.9,44.39a.7.7,0,1,1-.7-.7.68.68,0,0,1,.7.7"/><path id="Fill-184" class="cls-2" d="M120.5,44.39a.7.7,0,1,1-.7-.7.68.68,0,0,1,.7.7"/><path id="Fill-186" class="cls-2" d="M131.1,44.39a.7.7,0,1,1-.7-.7.68.68,0,0,1,.7.7"/><path id="Fill-188" class="cls-2" d="M141.7,44.39a.7.7,0,1,1-.7-.7.68.68,0,0,1,.7.7"/><path id="Fill-190" class="cls-2" d="M152.3,44.39a.68.68,0,0,1-.7.7.66.66,0,0,1-.6-.7.68.68,0,0,1,.7-.7c.4,0,.6.3.6.7"/><path id="Fill-192" class="cls-2" d="M162.9,44.39a.7.7,0,1,1-.7-.7.68.68,0,0,1,.7.7"/><path id="Fill-194" class="cls-2" d="M173.5,44.39a.7.7,0,1,1-.7-.7.68.68,0,0,1,.7.7"/><path id="Fill-196" class="cls-2" d="M184.1,44.39a.7.7,0,1,1-.7-.7.68.68,0,0,1,.7.7"/><path id="Fill-198" class="cls-2" d="M194.7,44.39a.7.7,0,1,1-.7-.7.68.68,0,0,1,.7.7"/><path id="Fill-200" class="cls-2" d="M205.3,44.39a.7.7,0,1,1-.7-.7.68.68,0,0,1,.7.7"/><path id="Fill-202" class="cls-2" d="M3.9,54a.68.68,0,0,1-.7.7.7.7,0,0,1,0-1.4.68.68,0,0,1,.7.7"/><path id="Fill-204" class="cls-2" d="M14.5,54a.7.7,0,1,1-.7-.7.68.68,0,0,1,.7.7"/><path id="Fill-206" class="cls-2" d="M25.1,54a.7.7,0,1,1-.7-.7.68.68,0,0,1,.7.7"/><path id="Fill-208" class="cls-2" d="M35.7,54a.7.7,0,1,1-.7-.7.68.68,0,0,1,.7.7"/><path id="Fill-210" class="cls-2" d="M46.3,54a.7.7,0,1,1-.7-.7.68.68,0,0,1,.7.7"/><path id="Fill-212" class="cls-2" d="M56.9,54a.7.7,0,1,1-.7-.7.68.68,0,0,1,.7.7"/><path id="Fill-214" class="cls-2" d="M67.5,54a.7.7,0,1,1-.7-.7.68.68,0,0,1,.7.7"/><path id="Fill-216" class="cls-2" d="M78.1,54a.7.7,0,1,1-.7-.7.68.68,0,0,1,.7.7"/><path id="Fill-218" class="cls-2" d="M88.7,54a.7.7,0,1,1-.7-.7.68.68,0,0,1,.7.7"/><path id="Fill-220" class="cls-2" d="M99.3,54a.7.7,0,1,1-.7-.7.68.68,0,0,1,.7.7"/><path id="Fill-222" class="cls-2" d="M109.9,54a.7.7,0,1,1-.7-.7.68.68,0,0,1,.7.7"/><path id="Fill-224" class="cls-2" d="M120.5,54a.7.7,0,1,1-.7-.7.68.68,0,0,1,.7.7"/><path id="Fill-226" class="cls-2" d="M131.1,54a.7.7,0,1,1-.7-.7.68.68,0,0,1,.7.7"/><path id="Fill-228" class="cls-2" d="M141.7,54a.7.7,0,1,1-.7-.7.68.68,0,0,1,.7.7"/><path id="Fill-230" class="cls-2" d="M152.3,54a.7.7,0,1,1-.7-.7.68.68,0,0,1,.7.7"/><path id="Fill-232" class="cls-2" d="M162.9,54a.7.7,0,1,1-.7-.7.68.68,0,0,1,.7.7"/><path id="Fill-234" class="cls-2" d="M173.5,54a.7.7,0,1,1-.7-.7.68.68,0,0,1,.7.7"/><path id="Fill-236" class="cls-2" d="M184.1,54a.7.7,0,1,1-.7-.7.68.68,0,0,1,.7.7"/><path id="Fill-238" class="cls-2" d="M194.7,54a.7.7,0,1,1-.7-.7.68.68,0,0,1,.7.7"/><path id="Fill-240" class="cls-2" d="M205.3,54a.7.7,0,1,1-.7-.7.68.68,0,0,1,.7.7"/><path id="Fill-242" class="cls-2" d="M3.9,63.59a.68.68,0,0,1-.7.7.7.7,0,0,1,0-1.4.68.68,0,0,1,.7.7"/><path id="Fill-244" class="cls-2" d="M14.5,63.59a.7.7,0,1,1-.7-.7.68.68,0,0,1,.7.7"/><path id="Fill-246" class="cls-2" d="M25.1,63.59a.7.7,0,1,1-.7-.7.68.68,0,0,1,.7.7"/><path id="Fill-248" class="cls-2" d="M35.7,63.59a.7.7,0,1,1-.7-.7.68.68,0,0,1,.7.7"/><path id="Fill-250" class="cls-2" d="M46.3,63.59a.7.7,0,1,1-.7-.7.68.68,0,0,1,.7.7"/><path id="Fill-252" class="cls-2" d="M56.9,63.59a.7.7,0,1,1-.7-.7.68.68,0,0,1,.7.7"/><path id="Fill-254" class="cls-2" d="M67.5,63.59a.7.7,0,1,1-.7-.7.68.68,0,0,1,.7.7"/><path id="Fill-256" class="cls-2" d="M78.1,63.59a.7.7,0,1,1-.7-.7.68.68,0,0,1,.7.7"/><path id="Fill-258" class="cls-2" d="M88.7,63.59a.7.7,0,1,1-.7-.7.68.68,0,0,1,.7.7"/><path id="Fill-260" class="cls-2" d="M99.3,63.59a.7.7,0,1,1-.7-.7.68.68,0,0,1,.7.7"/><path id="Fill-262" class="cls-2" d="M109.9,63.59a.7.7,0,1,1-.7-.7.68.68,0,0,1,.7.7"/><path id="Fill-264" class="cls-2" d="M120.5,63.59a.7.7,0,1,1-.7-.7.68.68,0,0,1,.7.7"/><path id="Fill-266" class="cls-2" d="M131.1,63.59a.7.7,0,1,1-.7-.7.68.68,0,0,1,.7.7"/><path id="Fill-268" class="cls-2" d="M141.7,63.59a.7.7,0,1,1-.7-.7.68.68,0,0,1,.7.7"/><path id="Fill-270" class="cls-2" d="M152.3,63.59a.7.7,0,1,1-.7-.7.68.68,0,0,1,.7.7"/><path id="Fill-272" class="cls-2" d="M162.9,63.59a.7.7,0,1,1-.7-.7.68.68,0,0,1,.7.7"/><path id="Fill-274" class="cls-2" d="M173.5,63.59a.7.7,0,1,1-.7-.7.68.68,0,0,1,.7.7"/><path id="Fill-276" class="cls-2" d="M184.1,63.59a.7.7,0,1,1-.7-.7.68.68,0,0,1,.7.7"/><path id="Fill-278" class="cls-2" d="M194.7,63.59a.7.7,0,1,1-.7-.7.68.68,0,0,1,.7.7"/><path id="Fill-280" class="cls-2" d="M205.3,63.59a.7.7,0,1,1-.7-.7.68.68,0,0,1,.7.7"/><path id="Fill-282" class="cls-2" d="M3.9,73.19a.68.68,0,0,1-.7.7.7.7,0,1,1,0-1.4.75.75,0,0,1,.7.7"/><path id="Fill-284" class="cls-2" d="M14.5,73.19a.7.7,0,1,1-.7-.7.84.84,0,0,1,.7.7"/><path id="Fill-286" class="cls-2" d="M25.1,73.19a.7.7,0,1,1-.7-.7.75.75,0,0,1,.7.7"/><path id="Fill-288" class="cls-2" d="M35.7,73.19a.7.7,0,1,1-.7-.7.84.84,0,0,1,.7.7"/><path id="Fill-290" class="cls-2" d="M46.3,73.19a.7.7,0,1,1-.7-.7.84.84,0,0,1,.7.7"/><path id="Fill-292" class="cls-2" d="M56.9,73.19a.7.7,0,1,1-.7-.7.84.84,0,0,1,.7.7"/><path id="Fill-294" class="cls-2" d="M67.5,73.19a.7.7,0,1,1-.7-.7.84.84,0,0,1,.7.7"/><path id="Fill-296" class="cls-2" d="M78.1,73.19a.7.7,0,1,1-.7-.7.75.75,0,0,1,.7.7"/><path id="Fill-298" class="cls-2" d="M88.7,73.19a.7.7,0,1,1-.7-.7.75.75,0,0,1,.7.7"/><path id="Fill-300" class="cls-2" d="M99.3,73.19a.7.7,0,1,1-.7-.7.84.84,0,0,1,.7.7"/><path id="Fill-302" class="cls-2" d="M109.9,73.19a.7.7,0,1,1-.7-.7.75.75,0,0,1,.7.7"/><path id="Fill-304" class="cls-2" d="M120.5,73.19a.7.7,0,1,1-.7-.7.75.75,0,0,1,.7.7"/><path id="Fill-306" class="cls-2" d="M131.1,73.19a.7.7,0,1,1-.7-.7.75.75,0,0,1,.7.7"/><path id="Fill-308" class="cls-2" d="M141.7,73.19a.7.7,0,1,1-.7-.7.84.84,0,0,1,.7.7"/><path id="Fill-310" class="cls-2" d="M152.3,73.19a.7.7,0,1,1-.7-.7.75.75,0,0,1,.7.7"/><path id="Fill-312" class="cls-2" d="M162.9,73.19a.7.7,0,1,1-.7-.7.84.84,0,0,1,.7.7"/><path id="Fill-314" class="cls-2" d="M173.5,73.19a.7.7,0,1,1-.7-.7.84.84,0,0,1,.7.7"/><path id="Fill-316" class="cls-2" d="M184.1,73.19a.7.7,0,1,1-.7-.7.75.75,0,0,1,.7.7"/><path id="Fill-318" class="cls-2" d="M194.7,73.19a.7.7,0,1,1-.7-.7.84.84,0,0,1,.7.7"/><path id="Fill-320" class="cls-2" d="M205.3,73.19a.7.7,0,1,1-.7-.7.84.84,0,0,1,.7.7"/><path id="Fill-322" class="cls-2" d="M3.9,82.89a.68.68,0,0,1-.7.7.7.7,0,0,1,0-1.4.68.68,0,0,1,.7.7"/><path id="Fill-324" class="cls-2" d="M14.5,82.89a.7.7,0,1,1-.7-.7.68.68,0,0,1,.7.7"/><path id="Fill-326" class="cls-2" d="M25.1,82.89a.7.7,0,1,1-.7-.7.68.68,0,0,1,.7.7"/><path id="Fill-328" class="cls-2" d="M35.7,82.89a.7.7,0,1,1-.7-.7.68.68,0,0,1,.7.7"/><path id="Fill-330" class="cls-2" d="M46.3,82.89a.7.7,0,1,1-.7-.7.68.68,0,0,1,.7.7"/><path id="Fill-332" class="cls-2" d="M56.9,82.89a.7.7,0,1,1-.7-.7.68.68,0,0,1,.7.7"/><path id="Fill-334" class="cls-2" d="M67.5,82.89a.7.7,0,1,1-.7-.7.68.68,0,0,1,.7.7"/><path id="Fill-336" class="cls-2" d="M78.1,82.89a.7.7,0,1,1-.7-.7.68.68,0,0,1,.7.7"/><path id="Fill-338" class="cls-2" d="M88.7,82.89a.7.7,0,1,1-.7-.7.68.68,0,0,1,.7.7"/><path id="Fill-340" class="cls-2" d="M99.3,82.89a.7.7,0,1,1-.7-.7.68.68,0,0,1,.7.7"/><path id="Fill-342" class="cls-2" d="M109.9,82.89a.7.7,0,1,1-.7-.7.68.68,0,0,1,.7.7"/><path id="Fill-344" class="cls-2" d="M120.5,82.89a.7.7,0,1,1-.7-.7.68.68,0,0,1,.7.7"/><path id="Fill-346" class="cls-2" d="M131.1,82.89a.7.7,0,1,1-.7-.7.68.68,0,0,1,.7.7"/><path id="Fill-348" class="cls-2" d="M141.7,82.89a.7.7,0,1,1-.7-.7.68.68,0,0,1,.7.7"/><path id="Fill-350" class="cls-2" d="M152.3,82.89a.7.7,0,1,1-.7-.7.68.68,0,0,1,.7.7"/><path id="Fill-352" class="cls-2" d="M162.9,82.89a.7.7,0,1,1-.7-.7.68.68,0,0,1,.7.7"/><path id="Fill-354" class="cls-2" d="M173.5,82.89a.7.7,0,1,1-.7-.7.68.68,0,0,1,.7.7"/><path id="Fill-356" class="cls-2" d="M184.1,82.89a.7.7,0,1,1-.7-.7.68.68,0,0,1,.7.7"/><path id="Fill-358" class="cls-2" d="M194.7,82.89a.7.7,0,1,1-.7-.7.68.68,0,0,1,.7.7"/><path id="Fill-360" class="cls-2" d="M205.3,82.89a.7.7,0,1,1-.7-.7.68.68,0,0,1,.7.7"/><path id="Fill-362" class="cls-2" d="M3.9,92.49a.68.68,0,0,1-.7.7.7.7,0,0,1,0-1.4.68.68,0,0,1,.7.7"/><path id="Fill-364" class="cls-2" d="M14.5,92.49a.7.7,0,1,1-.7-.7.68.68,0,0,1,.7.7"/><path id="Fill-366" class="cls-2" d="M25.1,92.49a.7.7,0,1,1-.7-.7.68.68,0,0,1,.7.7"/><path id="Fill-368" class="cls-2" d="M35.7,92.49a.7.7,0,1,1-.7-.7.68.68,0,0,1,.7.7"/><path id="Fill-370" class="cls-2" d="M46.3,92.49a.7.7,0,1,1-.7-.7.68.68,0,0,1,.7.7"/><path id="Fill-372" class="cls-2" d="M56.9,92.49a.7.7,0,1,1-.7-.7.68.68,0,0,1,.7.7"/><path id="Fill-374" class="cls-2" d="M67.5,92.49a.7.7,0,1,1-.7-.7.68.68,0,0,1,.7.7"/><path id="Fill-376" class="cls-2" d="M78.1,92.49a.7.7,0,1,1-.7-.7.68.68,0,0,1,.7.7"/><path id="Fill-378" class="cls-2" d="M88.7,92.49a.7.7,0,1,1-.7-.7.68.68,0,0,1,.7.7"/><path id="Fill-380" class="cls-2" d="M99.3,92.49a.7.7,0,1,1-.7-.7.68.68,0,0,1,.7.7"/><path id="Fill-382" class="cls-2" d="M109.9,92.49a.7.7,0,1,1-.7-.7.68.68,0,0,1,.7.7"/><path id="Fill-384" class="cls-2" d="M120.5,92.49a.7.7,0,1,1-.7-.7.68.68,0,0,1,.7.7"/><path id="Fill-386" class="cls-2" d="M131.1,92.49a.7.7,0,1,1-.7-.7.68.68,0,0,1,.7.7"/><path id="Fill-388" class="cls-2" d="M141.7,92.49a.7.7,0,1,1-.7-.7.68.68,0,0,1,.7.7"/><path id="Fill-390" class="cls-2" d="M152.3,92.49a.7.7,0,1,1-.7-.7.68.68,0,0,1,.7.7"/><path id="Fill-392" class="cls-2" d="M162.9,92.49a.7.7,0,1,1-.7-.7.68.68,0,0,1,.7.7"/><path id="Fill-394" class="cls-2" d="M173.5,92.49a.7.7,0,1,1-.7-.7.68.68,0,0,1,.7.7"/><path id="Fill-396" class="cls-2" d="M184.1,92.49a.7.7,0,1,1-.7-.7.68.68,0,0,1,.7.7"/><path id="Fill-398" class="cls-2" d="M194.7,92.49a.7.7,0,1,1-.7-.7.68.68,0,0,1,.7.7"/><path id="Fill-400" class="cls-2" d="M205.3,92.49a.7.7,0,1,1-.7-.7.68.68,0,0,1,.7.7"/><path id="Fill-402" class="cls-2" d="M3.9,102.09a.68.68,0,0,1-.7.7.7.7,0,1,1,0-1.4.68.68,0,0,1,.7.7"/><path id="Fill-404" class="cls-2" d="M14.5,102.09a.7.7,0,1,1-.7-.7.68.68,0,0,1,.7.7"/><path id="Fill-406" class="cls-2" d="M25.1,102.09a.7.7,0,1,1-.7-.7.68.68,0,0,1,.7.7"/><path id="Fill-408" class="cls-2" d="M35.7,102.09a.7.7,0,1,1-.7-.7.68.68,0,0,1,.7.7"/><path id="Fill-410" class="cls-2" d="M46.3,102.09a.7.7,0,1,1-.7-.7.68.68,0,0,1,.7.7"/><path id="Fill-412" class="cls-2" d="M56.9,102.09a.7.7,0,1,1-.7-.7.68.68,0,0,1,.7.7"/><path id="Fill-414" class="cls-2" d="M67.5,102.09a.7.7,0,1,1-.7-.7.68.68,0,0,1,.7.7"/><path id="Fill-416" class="cls-2" d="M78.1,102.09a.7.7,0,1,1-.7-.7.68.68,0,0,1,.7.7"/><path id="Fill-418" class="cls-2" d="M88.7,102.09a.7.7,0,1,1-.7-.7.68.68,0,0,1,.7.7"/><path id="Fill-420" class="cls-2" d="M99.3,102.09a.7.7,0,1,1-.7-.7.68.68,0,0,1,.7.7"/><path id="Fill-422" class="cls-2" d="M109.9,102.09a.7.7,0,1,1-.7-.7.68.68,0,0,1,.7.7"/><path id="Fill-424" class="cls-2" d="M120.5,102.09a.7.7,0,1,1-.7-.7.68.68,0,0,1,.7.7"/><path id="Fill-426" class="cls-2" d="M131.1,102.09a.7.7,0,1,1-.7-.7.68.68,0,0,1,.7.7"/><path id="Fill-428" class="cls-2" d="M141.7,102.09a.7.7,0,1,1-.7-.7.68.68,0,0,1,.7.7"/><path id="Fill-430" class="cls-2" d="M152.3,102.09a.7.7,0,1,1-.7-.7.68.68,0,0,1,.7.7"/><path id="Fill-432" class="cls-2" d="M162.9,102.09a.7.7,0,1,1-.7-.7.68.68,0,0,1,.7.7"/><path id="Fill-434" class="cls-2" d="M173.5,102.09a.7.7,0,1,1-.7-.7.68.68,0,0,1,.7.7"/><path id="Fill-436" class="cls-2" d="M184.1,102.09a.7.7,0,1,1-.7-.7.68.68,0,0,1,.7.7"/><path id="Fill-438" class="cls-2" d="M194.7,102.09a.7.7,0,1,1-.7-.7.68.68,0,0,1,.7.7"/><path id="Fill-440" class="cls-2" d="M205.3,102.09a.7.7,0,1,1-.7-.7.68.68,0,0,1,.7.7"/><path id="Fill-442" class="cls-2" d="M3.9,111.69a.68.68,0,0,1-.7.7.7.7,0,1,1,0-1.4.68.68,0,0,1,.7.7"/><path id="Fill-444" class="cls-2" d="M14.5,111.69a.7.7,0,1,1-.7-.7.68.68,0,0,1,.7.7"/><path id="Fill-446" class="cls-2" d="M25.1,111.69a.7.7,0,1,1-.7-.7.68.68,0,0,1,.7.7"/><path id="Fill-448" class="cls-2" d="M35.7,111.69a.7.7,0,1,1-.7-.7.68.68,0,0,1,.7.7"/><path id="Fill-450" class="cls-2" d="M46.3,111.69a.7.7,0,1,1-.7-.7.68.68,0,0,1,.7.7"/><path id="Fill-452" class="cls-2" d="M56.9,111.69a.7.7,0,1,1-.7-.7.68.68,0,0,1,.7.7"/><path id="Fill-454" class="cls-2" d="M67.5,111.69a.7.7,0,1,1-.7-.7.68.68,0,0,1,.7.7"/><path id="Fill-456" class="cls-2" d="M78.1,111.69a.7.7,0,1,1-.7-.7.68.68,0,0,1,.7.7"/><path id="Fill-458" class="cls-2" d="M88.7,111.69a.7.7,0,1,1-.7-.7.68.68,0,0,1,.7.7"/><path id="Fill-460" class="cls-2" d="M99.3,111.69a.7.7,0,1,1-.7-.7.68.68,0,0,1,.7.7"/><path id="Fill-462" class="cls-2" d="M109.9,111.69a.7.7,0,1,1-.7-.7.68.68,0,0,1,.7.7"/><path id="Fill-464" class="cls-2" d="M120.5,111.69a.7.7,0,1,1-.7-.7.68.68,0,0,1,.7.7"/><path id="Fill-466" class="cls-2" d="M131.1,111.69a.7.7,0,1,1-.7-.7.68.68,0,0,1,.7.7"/><path id="Fill-468" class="cls-2" d="M141.7,111.69a.7.7,0,1,1-.7-.7.68.68,0,0,1,.7.7"/><path id="Fill-470" class="cls-2" d="M152.3,111.69a.7.7,0,1,1-.7-.7.68.68,0,0,1,.7.7"/><path id="Fill-472" class="cls-2" d="M162.9,111.69a.7.7,0,1,1-.7-.7.68.68,0,0,1,.7.7"/><path id="Fill-474" class="cls-2" d="M173.5,111.69a.7.7,0,1,1-.7-.7.68.68,0,0,1,.7.7"/><path id="Fill-476" class="cls-2" d="M184.1,111.69a.7.7,0,1,1-.7-.7.68.68,0,0,1,.7.7"/><path id="Fill-478" class="cls-2" d="M194.7,111.69a.7.7,0,1,1-.7-.7.68.68,0,0,1,.7.7"/><path id="Fill-480" class="cls-2" d="M205.3,111.69a.7.7,0,1,1-.7-.7.68.68,0,0,1,.7.7"/><path id="Fill-482" class="cls-2" d="M3.9,121.29a.68.68,0,0,1-.7.7.7.7,0,0,1,0-1.4.75.75,0,0,1,.7.7"/><path id="Fill-484" class="cls-2" d="M14.5,121.29a.7.7,0,1,1-.7-.7.84.84,0,0,1,.7.7"/><path id="Fill-486" class="cls-2" d="M25.1,121.29a.7.7,0,1,1-.7-.7.75.75,0,0,1,.7.7"/><path id="Fill-488" class="cls-2" d="M35.7,121.29a.7.7,0,1,1-.7-.7.84.84,0,0,1,.7.7"/><path id="Fill-490" class="cls-2" d="M46.3,121.29a.7.7,0,1,1-.7-.7.84.84,0,0,1,.7.7"/><path id="Fill-492" class="cls-2" d="M56.9,121.29a.7.7,0,1,1-.7-.7.84.84,0,0,1,.7.7"/><path id="Fill-494" class="cls-2" d="M67.5,121.29a.7.7,0,1,1-.7-.7.84.84,0,0,1,.7.7"/><path id="Fill-496" class="cls-2" d="M78.1,121.29a.7.7,0,1,1-.7-.7.75.75,0,0,1,.7.7"/><path id="Fill-498" class="cls-2" d="M88.7,121.29a.7.7,0,1,1-.7-.7.75.75,0,0,1,.7.7"/><path id="Fill-500" class="cls-2" d="M99.3,121.29a.7.7,0,1,1-.7-.7.84.84,0,0,1,.7.7"/><path id="Fill-502" class="cls-2" d="M109.9,121.29a.7.7,0,1,1-.7-.7.75.75,0,0,1,.7.7"/><path id="Fill-504" class="cls-2" d="M120.5,121.29a.7.7,0,1,1-.7-.7.75.75,0,0,1,.7.7"/><path id="Fill-506" class="cls-2" d="M131.1,121.29a.7.7,0,1,1-.7-.7.75.75,0,0,1,.7.7"/><path id="Fill-508" class="cls-2" d="M141.7,121.29a.7.7,0,1,1-.7-.7.84.84,0,0,1,.7.7"/><path id="Fill-510" class="cls-2" d="M152.3,121.29a.7.7,0,1,1-.7-.7.75.75,0,0,1,.7.7"/><path id="Fill-512" class="cls-2" d="M162.9,121.29a.7.7,0,1,1-.7-.7.84.84,0,0,1,.7.7"/><path id="Fill-514" class="cls-2" d="M173.5,121.29a.7.7,0,1,1-.7-.7.84.84,0,0,1,.7.7"/><path id="Fill-516" class="cls-2" d="M184.1,121.29a.7.7,0,1,1-.7-.7.75.75,0,0,1,.7.7"/><path id="Fill-518" class="cls-2" d="M194.7,121.29a.7.7,0,1,1-.7-.7.84.84,0,0,1,.7.7"/><path id="Fill-520" class="cls-2" d="M205.3,121.29a.7.7,0,1,1-.7-.7.84.84,0,0,1,.7.7"/><path id="Fill-522" class="cls-2" d="M3.9,131a.68.68,0,0,1-.7.7.7.7,0,0,1,0-1.4.68.68,0,0,1,.7.7"/><path id="Fill-524" class="cls-2" d="M14.5,131a.7.7,0,1,1-.7-.7.68.68,0,0,1,.7.7"/><path id="Fill-526" class="cls-2" d="M25.1,131a.7.7,0,1,1-.7-.7.68.68,0,0,1,.7.7"/><path id="Fill-528" class="cls-2" d="M35.7,131a.7.7,0,1,1-.7-.7.68.68,0,0,1,.7.7"/><path id="Fill-530" class="cls-2" d="M46.3,131a.7.7,0,1,1-.7-.7.68.68,0,0,1,.7.7"/><path id="Fill-532" class="cls-2" d="M56.9,131a.7.7,0,1,1-.7-.7.68.68,0,0,1,.7.7"/><path id="Fill-534" class="cls-2" d="M67.5,131a.7.7,0,1,1-.7-.7.68.68,0,0,1,.7.7"/><path id="Fill-536" class="cls-2" d="M78.1,131a.7.7,0,1,1-.7-.7.68.68,0,0,1,.7.7"/><path id="Fill-538" class="cls-2" d="M88.7,131a.7.7,0,1,1-.7-.7.68.68,0,0,1,.7.7"/><path id="Fill-540" class="cls-2" d="M99.3,131a.7.7,0,1,1-.7-.7.68.68,0,0,1,.7.7"/><path id="Fill-542" class="cls-2" d="M109.9,131a.7.7,0,1,1-.7-.7.68.68,0,0,1,.7.7"/><path id="Fill-544" class="cls-2" d="M120.5,131a.7.7,0,1,1-.7-.7.68.68,0,0,1,.7.7"/><path id="Fill-546" class="cls-2" d="M131.1,131a.7.7,0,1,1-.7-.7.68.68,0,0,1,.7.7"/><path id="Fill-548" class="cls-2" d="M141.7,131a.7.7,0,1,1-.7-.7.68.68,0,0,1,.7.7"/><path id="Fill-550" class="cls-2" d="M152.3,131a.7.7,0,1,1-.7-.7.68.68,0,0,1,.7.7"/><path id="Fill-552" class="cls-2" d="M162.9,131a.7.7,0,1,1-.7-.7.68.68,0,0,1,.7.7"/><path id="Fill-554" class="cls-2" d="M173.5,131a.7.7,0,1,1-.7-.7.68.68,0,0,1,.7.7"/><path id="Fill-556" class="cls-2" d="M184.1,131a.7.7,0,1,1-.7-.7.68.68,0,0,1,.7.7"/><path id="Fill-558" class="cls-2" d="M194.7,131a.7.7,0,1,1-.7-.7.68.68,0,0,1,.7.7"/><path id="Fill-560" class="cls-2" d="M205.3,131a.7.7,0,1,1-.7-.7.68.68,0,0,1,.7.7"/><path id="Fill-562" class="cls-2" d="M3.9,140.59a.68.68,0,0,1-.7.7.7.7,0,1,1,0-1.4.68.68,0,0,1,.7.7"/><path id="Fill-564" class="cls-2" d="M14.5,140.59a.7.7,0,1,1-.7-.7.68.68,0,0,1,.7.7"/><path id="Fill-566" class="cls-2" d="M25.1,140.59a.7.7,0,1,1-.7-.7.68.68,0,0,1,.7.7"/><path id="Fill-568" class="cls-2" d="M35.7,140.59a.7.7,0,1,1-.7-.7.68.68,0,0,1,.7.7"/><path id="Fill-570" class="cls-2" d="M46.3,140.59a.7.7,0,1,1-.7-.7.68.68,0,0,1,.7.7"/><path id="Fill-572" class="cls-2" d="M56.9,140.59a.7.7,0,1,1-.7-.7.68.68,0,0,1,.7.7"/><path id="Fill-574" class="cls-2" d="M67.5,140.59a.7.7,0,1,1-.7-.7.68.68,0,0,1,.7.7"/><path id="Fill-576" class="cls-2" d="M78.1,140.59a.7.7,0,1,1-.7-.7.68.68,0,0,1,.7.7"/><path id="Fill-578" class="cls-2" d="M88.7,140.59a.7.7,0,1,1-.7-.7.68.68,0,0,1,.7.7"/><path id="Fill-580" class="cls-2" d="M99.3,140.59a.7.7,0,1,1-.7-.7.68.68,0,0,1,.7.7"/><path id="Fill-582" class="cls-2" d="M109.9,140.59a.7.7,0,1,1-.7-.7.68.68,0,0,1,.7.7"/><path id="Fill-584" class="cls-2" d="M120.5,140.59a.7.7,0,1,1-.7-.7.68.68,0,0,1,.7.7"/><path id="Fill-586" class="cls-2" d="M131.1,140.59a.7.7,0,1,1-.7-.7.68.68,0,0,1,.7.7"/><path id="Fill-588" class="cls-2" d="M141.7,140.59a.7.7,0,1,1-.7-.7.68.68,0,0,1,.7.7"/><path id="Fill-590" class="cls-2" d="M152.3,140.59a.7.7,0,1,1-.7-.7.68.68,0,0,1,.7.7"/><path id="Fill-592" class="cls-2" d="M162.9,140.59a.7.7,0,1,1-.7-.7.68.68,0,0,1,.7.7"/><path id="Fill-594" class="cls-2" d="M173.5,140.59a.7.7,0,1,1-.7-.7.68.68,0,0,1,.7.7"/><path id="Fill-596" class="cls-2" d="M184.1,140.59a.7.7,0,1,1-.7-.7.68.68,0,0,1,.7.7"/><path id="Fill-598" class="cls-2" d="M194.7,140.59a.7.7,0,1,1-.7-.7.68.68,0,0,1,.7.7"/><path id="Fill-600" class="cls-2" d="M205.3,140.59a.7.7,0,1,1-.7-.7.68.68,0,0,1,.7.7"/><path id="Fill-602" class="cls-2" d="M3.9,150.19a.68.68,0,0,1-.7.7.7.7,0,1,1,0-1.4.68.68,0,0,1,.7.7"/><path id="Fill-604" class="cls-2" d="M14.5,150.19a.7.7,0,1,1-.7-.7.68.68,0,0,1,.7.7"/><path id="Fill-606" class="cls-2" d="M25.1,150.19a.7.7,0,1,1-.7-.7.68.68,0,0,1,.7.7"/><path id="Fill-608" class="cls-2" d="M35.7,150.19a.7.7,0,1,1-.7-.7.68.68,0,0,1,.7.7"/><path id="Fill-610" class="cls-2" d="M46.3,150.19a.7.7,0,1,1-.7-.7.68.68,0,0,1,.7.7"/><path id="Fill-612" class="cls-2" d="M56.9,150.19a.7.7,0,1,1-.7-.7.68.68,0,0,1,.7.7"/><path id="Fill-614" class="cls-2" d="M67.5,150.19a.7.7,0,1,1-.7-.7.68.68,0,0,1,.7.7"/><path id="Fill-616" class="cls-2" d="M78.1,150.19a.7.7,0,1,1-.7-.7.68.68,0,0,1,.7.7"/><path id="Fill-618" class="cls-2" d="M88.7,150.19a.7.7,0,1,1-.7-.7.68.68,0,0,1,.7.7"/><path id="Fill-620" class="cls-2" d="M99.3,150.19a.7.7,0,1,1-.7-.7.68.68,0,0,1,.7.7"/><path id="Fill-622" class="cls-2" d="M109.9,150.19a.7.7,0,1,1-.7-.7.68.68,0,0,1,.7.7"/><path id="Fill-624" class="cls-2" d="M120.5,150.19a.7.7,0,1,1-.7-.7.68.68,0,0,1,.7.7"/><path id="Fill-626" class="cls-2" d="M131.1,150.19a.7.7,0,1,1-.7-.7.68.68,0,0,1,.7.7"/><path id="Fill-628" class="cls-2" d="M141.7,150.19a.7.7,0,1,1-.7-.7.68.68,0,0,1,.7.7"/><path id="Fill-630" class="cls-2" d="M152.3,150.19a.7.7,0,1,1-.7-.7.68.68,0,0,1,.7.7"/><path id="Fill-632" class="cls-2" d="M162.9,150.19a.7.7,0,1,1-.7-.7.68.68,0,0,1,.7.7"/><path id="Fill-634" class="cls-2" d="M173.5,150.19a.7.7,0,1,1-.7-.7.68.68,0,0,1,.7.7"/><path id="Fill-636" class="cls-2" d="M184.1,150.19a.7.7,0,1,1-.7-.7.68.68,0,0,1,.7.7"/><path id="Fill-638" class="cls-2" d="M194.7,150.19a.7.7,0,1,1-.7-.7.68.68,0,0,1,.7.7"/><path id="Fill-640" class="cls-2" d="M205.3,150.19a.7.7,0,1,1-.7-.7.68.68,0,0,1,.7.7"/><path id="Fill-642" class="cls-2" d="M3.9,159.79a.68.68,0,0,1-.7.7.7.7,0,1,1,0-1.4.75.75,0,0,1,.7.7"/><path id="Fill-644" class="cls-2" d="M14.5,159.79a.7.7,0,1,1-.7-.7.84.84,0,0,1,.7.7"/><path id="Fill-646" class="cls-2" d="M25.1,159.79a.7.7,0,1,1-.7-.7.75.75,0,0,1,.7.7"/><path id="Fill-648" class="cls-2" d="M35.7,159.79a.7.7,0,1,1-.7-.7.84.84,0,0,1,.7.7"/><path id="Fill-650" class="cls-2" d="M46.3,159.79a.7.7,0,1,1-.7-.7.84.84,0,0,1,.7.7"/><path id="Fill-652" class="cls-2" d="M56.9,159.79a.7.7,0,1,1-.7-.7.84.84,0,0,1,.7.7"/><path id="Fill-654" class="cls-2" d="M67.5,159.79a.7.7,0,1,1-.7-.7.84.84,0,0,1,.7.7"/><path id="Fill-656" class="cls-2" d="M78.1,159.79a.7.7,0,1,1-.7-.7.75.75,0,0,1,.7.7"/><path id="Fill-658" class="cls-2" d="M88.7,159.79a.7.7,0,1,1-.7-.7.75.75,0,0,1,.7.7"/><path id="Fill-660" class="cls-2" d="M99.3,159.79a.7.7,0,1,1-.7-.7.84.84,0,0,1,.7.7"/><path id="Fill-662" class="cls-2" d="M109.9,159.79a.7.7,0,1,1-.7-.7.75.75,0,0,1,.7.7"/><path id="Fill-664" class="cls-2" d="M120.5,159.79a.7.7,0,1,1-.7-.7.75.75,0,0,1,.7.7"/><path id="Fill-666" class="cls-2" d="M131.1,159.79a.7.7,0,1,1-.7-.7.75.75,0,0,1,.7.7"/><path id="Fill-668" class="cls-2" d="M141.7,159.79a.7.7,0,1,1-.7-.7.84.84,0,0,1,.7.7"/><path id="Fill-670" class="cls-2" d="M152.3,159.79a.7.7,0,1,1-.7-.7.75.75,0,0,1,.7.7"/><path id="Fill-672" class="cls-2" d="M162.9,159.79a.7.7,0,1,1-.7-.7.84.84,0,0,1,.7.7"/><path id="Fill-674" class="cls-2" d="M173.5,159.79a.7.7,0,1,1-.7-.7.84.84,0,0,1,.7.7"/><path id="Fill-676" class="cls-2" d="M184.1,159.79a.7.7,0,1,1-.7-.7.75.75,0,0,1,.7.7"/><path id="Fill-678" class="cls-2" d="M194.7,159.79a.7.7,0,1,1-.7-.7.84.84,0,0,1,.7.7"/><path id="Fill-680" class="cls-2" d="M205.3,159.79a.7.7,0,1,1-.7-.7.84.84,0,0,1,.7.7"/><path id="Fill-682" class="cls-2" d="M216.8,5.89a.7.7,0,1,1-.7-.7.68.68,0,0,1,.7.7"/><path id="Fill-684" class="cls-2" d="M227.4,5.89a.7.7,0,1,1-.7-.7.68.68,0,0,1,.7.7"/><path id="Fill-686" class="cls-2" d="M238,5.89a.7.7,0,1,1-.7-.7.68.68,0,0,1,.7.7"/><path id="Fill-688" class="cls-2" d="M248.6,5.89a.7.7,0,1,1-.7-.7.68.68,0,0,1,.7.7"/><path id="Fill-690" class="cls-2" d="M259.2,5.89a.7.7,0,1,1-.7-.7.68.68,0,0,1,.7.7"/><path id="Fill-692" class="cls-2" d="M216.8,15.49a.7.7,0,1,1-.7-.7.68.68,0,0,1,.7.7"/><path id="Fill-694" class="cls-2" d="M227.4,15.49a.7.7,0,1,1-.7-.7.68.68,0,0,1,.7.7"/><path id="Fill-696" class="cls-2" d="M238,15.49a.7.7,0,1,1-.7-.7.68.68,0,0,1,.7.7"/><path id="Fill-698" class="cls-2" d="M248.6,15.49a.7.7,0,1,1-.7-.7.68.68,0,0,1,.7.7"/><path id="Fill-700" class="cls-2" d="M259.2,15.49a.7.7,0,1,1-.7-.7.68.68,0,0,1,.7.7"/><path id="Fill-702" class="cls-2" d="M216.8,25.09a.7.7,0,1,1-.7-.7.84.84,0,0,1,.7.7"/><path id="Fill-704" class="cls-2" d="M227.4,25.09a.7.7,0,1,1-.7-.7.84.84,0,0,1,.7.7"/><path id="Fill-706" class="cls-2" d="M238,25.09a.7.7,0,1,1-.7-.7.84.84,0,0,1,.7.7"/><path id="Fill-708" class="cls-2" d="M248.6,25.09a.7.7,0,1,1-.7-.7.84.84,0,0,1,.7.7"/><path id="Fill-710" class="cls-2" d="M259.2,25.09a.7.7,0,1,1-.7-.7.75.75,0,0,1,.7.7"/><path id="Fill-712" class="cls-2" d="M216.8,34.79a.7.7,0,1,1-.7-.7.68.68,0,0,1,.7.7"/><path id="Fill-714" class="cls-2" d="M227.4,34.79a.7.7,0,1,1-.7-.7.68.68,0,0,1,.7.7"/><path id="Fill-716" class="cls-2" d="M238,34.79a.7.7,0,1,1-.7-.7.68.68,0,0,1,.7.7"/><path id="Fill-718" class="cls-2" d="M248.6,34.79a.7.7,0,1,1-.7-.7.68.68,0,0,1,.7.7"/><path id="Fill-720" class="cls-2" d="M259.2,34.79a.7.7,0,1,1-.7-.7.68.68,0,0,1,.7.7"/><path id="Fill-722" class="cls-2" d="M216.8,44.39a.7.7,0,1,1-.7-.7.68.68,0,0,1,.7.7"/><path id="Fill-724" class="cls-2" d="M227.4,44.39a.7.7,0,1,1-.7-.7.68.68,0,0,1,.7.7"/><path id="Fill-726" class="cls-2" d="M238,44.39a.7.7,0,1,1-.7-.7.68.68,0,0,1,.7.7"/><path id="Fill-728" class="cls-2" d="M248.6,44.39a.7.7,0,1,1-.7-.7.68.68,0,0,1,.7.7"/><path id="Fill-730" class="cls-2" d="M259.2,44.39a.7.7,0,1,1-.7-.7.68.68,0,0,1,.7.7"/><path id="Fill-732" class="cls-2" d="M216.8,54a.7.7,0,1,1-.7-.7.68.68,0,0,1,.7.7"/><path id="Fill-734" class="cls-2" d="M227.4,54a.7.7,0,1,1-.7-.7.68.68,0,0,1,.7.7"/><path id="Fill-736" class="cls-2" d="M238,54a.7.7,0,1,1-.7-.7.68.68,0,0,1,.7.7"/><path id="Fill-738" class="cls-2" d="M248.6,54a.7.7,0,1,1-.7-.7.68.68,0,0,1,.7.7"/><path id="Fill-740" class="cls-2" d="M259.2,54a.7.7,0,1,1-.7-.7.68.68,0,0,1,.7.7"/><path id="Fill-742" class="cls-2" d="M216.8,63.59a.7.7,0,1,1-.7-.7.68.68,0,0,1,.7.7"/><path id="Fill-744" class="cls-2" d="M227.4,63.59a.7.7,0,1,1-.7-.7.68.68,0,0,1,.7.7"/><path id="Fill-746" class="cls-2" d="M238,63.59a.7.7,0,1,1-.7-.7.68.68,0,0,1,.7.7"/><path id="Fill-748" class="cls-2" d="M248.6,63.59a.7.7,0,1,1-.7-.7.68.68,0,0,1,.7.7"/><path id="Fill-750" class="cls-2" d="M259.2,63.59a.7.7,0,1,1-.7-.7.68.68,0,0,1,.7.7"/><path id="Fill-752" class="cls-2" d="M216.8,73.19a.7.7,0,1,1-.7-.7.84.84,0,0,1,.7.7"/><path id="Fill-754" class="cls-2" d="M227.4,73.19a.7.7,0,1,1-.7-.7.84.84,0,0,1,.7.7"/><path id="Fill-756" class="cls-2" d="M238,73.19a.7.7,0,1,1-.7-.7.84.84,0,0,1,.7.7"/><path id="Fill-758" class="cls-2" d="M248.6,73.19a.7.7,0,1,1-.7-.7.84.84,0,0,1,.7.7"/><path id="Fill-760" class="cls-2" d="M259.2,73.19a.7.7,0,1,1-.7-.7.75.75,0,0,1,.7.7"/><path id="Fill-762" class="cls-2" d="M216.8,82.89a.7.7,0,1,1-.7-.7.68.68,0,0,1,.7.7"/><path id="Fill-764" class="cls-2" d="M227.4,82.89a.7.7,0,1,1-.7-.7.68.68,0,0,1,.7.7"/><path id="Fill-766" class="cls-2" d="M238,82.89a.7.7,0,1,1-.7-.7.68.68,0,0,1,.7.7"/><path id="Fill-768" class="cls-2" d="M248.6,82.89a.7.7,0,1,1-.7-.7.68.68,0,0,1,.7.7"/><path id="Fill-770" class="cls-2" d="M259.2,82.89a.7.7,0,1,1-.7-.7.68.68,0,0,1,.7.7"/><path id="Fill-772" class="cls-2" d="M216.8,92.49a.7.7,0,1,1-.7-.7.68.68,0,0,1,.7.7"/><path id="Fill-774" class="cls-2" d="M227.4,92.49a.7.7,0,1,1-.7-.7.68.68,0,0,1,.7.7"/><path id="Fill-776" class="cls-2" d="M238,92.49a.7.7,0,1,1-.7-.7.68.68,0,0,1,.7.7"/><path id="Fill-778" class="cls-2" d="M248.6,92.49a.7.7,0,1,1-.7-.7.68.68,0,0,1,.7.7"/><path id="Fill-780" class="cls-2" d="M259.2,92.49a.7.7,0,1,1-.7-.7.68.68,0,0,1,.7.7"/><path id="Fill-782" class="cls-2" d="M216.8,102.09a.7.7,0,1,1-.7-.7.68.68,0,0,1,.7.7"/><path id="Fill-784" class="cls-2" d="M227.4,102.09a.7.7,0,1,1-.7-.7.68.68,0,0,1,.7.7"/><path id="Fill-786" class="cls-2" d="M238,102.09a.7.7,0,1,1-.7-.7.68.68,0,0,1,.7.7"/><path id="Fill-788" class="cls-2" d="M248.6,102.09a.7.7,0,1,1-.7-.7.68.68,0,0,1,.7.7"/><path id="Fill-790" class="cls-2" d="M259.2,102.09a.7.7,0,1,1-.7-.7.68.68,0,0,1,.7.7"/><path id="Fill-792" class="cls-2" d="M216.8,111.69a.7.7,0,1,1-.7-.7.68.68,0,0,1,.7.7"/><path id="Fill-794" class="cls-2" d="M227.4,111.69a.7.7,0,1,1-.7-.7.68.68,0,0,1,.7.7"/><path id="Fill-796" class="cls-2" d="M238,111.69a.7.7,0,1,1-.7-.7.68.68,0,0,1,.7.7"/><path id="Fill-798" class="cls-2" d="M248.6,111.69a.7.7,0,1,1-.7-.7.68.68,0,0,1,.7.7"/><path id="Fill-800" class="cls-2" d="M259.2,111.69a.7.7,0,1,1-.7-.7.68.68,0,0,1,.7.7"/><path id="Fill-802" class="cls-2" d="M216.8,121.29a.7.7,0,1,1-.7-.7.84.84,0,0,1,.7.7"/><path id="Fill-804" class="cls-2" d="M227.4,121.29a.7.7,0,1,1-.7-.7.84.84,0,0,1,.7.7"/><path id="Fill-806" class="cls-2" d="M238,121.29a.7.7,0,1,1-.7-.7.84.84,0,0,1,.7.7"/><path id="Fill-808" class="cls-2" d="M248.6,121.29a.7.7,0,1,1-.7-.7.84.84,0,0,1,.7.7"/><path id="Fill-810" class="cls-2" d="M259.2,121.29a.7.7,0,1,1-.7-.7.75.75,0,0,1,.7.7"/><path id="Fill-812" class="cls-2" d="M216.8,131a.7.7,0,1,1-.7-.7.68.68,0,0,1,.7.7"/><path id="Fill-814" class="cls-2" d="M227.4,131a.7.7,0,1,1-.7-.7.68.68,0,0,1,.7.7"/><path id="Fill-816" class="cls-2" d="M238,131a.7.7,0,1,1-.7-.7.68.68,0,0,1,.7.7"/><path id="Fill-818" class="cls-2" d="M248.6,131a.7.7,0,1,1-.7-.7.68.68,0,0,1,.7.7"/><path id="Fill-820" class="cls-2" d="M259.2,131a.7.7,0,1,1-.7-.7.68.68,0,0,1,.7.7"/><path id="Fill-822" class="cls-2" d="M216.8,140.59a.7.7,0,1,1-.7-.7.68.68,0,0,1,.7.7"/><path id="Fill-824" class="cls-2" d="M227.4,140.59a.7.7,0,1,1-.7-.7.68.68,0,0,1,.7.7"/><path id="Fill-826" class="cls-2" d="M238,140.59a.7.7,0,1,1-.7-.7.68.68,0,0,1,.7.7"/><path id="Fill-828" class="cls-2" d="M248.6,140.59a.7.7,0,1,1-.7-.7.68.68,0,0,1,.7.7"/><path id="Fill-830" class="cls-2" d="M259.2,140.59a.7.7,0,1,1-.7-.7.68.68,0,0,1,.7.7"/><path id="Fill-832" class="cls-2" d="M216.8,150.19a.7.7,0,1,1-.7-.7.68.68,0,0,1,.7.7"/><path id="Fill-834" class="cls-2" d="M227.4,150.19a.7.7,0,1,1-.7-.7.68.68,0,0,1,.7.7"/><path id="Fill-836" class="cls-2" d="M238,150.19a.7.7,0,1,1-.7-.7.68.68,0,0,1,.7.7"/><path id="Fill-838" class="cls-2" d="M248.6,150.19a.7.7,0,1,1-.7-.7.68.68,0,0,1,.7.7"/><path id="Fill-840" class="cls-2" d="M259.2,150.19a.7.7,0,1,1-.7-.7.68.68,0,0,1,.7.7"/><path id="Fill-842" class="cls-2" d="M216.8,159.79a.7.7,0,1,1-.7-.7.84.84,0,0,1,.7.7"/><path id="Fill-844" class="cls-2" d="M227.4,159.79a.7.7,0,1,1-.7-.7.84.84,0,0,1,.7.7"/><path id="Fill-846" class="cls-2" d="M238,159.79a.7.7,0,1,1-.7-.7.84.84,0,0,1,.7.7"/><path id="Fill-848" class="cls-2" d="M248.6,159.79a.7.7,0,1,1-.7-.7.84.84,0,0,1,.7.7"/><path id="Fill-850" class="cls-2" d="M259.2,159.79a.7.7,0,1,1-.7-.7.75.75,0,0,1,.7.7"/><path id="Fill-852" class="cls-3" d="M120,45a2.11,2.11,0,0,0-2.1,2.1v10.4a2.11,2.11,0,0,0,2.1,2.1h21.3a2.11,2.11,0,0,0,2.1-2.1V47.09a2.11,2.11,0,0,0-2.1-2.1Zm21.3,19.9H120a7.38,7.38,0,0,1-7.4-7.4V47.09a7.38,7.38,0,0,1,7.4-7.4h21.3a7.38,7.38,0,0,1,7.4,7.4v10.4a7.32,7.32,0,0,1-7.4,7.4Z"/><path id="Fill-854" class="cls-3" d="M178.9,119.89H82.4a1.16,1.16,0,0,1-1.2-1.2V64.49h98.9v54.2a1.22,1.22,0,0,1-1.2,1.2"/><path id="Fill-856" class="cls-4" d="M81.2,72.49V53.69a.68.68,0,0,1,.7-.7h97.4a.68.68,0,0,1,.7.7v18.8l-49.4,18.1Z"/><polygon id="Fill-858" class="cls-5" points="124.8 96.79 136.5 96.79 136.5 84.49 124.8 84.49 124.8 96.79"/><polygon id="Fill-860" class="cls-6" points="124.8 96.79 136.5 96.79 136.5 91.49 124.8 91.49 124.8 96.79"/></g></g></g></g></g></g></svg>