<svg id="Layer_1" data-name="Layer 1" xmlns="http://www.w3.org/2000/svg" width="40" height="40" viewBox="0 0 40 40"><defs><style>.cls-1{fill:#1d4354;}.cls-2{fill:#54d318;}.cls-3{fill:#336278;}.cls-4{fill:rgb(255, 115, 0);}</style></defs><path class="cls-1" d="M36.24,21.84V16.27a16.27,16.27,0,0,0-32.54,0v4.48L6,22.56V16.3a14,14,0,1,1,28,0v5Z"/><path class="cls-1" d="M5.34,34.35H3.9c-2.19,0-3.33-3-3.33-6.8s1.26-6.8,3.33-6.8H5.34"/><path class="cls-2" d="M18.69,39a.55.55,0,0,1,0-1.09l12.17,0c3.12,0,3.77-1.75,3.77-3.22v-.49a.55.55,0,0,1,1.1,0v.49c0,1.3-.48,4.32-4.87,4.32L18.69,39Z"/><path class="cls-3" d="M4.76,20.75H6.19a1.5,1.5,0,0,1,1.5,1.5v10.6a1.5,1.5,0,0,1-1.5,1.5H4.76a0,0,0,0,1,0,0V20.75A0,0,0,0,1,4.76,20.75Z"/><path class="cls-1" d="M34.66,20.75H36.1c2.19,0,3.33,3.05,3.33,6.8s-1.26,6.8-3.33,6.8H34.66"/><path class="cls-3" d="M32.31,20.75h1.42a1.5,1.5,0,0,1,1.5,1.5v10.6a1.5,1.5,0,0,1-1.5,1.5H32.31a0,0,0,0,1,0,0V20.75A0,0,0,0,1,32.31,20.75Z" transform="translate(67.55 55.11) rotate(180)"/><rect class="cls-4" x="17.17" y="36.69" width="4.59" height="3.31" rx="0.3"/></svg>