<svg id="Layer_1" data-name="Layer 1" xmlns="http://www.w3.org/2000/svg" width="40" height="40" viewBox="0 0 40 40"><defs><style>.cls-1{fill:rgb(255, 115, 0);}.cls-2{fill:#fff;}</style></defs><path class="cls-1" d="M35.71,4.84a17,17,0,0,1-8-.19A15.15,15.15,0,0,1,20.22,0h-.44C13.33,7.26,4.29,4.84,4.29,4.84S.3,33,19.68,39.9h0l.26.09h.12C39.74,33.23,35.71,4.84,35.71,4.84Z"/><path class="cls-2" d="M14.56,16.56V12.91a5.8,5.8,0,0,1,5.8-5.8h0a5.8,5.8,0,0,1,5.79,5.8v3.65l-1.69,0V12.9a4.1,4.1,0,0,0-4.1-4.11h0a4.11,4.11,0,0,0-4.11,4.11v3.68Z"/><rect class="cls-2" x="13.09" y="15.63" width="14.53" height="13.43"/><path class="cls-1" d="M21.53,21.28a1.17,1.17,0,1,0-1.8,1,.36.36,0,0,1,.13.43l-.67,1.92h2.34l-.68-1.93a.36.36,0,0,1,.13-.42A1.16,1.16,0,0,0,21.53,21.28Z"/></svg>