<svg id="Layer_1" data-name="Layer 1" xmlns="http://www.w3.org/2000/svg" width="40" height="40" viewBox="0 0 40 40"><defs><style>.cls-1{fill:rgb(255, 115, 0);}.cls-2{fill:#1d4354;}.cls-3{fill:#f2f2f2;}.cls-4{fill:#e0e0e0;}</style></defs><title>Digital Marketing</title><path class="cls-1" d="M18.75,31.92H3.55a.75.75,0,0,1-.74-.75V24a.74.74,0,0,1,.74-.74h15.2a.75.75,0,0,1,.75.74v7.15A.76.76,0,0,1,18.75,31.92ZM4.3,30.43H18V24.77H4.3Z"/><path class="cls-2" d="M.5,14.74H9.22a0,0,0,0,1,0,0V25.29a0,0,0,0,1,0,0H.5a.5.5,0,0,1-.5-.5V15.24A.5.5,0,0,1,.5,14.74Z"/><path class="cls-3" d="M9.22,20.5v4.79s16,1.41,27.92,10.13V4.61C25.25,13.33,9.22,14.74,9.22,14.74V20.5Z"/><rect class="cls-4" x="36.46" y="3.07" width="3.54" height="33.86" rx="1"/></svg>