<?xml version="1.0" encoding="utf-8"?>
<!-- Generator: Adobe Illustrator 19.0.0, SVG Export Plug-In . SVG Version: 6.00 Build 0)  -->
<svg version="1.1" id="Layer_1" xmlns="http://www.w3.org/2000/svg" xmlns:xlink="http://www.w3.org/1999/xlink" x="0px" y="0px"
	 width="30px" height="30px" viewBox="-2 4 30 30" style="enable-background:new -2 4 30 30;" xml:space="preserve">
<style type="text/css">
	.st0{fill:#B2B2B2;}
	.st1{fill:#7D7D7D;}
</style>
<circle class="st0" cx="13" cy="19" r="15"/>
<g>
	<path class="st1" d="M20.9,22.3c-0.1,1.3-0.4,2.4-1.3,3.4c-0.9,0.9-2.1,1.2-3.4,1.3c-1.1,0.1-2.2,0.1-3.3,0.1s-2.2,0-3.3-0.1
		c-1.3-0.1-2.4-0.4-3.4-1.3c-0.9-0.9-1.2-2.1-1.3-3.4c-0.1-1.1-0.1-2.2-0.1-3.3c0-1.1,0-2.2,0.1-3.3c0.1-1.3,0.4-2.4,1.3-3.4
		c0.9-0.9,2.1-1.2,3.4-1.3c1.1-0.1,2.2-0.1,3.3-0.1s2.2,0,3.3,0.1c1.3,0.1,2.4,0.4,3.4,1.3c0.9,0.9,1.2,2.1,1.3,3.4
		C21,16.8,21,17.9,21,19C21,20.1,21,21.2,20.9,22.3z M8.3,12.8c-0.4,0.1-0.6,0.3-0.9,0.6c-0.3,0.3-0.5,0.6-0.6,0.9
		c-0.4,1.1-0.3,3.6-0.3,4.7c0,1.2-0.1,3.7,0.3,4.7c0.1,0.4,0.3,0.6,0.6,0.9c0.3,0.3,0.6,0.5,0.9,0.6c1.1,0.4,3.6,0.3,4.7,0.3
		s3.7,0.1,4.7-0.3c0.4-0.1,0.6-0.3,0.9-0.6c0.3-0.3,0.5-0.6,0.6-0.9c0.4-1.1,0.3-3.6,0.3-4.7c0-1.2,0.1-3.7-0.3-4.7
		c-0.1-0.4-0.3-0.6-0.6-0.9c-0.3-0.3-0.6-0.5-0.9-0.6c-1.1-0.4-3.6-0.3-4.7-0.3S9.3,12.3,8.3,12.8z M13,23.1c-2.3,0-4.1-1.8-4.1-4.1
		c0-2.3,1.8-4.1,4.1-4.1s4.1,1.8,4.1,4.1C17.1,21.3,15.3,23.1,13,23.1z M13,16.3c-1.5,0-2.7,1.2-2.7,2.7s1.2,2.7,2.7,2.7
		s2.7-1.2,2.7-2.7S14.5,16.3,13,16.3z M17.3,15.7c-0.5,0-1-0.4-1-1c0-0.5,0.4-1,1-1c0.5,0,1,0.4,1,1C18.2,15.3,17.8,15.7,17.3,15.7z
		"/>
</g>
</svg>
