<svg id="Layer_1" data-name="Layer 1" xmlns="http://www.w3.org/2000/svg" width="40" height="40" viewBox="0 0 40 40"><defs><style>.cls-1{fill:#fff;}.cls-2{fill:none;stroke:#e0e0e0;stroke-linecap:round;stroke-miterlimit:10;stroke-width:1.6px;}.cls-3{fill:#f2f2f2;}.cls-4{fill:rgb(255, 115, 0);}</style></defs><title>IoT</title><rect class="cls-1" x="-690.01" y="-101.29" width="1652.33" height="174.17"/><polyline class="cls-2" points="14.07 21.5 14.07 31.91 4.68 31.91"/><polyline class="cls-2" points="25.93 21.5 25.93 31.91 35.32 31.91"/><line class="cls-2" x1="20" y1="21.65" x2="20" y2="35.44"/><path class="cls-3" d="M31.41,22.84a7.86,7.86,0,1,0,0-15.71,7.34,7.34,0,0,0-.81,0,11.41,11.41,0,0,0-21.19,0,7.37,7.37,0,0,0-.82,0,7.86,7.86,0,1,0,0,15.71Z"/><circle class="cls-4" cx="20" cy="37.5" r="2.5"/><circle class="cls-4" cx="3.46" cy="31.91" r="2.5"/><circle class="cls-4" cx="36.45" cy="31.91" r="2.5"/></svg>