<svg id="Layer_1" data-name="Layer 1" xmlns="http://www.w3.org/2000/svg" width="40" height="40" viewBox="0 0 40 40"><defs><style>.cls-1{fill:#f2f2f2;}.cls-2{fill:rgb(255, 115, 0);}.cls-3{fill:#336278;}.cls-4{fill:#1d4354;}.cls-5{fill:#d1d1d1;}</style></defs><rect class="cls-1" x="0.06" y="3.22" width="39.88" height="33.57" rx="0.5"/><path class="cls-2" d="M10.84,9.85a7,7,0,0,1,5,12l-5-4.93Z"/><path class="cls-3" d="M10.84,9.85a7,7,0,1,0,5,12l-5-4.93Z"/><path class="cls-4" d="M10.84,9.85a7,7,0,0,0-7,7h7Z"/><circle class="cls-1" cx="10.84" cy="16.87" r="3.31"/><rect class="cls-5" x="20.27" y="20.87" width="3.91" height="9.28"/><rect class="cls-5" x="26.37" y="15.91" width="3.91" height="14.24"/><rect class="cls-5" x="32.47" y="10.96" width="3.91" height="19.2"/><path class="cls-5" d="M5.27,27.22H16.42a.63.63,0,0,0,0-1.25H5.27a.63.63,0,0,0,0,1.25Z"/><path class="cls-5" d="M5.27,30.15H16.42a.63.63,0,0,0,0-1.25H5.27a.63.63,0,0,0,0,1.25Z"/></svg>