<?xml version="1.0" encoding="UTF-8"?>
<svg width="290px" height="85px" viewBox="0 0 290 85" version="1.1" xmlns="http://www.w3.org/2000/svg" xmlns:xlink="http://www.w3.org/1999/xlink">
    <!-- Generator: Sketch 52.5 (67469) - http://www.bohemiancoding.com/sketch -->
    <title>upwork-logo</title>
    <desc>Created with Sketch.</desc>
    <defs>
        <polygon id="path-1" points="0 1.8598 101.2826 1.8598 101.2826 73.6649667 0 73.6649667"></polygon>
        <polygon id="path-3" points="1.05031667 1.09055 6.71783333 1.09055 6.71783333 6.78838333 1.05031667 6.78838333"></polygon>
    </defs>
    <g id="Page-1" stroke="none" stroke-width="1" fill="none" fill-rule="evenodd">
        <g id="upwork-logo">
            <g>
                <path d="M185.320117,56.12635 C177.85995,56.12635 171.805117,50.07435 171.805117,42.61135 C171.805117,35.14835 177.85995,29.0991833 185.320117,29.0991833 C192.78595,29.0991833 198.835117,35.14835 198.835117,42.61135 C198.835117,50.07435 192.78595,56.12635 185.320117,56.12635 M185.320117,19.6330167 C172.629617,19.6330167 162.341783,29.9236833 162.341783,42.61135 C162.341783,55.3046833 172.629617,65.5925167 185.320117,65.5925167 C198.010617,65.5925167 208.301283,55.3046833 208.301283,42.61135 C208.301283,29.9236833 198.010617,19.6330167 185.320117,19.6330167" id="Fill-1" fill="#494949"></path>
                <path d="M236.239933,30.6595 C229.680767,30.6595 224.365433,35.9748333 224.365433,42.5311667 L224.365433,64.2996667 L214.5281,64.2996667 L214.5281,20.9241667 L224.365433,20.9241667 L224.365433,27.6136667 C224.365433,27.6136667 228.5531,20.9241667 237.177767,20.9241667 L240.1896,20.9241667 L240.1896,30.6595 L236.239933,30.6595 Z" id="Fill-3" fill="#494949"></path>
                <polygon id="Fill-5" fill="#494949" points="136.49895 20.9253 143.93645 50.9473 152.133283 20.9253 161.899783 20.9253 149.297117 64.3008 139.527783 64.3008 131.812617 34.1116333 124.094617 64.3008 114.325283 64.3008 101.722617 20.9253 111.49195 20.9253 119.688783 50.9473 127.12345 20.9253"></polygon>
                <path d="M269.236933,40.9303333 C276.226767,36.9863333 280.961267,29.4978333 280.961267,20.9213333 L271.1211,20.9213333 C271.1211,28.152 265.2391,34.0311667 258.008433,34.0311667 L256.690933,34.0311667 L256.690933,0 L246.8536,0 L246.8536,64.2996667 L256.690933,64.2996667 L256.690933,43.8713333 L257.863933,43.8713333 C258.827267,43.8713333 260.0796,44.5088333 260.646267,45.2795 L274.608933,64.2996667 L286.398433,64.2996667 L269.236933,40.9303333 Z" id="Fill-7" fill="#494949"></path>
                <g id="Group-11" transform="translate(0.000000, 11.333333)">
                    <mask id="mask-2" fill="white">
                        <use xlink:href="#path-1"></use>
                    </mask>
                    <g id="Clip-10"></g>
                    <path d="M78.3326,42.6541333 C73.6746,42.6541333 69.3141,40.6821333 65.3474333,37.4748 L66.3107667,32.9329667 L66.3476,32.7573 C67.2174333,27.9349667 69.9289333,19.8429667 78.3326,19.8429667 C84.6226,19.8429667 89.7367667,24.9599667 89.7367667,31.2499667 C89.7367667,37.5371333 84.6226,42.6541333 78.3326,42.6541333 M78.3326,8.29996667 C67.6141,8.29996667 59.2982667,15.2558 55.9237667,26.7251333 C50.7727667,18.9844667 46.8571,9.68546667 44.5819333,1.8598 L33.0361,1.8598 L33.0361,31.8789667 C33.0361,37.8034667 28.2166,42.6229667 22.2892667,42.6229667 C16.3647667,42.6229667 11.5452667,37.8034667 11.5452667,31.8789667 L11.5452667,1.8598 L-0.000566666667,1.8598 L-0.000566666667,31.8789667 C-0.000566666667,44.1671333 9.99826667,54.2594667 22.2892667,54.2594667 C34.5802667,54.2594667 44.5819333,44.1671333 44.5819333,31.8789667 L44.5819333,26.8554667 C46.8174333,31.5219667 49.5714333,36.2564667 52.9147667,40.4441333 L45.8512667,73.6649667 L57.6549333,73.6649667 L62.7747667,49.5674667 C67.2599333,52.4348 72.4194333,54.2594667 78.3326,54.2594667 C90.9862667,54.2594667 101.2826,43.9008 101.2826,31.2499667 C101.2826,18.5963 90.9862667,8.29996667 78.3326,8.29996667" id="Fill-9" fill="rgb(255, 115, 0)" mask="url(#mask-2)"></path>
                </g>
                <g id="Group-14" transform="translate(283.333333, 19.833333)">
                    <mask id="mask-4" fill="white">
                        <use xlink:href="#path-3"></use>
                    </mask>
                    <g id="Clip-13"></g>
                    <path d="M4.03098333,3.87288333 C4.40498333,3.87288333 4.61748333,3.68021667 4.61748333,3.40255 C4.61748333,3.09371667 4.40498333,2.92938333 4.03098333,2.92938333 L3.32831667,2.92938333 L3.32831667,3.87288333 L4.03098333,3.87288333 Z M2.77581667,2.43921667 L4.07915,2.43921667 C4.71381667,2.43921667 5.18698333,2.75088333 5.18698333,3.35155 C5.18698333,3.82471667 4.90931667,4.11938333 4.51831667,4.23271667 L5.28331667,5.32355 L4.61748333,5.32355 L3.93181667,4.32905 L3.32831667,4.32905 L3.32831667,5.32355 L2.77581667,5.32355 L2.77581667,2.43921667 Z M6.39115,3.93805 L6.39115,3.92388333 C6.39115,2.53838333 5.31731667,1.39938333 3.88365,1.39938333 C2.46698333,1.39938333 1.37615,2.55538333 1.37615,3.93805 L1.37615,3.95505 C1.37615,5.34055 2.44998333,6.47955 3.88365,6.47955 C5.30031667,6.47955 6.39115,5.32355 6.39115,3.93805 Z M1.05031667,3.95505 L1.05031667,3.93805 C1.05031667,2.39388333 2.30548333,1.09055 3.88365,1.09055 C5.48165,1.09055 6.71981667,2.37688333 6.71981667,3.92388333 L6.71981667,3.93805 C6.71981667,5.48505 5.46465,6.78838333 3.88365,6.78838333 C2.28848333,6.78838333 1.05031667,5.50205 1.05031667,3.95505 Z" id="Fill-12" fill="#494949" mask="url(#mask-4)"></path>
                </g>
            </g>
        </g>
    </g>
</svg>