<?xml version="1.0" encoding="UTF-8"?>
<svg width="586px" height="100px" viewBox="0 0 586 100" version="1.1" xmlns="http://www.w3.org/2000/svg" xmlns:xlink="http://www.w3.org/1999/xlink">
    <!-- Generator: Sketch 49.3 (51167) - http://www.bohemiancoding.com/sketch -->
    <title>logo-upwork-legal</title>
    <desc>Created with Sketch.</desc>
    <defs>
        <polygon id="path-1" points="0 100 585.835 100 585.835 0 0 0"></polygon>
    </defs>
    <g id="Page-1" stroke="none" stroke-width="1" fill="none" fill-rule="evenodd">
        <g id="Artboard">
            <g id="logo-upwork-legal">
                <path d="M218.0245,66.0305 C209.2465,66.0305 202.1255,58.9115 202.1255,50.1315 C202.1255,41.3505 209.2465,34.2335 218.0245,34.2335 C226.8065,34.2335 233.9245,41.3505 233.9245,50.1315 C233.9245,58.9115 226.8065,66.0305 218.0245,66.0305 M218.0245,23.0975 C203.0955,23.0975 190.9905,35.2025 190.9905,50.1315 C190.9905,65.0635 203.0955,77.1655 218.0245,77.1655 C232.9565,77.1655 245.0605,65.0635 245.0605,50.1315 C245.0605,35.2025 232.9565,23.0975 218.0245,23.0975" id="Fill-1" fill="#494949"></path>
                <path d="M277.9288,36.0686 C270.2118,36.0686 263.9568,42.3246 263.9568,50.0396 L263.9598,75.6476 L252.3878,75.6476 L252.3878,24.6186 L263.9598,24.6186 L263.9598,32.4866 C263.9598,32.4866 268.8858,24.6186 279.0308,24.6186 L282.5748,24.6186 L282.5748,36.0686 L277.9288,36.0686 Z" id="Fill-3" fill="#494949"></path>
                <polygon id="Fill-5" fill="#494949" points="160.588 24.6184 169.336 59.9364 178.979 24.6184 190.472 24.6184 175.645 75.6454 164.151 75.6454 155.072 40.1324 145.995 75.6454 134.5 75.6454 119.675 24.6184 131.168 24.6184 140.81 59.9364 149.559 24.6184"></polygon>
                <path d="M316.7491,48.1536 C324.9741,43.5136 330.5441,34.7046 330.5441,24.6146 L318.9651,24.6146 C318.9651,33.1196 312.0471,40.0366 303.5401,40.0366 L301.9901,40.0366 L301.9901,0.0006 L290.4151,0.0006 L290.4151,75.6476 L301.9901,75.6476 L301.9901,51.6146 L303.3681,51.6146 C304.5011,51.6146 305.9741,52.3616 306.6421,53.2716 L323.0671,75.6476 L336.9391,75.6476 L316.7491,48.1536 Z" id="Fill-7" fill="#494949"></path>
                <path d="M92.1563,63.5139 C86.6763,63.5139 81.5473,61.1939 76.8793,57.4199 L78.0143,52.0779 L78.0553,51.8709 C79.0793,46.1979 82.2693,36.6789 92.1563,36.6789 C99.5553,36.6789 105.5733,42.6989 105.5733,50.0969 C105.5733,57.4949 99.5553,63.5139 92.1563,63.5139 M92.1563,23.0979 C79.5453,23.0979 69.7603,31.2829 65.7943,44.7759 C59.7323,35.6689 55.1253,24.7299 52.4493,15.5209 L38.8673,15.5209 L38.8673,50.8389 C38.8673,57.8079 33.1953,63.4779 26.2233,63.4779 C19.2533,63.4779 13.5823,57.8079 13.5823,50.8389 L13.5823,15.5209 L0.0003,15.5209 L0.0003,50.8389 C0.0003,65.2959 11.7643,77.1649 26.2233,77.1649 C40.6833,77.1649 52.4493,65.2959 52.4493,50.8389 L52.4493,44.9259 C55.0813,50.4179 58.3183,55.9879 62.2523,60.9129 L53.9433,99.9999 L67.8283,99.9999 L73.8543,71.6509 C79.1303,75.0229 85.1983,77.1649 92.1563,77.1649 C107.0443,77.1649 119.1563,64.9839 119.1563,50.0969 C119.1563,35.2099 107.0443,23.0979 92.1563,23.0979" id="Fill-9" fill="rgb(255, 115, 0)"></path>
                <mask id="mask-2" fill="white">
                    <use xlink:href="#path-1"></use>
                </mask>
                <g id="Clip-12"></g>
                <polygon id="Fill-11" fill="rgb(255, 115, 0)" mask="url(#mask-2)" points="375.524 77.146 385.005 77.146 385.005 2.882 375.524 2.882"></polygon>
                <path d="M439.0997,47.0012 C438.8177,42.3092 437.2187,38.5562 434.3457,35.8442 C431.4477,33.1132 427.5757,31.7292 422.8347,31.7292 C418.2247,31.7292 414.3337,33.1312 411.2737,35.8962 C408.2357,38.6392 406.3877,42.3752 405.7797,47.0012 L439.0997,47.0012 Z M422.9347,77.4452 C417.7497,77.4452 413.0817,76.3162 409.0617,74.0892 C405.0367,71.8612 401.8677,68.6752 399.6387,64.6162 C397.4117,60.5642 396.2837,55.8802 396.2837,50.6942 C396.2837,45.5122 397.4117,40.8442 399.6387,36.8202 C401.8677,32.7982 405.0197,29.5952 409.0097,27.3002 C412.9997,25.0062 417.6187,23.8432 422.7357,23.8432 C430.9117,23.8432 437.1827,26.2892 441.3757,31.1142 C445.5657,35.9362 447.6897,42.7252 447.6897,51.2932 C447.6897,52.6122 447.6567,53.6232 447.5897,54.2972 L447.5807,54.3872 L405.8827,54.3872 C406.6207,59.0132 408.6017,62.7482 411.7707,65.4912 C414.9627,68.2572 418.9547,69.6592 423.6337,69.6592 C426.7367,69.6592 429.6617,69.0912 432.3287,67.9712 C434.9977,66.8512 437.3547,65.2462 439.3317,63.2022 L439.4047,63.1282 L444.6327,68.5612 L444.5687,68.6302 C441.9767,71.4222 438.8077,73.6122 435.1517,75.1422 C431.4967,76.6712 427.3867,77.4452 422.9347,77.4452 Z" id="Fill-13" fill="rgb(255, 115, 0)" mask="url(#mask-2)"></path>
                <path d="M478.8321,31.6292 C475.6041,31.6292 472.6841,32.3982 470.1501,33.9112 C467.6131,35.4272 465.5941,37.5472 464.1471,40.2112 C462.6981,42.8782 461.9631,45.9682 461.9631,49.3972 C462.0281,54.5362 463.6311,58.8122 466.7281,62.1052 C469.8201,65.3962 473.8931,67.0652 478.8321,67.0652 C482.0601,67.0652 484.9641,66.2972 487.4651,64.7822 C489.9651,63.2702 491.9511,61.1502 493.3681,58.4832 C494.7831,55.8152 495.5021,52.7572 495.5021,49.3972 C495.5021,45.9702 494.7831,42.8792 493.3681,40.2102 C491.9521,37.5452 489.9661,35.4262 487.4651,33.9112 C484.9631,32.3972 482.0591,31.6292 478.8321,31.6292 M478.0341,96.8102 C470.2641,96.8102 462.9221,94.3182 456.2141,89.4042 L456.1411,89.3502 L460.3401,82.3862 L460.4301,82.4592 C463.0031,84.5702 465.7131,86.1592 468.4851,87.1842 C471.2571,88.2062 474.3351,88.7252 477.6351,88.7252 C483.0381,88.7252 487.4141,87.1892 490.6431,84.1592 C493.8671,81.1322 495.5021,77.0252 495.5021,71.9552 L495.5021,64.9332 C493.6531,67.9822 491.1521,70.3892 488.0631,72.0932 C484.8711,73.8572 481.1611,74.7502 477.0361,74.7502 C472.3131,74.7502 468.0821,73.6542 464.4581,71.4922 C460.8321,69.3322 457.9811,66.2792 455.9851,62.4192 C453.9901,58.5642 452.9791,54.0822 452.9791,49.0972 C452.9791,44.1782 453.9901,39.7632 455.9851,35.9742 C457.9801,32.1832 460.8311,29.1812 464.4581,27.0512 C468.0841,24.9222 472.3151,23.8432 477.0361,23.8432 C481.2241,23.8432 484.9501,24.7202 488.1131,26.4502 C491.1731,28.1272 493.6571,30.5182 495.5021,33.5612 L495.5021,24.1432 L505.0841,24.1432 L505.0841,71.6552 C505.0841,76.7062 503.9551,81.1912 501.7271,84.9832 C499.4981,88.7742 496.3111,91.7252 492.2531,93.7562 C488.1961,95.7822 483.4121,96.8102 478.0341,96.8102" id="Fill-14" fill="rgb(255, 115, 0)" mask="url(#mask-2)"></path>
                <path d="M536.626,53.0901 C532.473,53.0901 529.351,53.7241 527.346,54.9721 C525.357,56.2101 524.349,58.1961 524.349,60.8751 C524.349,63.5601 525.377,65.7161 527.404,67.2841 C529.439,68.8611 532.205,69.6591 535.628,69.6591 C539.911,69.6591 543.604,68.6081 546.602,66.5331 C549.592,64.4621 551.408,61.6801 551.999,58.2641 L551.998,53.0901 L536.626,53.0901 Z M533.731,77.5451 C530.072,77.5451 526.816,76.8361 524.054,75.4381 C521.287,74.0381 519.125,72.0781 517.626,69.6111 C516.125,67.1481 515.365,64.3421 515.365,61.2751 C515.365,56.5411 517.141,52.7361 520.643,49.9671 C524.139,47.2041 529.079,45.7711 535.327,45.7031 L551.998,45.7031 L551.998,43.3081 C551.998,39.6291 550.851,36.7491 548.588,34.7481 C546.32,32.7441 542.968,31.7291 538.622,31.7291 C533.344,31.7291 527.889,33.6371 522.409,37.4011 L522.322,37.4611 L518.323,30.8991 L518.404,30.8461 C522.191,28.3891 525.742,26.5891 528.958,25.4951 C532.182,24.3991 536.071,23.8431 540.519,23.8431 C547.101,23.8431 552.262,25.4811 555.857,28.7101 C559.455,31.9421 561.313,36.5171 561.381,42.3091 L561.481,77.1461 L552.098,77.1461 L552.098,69.9531 C548.159,74.9911 541.982,77.5451 533.731,77.5451 Z" id="Fill-15" fill="rgb(255, 115, 0)" mask="url(#mask-2)"></path>
                <polygon id="Fill-16" fill="rgb(255, 115, 0)" mask="url(#mask-2)" points="576.354 77.146 585.835 77.146 585.835 2.882 576.354 2.882"></polygon>
            </g>
        </g>
    </g>
</svg>