<?xml version="1.0" encoding="utf-8"?>
<!-- Generator: Adobe Illustrator 21.1.0, SVG Export Plug-In . SVG Version: 6.00 Build 0)  -->
<svg version="1.1" id="Layer_1" xmlns="http://www.w3.org/2000/svg" xmlns:xlink="http://www.w3.org/1999/xlink" x="0px" y="0px"
	 viewBox="0 0 240.6 51" style="enable-background:new 0 0 240.6 51;" xml:space="preserve">
<style type="text/css">
	.st0{fill:#494949;}
</style>
<g>
	<title>GoDaddy-logo-white</title>
	<path class="st0" d="M71.1,25.2c0,7.8-6.5,14-14.7,14s-14.7-6.2-14.7-14c0.2-8.1,7-14.5,15.1-14.3C64.7,11.1,70.9,17.4,71.1,25.2
		L71.1,25.2z M61.8,25.1c0-3-2.5-5.3-5.4-5.3c-3,0-5.3,2.5-5.3,5.4s2.4,5.3,5.4,5.3C59.4,30.5,61.8,28.1,61.8,25.1z"/>
	<path class="st0" d="M110.5,19.5c0,11.2-7.8,18.9-18.9,18.9h-16c-0.7,0-1.3-0.6-1.3-1.3l0,0v-35c0-0.7,0.6-1.3,1.3-1.3h16
		C102.6,0.8,110.5,8.3,110.5,19.5z M100.4,19.5c0-5.3-3.6-9.8-9-9.8H84v19.8h7.4C96.7,29.5,100.4,24.7,100.4,19.5z"/>
	<path class="st0" d="M124.7,11c3.2,0,5.7,1.2,6.8,2.8V13c0-0.7,0.6-1.2,1.2-1.2h6.7c0.7,0,1.2,0.5,1.2,1.2l0,0v24.1
		c0,0.7-0.5,1.2-1.2,1.2l0,0h-6.7c-0.7,0-1.2-0.5-1.2-1.2l0,0v-0.8c-1.1,1.7-3.7,2.8-6.9,2.8c-6.8,0-13.2-5.4-13.2-14.2
		S117.9,11,124.7,11z M126.1,30.6c3,0.1,5.5-2.3,5.6-5.4c0.1-3-2.3-5.5-5.4-5.6c-3-0.1-5.5,2.3-5.6,5.4v0.1
		C120.7,28.1,123.1,30.5,126.1,30.6C126,30.6,126.1,30.6,126.1,30.6L126.1,30.6z"/>
	<path class="st0" d="M155,11c3.3,0,5.8,1.2,6.9,2.7V2.1c0-0.7,0.6-1.2,1.2-1.2h6.8c0.7,0,1.2,0.5,1.2,1.2l0,0v35.1
		c0,0.7-0.5,1.2-1.2,1.2l0,0h-6.7c-0.7,0-1.2-0.5-1.3-1.2c0,0,0,0,0-0.1v-0.8c-1.7,1.9-4.3,3-6.9,2.8c-6.8,0-13.2-5.4-13.2-14.2
		S148.3,11,155,11z M156.6,30.6c3,0.1,5.5-2.3,5.6-5.4c0.1-3-2.3-5.5-5.4-5.6c-3-0.1-5.5,2.3-5.6,5.4v0.1
		C151.2,28.1,153.6,30.6,156.6,30.6L156.6,30.6z"/>
	<path class="st0" d="M185.5,11c3.3,0,5.8,1.2,6.9,2.7V2.1c0-0.7,0.6-1.2,1.2-1.2h6.8c0.7,0,1.2,0.5,1.2,1.2l0,0v35.1
		c0,0.7-0.5,1.2-1.2,1.2l0,0h-6.7c-0.7,0-1.2-0.5-1.2-1.2l0,0v-0.8c-1.7,1.9-4.3,3-6.9,2.8c-6.8,0-13.2-5.4-13.2-14.2
		S178.8,11,185.5,11z M187.1,30.6c3,0.1,5.5-2.3,5.6-5.4c0.1-3-2.3-5.5-5.4-5.6c-3-0.1-5.5,2.3-5.6,5.4v0.1
		C181.7,28.1,184.1,30.5,187.1,30.6L187.1,30.6L187.1,30.6z"/>
	<path class="st0" d="M224.1,42.2c-1.7,5.6-5.6,8.8-11.7,8.8c-3.1,0.1-6.2-1-8.6-2.9c-0.3-0.3-0.5-0.7-0.5-1.1s0.2-0.8,0.4-1.1
		l2.5-3.9c0.2-0.3,0.6-0.6,1.1-0.6s1,0.2,1.4,0.5c0.9,0.7,2,1.1,3.1,1.2c1.3,0.1,2.5-0.7,2.9-2l0.9-2.7h-4.1c-0.8,0-1.4-0.5-1.6-1.3
		l-6.8-23.2c-0.1-0.4-0.2-0.7-0.2-1.1c0-0.5,0.4-1,1.1-1h8c0.7,0,1.1,0.6,1.3,1.3l4.5,16.6h0.3l3.6-16.6c0.2-0.6,0.6-1.3,1.3-1.3
		h8.1c0.8,0,1.1,0.4,1.1,1c0,0.4-0.1,0.8-0.2,1.1L224.1,42.2z"/>
	<path class="st0" d="M32.2,33.2c-3.2,4.5-8.6,6-13.3,6C8,39.2,0,31,0,19.6C0,8.7,8.7,0,20,0c8.4,0,15.2,3.6,18.2,10.5
		c0.4,0.8,0.6,2.1-1.6,2.5l-6,1.1c-0.9,0.2-1.9-0.2-2.4-1c-1.9-2.6-4.8-4.1-8-4.1C14.2,9,10,13.6,10,19.7c0,6.8,4.8,10.7,10,10.7
		c3.2,0.1,6.3-1.3,8.3-3.8h-5.2c-0.7,0-1.3-0.6-1.3-1.3l0,0v-5c0-0.7,0.6-1.3,1.3-1.3l0,0h16c0.7,0,1.3,0.6,1.3,1.3l0,0v16.8
		c0,0.7-0.6,1.3-1.3,1.3l0,0h-5.6c-0.7,0-1.3-0.6-1.3-1.3l0,0V33.2z"/>
	<path class="st0" d="M232.2,5.3c0-0.1,0-0.1,0.1-0.1l0,0h3.3c0.1,0,0.1,0.1,0.1,0.1l0,0v0.5c0,0.1,0,0.1-0.1,0.1l0,0h-1.2v3.2
		c0,0.1-0.1,0.1-0.1,0.1l0,0h-0.6c-0.1,0-0.1-0.1-0.1-0.1l0,0V5.8h-1.2c-0.1,0-0.1,0-0.1-0.1l0,0L232.2,5.3z"/>
	<path class="st0" d="M238.4,7.3l0.9-2.1c0-0.1,0.1-0.1,0.2-0.1h1c0.1,0,0.1,0.1,0.1,0.1l0,0v3.9c0,0.1,0,0.1-0.1,0.1l0,0h-0.6
		c-0.1,0-0.1,0-0.1-0.1l0,0V6.2l-1,2.1c0,0.1-0.1,0.1-0.2,0.1h-0.5c-0.1,0-0.2-0.1-0.2-0.2l0,0l-1-2.1V9c0,0.1-0.1,0.1-0.1,0.1h-0.6
		c-0.1,0-0.1-0.1-0.1-0.1l0,0V5.2c0-0.1,0.1-0.1,0.1-0.1l0,0h1c0.1,0,0.2,0,0.2,0.1L238.4,7.3z"/>
</g>
</svg>
