<svg id="Layer_1" xmlns="http://www.w3.org/2000/svg" width="481" height="287" viewBox="0 0 481 287"><style>.st0{stroke:rgb(255, 115, 0);stroke-width:2.5;stroke-linecap:round;stroke-linejoin:round;stroke-miterlimit:10}.st0,.st1{fill:#fff}.st2,.st3{fill:none;stroke:rgb(255, 115, 0);stroke-width:2.5;stroke-linecap:round;stroke-linejoin:round;stroke-miterlimit:10}.st3{fill:#fff;stroke:rgb(255, 115, 0)}</style><path class="st0" d="M434.8 269.7h-353c-8 0-14.6-6.5-14.6-14.6v-239c0-8 6.5-14.6 14.6-14.6h352.9c8 0 14.6 6.5 14.6 14.6v239c0 8-6.5 14.6-14.5 14.6z"/><path class="st1" d="M428.9 250.4l-113.8-.2-113.7.2-113.6-.1-.2-76.5.2-76.6-.1-76.6 113.7.2 113.7-.2 113.7.2.1 76.4-.2 76.6z"/><path class="st2" d="M428.9 250.4l-113.8-.2-113.7.2-113.6-.1-.2-76.5.2-76.6-.1-76.6 113.7.2 113.7-.2 113.7.2.1 76.4-.2 76.6z"/><path class="st0" d="M465.3 285.5H47.4c-7.8 0-14.2-6.3-14.2-14.2v-1.6h446.3v1.6c0 7.8-6.4 14.2-14.2 14.2z"/><path class="st0" d="M89.4 285.5H17.6c-8.9 0-16.1-7.2-16.1-16.1V105.1C1.5 96.2 8.7 89 17.6 89h71.8c8.9 0 16.1 7.2 16.1 16.1v164.3c-.1 8.9-7.3 16.1-16.1 16.1zM1.5 115H105m-76.6-12.6h49.7m-76.6 158H105"/><path class="st3" d="M219 123.6V98.8c0-21.7 17.6-39.3 39.3-39.3 21.7 0 39.3 17.6 39.3 39.3v24.8"/><path class="st3" d="M300.8 210.6h-85.1c-2.5 0-4.6-2-4.6-4.6v-77.9c0-2.5 2-4.6 4.6-4.6h85.1c2.5 0 4.6 2 4.6 4.6V206c0 2.6-2.1 4.6-4.6 4.6z"/><path class="st3" d="M265.9 160.2c0-4.3-3.5-7.7-7.8-7.6-3.9.1-7.2 3.4-7.3 7.3-.1 2.8 1.3 5.2 3.5 6.6.9.6 1.3 1.8.9 2.8l-4.4 12.5h15.1l-4.4-12.5c-.3-1 0-2.1.9-2.7 2.1-1.3 3.5-3.7 3.5-6.4zm-35.4-37.9V98.8c0-15.4 12.5-27.8 27.8-27.8 15.4 0 27.8 12.5 27.8 27.8v23.5m-254.9 39l21.5-6.2c.5-.1 1.1-.1 1.6 0l21.5 6.2c2 .4 3.4 2.2 3.4 4.3v26.3c0 4.7-1.5 9.3-4.3 12.9-1.3 1.8-3 3.2-4.9 4.4l-16.5 10.2L36.8 209c-1.8-1.2-3.5-2.6-4.8-4.4-2.7-3.6-4.3-8.1-4.3-12.9v-26.1c.1-2.1 1.5-3.9 3.5-4.3z"/><path class="st3" d="M44.7 186.3l7.1 7.2 12.8-12.8"/></svg>