<svg xmlns="http://www.w3.org/2000/svg" xmlns:xlink="http://www.w3.org/1999/xlink" viewBox="0 0 560 360"><style>.st0{fill:#fff;stroke:rgb(255, 115, 0)}.st0,.st1,.st2{stroke-width:2.2697;stroke-miterlimit:10}.st1{stroke-linecap:round;stroke-linejoin:round;fill:none;stroke:rgb(255, 115, 0)}.st2{fill:#f9f9f9;stroke:rgb(255, 115, 0)}.st3{fill:none}.st4,.st5{fill:#fff;stroke:#aeaeaf;stroke-width:2.2697;stroke-linecap:round;stroke-linejoin:round;stroke-miterlimit:10}.st5{fill:none}.st6{fill:rgb(255, 115, 0)}.st7{fill:none;stroke-width:2.2697;stroke-linecap:round;stroke-linejoin:round;stroke-miterlimit:10}.st7,.st8,.st9{stroke:rgb(255, 115, 0)}.st8{stroke-width:2.2697;stroke-miterlimit:10;fill:none}.st9{fill:#fff;stroke-linecap:round}.st10,.st11,.st12,.st13,.st9{stroke-width:2.2697;stroke-miterlimit:10}.st10{stroke:rgb(255, 115, 0);fill:none}.st11,.st12{fill:#fff}.st11{stroke-linecap:round;stroke-linejoin:round;stroke:rgb(255, 115, 0)}.st12{stroke:rgb(255, 115, 0)}.st13{fill:none;stroke:#e0e0e0}</style><g id="XMLID_120_"><path id="XMLID_128_" class="st0" d="M325.1 217.8H236c-1.1 0-2-.9-2-2V158c0-1.1.9-2 2-2h89.1c1.1 0 2 .9 2 2v57.8c0 1.2-.9 2-2 2z"/><path id="XMLID_127_" class="st1" d="M298.3 186.1L278 205.8l-8.9-9.2"/><path id="XMLID_124_" class="st0" d="M261.5 155.3v-10.9c0-2.6 2.1-4.7 4.7-4.7h28.7c2.6 0 4.7 2.1 4.7 4.7v10.9"/><path id="XMLID_123_" class="st0" d="M327.1 169c0 2.6-2.1 4.7-4.7 4.7H292"/><path id="XMLID_122_" class="st0" d="M269.4 173.7h-30.7c-2.6 0-4.7-2.1-4.7-4.7"/><path id="XMLID_121_" class="st2" d="M290.6 179h-20.1c-.6 0-1-.4-1-1v-8.6c0-.6.4-1 1-1h20.1c.6 0 1 .4 1 1v8.6c0 .5-.4 1-1 1z"/></g><path id="XMLID_43_" class="st3" d="M244.8 47.4c11.4-3 23.4-4.6 35.7-4.6 11.7 0 23.1 1.4 34 4.1"/><g id="XMLID_111_"><path id="XMLID_119_" class="st4" d="M324.4 6.6h4.6c2.5 0 4.6 2.1 4.6 4.6v48.1c0 2.5-2.1 4.6-4.6 4.6h-38.9c-2.5 0-4.6-2.1-4.6-4.6V11.1c0-2.5 2.1-4.6 4.6-4.6h4.6"/><path id="XMLID_118_" class="st5" d="M306.1 22.6h18.3"/><path id="XMLID_117_" class="st5" d="M306.1 36.3h18.3"/><path id="XMLID_116_" class="st5" d="M306.1 50.1h18.3"/><path id="XMLID_115_" class="st6" d="M294.7 20.3h4.6v4.6h-4.6z"/><path id="XMLID_114_" class="st6" d="M294.7 34h4.6v4.6h-4.6z"/><path id="XMLID_113_" class="st6" d="M294.7 47.8h4.6v4.6h-4.6z"/><path id="XMLID_112_" class="st5" d="M320.1 8.9h-20.6s-3.6-.3-3.6-3.7 3.7-3.2 3.7-3.2h-.3 20.6s3.6.3 3.6 3.7-3.7 3.2-3.7 3.2h.3z"/></g><g id="XMLID_44_"><g id="XMLID_109_"><path id="XMLID_110_" class="st1" d="M290.2 306.6c1 1-.7 2.4-.7 2.4l-3.4.2-9.9 9.5-.4 6.7c-1.3 2.4-2.9.7-2.9.7l-5.7-5.4-9.8 9.4-4.2 1.7-.1-.1 1.8-4 9.8-9.4-5.6-5.4s-1.8-1.5.7-2.7l7-.3 9.9-9.5.3-3.2s1.5-1.6 2.6-.6c.9.8 9.5 9 10.6 10z"/></g><g id="XMLID_106_"><path id="XMLID_108_" class="st7" d="M265.5 303.3c0-1.6-1.4-3-3.1-3h-19.7l-20.1 19.2v37c0 1.6 1.4 3 3.1 3h36.8c1.7 0 3.1-1.3 3.1-3v-23.4"/><path id="XMLID_107_" class="st8" d="M242.6 300.3v17c0 1.3-1 2.3-2.3 2.3h-17.9"/></g></g><g id="XMLID_45_"><circle id="XMLID_105_" class="st0" cx="534.5" cy="227" r="25.5"/><path id="XMLID_104_" class="st9" d="M544.7 250.5l9.1 14.6"/><g id="XMLID_46_"><g id="XMLID_101_"><path id="XMLID_103_" class="st10" d="M516.8 244.9c0-16.7 35.3-16.7 35.3 0"/><circle id="XMLID_102_" class="st10" cx="534.8" cy="217.1" r="9.9"/></g></g><g id="XMLID_47_"><defs><circle id="XMLID_100_" cx="534.5" cy="227" r="25.5"/></defs><clipPath id="XMLID_203_"><use xlink:href="#XMLID_100_" overflow="visible"/></clipPath><use xlink:href="#XMLID_100_" overflow="visible" fill="none" stroke="rgb(255, 115, 0)" stroke-width="2.27" stroke-miterlimit="10"/></g></g><g id="XMLID_48_"><path id="XMLID_82_" class="st11" d="M31.4 156.5h9.4c3.9 0 4.9-3.1 4.9-7v-8.2c0-7.9-5.8-12.4-13.3-14.7"/><path id="XMLID_81_" class="st11" d="M13.9 125.9C6.1 128.1 0 134.5 0 141.2v8.2c0 5.3 2.1 7 5.7 7h8.7"/><circle id="XMLID_80_" class="st0" cx="22.8" cy="104.7" r="12.8"/><path id="XMLID_79_" class="st10" d="M27.3 153.6l-4.5 4.5-4.4-4.5 4.4-21.4z"/><path id="XMLID_49_" class="st12" d="M18.355 127.658l4.455-4.454 4.454 4.454-4.454 4.455z"/></g><path id="XMLID_156_" class="st13" d="M204.6 326.9C106.4 296.4 35.2 234.8 22.8 171"/><path id="XMLID_59_" class="st3" d="M327.1 338.9c-15.1 1.6-30.7 2.5-46.6 2.5-16 0-31.7-.9-46.9-2.5"/><path id="XMLID_153_" class="st13" d="M523.4 269.9c-35.8 54.1-124.9 83.9-227.1 75"/><path id="XMLID_83_" class="st3" d="M527.6 129.3c10.2 16.8 15.7 35 15.7 53.9 0 13.2-2.7 26-7.7 38.2"/><path id="XMLID_151_" class="st13" d="M356.1 39.6c89.3 27.7 156.4 81 177.3 138.4"/><path id="XMLID_84_" class="st3" d="M233.9 27.7c15.2-1.6 30.8-2.5 46.7-2.5 15.8 0 31.3.8 46.4 2.5"/><path id="XMLID_149_" class="st13" d="M48.5 82.8c41-45.2 123.1-69.2 216.2-61.1"/></svg>