<svg id="Layer_1" xmlns="http://www.w3.org/2000/svg" width="543" height="350.8" viewBox="0 0 543 350.8"><style>.st0,.st1,.st2{fill:#fff;stroke:rgb(255, 115, 0);stroke-width:2.5;stroke-linecap:round;stroke-linejoin:round;stroke-miterlimit:10}.st1,.st2{fill:none;stroke:#e0e0e0;stroke-width:2}.st2{fill:#fff;stroke:rgb(255, 115, 0)}.st3{opacity:.99}.st4{stroke:rgb(255, 115, 0);stroke-width:2;stroke-linecap:round;stroke-linejoin:round;stroke-miterlimit:10}.st4,.st5{fill:none}.st6{fill:#e0e0e0}.st7{fill:none;stroke:#e0e0e0;stroke-width:2.2697;stroke-miterlimit:10}</style><path class="st0" d="M242.7 160.8v-17.4c0-15.3 12.4-27.6 27.6-27.6 15.3 0 27.6 12.4 27.6 27.6v17.4m1 61.3h-57.2c-2.5 0-4.6-2-4.6-4.6v-52.1c0-2.5 2-4.6 4.6-4.6h57.2c2.5 0 4.6 2 4.6 4.6v52.1c0 2.5-2 4.6-4.6 4.6z"/><path class="st0" d="M275.7 186.6c0-3-2.5-5.4-5.5-5.3-2.8.1-5.1 2.4-5.2 5.2-.1 1.9.9 3.7 2.4 4.6.6.4.9 1.2.6 2l-3.1 8.8h10.7l-3.1-8.8c-.2-.7 0-1.5.6-1.9 1.6-1 2.6-2.7 2.6-4.6zm-24.9-26.7v-16.6c0-10.8 8.8-19.6 19.6-19.6s19.6 8.8 19.6 19.6v16.6"/><path class="st1" d="M292.8 55.5c-1.6 1.3-4 1.1-5.3-.5l-16.3-19.8c-1.3-1.6-1.1-4 .5-5.3L305 2.4c1.6-1.3 4-1.1 5.3.5l16.3 19.8c1.3 1.6 1.1 4-.5 5.3l-6.7 5.5"/><path class="st2" d="M333.8 59.8L290.3 66c-2.4.3-4.6-1.3-5-3.7l-3.7-25.4c-.3-2.4 1.3-4.6 3.7-5l43.5-6.3c2.4-.3 4.6 1.3 5 3.7l3.7 25.4c.3 2.5-1.3 4.7-3.7 5.1z"/><path transform="rotate(-8.19 308.502 38.894)" class="st2" d="M282.2 35.1h52.7v7.6h-52.7z"/><path class="st1" d="M297.9 57.7l26.1-3.8m-2.1-6.2l7.4-1"/><g class="st3"><path transform="rotate(-9.051 491.1 221.236)" class="st1" d="M470.9 201.2h40.2v40h-40.2z"/><path transform="rotate(8.959 513.545 218.601)" class="st2" d="M489.3 194.4H538v48.5h-48.7z"/><path transform="rotate(8.959 513.545 218.601)" class="st4" d="M494.9 200h37.5v37.4h-37.5z"/><path class="st4" d="M521.2 238.8L506.8 214l-13.5 13.6m22.3 1.5l10.6-8.4 4.8 6.6"/><circle class="st4" cx="519.5" cy="211.1" r="6.7"/></g><path id="XMLID_51_" class="st5" d="M36.2 173.5c-1-3.8-2-7.8-2.8-11.7"/><path id="XMLID_11_" class="st1" d="M15.2 118.4H5.5c-2.2 0-4 1.8-4 4V148c0 2.2 1.8 4 4 4h5.3v9.8c0 .2.1.4.3.5h.2c.1 0 .2 0 .3-.1L23.5 152h16.9c2.2 0 4-1.8 4-4v-7.7"/><path id="XMLID_10_" class="st4" d="M66.9 99.6h-42c-2.2 0-4 1.8-4 4v25.6c0 2.2 1.8 4 4 4h24l11.9 10.2c.1.1.2.1.3.1h.2c.2-.1.3-.3.3-.5v-9.8h5.3c2.2 0 4-1.8 4-4v-25.6c.1-2.2-1.8-4-4-4z"/><path id="XMLID_9_" class="st1" d="M14.4 141.1c0 .9.7 1.6 1.6 1.6s1.6-.7 1.6-1.6-.7-1.6-1.6-1.6-1.6.7-1.6 1.6z"/><path id="XMLID_8_" class="st1" d="M24.2 141.1c0-.9-.7-1.6-1.6-1.6s-1.6.7-1.6 1.6.7 1.6 1.6 1.6 1.6-.8 1.6-1.6z"/><path id="XMLID_7_" class="st1" d="M30.9 141.1c0-.9-.7-1.6-1.6-1.6s-1.6.7-1.6 1.6.7 1.6 1.6 1.6 1.6-.8 1.6-1.6z"/><path id="XMLID_6_" class="st4" d="M64.4 115.3H27"/><path id="XMLID_3_" class="st4" d="M61.8 108.6H27"/><path id="XMLID_2_" class="st4" d="M52 122H27"/><path class="st4" d="M272 304.3l8.7 23.7-58.4 21.3-12.5-34.1 48.1-17.6"/><path class="st4" d="M209.8 315.2l36.4 9 15.3-21.3"/><circle class="st1" cx="267.9" cy="294.9" r="10.3"/><path class="st6" d="M266.7 293.6l-.9.6-.6-.9 1.5-1.1.9-.3 2.1 5.8-1.2.5-1.8-4.6z"/><path id="XMLID_29_" class="st7" d="M193.5 309.8c-86.1-29.1-148.1-84.2-159.1-141.2"/><path id="XMLID_26_" class="st7" d="M497.1 260C465 308.4 386.7 335.8 296 330"/><path id="XMLID_30_" class="st7" d="M347.8 48.8c79.9 26 139.7 74.3 158.6 126.2"/><path id="XMLID_149_" class="st7" d="M58.1 87C96 45.3 171.9 23.1 258 30.6"/></svg>