<svg xmlns="http://www.w3.org/2000/svg" viewBox="0 0 560 430"><style>.st0{fill:none;stroke:rgb(255, 115, 0);stroke-width:2.6099;stroke-linecap:round;stroke-linejoin:round;stroke-miterlimit:10}.st1{fill:rgb(255, 115, 0)}.st2{fill:none;stroke:#fff;stroke-width:2.6099;stroke-miterlimit:10}</style><path id="XMLID_179_" class="st0" d="M439.9 386.4H191.1c-3.9 0-7.1-3.2-7.1-7.1v-200c0-3.9 3.2-7.1 7.1-7.1h248.8c3.9 0 7.1 3.2 7.1 7.1v200c0 3.9-3.2 7.1-7.1 7.1z"/><path id="XMLID_88_" class="st0" d="M340.6 259.6c0 10.9-6.9 20.2-16.6 23.7v29.5h-17.1v-29.5c-9.7-3.5-16.6-12.8-16.6-23.7 0-13.9 11.3-25.2 25.2-25.2 13.9 0 25.1 11.3 25.1 25.2z"/><path id="XMLID_89_" class="st0" d="M203.1 172.1v-59.2C203.1 50.8 253.4.5 315.5.5s112.4 50.3 112.4 112.4v59.2"/><path id="XMLID_90_" class="st0" d="M396.3 172.1v-59.2c0-44.7-36.2-80.9-80.9-80.9s-80.9 36.2-80.9 80.9v59.2"/><circle id="XMLID_91_" class="st1" cx="189.9" cy="351.8" r="78.2"/><g id="XMLID_92_"><path id="XMLID_93_" class="st2" d="M219.7 331.8c3.6-34.5-64.8-34.1-58.4 0 5.2 27.8 61.1 8.1 60.5 42.9-.5 26.6-62.7 34.7-63.6-8.3"/><path id="XMLID_94_" class="st2" d="M190.1 300.8v102"/></g></svg>