<svg id="Layer_1" xmlns="http://www.w3.org/2000/svg" width="483" height="356.1" viewBox="0 0 483 356.1"><style>.st0{fill:none;stroke:#e0e0e0}.st0,.st1,.st2,.st3{stroke-width:2.5;stroke-linecap:round;stroke-linejoin:round;stroke-miterlimit:10}.st1,.st2{fill:#fff;stroke:rgb(255, 115, 0)}.st2{fill:none}.st3{fill:#fff;stroke:rgb(255, 115, 0)}</style><path class="st0" d="M154 354.6h169.3" id="XMLID_50_"/><path id="XMLID_49_" class="st0" d="M1.5 338.8h480"/><path id="XMLID_48_" class="st0" d="M64.4 346.7h333.9"/><path class="st1" d="M285.8 49.7H77.3c-6.7 0-12.1 5.4-12.1 12.1v214.5c0 6.7 5.4 12.1 12.1 12.1H384c7.4 0 13.4-6 13.4-13.4v-84.6"/><path id="XMLID_46_" class="st2" d="M65.3 258.3h332.2"/><circle id="XMLID_45_" class="st2" cx="231.4" cy="272.8" r="6"/><path id="XMLID_44_" class="st2" d="M188.1 329.3c8.3 0 15-6.7 15-15v-26.1h56.5v24.6c0 9.8 6.6 16.8 15 16.8"/><path id="XMLID_43_" class="st2" d="M288.5 338.8c2.5 0 4.6-2 4.6-4.6 0-2.5-2-4.6-4.6-4.6H174.2c-2.5 0-4.6 2-4.6 4.6 0 2.5 2 4.6 4.6 4.6h114.3z"/><path id="XMLID_42_" class="st0" d="M139.4 110.8v101.6c0 2.9 2.3 5.2 5.2 5.2h173.6c2.9 0 5.2-2.3 5.2-5.2v-41.9"/><path id="XMLID_41_" class="st0" d="M286.5 91.9H152.1c-7 0-12.8 5.7-12.8 12.8v6.2h147.2"/><path id="XMLID_37_" class="st0" d="M158.7 130.7h49.8"/><path id="XMLID_36_" class="st0" d="M176.6 147.6h124.9"/><path id="XMLID_30_" class="st0" d="M176.6 164.5h112"/><path id="XMLID_29_" class="st0" d="M158.7 181.4h49.8"/><path id="XMLID_28_" class="st0" d="M176.6 198.3h29.1"/><path class="st2" d="M285.8 64.2H79v181.1h304.7V196"/><path class="st3" d="M315.2 18.4l58.1-16.7c1.5-.3 3-.3 4.4 0l58.1 16.7c5.4 1.1 9.2 6 9.2 11.7v71.1c0 12.8-4.2 25.1-11.7 35-3.6 4.8-8.2 8.7-13.2 11.8l-44.7 27.7-45-28.3c-5-3.1-9.4-7.1-13-11.8-7.4-9.8-11.6-22-11.6-34.8V30.1c.1-5.7 4-10.6 9.4-11.7z"/><path class="st3" d="M323.6 34l50.1-15.6c1.2-.2 2.4-.2 3.5 0L427.3 34c1.9.4 3.3 2.1 3.3 4.2v59.6c0 12.4-5 24.3-13.6 32.6-1.4 1.3-2.9 2.5-4.6 3.5l-36.9 22.8-37.1-23.3c-1.6-1-3.1-2.2-4.5-3.5-8.6-8.4-13.5-20.1-13.5-32.5V38.1c-.1-2 1.3-3.8 3.2-4.1z"/><path class="st3" d="M356.5 87l16.8 16.7 29.8-29.8"/></svg>