<?xml version="1.0" encoding="utf-8"?>
<!-- Generator: Adobe Illustrator 19.0.0, SVG Export Plug-In . SVG Version: 6.00 Build 0)  -->
<svg version="1.1" id="Layer_1" xmlns="http://www.w3.org/2000/svg" xmlns:xlink="http://www.w3.org/1999/xlink" x="0px" y="0px"
	 viewBox="7 -8 30 30" style="enable-background:new 7 -8 30 30;" xml:space="preserve">
<style type="text/css">
	.st0{fill:#B2B2B2;}
	.st1{fill:#7D7D7D;}
</style>
<g>
	<circle class="st0" cx="22" cy="7" r="15"/>
	<path class="st1" d="M19.9,2.1c-0.2,0-0.4-0.2-0.4-0.4c0-0.2,0.2-0.4,0.4-0.4c0.2,0,0.4,0.2,0.4,0.4C20.3,2,20.1,2.1,19.9,2.1z
		 M24.1,2.1c-0.2,0-0.4-0.2-0.4-0.4c0-0.2,0.2-0.4,0.4-0.4c0.2,0,0.4,0.2,0.4,0.4C24.5,2,24.4,2.1,24.1,2.1z M16,4c-0.6,0-1,0.5-1,1
		v4.3c0,0.6,0.5,1,1,1c0.6,0,1-0.5,1-1V5C17,4.5,16.5,4,16,4z M26.6,4.2h-9.2v6.7c0,0.6,0.5,1.1,1.1,1.1h0.7l0,2.3c0,0.6,0.5,1,1,1
		c0.6,0,1-0.5,1-1V12h1.4v2.3c0,0.6,0.5,1,1,1c0.6,0,1-0.5,1-1V12h0.8c0.6,0,1.1-0.5,1.1-1.1V4.2z M24.3,0.1L25-1.2
		c0-0.1,0-0.2,0-0.2c-0.1,0-0.2,0-0.2,0.1L24,0c-0.6-0.3-1.3-0.4-2-0.4S20.6-0.3,20,0l-0.7-1.3c0-0.1-0.1-0.1-0.2-0.1
		C19-1.4,19-1.3,19-1.2l0.7,1.3c-1.4,0.7-2.4,2.1-2.4,3.7h9.3C26.7,2.2,25.7,0.8,24.3,0.1z M29.1,5c0-0.6-0.5-1-1-1
		c-0.6,0-1,0.5-1,1v4.3c0,0.6,0.5,1,1,1c0.6,0,1-0.5,1-1V5z"/>
</g>
</svg>
