<?xml version="1.0" encoding="UTF-8"?>
<svg width="669px" height="31px" viewBox="0 0 669 31" version="1.1" xmlns="http://www.w3.org/2000/svg" xmlns:xlink="http://www.w3.org/1999/xlink">
    <!-- Generator: Sketch 55.2 (78181) - https://sketchapp.com -->
    <title>enterprise-logobar</title>
    <desc>Created with Sketch.</desc>
    <g id="Page-1" stroke="none" stroke-width="1" fill="none" fill-rule="evenodd">
        <g id="Desktop-and-Tablet" transform="translate(-26.000000, -25.000000)" fill="rgb(255, 115, 0)">
            <g id="enterprise-logobar" transform="translate(26.000000, 25.000000)">
                <g id="airbnb" transform="translate(165.250000, 3.000000)" fill-rule="nonzero">
                    <path d="M46.4567089,6.77598539 C46.4567089,7.74768502 45.6603803,8.53037957 44.6717543,8.53037957 C43.6831283,8.53037957 42.8860243,7.74768502 42.8860243,6.77598539 C42.8860243,5.80428576 43.6552141,5.02159124 44.6717543,5.02159124 C45.687519,5.04826535 46.4567089,5.83095987 46.4567089,6.77598539 Z M39.0959036,10.3122099 C39.0959036,10.4745409 39.0959036,10.7443304 39.0959036,10.7443304 C39.0959036,10.7443304 38.2445222,9.66441017 36.4324289,9.66441017 C33.4386367,9.66441017 31.1039286,11.9050351 31.1039286,15.0091391 C31.1039286,18.086569 33.4107226,20.3546303 36.4324289,20.3546303 C38.2724363,20.3546303 39.0959036,19.2472737 39.0959036,19.2472737 L39.0959036,19.7068305 C39.0959036,19.9225098 39.2610623,20.0848407 39.4804986,20.0848407 L41.7051008,20.0848407 L41.7051008,9.9341997 C41.7051008,9.9341997 39.672796,9.9341997 39.4804986,9.9341997 C39.2610623,9.9341997 39.0959036,10.1232048 39.0959036,10.3122099 Z M39.0959036,16.8184058 C38.68417,17.4120952 37.8599272,17.9250001 36.8713013,17.9250001 C35.1134855,17.9250001 33.7681787,16.8450799 33.7681787,15.0091391 C33.7681787,13.1739606 35.1134855,12.0940403 36.8713013,12.0940403 C37.8327885,12.0940403 38.7113087,12.6336193 39.0959036,13.2006347 L39.0959036,16.8184058 Z M43.3535863,20.0840786 L45.9899223,20.0840786 L45.9899223,9.9341997 L43.3535863,9.9341997 L43.3535863,20.0840786 Z M82.7381204,9.66441017 C80.9260264,9.66441017 80.0746451,10.7443304 80.0746451,10.7443304 L80.0746451,5.04826535 L77.4375337,5.04826535 L77.4375337,20.0848407 C77.4375337,20.0848407 79.4698392,20.0848407 79.6621364,20.0848407 C79.8815723,20.0848407 80.0467315,19.8950735 80.0467315,19.7068305 L80.0467315,19.2472737 C80.0467315,19.2472737 80.8981128,20.3546303 82.7109816,20.3546303 C85.7047738,20.3546303 88.0394819,18.086569 88.0394819,15.0091391 C88.0394819,11.9317093 85.7047738,9.66441017 82.7381204,9.66441017 Z M82.2992478,17.8975639 C81.2827072,17.8975639 80.486379,17.384659 80.0746451,16.7909695 L80.0746451,13.1739606 C80.486379,12.6336193 81.364899,12.0673661 82.2992478,12.0673661 C84.0570635,12.0673661 85.4023705,13.1465243 85.4023705,14.982465 C85.4023705,16.8184058 84.0570635,17.8975639 82.2992478,17.8975639 Z M76.064313,14.0648758 L76.064313,20.1115148 L73.427977,20.1115148 L73.427977,14.3613394 C73.427977,12.6877297 72.8782234,12.0132559 71.3948967,12.0132559 C70.5985681,12.0132559 69.7751008,12.4179402 69.2532614,13.0116296 L69.2532614,20.0848407 L66.61615,20.0848407 L66.61615,9.9341997 L68.7035078,9.9341997 C68.9237194,9.9341997 69.0881027,10.1232048 69.0881027,10.3122099 L69.0881027,10.7443304 C69.8572925,9.96163594 70.8730573,9.66441017 71.8895974,9.66441017 C73.0433821,9.66441017 74.0040939,9.98831006 74.7732838,10.6361098 C75.7076322,11.3921302 76.064313,12.3638298 76.064313,14.0648758 Z M60.216832,9.66441017 C58.4039633,9.66441017 57.5525818,10.7443304 57.5525818,10.7443304 L57.5525818,5.04826535 L54.9162459,5.04826535 L54.9162459,20.0848407 C54.9162459,20.0848407 56.9485508,20.0848407 57.1408482,20.0848407 C57.3602844,20.0848407 57.5254431,19.8950735 57.5254431,19.7068305 L57.5254431,19.2472737 C57.5254431,19.2472737 58.3768246,20.3546303 60.1896932,20.3546303 C63.1834854,20.3546303 65.5181936,18.086569 65.5181936,15.0091391 C65.5453323,11.9317093 63.2106242,9.66441017 60.216832,9.66441017 Z M59.7771842,17.8975639 C58.7614195,17.8975639 57.9650909,17.384659 57.5525818,16.7909695 L57.5525818,13.1739606 C57.9650909,12.6336193 58.8436111,12.0673661 59.7771842,12.0673661 C61.535,12.0673661 62.8810822,13.1465243 62.8810822,14.982465 C62.8810822,16.8184058 61.535,17.8975639 59.7771842,17.8975639 Z M52.6365906,9.66441017 C53.4329192,9.66441017 53.8454282,9.79930494 53.8454282,9.79930494 L53.8454282,12.2022609 C53.8454282,12.2022609 51.6479646,11.4729146 50.2747437,13.0116296 L50.2747437,20.1115148 L47.6376323,20.1115148 L47.6376323,9.9341997 C47.6376323,9.9341997 49.6699372,9.9341997 49.8622346,9.9341997 C50.0824462,9.9341997 50.2468295,10.1232048 50.2468295,10.3122099 L50.2468295,10.7443304 C50.7415302,10.1773151 51.8123479,9.66441017 52.6365906,9.66441017 Z M25.2535888,19.1664893 C25.1163442,18.8425894 24.9790997,18.4920154 24.8418552,18.1947897 C24.6224189,17.709321 24.4022073,17.2497642 24.2099099,16.8184058 L24.1827712,16.7909695 C22.2877108,12.7418401 20.2546305,8.63860021 18.1129952,4.5894707 L18.0300282,4.42713971 C17.8105919,4.02245539 17.5911557,3.59033485 17.3709441,3.15897643 C17.096455,2.67274556 16.821966,2.15984058 16.3823181,1.67360971 C15.5037979,0.594451536 14.2399074,1.77635684e-15 12.8946007,1.77635684e-15 C11.5213798,1.77635684e-15 10.2854034,0.594451536 9.37896909,1.62026149 C8.96645998,2.10573025 8.66483218,2.61863523 8.39034303,3.10486609 C8.1701315,3.53622452 7.95069528,3.96834506 7.73125906,4.37379149 L7.64829201,4.53536037 C5.53379546,8.58448985 3.47357641,12.6877297 1.57851605,16.7368592 L1.5513773,16.7909695 C1.35907985,17.2230901 1.13886826,17.6818847 0.919432053,18.1681156 C0.782187503,18.4645793 0.644942952,18.7884791 0.507698401,19.1398152 C0.150242254,20.1381889 0.0409118489,21.0832145 0.1781564,22.0549141 C0.479784255,24.0798599 1.85300516,25.7801437 3.74806551,26.5361641 C4.46220241,26.8333899 5.20425346,26.9682846 5.97266787,26.9682846 C6.19287946,26.9682846 6.46736856,26.9408484 6.68680477,26.9141744 C7.59323912,26.8059536 8.52758761,26.50949 9.43402193,25.996585 C10.5598925,25.3754594 11.6307102,24.4845442 12.8395478,23.1889447 C14.04761,24.4845442 15.1463418,25.3754594 16.2450735,25.996585 C17.1515079,26.50949 18.085081,26.8059536 18.9915154,26.9141744 C19.2109516,26.9408484 19.4862161,26.9682846 19.7056523,26.9682846 C20.4748421,26.9682846 21.2440319,26.8333899 21.9302546,26.5361641 C23.8532292,25.7801437 25.1985359,24.0524237 25.5009391,22.0549141 C25.7203754,21.1098885 25.611045,20.1656252 25.2535888,19.1664893 Z M12.8666865,20.5703095 C11.3833599,18.7343688 10.422648,17.0074109 10.093106,15.5494803 C9.95586142,14.9283547 9.92794731,14.3887756 10.010139,13.9025448 C10.0651918,13.4711864 10.2303505,13.092414 10.4497867,12.7692763 C10.9716262,12.03993 11.8509218,11.5811353 12.8666865,11.5811353 C13.8832267,11.5811353 14.789661,12.0132559 15.2835863,12.7692763 C15.5037979,13.092414 15.6681812,13.4711864 15.7232341,13.9025448 C15.8054258,14.3887756 15.7782871,14.9550289 15.6410425,15.5494803 C15.3115005,16.9799747 14.3500132,18.7076947 12.8666865,20.5703095 Z M23.825315,21.8392348 C23.6330176,23.2430551 22.6723057,24.4578701 21.3262235,24.9974492 C20.6671396,25.2672387 19.9530027,25.3487853 19.2388657,25.2672387 C18.5518676,25.1864543 17.8656449,24.9707751 17.1515079,24.5653287 C16.1628819,24.0257495 15.1742559,23.1889447 14.0204713,21.9474556 C15.8333399,19.7601788 16.9320717,17.7626691 17.3438054,15.9816009 C17.5361029,15.144796 17.5632416,14.3887756 17.4810499,13.6868655 C17.3709441,13.0116296 17.1235938,12.391266 16.7397743,11.8509249 C15.8883928,10.6361098 14.460119,9.9341997 12.8666865,9.9341997 C11.2740294,9.9341997 9.84575566,10.663546 8.99437417,11.8509249 C8.60977926,12.391266 8.36242892,13.0116296 8.25309854,13.6868655 C8.14299269,14.3887756 8.1701315,15.1714701 8.39034303,15.9816009 C8.80207676,17.7626691 9.92794731,19.7876149 11.7136772,21.9741296 C10.5870313,23.2156188 9.57126651,24.0524237 8.58264053,24.5927649 C7.86850362,24.9974492 7.18150546,25.2138905 6.49528271,25.294675 C5.75323167,25.3754594 5.03909477,25.2672387 4.40792491,25.0248854 C3.06184276,24.4845442 2.1003555,23.2697292 1.90805805,21.865909 C1.8258664,21.1914351 1.88091931,20.5161991 2.15540841,19.7601788 C2.23837545,19.4903892 2.37484461,19.2205996 2.51286455,18.8966998 C2.705162,18.4645793 2.92459821,18.0057846 3.14403441,17.54699 L3.17194855,17.4928796 C5.06700891,13.4711864 7.09931381,9.3671844 9.2138104,5.37216522 L9.29677744,5.21059634 C9.51621359,4.80514991 9.73564981,4.37379149 9.95586142,3.96834506 C10.1752976,3.53622452 10.422648,3.13154021 10.7242758,2.78096622 C11.3011682,2.13316647 12.070358,1.78183037 12.9217394,1.78183037 C13.7731209,1.78183037 14.5423107,2.13316647 15.119203,2.78096622 C15.4208309,3.13154021 15.6681812,3.53622452 15.8883928,3.96834506 C16.107829,4.37379149 16.3272652,4.80514991 16.5474768,5.21059634 L16.6296685,5.37216522 C18.7170263,9.39462064 20.7493312,13.4978605 22.6443915,17.5203158 L22.6443915,17.54699 C22.8638277,17.9791105 23.0561252,18.4645793 23.2763368,18.8966998 C23.4135813,19.2205996 23.5508259,19.4903892 23.6330176,19.7601788 C23.8532292,20.4620888 23.9354208,21.1373248 23.825315,21.8392348 L23.825315,21.8392348 Z" id="Fill-2"></path>
                </g>
                <g id="Microsoft_logo_(2012)" transform="translate(0.000000, 3.000000)" fill-rule="nonzero">
                    <path d="M43.6964693,14.8032847 L42.9586302,16.8354988 L42.8971436,16.8354988 C42.7741704,16.3772544 42.5487196,15.679926 42.1798001,14.843132 L38.2241628,5.18015346 L34.3505078,5.18015346 L34.3505078,20.5811482 L36.912449,20.5811482 L36.912449,11.0775589 C36.912449,10.4798489 36.912449,9.80244422 36.8919534,8.96565022 C36.8714579,8.54725318 36.8304668,8.22847453 36.8099713,7.98939052 L36.8714579,7.98939052 C36.994431,8.5871005 37.1378998,9.02542121 37.2403775,9.30435254 L41.9953403,20.5413008 L43.798947,20.5413008 L48.5129187,9.20473423 C48.6153964,8.94572656 48.7178741,8.42771122 48.8203517,7.98939052 L48.8818383,7.98939052 C48.8203517,9.12503959 48.7793606,10.1411465 48.7588651,10.7587803 L48.7588651,20.5213772 L51.4847706,20.5213772 L51.4847706,5.14030612 L47.7545841,5.14030612 L43.6964693,14.8032847 L43.6964693,14.8032847 Z M54.0672073,9.48366557 L56.7316262,9.48366557 L56.7316262,20.5213772 L54.0672073,20.5213772 L54.0672073,9.48366557 Z M55.4199122,4.82152745 C54.9690106,4.82152745 54.6000911,4.98091679 54.2926581,5.25984813 C53.9852252,5.53877947 53.821261,5.89740547 53.821261,6.33572615 C53.821261,6.75412316 53.9852252,7.11274917 54.2926581,7.39168051 C54.6000911,7.67061185 54.9690106,7.81007752 55.4199122,7.81007752 C55.8708139,7.81007752 56.260229,7.65068818 56.5471664,7.39168051 C56.8545993,7.11274917 57.0185635,6.75412316 57.0185635,6.33572615 C57.0185635,5.91732914 56.8545993,5.55870313 56.5471664,5.25984813 C56.2807245,4.98091679 55.8913094,4.82152745 55.4199122,4.82152745 L55.4199122,4.82152745 Z M66.1800654,9.38404726 C65.6881726,9.28442888 65.1757844,9.2246579 64.6838916,9.2246579 C63.4746554,9.2246579 62.3678968,9.48366557 61.445598,10.0016809 C60.5232991,10.5196963 59.78546,11.2369483 59.3140629,12.1335133 C58.8221702,13.050002 58.5762238,14.1059563 58.5762238,15.3213001 C58.5762238,16.3772544 58.8221702,17.3136667 59.2935674,18.1703845 C59.7649645,19.0071785 60.4208215,19.6845832 61.3021293,20.1428274 C62.1424459,20.6010718 63.1262314,20.8401558 64.23299,20.8401558 C65.5037129,20.8401558 66.5899759,20.5811482 67.4507882,20.1029801 L67.4712837,20.0830565 L67.4712837,17.6922164 L67.368806,17.7719111 C66.979391,18.0508424 66.5284893,18.2899264 66.0775877,18.4293921 C65.6061905,18.5887814 65.1757844,18.6684761 64.8068648,18.6684761 C63.7410973,18.6684761 62.9007806,18.3696211 62.3064102,17.7121401 C61.6915443,17.0745827 61.3841114,16.1979414 61.3841114,15.1021397 C61.3841114,13.9664906 61.6915443,13.0699257 62.3269057,12.4124446 C62.9622672,11.7549636 63.8025838,11.4162612 64.8273604,11.4162612 C65.6881726,11.4162612 66.5694804,11.6951927 67.368806,12.2530553 L67.4712837,12.33275 L67.4712837,9.80244422 L67.4507882,9.78252056 C67.1023642,9.64305494 66.7129491,9.48366557 66.1800654,9.38404726 L66.1800654,9.38404726 Z M74.9726476,9.30435254 C74.3167906,9.30435254 73.7019247,9.50358923 73.169041,9.92198627 C72.7181393,10.2806122 72.4107064,10.7986276 72.1442644,11.4162612 L72.1237689,11.4162612 L72.1237689,9.48366557 L69.4593501,9.48366557 L69.4593501,20.5213772 L72.1237689,20.5213772 L72.1237689,14.8829794 C72.1237689,13.9266433 72.3287242,13.1296966 72.7796259,12.5519103 C73.2305275,11.9542003 73.8044023,11.6553452 74.5012504,11.6553452 C74.7471968,11.6553452 74.9931431,11.7151163 75.3005761,11.7549636 C75.5875134,11.8346583 75.7924687,11.9143529 75.9359374,12.0139713 L76.0384151,12.093666 L76.0384151,9.50358923 L75.9769285,9.48366557 C75.7924687,9.36412352 75.4235492,9.30435254 74.9726476,9.30435254 L74.9726476,9.30435254 Z M82.2280651,9.24458156 C80.3629718,9.24458156 78.8667982,9.78252056 77.8215261,10.8384749 C76.7557587,11.8944293 76.2433704,13.348857 76.2433704,15.1818344 C76.2433704,16.8952698 76.7762542,18.2899264 77.8010306,19.3060335 C78.8258071,20.3022168 80.2195032,20.8202322 81.9616232,20.8202322 C83.785725,20.8202322 85.2409083,20.2822932 86.2861796,19.2064151 C87.3519478,18.1305371 87.8643354,16.6960331 87.8643354,14.9228267 C87.8643354,13.169544 87.3724431,11.7748873 86.3681624,10.7587803 C85.4048721,9.74267324 83.990681,9.24458156 82.2280651,9.24458156 L82.2280651,9.24458156 Z M84.3596,17.7320638 C83.8677077,18.3496974 83.0888773,18.6485525 82.1255874,18.6485525 C81.1622975,18.6485525 80.3834674,18.3496974 79.8300881,17.6922164 C79.2767087,17.0745827 79.0102669,16.1780177 79.0102669,15.0423687 C79.0102669,13.8668723 79.2972044,12.9703073 79.8300881,12.33275 C80.3834674,11.6951927 81.141802,11.3764139 82.1050919,11.3764139 C83.0478862,11.3764139 83.785725,11.6752689 84.3186095,12.2929026 C84.8514932,12.9105363 85.1384303,13.8071014 85.1384303,14.9825977 C85.0974389,16.1780177 84.8719885,17.1144301 84.3596,17.7320638 L84.3596,17.7320638 Z M93.8080396,14.066109 C92.9677227,13.7274066 92.434839,13.468399 92.1888925,13.2492387 C91.9839372,13.050002 91.8814592,12.7710707 91.8814592,12.4124446 C91.8814592,12.1135896 92.0044325,11.8147346 92.3118657,11.6154979 C92.619299,11.4162612 92.9677227,11.3166429 93.4801111,11.3166429 C93.9310121,11.3166429 94.40241,11.3963376 94.8533118,11.5158796 C95.3042127,11.6354216 95.7141239,11.8147346 96.0420524,12.0538186 L96.1445296,12.1335133 L96.1445296,9.70282592 L96.083043,9.68290226 C95.7756106,9.56336021 95.3656993,9.44381825 94.873807,9.34419986 C94.3819139,9.26450522 93.9310121,9.2246579 93.5620931,9.2246579 C92.2913705,9.2246579 91.2460984,9.52351289 90.4262767,10.1809939 C89.6064559,10.7986276 89.2170408,11.6354216 89.2170408,12.6116813 C89.2170408,13.1296966 89.2990227,13.587941 89.4834826,13.9664906 C89.6679425,14.3450404 89.9343844,14.7036663 90.3033034,15.0025213 C90.6722233,15.2814527 91.205107,15.6002314 91.9429459,15.8990864 C92.5578123,16.1580941 93.0292094,16.3573308 93.3161465,16.51672 C93.6030844,16.6761094 93.7875435,16.8554224 93.9310121,16.9948881 C94.0334901,17.1542774 94.0949768,17.3535141 94.0949768,17.6125218 C94.0949768,18.3496974 93.5211017,18.7083235 92.3528571,18.7083235 C91.9019553,18.7083235 91.4305583,18.6286287 90.8771785,18.4493158 C90.3237995,18.2700028 89.8114111,18.0109951 89.3810046,17.7121401 L89.2785274,17.6324455 L89.2785274,20.1627511 L89.340014,20.1826749 C89.7294292,20.3619878 90.2008262,20.4815298 90.7747013,20.6209955 C91.3485755,20.7206139 91.860964,20.8003085 92.3118657,20.8003085 C93.6850663,20.8003085 94.8123204,20.5014535 95.6116459,19.8439725 C96.4314667,19.2064151 96.8618732,18.3895448 96.8618732,17.3335904 C96.8618732,16.5964148 96.656918,15.9389337 96.2060163,15.440842 C95.6116459,14.962674 94.873807,14.4645823 93.8080396,14.066109 L93.8080396,14.066109 Z M103.89184,9.24458156 C102.026746,9.24458156 100.530573,9.78252056 99.4853012,10.8384749 C98.4400291,11.8944293 97.9071454,13.348857 97.9071454,15.1818344 C97.9071454,16.8952698 98.4400291,18.2899264 99.4648059,19.3060335 C100.489582,20.3022168 101.883278,20.8202322 103.625398,20.8202322 C105.4495,20.8202322 106.904683,20.2822932 107.949954,19.2064151 C109.015723,18.1305371 109.52811,16.6960331 109.52811,14.9228267 C109.52811,13.169544 109.036218,11.7748873 108.031937,10.7587803 C107.068647,9.74267324 105.654456,9.24458156 103.89184,9.24458156 L103.89184,9.24458156 Z M106.00288,17.7320638 C105.510986,18.3496974 104.732157,18.6485525 103.768867,18.6485525 C102.785081,18.6485525 102.026746,18.3496974 101.473367,17.6922164 C100.919988,17.0745827 100.653547,16.1780177 100.653547,15.0423687 C100.653547,13.8668723 100.940484,12.9703073 101.473367,12.33275 C102.026746,11.6951927 102.785081,11.3764139 103.748372,11.3764139 C104.67067,11.3764139 105.429005,11.6752689 105.961888,12.2929026 C106.494772,12.9105363 106.78171,13.8071014 106.78171,14.9825977 C106.78171,16.1780177 106.515268,17.1144301 106.00288,17.7320638 L106.00288,17.7320638 Z M123.772504,11.6154979 L123.772504,9.48366557 L121.087589,9.48366557 L121.087589,6.21618415 L121.005607,6.23610782 L118.464161,6.9732835 L118.402675,6.99320717 L118.402675,9.48366557 L114.385551,9.48366557 L114.385551,8.08900886 C114.385551,7.45145151 114.549516,6.95335984 114.836453,6.63458116 C115.12339,6.31580249 115.553796,6.15641315 116.08668,6.15641315 C116.4556,6.15641315 116.845014,6.23610782 117.275421,6.41542082 L117.377899,6.47519182 L117.377899,4.22381743 L117.316412,4.20389377 C116.947492,4.08435176 116.4556,4.0046571 115.820238,4.0046571 C115.020913,4.0046571 114.324064,4.1839701 113.688703,4.4828251 C113.053342,4.82152745 112.581945,5.27977179 112.23352,5.89740547 C111.885096,6.49511549 111.700636,7.17252017 111.700636,7.94954319 L111.700636,9.48366557 L109.835544,9.48366557 L109.835544,11.5955743 L111.700636,11.5955743 L111.700636,20.5213772 L114.385551,20.5213772 L114.385551,11.6154979 L118.402675,11.6154979 L118.402675,17.2937431 C118.402675,19.6248121 119.529929,20.8003085 121.784437,20.8003085 C122.153357,20.8003085 122.542772,20.7405375 122.911692,20.6807665 C123.301107,20.6010718 123.588044,20.5014535 123.752008,20.4217588 L123.772504,20.4018351 L123.772504,18.2700028 L123.670026,18.3496974 C123.506062,18.4493158 123.362593,18.5290104 123.116647,18.5887814 C122.911692,18.6485525 122.727232,18.6684761 122.583763,18.6684761 C122.05088,18.6684761 121.68196,18.5489341 121.415518,18.2500791 C121.169571,17.9711478 121.046598,17.5129034 121.046598,16.8354988 L121.046598,11.6154979 L123.772504,11.6154979 L123.772504,11.6154979 Z" id="Shape"></path>
                    <polygon id="Path" points="0 0 12.5637597 0 12.5637597 12.213208 0 12.213208"></polygon>
                    <polygon id="Path" points="13.8754736 0 26.4392333 0 26.4392333 12.213208 13.8754736 12.213208"></polygon>
                    <polygon id="Path" points="0 13.4883226 12.5637597 13.4883226 12.5637597 25.7015306 0 25.7015306"></polygon>
                    <polygon id="Path" points="13.8754736 13.4883226 26.4392333 13.4883226 26.4392333 25.7015306 13.8754736 25.7015306"></polygon>
                </g>
                <g id="General_Electric_Security" transform="translate(295.500000, 0.000000)" fill-rule="nonzero">
                    <path d="M26.1386518,4.47911103 C23.1399233,1.49331525 19.5337363,0 15.3190849,0 C11.1035952,0 7.49640225,1.49331525 4.49767367,4.47911103 C1.49894511,7.46490678 0,11.056042 0,15.2525166 C0,19.4778726 1.49894511,23.0760194 4.49767367,26.0477919 C7.49640225,29.0195644 11.1035952,30.5048663 15.3190849,30.5048663 C19.5337363,30.5048663 23.1399233,29.0195644 26.1386518,26.0477919 C29.1373803,23.0760194 30.6371638,19.4778726 30.6371638,15.2525166 C30.6371638,11.056042 29.1373803,7.46490678 26.1386518,4.47911103 Z M25.6388191,25.5078548 C22.79892,28.3494356 19.3584502,29.7698093 15.318247,29.7698093 C11.3061798,29.7698093 7.87274402,28.3494356 5.01877689,25.5078548 C2.16480978,22.6661074 0.738244912,19.247578 0.738244912,15.2529331 C0.738244912,11.230124 2.16480978,7.80442858 5.01877689,4.97684661 C7.87274402,2.14926464 11.3061798,0.73505702 15.318247,0.73505702 C19.3301466,0.73505702 22.7635824,2.15643066 25.6175496,4.99801139 C28.4715166,7.8395921 29.8989189,11.2582882 29.8989189,15.2529331 C29.8989189,19.247578 28.4785507,22.6661074 25.6388191,25.5078548 Z M26.8832344,8.18517595 C25.497287,5.93303619 23.5455648,4.42716268 21.0292408,3.66672157 C19.8128918,3.3006759 18.7813917,3.11756969 17.932897,3.11756969 C16.9994354,3.11756969 16.2225005,3.3498711 15.6002487,3.81464071 C14.9779968,4.27924355 14.526349,4.51071115 14.2434615,4.51071115 C13.5364105,4.51071115 13.1828012,4.1728485 13.1828012,3.49695643 C13.1828012,2.9908295 13.4506058,2.57542187 13.9880584,2.25156734 C14.525511,1.92771281 15.246807,1.76578555 16.1517786,1.76578555 C17.5935326,1.76578555 18.6823476,1.94889176 19.4178884,2.31493743 L19.460288,2.18819725 C18.1308176,1.70941952 16.6892313,1.47011404 15.1345234,1.47011404 C12.5322271,1.47011404 10.2138238,2.10381497 8.17830786,3.37021624 C5.94369813,4.75018339 4.44546726,6.69331053 3.68277725,9.19893064 C3.31509061,10.3817835 3.13124729,11.4088793 3.13124729,12.2818857 C3.13124729,13.2112581 3.36369094,13.9918776 3.83025411,14.6255785 C4.29698488,15.2592795 4.53043405,15.7160444 4.53043405,15.997541 C4.53043405,16.6734331 4.19090209,17.0114625 3.51217333,17.0114625 C2.35246888,17.0114625 1.77362219,16.0267247 1.77362219,14.0552477 C1.77362219,12.9005779 1.94322058,11.8172829 2.28258496,10.8033614 L2.15538616,10.7611702 C1.70273274,12.5635491 1.47648982,13.9988817 1.47648982,15.0681686 C1.47648982,17.6873546 2.11214863,20.0098685 3.38480694,22.0367109 C4.77092189,24.2615014 6.7216386,25.7533668 9.23896816,26.5128073 C10.4259893,26.8790198 11.4583274,27.0619592 12.3351444,27.0619592 C13.267768,27.0619592 14.0447029,26.8234876 14.6669547,26.3447098 C15.2892066,25.8659321 15.7416924,25.6266266 16.0245798,25.6266266 C16.7316309,25.6266266 17.0852402,25.9786642 17.0852402,26.6827393 C17.0852402,27.161517 16.8165976,27.5619159 16.279145,27.8857704 C15.7416924,28.209625 15.021402,28.3715522 14.1162627,28.3715522 C12.7867923,28.3715522 11.6988153,28.2026209 10.8503205,27.8645915 L10.8077533,27.9913317 C11.7968538,28.4419264 13.2386078,28.6672238 15.1336855,28.6672238 C17.7349763,28.6672238 20.0533797,28.0345234 22.0899011,26.7671216 C24.3235053,25.3871544 25.8215686,23.4448611 26.5852641,20.9384071 C26.9531183,19.7282051 27.1369617,18.7144504 27.1369617,17.8976432 C27.1369617,16.9410884 26.9035125,16.146294 26.4367817,15.5127598 C25.9702185,14.8790589 25.7376073,14.4354682 25.7376073,14.1819879 C25.7376073,13.4779128 26.0771393,13.1258752 26.755868,13.1258752 C27.2641605,13.1258752 27.6812853,13.4005346 28.0065724,13.9496865 C28.3318594,14.4988383 28.4945868,15.2230918 28.4945868,16.1242812 C28.4945868,17.1100197 28.3248208,18.1943153 27.9854564,19.3761676 L28.1126552,19.4185255 C28.5653086,18.0675752 28.7915515,16.6180676 28.7915515,15.0691692 C28.7915515,12.479 28.1552224,10.1846691 26.8832344,8.18517595 Z M22.4562232,21.9514728 C21.6775903,22.7539663 20.7089118,23.1542961 19.5481751,23.1542961 C18.160994,23.1542961 17.0577909,22.6475897 16.237727,21.6338434 C15.5016992,20.7618215 15.1336852,19.7200638 15.1336852,18.5092371 C15.1336852,16.3138428 16.137756,14.6955169 18.1477428,13.6537592 C18.0061732,13.5410466 17.8646035,13.3721444 17.723034,13.146886 C16.5341175,13.9917302 15.2326497,14.8082295 13.8181276,15.5957169 C13.7049055,17.3977844 13.5208985,18.6781393 13.2661068,19.438449 C12.4450365,21.9162918 11.0588618,23.1542961 9.10624091,23.1542961 C8.31368582,23.1542961 7.70497,22.915032 7.28026109,22.436337 C6.85571998,21.9576419 6.64420418,21.3812405 6.64420418,20.7054652 C6.64420418,19.6355293 7.15294907,18.6367891 8.17211622,17.7075773 C8.70987952,17.2288822 9.37428391,16.7501872 10.1670067,16.2714922 C10.5633681,16.0462338 11.383432,15.610723 12.6290434,14.9631259 C12.6857384,14.6251549 12.7281757,14.3577126 12.7565232,14.1606323 C12.3318143,14.5547929 11.7657035,14.7518732 11.0588618,14.7518732 C10.0962219,14.7518732 9.50176367,14.231828 9.27531935,13.1900703 C7.88813828,13.0773577 7.18129654,12.3172147 7.15294907,10.9093078 C7.1246016,9.69931488 7.46426805,9.09390159 8.17211622,9.09390159 C8.39856054,9.09390159 8.51178267,9.22061991 8.51178267,9.47405647 C8.51178267,9.50223459 8.47639026,9.66413392 8.40560543,9.95975434 C8.33482066,10.2555415 8.29942824,10.5159809 8.29942824,10.7402389 C8.29942824,11.5850831 8.61091497,12.0074218 9.23372067,12.0074218 C9.23372067,10.8537852 9.59368328,9.72832672 10.3156213,8.63021267 C11.0375593,7.53209867 11.8505782,6.98304168 12.7565232,6.98304168 C13.7189953,6.98304168 14.2002314,7.43355853 14.2002314,8.33375862 C14.2002314,9.29114861 13.8110827,10.2483719 13.0324497,11.2049282 C12.2539845,12.1623182 11.4409656,12.7809036 10.5917156,13.0625183 C10.7049377,13.484857 10.9454719,13.695943 11.3136536,13.695943 C11.9354529,13.695943 12.5300789,13.3439663 13.0961896,12.6400128 C13.3793289,11.2049282 13.9305111,10.4869691 14.7514136,10.4869691 C15.0912479,10.4869691 15.2609972,10.6698769 15.2609972,11.0360261 C15.2609972,11.5147211 14.8646358,12.176324 14.0729194,13.0201677 C13.9880448,13.4425064 13.9454397,13.8650119 13.9454397,14.2873506 C15.388477,13.4153287 16.5066087,12.6972028 17.2993315,12.1341401 C17.2426365,11.9370598 17.2144568,11.6132612 17.2144568,11.1627444 C17.2144568,10.1216536 17.5108473,9.16526398 18.1053055,8.29240844 C18.6997637,7.41938611 19.4217017,6.98304168 20.2709518,6.98304168 C21.2609327,6.98304168 21.7564265,7.4617367 21.7564265,8.41812628 C21.7564265,9.60077473 20.7656068,10.9374859 18.7846384,12.4289269 C18.9545555,12.8230874 19.1809998,13.0905297 19.4641391,13.2314204 C19.520834,13.1187079 19.8737516,13.0625183 20.5249049,13.0625183 C21.3458074,13.0625183 21.7564265,13.2736043 21.7564265,13.695943 C21.7564265,14.174638 21.2751903,14.4140689 20.3133891,14.4140689 C20.1152923,14.4422471 19.8180631,14.4140689 19.4217017,14.3295344 C17.6098118,14.8082295 16.7048732,16.1457743 16.7048732,18.340335 C16.7048732,19.2975583 16.9799612,20.1212272 17.531982,20.8111749 C18.0840029,21.5009559 18.7846384,21.8450961 19.6340562,21.8450961 C20.3417366,21.8450961 20.9353562,21.6064989 21.4165922,21.1278039 C21.8978283,20.6492756 22.1385302,20.0296899 22.1385302,19.2695469 C22.1668777,17.8906519 21.6856416,17.2007041 20.6956606,17.2007041 C20.0728549,17.2007041 19.7472784,17.510497 19.7189308,18.1299159 C19.7189308,18.4397089 19.8180631,18.7213235 20.01616,18.9747602 C20.2144246,19.2281967 20.3133891,19.438449 20.3133891,19.6073511 C20.3133891,19.9733336 20.1152923,20.1564082 19.7189308,20.1564082 C19.294222,20.1564082 18.9404656,19.9733336 18.6573264,19.6073511 C18.3741871,19.2413687 18.2326175,18.7908519 18.2326175,18.2558006 C18.2326175,17.6090371 18.4795257,17.0599801 18.9748516,16.6094633 C19.4703453,16.1589464 20.0718485,15.933688 20.7796967,15.933688 C21.6572942,15.933688 22.3498783,16.2574865 22.8594618,16.9050837 C23.3690454,17.5526808 23.6238372,18.340335 23.6238372,19.2695469 C23.6238372,20.2549483 23.2346884,21.1489792 22.4562232,21.9514728 Z M20.3900138,8.0856272 C20.0689137,8.0856272 19.7280024,8.38112911 19.3668045,8.97197389 C19.005765,9.56297771 18.8252452,10.2470217 18.8252452,11.0258553 C20.0556006,9.95231501 20.6708575,9.11972487 20.6708575,8.52888009 C20.6708575,8.23337818 20.5771901,8.0856272 20.3900138,8.0856272 Z M12.9764725,8.0856272 C12.5307492,8.0856272 12.0404888,8.52428019 11.5056913,9.40158606 C10.9708938,10.278892 10.7045512,11.0646744 10.7045512,11.7609123 C11.4174973,11.3989412 12.0257018,10.8705787 12.5307492,10.1743409 C13.0357966,9.47810297 13.2884084,8.87932518 13.2884084,8.37817243 C13.2884084,8.18325224 13.1843711,8.0856272 12.9764725,8.0856272 Z M8.12069401,20.5811276 C8.12069401,21.3164414 8.45377942,21.6841821 9.11977861,21.6841821 C9.98775695,21.6841821 10.7553463,21.0769746 11.4215171,19.8608852 C11.9708248,18.8429001 12.3473263,17.6135814 12.5501635,16.1712544 C9.59684065,17.5852808 8.12069401,19.0549036 8.12069401,20.5811276 L8.12069401,20.5811276 Z" id="Fill-1"></path>
                </g>
                <g id="Automattic-logo" transform="translate(367.750000, 9.000000)">
                    <g id="Group-4">
                        <path d="M66.4842059,6.64136752 C66.4842059,4.28957265 64.7599872,2.19213675 61.6423634,2.19213675 C58.5243956,2.19213675 56.8184027,4.28957265 56.8184027,6.64136752 L56.8184027,6.93299145 C56.8184027,9.28547009 58.5243956,11.4188034 61.6423634,11.4188034 C64.7599872,11.4188034 66.4842059,9.28547009 66.4842059,6.93299145 L66.4842059,6.64136752 Z M61.6423634,13.3333333 C57.313935,13.3333333 54.5078672,10.2338462 54.5078672,7.00615385 L54.5078672,6.60512821 C54.5078672,3.32273504 57.313935,0.277948718 61.6423634,0.277948718 C65.9890174,0.277948718 68.7954291,3.32273504 68.7954291,6.60512821 L68.7954291,7.00615385 C68.7954291,10.2338462 65.9890174,13.3333333 61.6423634,13.3333333 L61.6423634,13.3333333 Z" id="Fill-1"></path>
                        <path d="M7.50141706,3.08581197 L4.84218637,8.19145299 L10.2524639,8.19145299 L7.50141706,3.08581197 Z M12.7652014,12.8591453 L11.1513685,9.85059829 L3.98007706,9.85059829 L2.42092125,12.8591453 L0,12.8591453 L6.60251249,0.715555556 L8.51001961,0.715555556 L15.2229179,12.8591453 L12.7652014,12.8591453 L12.7652014,12.8591453 Z" id="Fill-3"></path>
                    </g>
                    <path d="M25.6401007,13.3333333 C21.2566514,13.3333333 19.2208767,10.962735 19.2208767,7.80854701 L19.2208767,0.715555556 L21.4949608,0.715555556 L21.4949608,7.84478632 C21.4949608,10.0878632 22.9805262,11.4188034 25.8048197,11.4188034 C28.7030475,11.4188034 29.8949386,10.0878632 29.8949386,7.84478632 L29.8949386,0.715555556 L32.1875923,0.715555556 L32.1875923,7.80854701 C32.1875923,10.817094 30.2432899,13.3333333 25.6401007,13.3333333" id="Fill-5"></path>
                    <polyline id="Fill-6" points="44.9527936 2.61196581 44.9527936 12.8591453 42.6601399 12.8591453 42.6601399 2.61196581 37.3227651 2.61196581 37.3227651 0.715555556 50.2894807 0.715555556 50.2894807 2.61196581 44.9527936 2.61196581"></polyline>
                    <polyline id="Fill-7" points="89.2267665 12.8591453 89.2267665 3.24991453 88.6211923 4.30769231 83.5042451 12.8591453 82.3852568 12.8591453 77.3233305 4.30769231 76.7184441 3.24991453 76.7184441 12.8591453 74.4808113 12.8591453 74.4808113 0.715555556 77.6534562 0.715555556 82.477073 9.04854701 83.045508 10.0694017 83.614287 9.04854701 88.3828828 0.715555556 91.5194201 0.715555556 91.5194201 12.8591453 89.2267665 12.8591453"></polyline>
                    <path d="M103.587231,3.08581197 L100.928,8.19145299 L106.338278,8.19145299 L103.587231,3.08581197 Z M108.851015,12.8591453 L107.237183,9.85059829 L100.065891,9.85059829 L98.5070792,12.8591453 L96.0861579,12.8591453 L102.68867,0.715555556 L104.596178,0.715555556 L111.308732,12.8591453 L108.851015,12.8591453 L108.851015,12.8591453 Z" id="Fill-8"></path>
                    <polyline id="Fill-9" points="120.551906 2.61196581 120.551906 12.8591453 118.259596 12.8591453 118.259596 2.61196581 112.922565 2.61196581 112.922565 0.715555556 125.88928 0.715555556 125.88928 2.61196581 120.551906 2.61196581"></polyline>
                    <polyline id="Fill-10" points="137.370431 2.61196581 137.370431 12.8591453 135.078121 12.8591453 135.078121 2.61196581 129.740746 2.61196581 129.740746 0.715555556 142.707462 0.715555556 142.707462 2.61196581 137.370431 2.61196581"></polyline>
                    <path d="M148.356048,12.8591453 L148.356048,1.8642735 C149.273179,1.8642735 149.639756,1.37196581 149.639756,0.715555556 L150.611907,0.715555556 L150.611907,12.8591453 L148.356048,12.8591453" id="Fill-11"></path>
                    <path d="M168.567302,4.14324786 C167.466883,3.14051282 165.85305,2.19213675 163.670439,2.19213675 C160.405978,2.19213675 158.571717,4.41709402 158.571717,6.73264957 L158.571717,6.96991453 C158.571717,9.26735043 160.424203,11.4188034 163.835501,11.4188034 C165.87162,11.4188034 167.5587,10.4523077 168.622667,9.46769231 L169.99819,10.9080342 C168.659118,12.2208547 166.385034,13.3333333 163.689008,13.3333333 C159.066906,13.3333333 156.260838,10.342906 156.260838,7.06051282 L156.260838,6.65948718 C156.260838,3.3774359 159.323441,0.277948718 163.798706,0.277948718 C166.385034,0.277948718 168.732365,1.35350427 169.99819,2.70290598 L168.567302,4.14324786" id="Fill-12"></path>
                    <path d="M63.1520003,4.50290598 C63.565689,4.76786325 63.681233,5.31863248 63.4130059,5.73196581 L61.3222103,8.95179487 C61.0539832,9.36547009 60.5010228,9.48512821 60.0883658,9.22017094 C59.6757087,8.95452991 59.5584454,8.40512821 59.8273602,7.99145299 L61.9184997,4.77162393 C62.1870706,4.3582906 62.7393433,4.23794872 63.1520003,4.50290598" id="Fill-13"></path>
                </g>
                <g id="coty-inc-vector-logo" transform="translate(579.000000, 8.000000)" fill-rule="nonzero">
                    <path d="M8.50641154,13.6147826 C5.61631725,13.6147826 3.75414309,11.5452174 3.75414309,8.47043478 C3.75414309,5.39565217 5.60141986,3.32608696 8.50641154,3.32608696 C10.5175596,3.32608696 12.0072989,4.2573913 12.841553,5.67652174 L15.344315,3.53304348 C14.018447,1.50782609 11.8285302,0.0591304348 8.50641154,0.0591304348 C3.21783694,0.0591304348 0.0893843594,3.96173913 0.0893843594,8.47043478 C0.0893843594,12.9791304 3.21783694,16.8817391 8.50641154,16.8817391 C11.8136328,16.8817391 14.0035496,15.4330435 15.344315,13.4078261 L12.841553,11.2643478 C12.0072989,12.6834783 10.5175596,13.6147826 8.50641154,13.6147826 L8.50641154,13.6147826 Z M32.7146755,16.8817391 C37.6755075,16.8817391 41.1614975,13.4078261 41.1614975,8.47043478 C41.1614975,3.53304348 37.6606101,0.0591304348 32.7146755,0.0591304348 C27.768741,0.0591304348 24.282751,3.53304348 24.282751,8.47043478 C24.282751,13.4226087 27.7538436,16.8817391 32.7146755,16.8817391 L32.7146755,16.8817391 Z M32.7146755,13.6443478 C29.8692734,13.6443478 27.8879201,11.5156522 27.8879201,8.47043478 C27.8879201,5.41043478 29.8692734,3.29652174 32.7146755,3.29652174 C35.5898724,3.29652174 37.5712257,5.42521739 37.5712257,8.47043478 C37.5563283,11.5304348 35.574975,13.6443478 32.7146755,13.6443478 L32.7146755,13.6443478 Z M54.8670993,16.6156522 L58.6659346,16.6156522 L58.6659346,3.62173913 L64.2226622,3.62173913 L63.9396118,0.310434783 L49.6530116,0.310434783 L49.3699612,3.62173913 L54.8670993,3.62173913 L54.8670993,16.6156522 Z M83.4998891,12.6834783 C83.4998891,11.2052174 83.8723239,10.5104348 85.3471658,8.85478261 L86.9113921,7.09565217 C88.7139767,5.05565217 89.4588464,3.4 89.4588464,0.68 L89.4588464,0.325217391 L85.7047033,0.325217391 L85.7047033,0.606086957 C85.7047033,2.94173913 85.2875763,3.81391304 83.8276317,5.46956522 L82.740122,6.71130435 C82.1144315,7.43565217 81.6675097,8.13043478 81.6675097,8.13043478 C81.6675097,8.13043478 81.2205879,7.43565217 80.5948974,6.71130435 L79.4924903,5.46956522 C78.0325458,3.81391304 77.6154187,2.94173913 77.6154187,0.606086957 L77.6154187,0.325217391 L73.7569939,0.325217391 L73.7569939,0.68 C73.7569939,3.4 74.516761,5.05565217 76.3193455,7.09565217 L77.8835718,8.85478261 C79.3733111,10.5104348 79.7308486,11.2052174 79.7308486,12.6834783 L79.7308486,16.6156522 L83.4849917,16.6156522 L83.4849917,12.6834783 L83.4998891,12.6834783 Z" id="Shape"></path>
                </g>
            </g>
        </g>
    </g>
</svg>