<svg xmlns="http://www.w3.org/2000/svg" preserveAspectRatio="xMidYMid" width="285" height="40" viewBox="0 0 285 40"><defs><style>.cls-1{fill:#b2b2b2;fill-rule:evenodd}</style></defs><path d="M265.189 39.959c-10.941 0-19.811-8.934-19.811-19.955 0-11.023 8.871-19.957 19.811-19.957S285 8.981 285 20.004c0 11.021-8.87 19.955-19.811 19.955zm-4.004-34.361l-1.034 3.668-1.049-3.678h-1.779l2.068 4.951.004 5.764h1.645l.002-5.766 1.944-4.939h-1.801zm5.786 5.529c0-.551-.029-.96-.086-1.23a2.491 2.491 0 0 0-.323-.784 1.752 1.752 0 0 0-.669-.616c-.29-.159-.635-.238-1.04-.238-.479 0-.872.123-1.181.37a1.9 1.9 0 0 0-.641.975c-.119.407-.178.97-.178 1.691v1.99c0 .66.031 1.154.098 1.484a2.3 2.3 0 0 0 .327.843c.152.231.367.406.642.52.277.117.611.173 1.009.173.356 0 .67-.067.946-.201.273-.135.499-.345.673-.626.175-.284.29-.588.342-.914.053-.325.081-.839.081-1.536v-1.901zm4.936-2.576h-1.373v5.851a.576.576 0 0 1-.572.576.576.576 0 0 1-.571-.576V8.551h-1.433v5.069c0 .646.01 1.076.03 1.295.021.217.069.425.15.627.081.198.206.359.377.481.167.12.383.181.639.181a.994.994 0 0 0 .601-.19c.174-.127.319-.316.437-.569l-.029.623h1.744V8.551zm.851 9.294h-15.137c-2.026 0-3.682 1.583-3.682 3.518v8.073c0 1.936 1.656 3.52 3.682 3.52h15.137c2.024 0 3.682-1.584 3.682-3.52v-8.073c0-1.935-1.657-3.518-3.682-3.518zm-2.554 9.936v-2.253c0-.675.065-1.208.198-1.597.133-.391.361-.68.658-.897.946-.692 2.823-.479 3.016.876.059.427.079 1.176.079 1.925v1.026h-2.687v1.745c0 .354.289.643.642.643h.229a.646.646 0 0 0 .642-.643v-.663l.002-.162 1.175-.005c.535 3.222-3.954 3.751-3.954.005zm2.768-2.173l.017-.873a.704.704 0 0 0-.7-.705h-.095a.704.704 0 0 0-.697.705l-.007.873h1.482zm-6.385 4.018l-.116.605-1.287.018.01-9.698 1.562-.002-.007 2.81c1.443-1.165 2.506-.302 2.508 1.138l.004 3.778c0 1.833-1.031 2.878-2.674 1.351zm1.512-5.318c0-.314-.31-.57-.687-.57-.375 0-.684.254-.684.57v4.243c0 .313.309.569.684.569.377 0 .687-.256.687-.569v-4.243zm-5.098 5.064c-.337.735-1.685 1.326-2.39.81-.379-.273-.365-.755-.403-1.167-.02-.234-.002-.748-.005-1.438l-.004-4.499h1.556l.008 4.57c0 .624-.034.988.004 1.108.221.687.795.314.922-.039.041-.115.003-.443.003-1.1v-4.54h1.564v7.234l-1.257-.003.002-.936zm-4.371.94h-1.566v-8.525l-1.56-.005v-1.239l5.002.008v1.259l-1.878-.001.002 8.503zm6.282-15.256c-.378 0-.693-.349-.691-.774V10.28c0-.424.313-.773.691-.773.382 0 .692.349.692.773v4.002c0 .425-.31.774-.692.774zm-61.055 24.865c-10.921 0-19.774-8.917-19.774-19.917 0-11.001 8.853-19.918 19.774-19.918 10.921 0 19.772 8.917 19.772 19.918 0 11-8.851 19.917-19.772 19.917zm11.14-20.487c-.785.135-1.925-.004-2.529-.258 1.254-.104 2.103-.679 2.431-1.46-.453.28-1.856.586-2.633.296a9.343 9.343 0 0 0-.121-.517c-.592-2.186-2.614-3.949-4.733-3.737.17-.07.345-.134.518-.192.233-.084 1.605-.309 1.387-.796-.18-.429-1.854.322-2.171.421.419-.157 1.105-.427 1.178-.909a3.289 3.289 0 0 0-1.744.833c.174-.191.307-.421.334-.669-1.698 1.094-2.691 3.302-3.493 5.441-.632-.617-1.191-1.101-1.692-1.372-1.406-.76-3.089-1.553-5.728-2.542-.081.881.432 2.053 1.909 2.831-.319-.043-.905.054-1.373.166.191 1.01.814 1.841 2.5 2.243-.771.052-1.169.228-1.53.609.35.701 1.207 1.527 2.747 1.358-1.712.745-.698 2.123.697 1.918-2.377 2.477-6.129 2.296-8.282.223 5.622 7.723 17.841 4.568 19.663-2.871 1.364.012 2.166-.477 2.665-1.016zm-72.475 20.41c-10.879 0-19.697-8.882-19.697-19.84S131.643.162 142.522.162c10.88 0 19.7 8.884 19.7 19.842 0 10.958-8.82 19.84-19.7 19.84zm-9.221-11.494h4.058V16.058h-4.058V28.35zm2.056-18.217c-1.387 0-2.296.917-2.296 2.121 0 1.182.882 2.125 2.242 2.125h.028c1.413 0 2.295-.942 2.295-2.125-.028-1.204-.882-2.121-2.269-2.121zm12.572 11.641v6.576h4.056v-7.048c0-3.779-2.001-5.533-4.671-5.533-2.155 0-3.12 1.194-3.655 2.032v-1.743h-4.057c.053 1.153 0 12.292 0 12.292h4.057v-6.866c0-.366.027-.734.134-.996.293-.734.961-1.495 2.08-1.495 1.468 0 2.056 1.128 2.056 2.781zm-4.297-3.936c.008-.011.016-.024.027-.037v.037h-.027zM81.189 39.721c-10.809 0-19.574-8.828-19.574-19.717C61.615 9.113 70.379.285 81.189.285c10.812 0 19.576 8.828 19.575 19.719 0 10.889-8.763 19.717-19.575 19.717zm5.674-23.904h-3.835v-2.846c0-.425.551-.998 1.093-.998h2.748V7.64h-3.736c-5.292 0-5.167 4.166-5.167 4.789v3.404h-2.455v4.162h2.455v12.368h5.043V19.995h3.383s.317-1.996.471-4.178zM19.858 40.006C8.891 40.006 0 31.051 0 20.004 0 8.955 8.891 0 19.858 0c10.966 0 19.858 8.955 19.858 20.004 0 11.047-8.891 20.002-19.858 20.002zm5.951-26.01h3.232v3.42h1.235v-3.42h3.232v-1.169h-3.232v-3.39h-1.235v3.39h-3.232v1.169zm-5.416 4.972c1.326-1.049 2.65-2.161 2.65-4.513 0-2.414-1.516-3.685-2.24-4.29h1.955l2.018-1.143h-6.499c-1.701 0-3.848.253-5.646 1.747-1.357 1.175-2.02 2.797-2.02 4.257 0 2.48 1.894 4.991 5.238 4.991.316 0 .662-.031 1.01-.064-.158.382-.315.698-.315 1.241 0 .985.504 1.587.946 2.16-1.419.096-4.07.254-6.026 1.461-1.861 1.113-2.429 2.734-2.429 3.878 0 2.352 2.21 4.547 6.783 4.547 5.426 0 8.298-3.022 8.298-6.01 0-2.191-1.262-3.272-2.649-4.449l-1.136-.889c-.349-.286-.82-.666-.82-1.367 0-.698.471-1.145.882-1.557zm-3.031 12.934c-3.375 0-5.553-1.621-5.553-3.876 0-2.258 2.019-3.019 2.715-3.272 1.323-.446 3.028-.508 3.313-.508.314 0 .472 0 .725.029 2.398 1.717 3.437 2.576 3.437 4.197 0 1.97-1.608 3.43-4.637 3.43zm-.03-12.776c-2.715 0-3.945-3.526-3.945-5.655 0-.826.159-1.684.695-2.352.505-.635 1.387-1.049 2.209-1.049 2.618 0 3.977 3.56 3.977 5.848 0 .571-.064 1.589-.79 2.32-.507.508-1.359.888-2.146.888z" class="cls-1"/></svg>