<?xml version="1.0" encoding="UTF-8"?>
<svg width="317px" height="38px" viewBox="0 0 317 38" version="1.1" xmlns="http://www.w3.org/2000/svg" xmlns:xlink="http://www.w3.org/1999/xlink">
    <!-- Generator: Sketch 52.5 (67469) - http://www.bohemiancoding.com/sketch -->
    <title>logo-enterprise</title>
    <desc>Created with Sketch.</desc>
    <defs>
        <polygon id="path-1" points="0 37.8486056 316.371448 37.8486056 316.371448 0 0 0"></polygon>
    </defs>
    <g id="Page-1" stroke="none" stroke-width="1" fill="none" fill-rule="evenodd">
        <g id="logo-enterprise">
            <g>
                <path d="M152.377729,17.0834728 C152.351235,16.3365936 152.223811,15.637656 151.997981,14.9828752 C151.77089,14.3293559 151.437822,13.7628884 150.997517,13.2822112 C150.558473,12.8015339 150.01093,12.4230478 149.356149,12.1429681 C148.703891,11.8616268 147.936826,11.7228486 147.056215,11.7228486 C146.255086,11.7228486 145.503161,11.8616268 144.795392,12.1429681 C144.088884,12.4230478 143.475737,12.8015339 142.95595,13.2822112 C142.4349,13.7628884 142.008473,14.3293559 141.675405,14.9828752 C141.341076,15.637656 141.149309,16.3365936 141.096321,17.0834728 L152.377729,17.0834728 Z M156.219363,18.6037251 L156.219363,19.2446282 C156.219363,19.457842 156.204223,19.6710558 156.178991,19.8842696 L141.096321,19.8842696 C141.121554,20.6803519 141.301965,21.4272311 141.635033,22.1299535 C141.968101,22.8314143 142.415976,23.4407769 142.976135,23.9567795 C143.536295,24.4727822 144.182244,24.8777623 144.916507,25.1679349 C145.649509,25.4606308 146.42919,25.6057171 147.256813,25.6057171 C148.537357,25.6057171 149.643798,25.3256375 150.577397,24.7654781 C151.510996,24.2053187 152.245259,23.5240438 152.777663,22.7254382 L155.418234,24.8449602 C154.403891,26.1898473 153.210398,27.1789575 151.837756,27.8148141 C150.46259,28.449409 148.936029,28.7660757 147.256813,28.7660757 C145.816042,28.7660757 144.48251,28.5263679 143.256215,28.0456906 C142.028659,27.5662749 140.975206,26.8925697 140.095857,26.0258367 C139.213984,25.1591036 138.521355,24.1119588 138.014183,22.885664 C137.508274,21.6581076 137.254688,20.298081 137.254688,18.8043227 C137.254688,17.3370584 137.501965,15.98334 137.996521,14.744429 C138.489814,13.5029947 139.178659,12.4419721 140.060531,11.5626228 C140.943665,10.682012 141.985764,9.99569057 143.188088,9.50239708 C144.391673,9.00910359 145.686096,8.76182603 147.077663,8.76182603 C148.466707,8.76182603 149.729588,8.98891766 150.866308,9.44183931 C152.001766,9.89602258 152.964382,10.5482802 153.752895,11.4023971 C154.541408,12.2565139 155.149509,13.2897809 155.577198,14.5034595 C156.004887,15.7171381 156.219363,17.0834728 156.219363,18.6037251 Z" id="Fill-1" fill="rgb(255, 115, 0)"></path>
                <path d="M163.883831,9.28211819 C163.936819,9.76279548 163.977191,10.3027689 164.004947,10.9020385 C164.030179,11.5025697 164.044057,12.0021713 164.044057,12.4033665 L164.165173,12.4033665 C164.403619,11.8961952 164.730378,11.421826 165.14419,10.9827822 C165.558001,10.5424768 166.031109,10.1551594 166.564774,9.82209163 C167.09844,9.4890239 167.685093,9.22913015 168.325996,9.04241036 C168.964376,8.85569057 169.631773,8.76233068 170.325664,8.76233068 C171.551959,8.76233068 172.605412,8.96923639 173.486023,9.38178619 C174.366633,9.79559761 175.099635,10.3494489 175.686288,11.04334 C176.272942,11.7359695 176.706939,12.5497145 176.987019,13.4833134 C177.267098,14.4169124 177.407138,15.4161155 177.407138,16.4834462 L177.407138,28.2455312 L173.646248,28.2455312 L173.646248,17.7236189 C173.646248,16.9502457 173.585691,16.2172444 173.467098,15.5233533 C173.345983,14.8294622 173.126461,14.2163147 172.806009,13.6826494 C172.485558,13.1489841 172.046514,12.7238181 171.485093,12.4033665 C170.926195,12.082915 170.20581,11.9226892 169.325199,11.9226892 C167.831441,11.9226892 166.611454,12.4891567 165.663977,13.6220916 C164.717762,14.7575498 164.244655,16.2702324 164.244655,18.1639243 L164.244655,28.2455312 L160.483765,28.2455312 L160.483765,13.3621979 C160.483765,12.8562882 160.469887,12.2015073 160.443393,11.4029017 C160.416899,10.6030345 160.376527,9.8952656 160.323539,9.28211819 L163.883831,9.28211819 Z" id="Fill-3" fill="rgb(255, 115, 0)"></path>
                <path d="M192.322012,12.3623639 L187.280578,12.3623639 L187.280578,22.2156175 C187.280578,23.3586454 187.493792,24.1761753 187.921481,24.6682072 C188.347908,25.160239 189.027922,25.406255 189.961521,25.406255 C190.307205,25.406255 190.680644,25.369668 191.081839,25.2952324 C191.481773,25.2220584 191.841335,25.1122975 192.161786,24.9646879 L192.282902,28.046826 C191.827457,28.2070518 191.327855,28.3319522 190.781574,28.4265737 C190.235292,28.5199336 189.667563,28.5666135 189.082171,28.5666135 C187.294456,28.5666135 185.926859,28.0733201 184.980644,27.0867331 C184.034429,26.1001461 183.56006,24.619004 183.56006,22.6445684 L183.56006,12.3623639 L179.919024,12.3623639 L179.919024,9.282749 L183.56006,9.282749 L183.56006,3.84011952 L187.280578,3.84011952 L187.280578,9.282749 L192.322012,9.282749 L192.322012,12.3623639 Z" id="Fill-5" fill="rgb(255, 115, 0)"></path>
                <path d="M209.138274,17.0834728 C209.11178,16.3365936 208.984356,15.637656 208.757264,14.9828752 C208.531434,14.3293559 208.197105,13.7628884 207.756799,13.2822112 C207.317756,12.8015339 206.770212,12.4230478 206.116693,12.1429681 C205.463174,11.8616268 204.696109,11.7228486 203.815498,11.7228486 C203.015631,11.7228486 202.262444,11.8616268 201.555936,12.1429681 C200.849429,12.4230478 200.23502,12.8015339 199.715232,13.2822112 C199.195445,13.7628884 198.767756,14.3293559 198.43595,14.9828752 C198.10162,15.637656 197.908592,16.3365936 197.855604,17.0834728 L209.138274,17.0834728 Z M212.978645,18.6037251 L212.978645,19.2446282 C212.978645,19.457842 212.964768,19.6710558 212.939535,19.8842696 L197.855604,19.8842696 C197.880837,20.6803519 198.061248,21.4272311 198.394316,22.1299535 C198.728645,22.8314143 199.176521,23.4407769 199.735418,23.9567795 C200.295578,24.4727822 200.941527,24.8777623 201.67579,25.1679349 C202.408792,25.4606308 203.189734,25.6057171 204.016096,25.6057171 C205.29664,25.6057171 206.403081,25.3256375 207.33668,24.7654781 C208.271541,24.2053187 209.004542,23.5240438 209.536946,22.7254382 L212.177517,24.8449602 C211.163174,26.1898473 209.970943,27.1789575 208.597039,27.8148141 C207.223134,28.449409 205.696574,28.7660757 204.016096,28.7660757 C202.576587,28.7660757 201.241793,28.5263679 200.015498,28.0456906 C198.787942,27.5662749 197.734489,26.8925697 196.855139,26.0258367 C195.974529,25.1591036 195.281899,24.1119588 194.773466,22.885664 C194.267556,21.6581076 194.015232,20.298081 194.015232,18.8043227 C194.015232,17.3370584 194.261248,15.98334 194.755803,14.744429 C195.250359,13.5029947 195.937942,12.4419721 196.819814,11.5626228 C197.702948,10.682012 198.745046,9.99569057 199.948632,9.50239708 C201.150956,9.00910359 202.44664,8.76182603 203.836946,8.76182603 C205.225989,8.76182603 206.488871,8.98891766 207.626853,9.44183931 C208.762311,9.89602258 209.723665,10.5482802 210.51344,11.4023971 C211.301952,12.2565139 211.908792,13.2897809 212.336481,14.5034595 C212.76417,15.7171381 212.978645,17.0834728 212.978645,18.6037251 Z" id="Fill-7" fill="rgb(255, 115, 0)"></path>
                <path d="M217.203307,11.4025232 C217.176813,10.602656 217.136441,9.89614874 217.083453,9.28173971 L220.645007,9.28173971 C220.697995,9.762417 220.738367,10.3162683 220.763599,10.9432935 C220.791355,11.5690571 220.803971,12.0825365 220.803971,12.4824701 L220.923825,12.4824701 C221.45749,11.3621514 222.237171,10.4626162 223.265392,9.78260292 C224.291089,9.10258964 225.445471,8.76195219 226.726016,8.76195219 C227.312669,8.76195219 227.805963,8.81494024 228.205896,8.92217795 L228.046932,12.402988 C227.512005,12.2692563 226.93923,12.2023904 226.324821,12.2023904 C225.418977,12.2023904 224.631726,12.3701859 223.964329,12.701992 C223.298194,13.0363214 222.745604,13.4829349 222.305299,14.0430943 C221.863732,14.6032537 221.538234,15.2504648 221.32502,15.9834661 C221.111806,16.7177291 221.004568,17.4835325 221.004568,18.2833997 L221.004568,28.2464143 L217.243679,28.2464143 L217.243679,13.363081 C217.243679,12.8559097 217.229801,12.2023904 217.203307,11.4025232" id="Fill-9" fill="rgb(255, 115, 0)"></path>
                <path d="M247.418101,18.7245883 C247.418101,17.8439774 247.285631,16.9911222 247.018167,16.1634993 C246.751965,15.3358765 246.35077,14.6028752 245.817105,13.9632337 C245.284701,13.3235923 244.623612,12.816421 243.837623,12.4429814 C243.050372,12.0695418 242.136959,11.882822 241.097384,11.882822 C240.137291,11.882822 239.262988,12.0695418 238.476999,12.4429814 C237.689748,12.816421 237.016042,13.3235923 236.457145,13.9632337 C235.895724,14.6028752 235.461726,15.3358765 235.155153,16.1634993 C234.848579,16.9911222 234.695923,17.8578552 234.695923,18.7636985 C234.695923,19.6708035 234.848579,20.5375365 235.155153,21.3651594 C235.461726,22.1915206 235.895724,22.9182138 236.457145,23.545239 C237.016042,24.1722643 237.689748,24.6731275 238.476999,25.0453054 C239.262988,25.4200066 240.137291,25.6054648 241.097384,25.6054648 C242.136959,25.6054648 243.050372,25.4124369 243.837623,25.0251195 C244.623612,24.6390637 245.284701,24.1243227 245.817105,23.4846813 C246.35077,22.8463015 246.751965,22.1120385 247.018167,21.2844157 C247.285631,20.4580544 247.418101,19.6039376 247.418101,18.7245883 Z M234.935631,37.8482271 L231.174741,37.8482271 L231.174741,9.28262284 L234.856149,9.28262284 L234.856149,12.2423838 L234.976003,12.2423838 C235.586627,11.2293028 236.4849,10.3953718 237.6683,9.74185259 C238.852961,9.08833333 240.230651,8.76283533 241.800106,8.76283533 C243.210598,8.76283533 244.494927,9.01642098 245.651833,9.52233068 C246.81,10.0282404 247.80668,10.7360093 248.645657,11.6431142 C249.483373,12.5489575 250.126799,13.6099801 250.580983,14.8223971 C251.032643,16.0373373 251.259734,17.3368061 251.259734,18.7245883 C251.259734,20.1123705 251.032643,21.4181474 250.580983,22.6444422 C250.126799,23.8719987 249.489681,24.9393293 248.664582,25.8464343 C247.839482,26.7522776 246.841541,27.4663546 245.672019,27.9861421 C244.499973,28.5059296 243.184104,28.7658234 241.720624,28.7658234 C240.363121,28.7658234 239.086361,28.4731275 237.889084,27.8864741 C236.691806,27.2998207 235.746853,26.4734595 235.055485,25.4061288 L234.935631,25.4061288 L234.935631,37.8482271 Z" id="Fill-11" fill="rgb(255, 115, 0)"></path>
                <path d="M255.571826,11.4025232 C255.545332,10.602656 255.503699,9.89614874 255.45071,9.28173971 L259.012264,9.28173971 C259.065252,9.762417 259.105624,10.3162683 259.132118,10.9432935 C259.158612,11.5690571 259.17249,12.0825365 259.17249,12.4824701 L259.292344,12.4824701 C259.826009,11.3621514 260.605691,10.4626162 261.632649,9.78260292 C262.659608,9.10258964 263.812729,8.76195219 265.093274,8.76195219 C265.679927,8.76195219 266.17322,8.81494024 266.574416,8.92217795 L266.41419,12.402988 C265.880525,12.2692563 265.306487,12.2023904 264.69334,12.2023904 C263.786235,12.2023904 262.998984,12.3701859 262.332849,12.701992 C261.665452,13.0363214 261.112862,13.4829349 260.672556,14.0430943 C260.232251,14.6032537 259.905491,15.2504648 259.692278,15.9834661 C259.479064,16.7177291 259.373088,17.4835325 259.373088,18.2833997 L259.373088,28.2464143 L255.610936,28.2464143 L255.610936,13.363081 C255.610936,12.8559097 255.59832,12.2023904 255.571826,11.4025232" id="Fill-13" fill="rgb(255, 115, 0)"></path>
                <mask id="mask-2" fill="white">
                    <use xlink:href="#path-1"></use>
                </mask>
                <g id="Clip-16"></g>
                <path d="M269.564077,28.2464143 L273.323705,28.2464143 L273.323705,9.28300133 L269.564077,9.28300133 L269.564077,28.2464143 Z M273.922975,2.43997344 C273.922975,3.13386454 273.67822,3.70664011 273.188712,4.16082337 C272.699203,4.61500664 272.111288,4.84083665 271.423705,4.84083665 C270.736122,4.84083665 270.153254,4.60743692 269.677623,4.14063745 C269.20073,3.67383798 268.963546,3.10737052 268.963546,2.43997344 C268.963546,1.74734396 269.20073,1.16699867 269.677623,0.700199203 C270.153254,0.233399734 270.736122,0 271.423705,0 C272.111288,0 272.699203,0.233399734 273.188712,0.700199203 C273.67822,1.16699867 273.922975,1.74734396 273.922975,2.43997344 Z" id="Fill-15" fill="rgb(255, 115, 0)" mask="url(#mask-2)"></path>
                <path d="M289.338712,14.0834661 C288.912284,13.389575 288.311753,12.8231076 287.53838,12.3828021 C286.765007,11.9424967 285.897012,11.7229748 284.938181,11.7229748 C284.510491,11.7229748 284.084064,11.7696547 283.657636,11.861753 C283.229947,11.9563745 282.850199,12.1027224 282.517131,12.3033201 C282.182802,12.502656 281.9166,12.7562417 281.717264,13.0615538 C281.517928,13.3706507 281.416999,13.7491368 281.416999,14.2033201 C281.416999,15.0031873 281.777822,15.5974104 282.496946,15.9834661 C283.217331,16.3695219 284.297278,16.7240372 285.738048,17.0444887 C286.643891,17.2577025 287.48413,17.5112882 288.258765,17.8039841 C289.032138,18.0979416 289.704582,18.465073 290.278619,18.9041169 C290.851394,19.3444223 291.29927,19.8717795 291.619721,20.484927 C291.940173,21.099336 292.099137,21.8184595 292.099137,22.6448207 C292.099137,23.7651394 291.885923,24.7126162 291.459495,25.4859894 C291.033068,26.2593625 290.465339,26.8926959 289.758831,27.3859894 C289.051062,27.8805445 288.244887,28.2337981 287.337782,28.447012 C286.430677,28.6602258 285.49834,28.7662019 284.536985,28.7662019 C283.097477,28.7662019 281.69077,28.4861222 280.316866,27.9259628 C278.942961,27.3658035 277.802457,26.5129482 276.896614,25.3648738 L279.576295,23.0851262 C280.083466,23.8332669 280.783665,24.4602922 281.676892,24.9649402 C282.57012,25.4721116 283.550398,25.7269588 284.617729,25.7269588 C285.098406,25.7269588 285.557636,25.6790173 285.997942,25.5856574 C286.438247,25.4922975 286.838181,25.3396414 287.199004,25.125166 C287.558566,24.9119522 287.843692,24.6318725 288.058167,24.2861886 C288.271381,23.939243 288.378619,23.4989376 288.378619,22.9652722 C288.378619,22.0846614 287.958499,21.4311421 287.11826,21.0047145 C286.278021,20.5770252 285.044157,20.1783533 283.417928,19.8036521 C282.777025,19.6446879 282.129814,19.45166 281.477556,19.2233068 C280.822776,18.9987384 280.229814,18.6833333 279.696149,18.2833997 C279.163745,17.8847278 278.729748,17.3838645 278.395418,16.784595 C278.062351,16.1840637 277.897078,15.4434927 277.897078,14.5628818 C277.897078,13.5498008 278.102722,12.6767596 278.516534,11.9424967 C278.929084,11.2094954 279.470319,10.6089641 280.136454,10.1421647 C280.80259,9.67662683 281.563347,9.32841965 282.417463,9.10258964 C283.270319,8.87549801 284.15093,8.76195219 285.056773,8.76195219 C286.419323,8.76195219 287.732669,9.02941567 288.998074,9.56181939 C290.264741,10.0954847 291.24502,10.8688579 291.940173,11.8832005 L289.338712,14.0834661 Z" id="Fill-17" fill="rgb(255, 115, 0)" mask="url(#mask-2)"></path>
                <path d="M310.038367,17.0834728 C310.011873,16.3365936 309.88571,15.637656 309.658619,14.9828752 C309.432789,14.3293559 309.098459,13.7628884 308.658154,13.2822112 C308.21911,12.8015339 307.671567,12.4230478 307.018048,12.1429681 C306.364529,11.8616268 305.597463,11.7228486 304.716853,11.7228486 C303.916985,11.7228486 303.163798,11.8616268 302.457291,12.1429681 C301.750784,12.4230478 301.136375,12.8015339 300.616587,13.2822112 C300.096799,13.7628884 299.66911,14.3293559 299.337304,14.9828752 C299.002975,15.637656 298.809947,16.3365936 298.756959,17.0834728 L310.038367,17.0834728 Z M313.88,18.6037251 L313.88,19.2446282 C313.88,19.457842 313.866122,19.6710558 313.839628,19.8842696 L298.756959,19.8842696 C298.782191,20.6803519 298.962603,21.4272311 299.295671,22.1299535 C299.63,22.8314143 300.076614,23.4407769 300.636773,23.9567795 C301.196932,24.4727822 301.842882,24.8777623 302.577145,25.1679349 C303.310146,25.4606308 304.091089,25.6057171 304.91745,25.6057171 C306.197995,25.6057171 307.304436,25.3256375 308.238035,24.7654781 C309.171633,24.2053187 309.905896,23.5240438 310.4383,22.7254382 L313.078871,24.8449602 C312.064529,26.1898473 310.872297,27.1789575 309.498393,27.8148141 C308.124489,28.449409 306.597928,28.7660757 304.91745,28.7660757 C303.477942,28.7660757 302.143147,28.5263679 300.916853,28.0456906 C299.689296,27.5662749 298.635843,26.8925697 297.756494,26.0258367 C296.875883,25.1591036 296.183254,24.1119588 295.674821,22.885664 C295.168911,21.6581076 294.915325,20.298081 294.915325,18.8043227 C294.915325,17.3370584 295.162603,15.98334 295.657158,14.744429 C296.151713,13.5029947 296.839296,12.4419721 297.721169,11.5626228 C298.604303,10.682012 299.646401,9.99569057 300.849987,9.50239708 C302.052311,9.00910359 303.347995,8.76182603 304.7383,8.76182603 C306.127344,8.76182603 307.390226,8.98891766 308.526946,9.44183931 C309.663665,9.89602258 310.62502,10.5482802 311.414794,11.4023971 C312.203307,12.2565139 312.810146,13.2897809 313.237835,14.5034595 C313.665525,15.7171381 313.88,17.0834728 313.88,18.6037251 Z" id="Fill-18" fill="rgb(255, 115, 0)" mask="url(#mask-2)"></path>
                <path d="M80.9557703,24.6753984 C77.6957437,24.6753984 75.0513878,22.0323041 75.0513878,18.7722776 C75.0513878,15.5109894 77.6957437,12.8704183 80.9557703,12.8704183 C84.2170584,12.8704183 86.8601527,15.5109894 86.8601527,18.7722776 C86.8601527,22.0323041 84.2170584,24.6753984 80.9557703,24.6753984 M80.9557703,8.73356574 C75.4122112,8.73356574 70.9170584,13.2299801 70.9170584,18.7722776 C70.9170584,24.3170983 75.4122112,28.8097278 80.9557703,28.8097278 C86.500591,28.8097278 90.9944821,24.3170983 90.9944821,18.7722776 C90.9944821,13.2299801 86.500591,8.73356574 80.9557703,8.73356574" id="Fill-19" fill="#494949" mask="url(#mask-2)"></path>
                <path d="M103.199143,13.5511886 C100.334004,13.5511886 98.0113612,15.8738313 98.0113612,18.7377092 L98.0126228,28.2465405 L93.7142829,28.2465405 L93.7142829,9.29952855 L98.0126228,9.29952855 L98.0126228,12.2201793 C98.0126228,12.2201793 99.8407105,9.29952855 103.607908,9.29952855 L104.923778,9.29952855 L104.923778,13.5511886 L103.199143,13.5511886 Z" id="Fill-20" fill="#494949" mask="url(#mask-2)"></path>
                <polygon id="Fill-21" fill="#494949" mask="url(#mask-2)" points="59.6289641 9.29940239 62.8763745 22.4139442 66.4568526 9.29940239 70.7249137 9.29940239 65.2192032 28.2464143 60.9524037 28.2464143 57.5813546 15.0586985 54.2103054 28.2464143 49.9409827 28.2464143 44.4365339 9.29940239 48.704595 9.29940239 52.285073 22.4139442 55.533745 9.29940239"></polygon>
                <path d="M117.612902,18.0383931 C120.667284,16.3150199 122.736341,13.0436388 122.736341,9.29662683 L118.435478,9.29662683 C118.435478,12.4557238 115.866819,15.0231208 112.707722,15.0231208 L112.132424,15.0231208 L112.132424,0.157450199 L107.835345,0.157450199 L107.835345,28.2474236 L112.132424,28.2474236 L112.132424,19.3239841 L112.644641,19.3239841 C113.066023,19.3239841 113.612304,19.6002789 113.859582,19.9383931 L119.958254,28.2474236 L125.109449,28.2474236 L117.612902,18.0383931 Z" id="Fill-22" fill="#494949" mask="url(#mask-2)"></path>
                <path d="M34.2190505,23.7415471 C32.1840571,23.7415471 30.2790106,22.8798606 28.5468061,21.4794622 L28.9681873,19.4949336 L28.9833267,19.4179748 C29.3630744,17.3110691 30.5477357,13.7772709 34.2190505,13.7772709 C36.9668592,13.7772709 39.2011886,16.0128619 39.2011886,18.759409 C39.2011886,21.5072178 36.9668592,23.7415471 34.2190505,23.7415471 M34.2190505,8.73331341 C29.5359163,8.73331341 25.9024502,11.7738181 24.4301394,16.7837118 C22.179409,13.4025697 20.4686521,9.34015272 19.4744954,5.92116202 L14.4317995,5.92116202 L14.4317995,19.0357039 C14.4317995,21.6220252 12.3248938,23.7276693 9.73731076,23.7276693 C7.14846614,23.7276693 5.04282205,21.6220252 5.04282205,19.0357039 L5.04282205,5.92116202 L0.000126162019,5.92116202 L0.000126162019,19.0357039 C0.000126162019,24.4026361 4.36785525,28.8107371 9.73731076,28.8107371 C15.1067663,28.8107371 19.4744954,24.4026361 19.4744954,19.0357039 L19.4744954,16.8392231 C20.452251,18.8792629 21.654575,20.9470584 23.1142696,22.7751461 L20.0296082,37.2888247 L25.1858499,37.2888247 L27.4227025,26.7631275 C29.3819987,28.0146547 31.6352523,28.8107371 34.2190505,28.8107371 C39.7474701,28.8107371 44.2438845,24.2878287 44.2438845,18.759409 C44.2438845,13.232251 39.7474701,8.73331341 34.2190505,8.73331341" id="Fill-23" fill="rgb(255, 115, 0)" mask="url(#mask-2)"></path>
                <path d="M315.197005,10.5142165 C315.361016,10.5142165 315.453114,10.4296879 315.453114,10.3085724 C315.453114,10.1723174 315.361016,10.1016667 315.197005,10.1016667 L314.891693,10.1016667 L314.891693,10.5142165 L315.197005,10.5142165 Z M314.649462,9.88845286 L315.219714,9.88845286 C315.496009,9.88845286 315.702915,10.0234462 315.702915,10.2858632 C315.702915,10.4927689 315.581799,10.6214542 315.411481,10.6706574 L315.74581,11.1475498 L315.453114,11.1475498 L315.155372,10.7135525 L314.891693,10.7135525 L314.891693,11.1475498 L314.649462,11.1475498 L314.649462,9.88845286 Z M316.229011,10.5419721 L316.229011,10.535664 C316.229011,9.93008632 315.759688,9.43300797 315.133924,9.43300797 C314.514469,9.43300797 314.037576,9.93765604 314.037576,10.5419721 L314.037576,10.5495418 C314.037576,11.1551195 314.506899,11.6521979 315.133924,11.6521979 C315.752118,11.6521979 316.229011,11.1475498 316.229011,10.5419721 Z M313.896275,10.5495418 L313.896275,10.5419721 C313.896275,9.86574369 314.442556,9.29675299 315.133924,9.29675299 C315.830339,9.29675299 316.371574,9.85943559 316.371574,10.535664 L316.371574,10.5419721 C316.371574,11.2194622 315.824031,11.7884529 315.133924,11.7884529 C314.434987,11.7884529 313.896275,11.2257703 313.896275,10.5495418 Z" id="Fill-24" fill="rgb(255, 115, 0)" mask="url(#mask-2)"></path>
            </g>
        </g>
    </g>
</svg>