<?xml version="1.0" encoding="UTF-8" standalone="no"?>
<svg width="14px" height="14px" viewBox="0 0 14 14" version="1.1" xmlns="http://www.w3.org/2000/svg" xmlns:xlink="http://www.w3.org/1999/xlink">
    <!-- Generator: Sketch 46.2 (44496) - http://www.bohemiancoding.com/sketch -->
    <title>avatar</title>
    <desc>Created with Sketch.</desc>
    <defs></defs>
    <g id="New-icon-set-AIR-2.0" stroke="none" stroke-width="1" fill="none" fill-rule="evenodd">
        <g id="avatar" fill="#A0A0A0">
            <path d="M7,12.60007 C5.0687,12.60007 3.3628,11.61727 2.3555,10.12557 C2.9379,8.77667 4.4891,7.88347 7,7.88347 C9.5116,7.88347 11.0621,8.77667 11.6445,10.12557 C10.6372,11.61727 8.9313,12.60007 7,12.60007 M7,1.45257 C8.5218,1.45257 9.7594,2.69017 9.7594,4.21197 C9.7594,5.73377 8.5218,6.97137 7,6.97137 C5.4782,6.97137 4.2406,5.73377 4.2406,4.21197 C4.2406,2.69017 5.4782,1.45257 7,1.45257 M7,7e-05 C3.1402,7e-05 0,3.14027 0,7.00007 C0,10.85987 3.1402,14.00007 7,14.00007 C10.8598,14.00007 14,10.85987 14,7.00007 C14,3.14027 10.8598,7e-05 7,7e-05"></path>
        </g>
    </g>
</svg>