<?xml version="1.0" encoding="utf-8"?>
<!-- Generator: Adobe Illustrator 19.0.0, SVG Export Plug-In . SVG Version: 6.00 Build 0)  -->
<svg version="1.1" id="Layer_1" xmlns="http://www.w3.org/2000/svg" xmlns:xlink="http://www.w3.org/1999/xlink" x="0px" y="0px"
	 viewBox="-295.9 375.9 45 42" style="enable-background:new -295.9 375.9 45 42;" xml:space="preserve">
<style type="text/css">
	.st0{fill:#1D4354;}
	.st1{fill:#FFFFFF;}
	.st2{fill:rgb(255, 115, 0);}
	.st3{fill:#E0E0E0;}
	.st4{fill:#F3756C;}
</style>
<g>
	<g>
		<g>
			<path class="st0" d="M-288.6,417c-0.2,0-0.4-0.2-0.4-0.4V381c0-0.2,0.2-0.4,0.4-0.4h30.4c0.2,0,0.4,0.2,0.4,0.4v29.9v5.7
				c0,0.2-0.2,0.4-0.4,0.4L-288.6,417L-288.6,417z"/>
		</g>
		<g>
			<rect x="-285.9" y="383.8" class="st1" width="25" height="30"/>
		</g>
		<g>
			<path class="st2" d="M-265.1,379.6h-5.8c0-0.1,0-0.2,0-0.3c0-1.4-1.1-2.6-2.6-2.6c-1.4,0-2.6,1.1-2.6,2.6c0,0.1,0,0.2,0,0.3h-5.8
				c-0.2,0-0.5,0.2-0.5,0.5v4.3c0,0.3,0.2,0.5,0.5,0.5h16.7c0.2,0,0.5-0.2,0.5-0.5v-4.3C-264.6,379.8-264.8,379.6-265.1,379.6z
				 M-273.4,380.4c-0.6,0-1-0.4-1-1c0-0.6,0.4-1,1-1c0.6,0,1,0.4,1,1C-272.4,379.9-272.8,380.4-273.4,380.4z"/>
		</g>
		<g>
			<path class="st3" d="M-266.3,391.4h-14.2c-0.4,0-0.8-0.3-0.8-0.8s0.3-0.8,0.8-0.8h14.2c0.4,0,0.8,0.3,0.8,0.8
				S-265.9,391.4-266.3,391.4z"/>
		</g>
		<g>
			<g>
				<g>
					<g>
						<path class="st4" d="M-280.6,396.7c0,0.6-0.4,1-1,1s-1-0.4-1-1c0-0.6,0.4-1,1-1S-280.6,396.1-280.6,396.7"/>
					</g>
				</g>
				<g>
					<g>
						<path class="st3" d="M-280.6,401.7c0,0.6-0.4,1-1,1s-1-0.4-1-1c0-0.6,0.4-1,1-1S-280.6,401.2-280.6,401.7"/>
					</g>
				</g>
				<g>
					<g>
						<path class="st3" d="M-280.6,406.8c0,0.6-0.4,1-1,1s-1-0.4-1-1c0-0.6,0.4-1,1-1S-280.6,406.2-280.6,406.8"/>
					</g>
				</g>
			</g>
			<g>
				<path class="st3" d="M-264.2,397.4h-13.2c-0.4,0-0.8-0.3-0.8-0.8s0.3-0.8,0.8-0.8h13.2c0.4,0,0.8,0.3,0.8,0.8
					S-263.8,397.4-264.2,397.4z"/>
			</g>
			<g>
				<path class="st3" d="M-264.2,402.5h-13.2c-0.4,0-0.8-0.3-0.8-0.8s0.3-0.8,0.8-0.8h13.2c0.4,0,0.8,0.3,0.8,0.8
					S-263.8,402.5-264.2,402.5z"/>
			</g>
			<g>
				<path class="st3" d="M-264.2,407.5h-13.2c-0.4,0-0.8-0.3-0.8-0.8s0.3-0.8,0.8-0.8h13.2c0.4,0,0.8,0.3,0.8,0.8
					S-263.8,407.5-264.2,407.5z"/>
			</g>
		</g>
	</g>
</g>
</svg>
