<svg id="Layer_1" data-name="Layer 1" xmlns="http://www.w3.org/2000/svg" viewBox="0 0 160 130"><defs><style>.cls-1{fill:#1d4354;}.cls-2{fill:#33637a;}.cls-3{fill:rgb(255, 115, 0);}.cls-4{fill:#fff;}</style></defs><title>private</title><circle class="cls-1" cx="80" cy="65" r="64.5"/><path class="cls-2" d="M16.18,74.31a64.49,64.49,0,0,0,127.64,0Z"/><circle class="cls-1" cx="60.17" cy="84.78" r="14.17"/><circle class="cls-1" cx="99.83" cy="84.78" r="14.17"/><rect class="cls-1" x="70.3" y="84.69" width="18.33" height="3"/><path class="cls-3" d="M140,62.64c0,9.48-26.86,17.17-60,17.17S20,72.12,20,62.64,46.86,45.49,80,45.49,140,53.17,140,62.64Z"/><path class="cls-3" d="M98.37,23.7C94.3,24,86.65,33,80,33S65.7,24,61.63,23.7c-3.32-.27-14.53,29-18.52,39.68A163,163,0,0,0,80,67.27a163,163,0,0,0,36.89-3.89C112.9,52.65,101.69,23.43,98.37,23.7Z"/><path class="cls-4" d="M80,54a158,158,0,0,1-32.18-2.88C46.38,54.8,44,61,43.11,63.38A163,163,0,0,0,80,67.27a163,163,0,0,0,36.89-3.89c-.89-2.39-3.26-8.58-4.71-12.29A158,158,0,0,1,80,54Z"/></svg>