<svg id="Layer_1" data-name="Layer 1" xmlns="http://www.w3.org/2000/svg" width="40" height="40" viewBox="0 0 40 40"><defs><style>.cls-1{fill:#1d4354;}.cls-2{fill:rgb(255, 115, 0);}</style></defs><path class="cls-1" d="M31.33,17a.28.28,0,0,0-.32-.25l-1.86.2a.3.3,0,0,1-.22-.16,7.88,7.88,0,0,0-.74-1.41.29.29,0,0,1,0-.34l1.09-1.32a.29.29,0,0,0,0-.41l-3-2.5a.29.29,0,0,0-.41,0l-1.1,1.31a.28.28,0,0,1-.33.08,8.39,8.39,0,0,0-1.52-.47.3.3,0,0,1-.23-.26l-.15-1.7a.29.29,0,0,0-.32-.26L18.3,10a.28.28,0,0,0-.26.31L18.2,12a.31.31,0,0,1-.18.3,7.88,7.88,0,0,0-1.41.74.29.29,0,0,1-.34,0L15,11.89a.29.29,0,0,0-.41,0l-2.5,3a.29.29,0,0,0,0,.41l1.31,1.1a.28.28,0,0,1,.08.33A8.65,8.65,0,0,0,13,18.29a.24.24,0,0,1-.09.15l-2,.22a.3.3,0,0,0-.26.33l.43,4a.3.3,0,0,0,.32.26l1.79-.2a.29.29,0,0,1,.27.18,8.14,8.14,0,0,0,.74,1.4.28.28,0,0,1,0,.34l-1.09,1.32a.28.28,0,0,0,0,.41l3,2.5a.29.29,0,0,0,.41,0l1.1-1.31a.28.28,0,0,1,.33-.08,8.65,8.65,0,0,0,1.52.47.3.3,0,0,1,.23.26l.15,1.7a.29.29,0,0,0,.32.26l3.9-.36a.28.28,0,0,0,.26-.31L24.18,28a.3.3,0,0,1,.19-.3,8.14,8.14,0,0,0,1.4-.74.28.28,0,0,1,.34,0l1.32,1.09a.29.29,0,0,0,.41,0l2.5-3a.29.29,0,0,0,0-.41L29,23.56a.28.28,0,0,1-.08-.33,8.65,8.65,0,0,0,.47-1.52.31.31,0,0,1,.13-.17l2-.22a.3.3,0,0,0,.26-.32ZM21.2,24a4,4,0,1,1,4-4A4,4,0,0,1,21.2,24Z"/><path class="cls-2" d="M5.57,20.92l-.15-.11A15.75,15.75,0,0,1,17.32,4.88a.12.12,0,0,0,.08-.13L16.73,2A.11.11,0,0,0,16.59,2,18.76,18.76,0,0,0,2.4,20.19c0,.5,0,1,.07,1.5a.11.11,0,0,1-.08.11l-2.31.64a.11.11,0,0,0,0,.2l5.36,4a.13.13,0,0,0,.18-.06L7.76,20.5a.11.11,0,0,0-.14-.15Z"/><path class="cls-2" d="M30.1,33.09a.12.12,0,0,1,0,.17A15.8,15.8,0,0,1,9.13,30.37a.11.11,0,0,0-.16,0L6.84,32.14a.11.11,0,0,0,0,.16,18.79,18.79,0,0,0,25.23,3.24.11.11,0,0,1,.15,0l1.45,1.7a.11.11,0,0,0,.19,0l1.73-6.54a.11.11,0,0,0-.12-.14l-6.81.57a.12.12,0,0,0-.08.19Z"/><path class="cls-2" d="M36.23,8.9a19,19,0,0,0-6.89-5.65.1.1,0,0,1-.05-.14l1-2.1-7,1.23a.11.11,0,0,0-.08.17l3.52,5.93a.11.11,0,0,0,.2,0L27.94,6a.1.1,0,0,1,.15,0,15.9,15.9,0,0,1,5.74,4.72A15.83,15.83,0,0,1,35.9,26a.12.12,0,0,0,.06.15l2.58,1a.11.11,0,0,0,.15-.06A18.8,18.8,0,0,0,36.23,8.9Z"/></svg>