<svg id="Layer_1" data-name="Layer 1" xmlns="http://www.w3.org/2000/svg" width="262" height="165" viewBox="0 0 262 165"><defs><style>.cls-1{fill:#1d4354;}.cls-1,.cls-2,.cls-3,.cls-4,.cls-5{fill-rule:evenodd;}.cls-2{fill:#2b5468;}.cls-3{fill:#336278;}.cls-4{fill:#fff;}.cls-5{fill:rgb(255, 115, 0);}</style></defs><title>illo-admin</title><g id="Page-1"><g id="Group"><g id="Tile-Copy-2"><g id="Stacked-Group"><g id="illo-admin"><polygon id="Fill-1" class="cls-1" points="0 165 262 165 262 0 0 0 0 165"/><polygon id="Fill-2" class="cls-2" points="0.7 15.7 261.3 15.7 261.3 15.5 0.7 15.5 0.7 15.7"/><polygon id="Fill-3" class="cls-2" points="0.7 42.5 261.3 42.5 261.3 42.3 0.7 42.3 0.7 42.5"/><polygon id="Fill-4" class="cls-2" points="0.7 69.3 261.3 69.3 261.3 69.1 0.7 69.1 0.7 69.3"/><polygon id="Fill-5" class="cls-2" points="0.7 96.2 261.3 96.2 261.3 95.9 0.7 95.9 0.7 96.2"/><polygon id="Fill-6" class="cls-2" points="0.7 123 261.3 123 261.3 122.8 0.7 122.8 0.7 123"/><polygon id="Fill-7" class="cls-2" points="0.7 149.8 261.3 149.8 261.3 149.6 0.7 149.6 0.7 149.8"/><polygon id="Fill-8" class="cls-2" points="7 164 7.2 164 7.2 0 7 0 7 164"/><polygon id="Fill-9" class="cls-2" points="33.8 164 34 164 34 0 33.8 0 33.8 164"/><polygon id="Fill-10" class="cls-2" points="60.6 164 60.9 164 60.9 0 60.6 0 60.6 164"/><polygon id="Fill-11" class="cls-2" points="87.5 164 87.7 164 87.7 0 87.5 0 87.5 164"/><polygon id="Fill-12" class="cls-2" points="114.3 164 114.5 164 114.5 0 114.3 0 114.3 164"/><polygon id="Fill-13" class="cls-2" points="141.1 164 141.3 164 141.3 0 141.1 0 141.1 164"/><polygon id="Fill-14" class="cls-2" points="167.9 164 168.1 164 168.1 0 167.9 0 167.9 164"/><polygon id="Fill-15" class="cls-2" points="194.7 164 195 164 195 0 194.7 0 194.7 164"/><polygon id="Fill-16" class="cls-2" points="221.6 164 221.8 164 221.8 0 221.6 0 221.6 164"/><polygon id="Fill-17" class="cls-2" points="248.4 164 248.6 164 248.6 0 248.4 0 248.4 164"/><g id="Group-152"><path id="Fill-18" class="cls-2" d="M8.6,15.61a1.54,1.54,0,0,1-1.5,1.5,1.5,1.5,0,0,1,0-3,1.47,1.47,0,0,1,1.5,1.5"/><path id="Fill-20" class="cls-2" d="M35.4,15.61a1.5,1.5,0,1,1-1.5-1.5,1.42,1.42,0,0,1,1.5,1.5"/><path id="Fill-22" class="cls-2" d="M62.3,15.61a1.5,1.5,0,1,1-1.5-1.5,1.47,1.47,0,0,1,1.5,1.5"/><path id="Fill-24" class="cls-2" d="M89.1,15.61a1.5,1.5,0,1,1-1.5-1.5,1.47,1.47,0,0,1,1.5,1.5"/><path id="Fill-26" class="cls-2" d="M115.9,15.61a1.5,1.5,0,1,1-1.5-1.5,1.47,1.47,0,0,1,1.5,1.5"/><path id="Fill-28" class="cls-2" d="M142.7,15.61a1.5,1.5,0,1,1-1.5-1.5,1.47,1.47,0,0,1,1.5,1.5"/><path id="Fill-30" class="cls-2" d="M169.5,15.61a1.5,1.5,0,1,1-1.5-1.5,1.42,1.42,0,0,1,1.5,1.5"/><path id="Fill-32" class="cls-2" d="M196.4,15.61a1.5,1.5,0,1,1-1.5-1.5,1.47,1.47,0,0,1,1.5,1.5"/><path id="Fill-34" class="cls-2" d="M223.2,15.61a1.5,1.5,0,1,1-1.5-1.5,1.47,1.47,0,0,1,1.5,1.5"/><path id="Fill-36" class="cls-2" d="M250,15.61a1.5,1.5,0,1,1-1.5-1.5,1.47,1.47,0,0,1,1.5,1.5"/><path id="Fill-38" class="cls-2" d="M8.6,42.41a1.54,1.54,0,0,1-1.5,1.5,1.5,1.5,0,0,1,0-3,1.54,1.54,0,0,1,1.5,1.5"/><path id="Fill-40" class="cls-2" d="M35.4,42.41a1.5,1.5,0,1,1-1.5-1.5,1.47,1.47,0,0,1,1.5,1.5"/><path id="Fill-42" class="cls-2" d="M62.3,42.41a1.5,1.5,0,1,1-1.5-1.5,1.54,1.54,0,0,1,1.5,1.5"/><path id="Fill-44" class="cls-2" d="M89.1,42.41a1.5,1.5,0,1,1-1.5-1.5,1.54,1.54,0,0,1,1.5,1.5"/><path id="Fill-46" class="cls-2" d="M115.9,42.41a1.5,1.5,0,1,1-1.5-1.5,1.54,1.54,0,0,1,1.5,1.5"/><path id="Fill-48" class="cls-2" d="M142.7,42.41a1.5,1.5,0,1,1-1.5-1.5,1.54,1.54,0,0,1,1.5,1.5"/><path id="Fill-50" class="cls-2" d="M169.5,42.41a1.5,1.5,0,1,1-1.5-1.5,1.47,1.47,0,0,1,1.5,1.5"/><path id="Fill-52" class="cls-2" d="M196.4,42.41a1.5,1.5,0,1,1-1.5-1.5,1.54,1.54,0,0,1,1.5,1.5"/><path id="Fill-54" class="cls-2" d="M223.2,42.41a1.5,1.5,0,1,1-1.5-1.5,1.54,1.54,0,0,1,1.5,1.5"/><path id="Fill-56" class="cls-2" d="M250,42.41a1.5,1.5,0,1,1-1.5-1.5,1.54,1.54,0,0,1,1.5,1.5"/><path id="Fill-58" class="cls-2" d="M8.6,69.21a1.54,1.54,0,0,1-1.5,1.5,1.5,1.5,0,1,1,0-3,1.54,1.54,0,0,1,1.5,1.5"/><path id="Fill-60" class="cls-2" d="M35.4,69.21a1.5,1.5,0,1,1-1.5-1.5,1.47,1.47,0,0,1,1.5,1.5"/><path id="Fill-62" class="cls-2" d="M62.3,69.21a1.5,1.5,0,1,1-1.5-1.5,1.54,1.54,0,0,1,1.5,1.5"/><path id="Fill-64" class="cls-2" d="M89.1,69.21a1.5,1.5,0,1,1-1.5-1.5,1.54,1.54,0,0,1,1.5,1.5"/><path id="Fill-66" class="cls-2" d="M115.9,69.21a1.5,1.5,0,1,1-1.5-1.5,1.54,1.54,0,0,1,1.5,1.5"/><path id="Fill-68" class="cls-2" d="M142.7,69.21a1.5,1.5,0,1,1-1.5-1.5,1.54,1.54,0,0,1,1.5,1.5"/><path id="Fill-70" class="cls-2" d="M169.5,69.21a1.5,1.5,0,1,1-1.5-1.5,1.47,1.47,0,0,1,1.5,1.5"/><path id="Fill-72" class="cls-2" d="M196.4,69.21a1.5,1.5,0,1,1-1.5-1.5,1.54,1.54,0,0,1,1.5,1.5"/><path id="Fill-74" class="cls-2" d="M223.2,69.21a1.5,1.5,0,1,1-1.5-1.5,1.54,1.54,0,0,1,1.5,1.5"/><path id="Fill-76" class="cls-2" d="M250,69.21a1.5,1.5,0,1,1-1.5-1.5,1.54,1.54,0,0,1,1.5,1.5"/><path id="Fill-78" class="cls-2" d="M8.6,96a1.54,1.54,0,0,1-1.5,1.5,1.5,1.5,0,1,1,0-3A1.54,1.54,0,0,1,8.6,96"/><path id="Fill-80" class="cls-2" d="M35.4,96a1.5,1.5,0,1,1-1.5-1.5A1.47,1.47,0,0,1,35.4,96"/><path id="Fill-82" class="cls-2" d="M62.3,96a1.5,1.5,0,1,1-1.5-1.5A1.54,1.54,0,0,1,62.3,96"/><path id="Fill-84" class="cls-2" d="M89.1,96a1.5,1.5,0,1,1-1.5-1.5A1.54,1.54,0,0,1,89.1,96"/><path id="Fill-86" class="cls-2" d="M115.9,96a1.5,1.5,0,1,1-1.5-1.5,1.54,1.54,0,0,1,1.5,1.5"/><path id="Fill-88" class="cls-2" d="M142.7,96a1.5,1.5,0,1,1-1.5-1.5,1.54,1.54,0,0,1,1.5,1.5"/><path id="Fill-90" class="cls-2" d="M169.5,96a1.5,1.5,0,1,1-1.5-1.5,1.47,1.47,0,0,1,1.5,1.5"/><path id="Fill-92" class="cls-2" d="M196.4,96a1.5,1.5,0,1,1-1.5-1.5,1.54,1.54,0,0,1,1.5,1.5"/><path id="Fill-94" class="cls-2" d="M223.2,96a1.5,1.5,0,1,1-1.5-1.5,1.54,1.54,0,0,1,1.5,1.5"/><path id="Fill-96" class="cls-2" d="M250,96a1.54,1.54,0,0,1-1.5,1.5,1.5,1.5,0,0,1,0-3A1.54,1.54,0,0,1,250,96"/><path id="Fill-98" class="cls-2" d="M8.6,122.91a1.54,1.54,0,0,1-1.5,1.5,1.5,1.5,0,1,1,0-3,1.47,1.47,0,0,1,1.5,1.5"/><path id="Fill-100" class="cls-2" d="M35.4,122.91a1.5,1.5,0,1,1-1.5-1.5,1.37,1.37,0,0,1,1.5,1.5"/><path id="Fill-102" class="cls-2" d="M62.3,122.91a1.5,1.5,0,1,1-1.5-1.5,1.42,1.42,0,0,1,1.5,1.5"/><path id="Fill-104" class="cls-2" d="M89.1,122.91a1.5,1.5,0,1,1-1.5-1.5,1.47,1.47,0,0,1,1.5,1.5"/><path id="Fill-106" class="cls-2" d="M115.9,122.91a1.5,1.5,0,1,1-1.5-1.5,1.42,1.42,0,0,1,1.5,1.5"/><path id="Fill-108" class="cls-2" d="M142.7,122.91a1.5,1.5,0,1,1-1.5-1.5,1.47,1.47,0,0,1,1.5,1.5"/><path id="Fill-110" class="cls-2" d="M169.5,122.91a1.5,1.5,0,1,1-1.5-1.5,1.37,1.37,0,0,1,1.5,1.5"/><path id="Fill-112" class="cls-2" d="M196.4,122.91a1.5,1.5,0,1,1-1.5-1.5,1.42,1.42,0,0,1,1.5,1.5"/><path id="Fill-114" class="cls-2" d="M223.2,122.91a1.5,1.5,0,1,1-1.5-1.5,1.42,1.42,0,0,1,1.5,1.5"/><path id="Fill-116" class="cls-2" d="M250,122.91a1.5,1.5,0,1,1-1.5-1.5,1.47,1.47,0,0,1,1.5,1.5"/><path id="Fill-118" class="cls-2" d="M8.6,149.71a1.54,1.54,0,0,1-1.5,1.5,1.5,1.5,0,1,1,0-3,1.47,1.47,0,0,1,1.5,1.5"/><path id="Fill-120" class="cls-2" d="M35.4,149.71a1.5,1.5,0,1,1-1.5-1.5,1.42,1.42,0,0,1,1.5,1.5"/><path id="Fill-122" class="cls-2" d="M62.3,149.71a1.5,1.5,0,1,1-1.5-1.5,1.47,1.47,0,0,1,1.5,1.5"/><path id="Fill-124" class="cls-2" d="M89.1,149.71a1.5,1.5,0,1,1-1.5-1.5,1.47,1.47,0,0,1,1.5,1.5"/><path id="Fill-126" class="cls-2" d="M115.9,149.71a1.5,1.5,0,1,1-1.5-1.5,1.47,1.47,0,0,1,1.5,1.5"/><path id="Fill-128" class="cls-2" d="M142.7,149.71a1.5,1.5,0,1,1-1.5-1.5,1.47,1.47,0,0,1,1.5,1.5"/><path id="Fill-130" class="cls-2" d="M169.5,149.71a1.5,1.5,0,1,1-1.5-1.5,1.42,1.42,0,0,1,1.5,1.5"/><path id="Fill-132" class="cls-2" d="M196.4,149.71a1.5,1.5,0,1,1-1.5-1.5,1.47,1.47,0,0,1,1.5,1.5"/><path id="Fill-134" class="cls-2" d="M223.2,149.71a1.5,1.5,0,1,1-1.5-1.5,1.47,1.47,0,0,1,1.5,1.5"/><path id="Fill-136" class="cls-2" d="M250,149.71a1.5,1.5,0,1,1-1.5-1.5,1.47,1.47,0,0,1,1.5,1.5"/><path id="Fill-138" class="cls-2" d="M195.6,125H66.4a.94.94,0,0,1-1-1V53H196.7v71a1.18,1.18,0,0,1-1.1,1"/><path id="Fill-140" class="cls-3" d="M196.6,53.31H65.4V41a.94.94,0,0,1,1-1H195.7a.94.94,0,0,1,1,1v12.3Z"/><path id="Fill-142" class="cls-4" d="M73.6,46.81a1.4,1.4,0,1,1-1.4-1.4,1.5,1.5,0,0,1,1.4,1.4"/><path id="Fill-144" class="cls-4" d="M80.4,46.81a1.4,1.4,0,1,1-1.4-1.4,1.43,1.43,0,0,1,1.4,1.4"/><path id="Fill-146" class="cls-4" d="M87.2,46.81a1.4,1.4,0,1,1-1.4-1.4,1.43,1.43,0,0,1,1.4,1.4"/><path id="Fill-148" class="cls-5" d="M113.5,92.81a8.6,8.6,0,1,1,8.6-8.6,8.6,8.6,0,0,1-8.6,8.6Zm21.6-14.9a.67.67,0,0,0-.7-.6l-4,.4a.55.55,0,0,1-.5-.3,14.29,14.29,0,0,0-1.6-3,.85.85,0,0,1,0-.7l2.3-2.8a.63.63,0,0,0-.1-.9l-6.4-5.3a.63.63,0,0,0-.9.1l-2.3,2.8a.66.66,0,0,1-.7.2,17,17,0,0,0-3.2-1c-.3-.1-.5-.3-.5-.5l-.3-3.6a.67.67,0,0,0-.7-.6l-8.3.8a.67.67,0,0,0-.6.7l.3,3.6a.55.55,0,0,1-.4.6,14.29,14.29,0,0,0-3,1.6c-.2.2-.5.1-.7,0l-2.8-2.3a.63.63,0,0,0-.9.1L94,73.41a.63.63,0,0,0,.1.9l2.8,2.3a.66.66,0,0,1,.2.7,17,17,0,0,0-1,3.2c0,.1-.1.2-.2.3l-4.3.5a.67.67,0,0,0-.6.7l.9,8.4a.67.67,0,0,0,.7.6l3.8-.4a.62.62,0,0,1,.6.4,14.29,14.29,0,0,0,1.6,3c.2.2.1.5,0,.7l-2.3,2.8a.63.63,0,0,0,.1.9l6.4,5.3a.63.63,0,0,0,.9-.1l2.3-2.8a.66.66,0,0,1,.7-.2,17,17,0,0,0,3.2,1c.3.1.5.3.5.5l.3,3.6a.67.67,0,0,0,.7.6l8.3-.8a.67.67,0,0,0,.6-.7l-.3-3.6a.55.55,0,0,1,.4-.6,14.29,14.29,0,0,0,3-1.6c.2-.2.5-.1.7,0l2.8,2.3a.63.63,0,0,0,.9-.1L133,95a.63.63,0,0,0-.1-.9l-2.8-2.3a.66.66,0,0,1-.2-.7,17,17,0,0,0,1-3.2c0-.2.1-.3.3-.4l4.3-.5a.67.67,0,0,0,.6-.7Z"/><path id="Fill-150" class="cls-1" d="M152,106.51a6.6,6.6,0,1,1,6.6-6.6,6.73,6.73,0,0,1-6.6,6.6Zm16.4-11.4c0-.3-.3-.4-.5-.4l-3,.3c-.2,0-.3-.1-.4-.3a10.08,10.08,0,0,0-1.2-2.3.64.64,0,0,1,0-.6l1.8-2.1a.49.49,0,0,0-.1-.7l-4.9-4.1a.49.49,0,0,0-.7.1l-1.8,2.1a.35.35,0,0,1-.5.1,18.29,18.29,0,0,0-2.5-.8.43.43,0,0,1-.4-.4l-.2-2.8c0-.3-.3-.5-.5-.4l-6.3.6c-.3,0-.5.3-.4.5l.3,2.8a.55.55,0,0,1-.3.5,10.08,10.08,0,0,0-2.3,1.2.64.64,0,0,1-.6,0l-2.1-1.8a.49.49,0,0,0-.7.1l-4.1,4.9a.49.49,0,0,0,.1.7l2.1,1.8a.35.35,0,0,1,.1.5,18.29,18.29,0,0,0-.8,2.5c0,.1-.1.2-.1.3l-3.3.4c-.3,0-.4.3-.4.5l.7,6.4c0,.3.3.4.5.4l2.9-.3c.2,0,.4.1.4.3a10.08,10.08,0,0,0,1.2,2.3.64.64,0,0,1,0,.6l-1.8,2.1a.49.49,0,0,0,.1.7l4.9,4.1a.49.49,0,0,0,.7-.1l1.8-2.1a.35.35,0,0,1,.5-.1,18.29,18.29,0,0,0,2.5.8.43.43,0,0,1,.4.4l.3,2.8c0,.3.3.5.5.4l6.3-.6c.3,0,.5-.3.4-.5l-.3-2.8a.55.55,0,0,1,.3-.5,10.08,10.08,0,0,0,2.3-1.2.64.64,0,0,1,.6,0l2.1,1.8a.49.49,0,0,0,.7-.1l4.1-4.9a.49.49,0,0,0-.1-.7l-2.1-1.8a.35.35,0,0,1-.1-.5,18.29,18.29,0,0,0,.8-2.5c0-.1.1-.2.2-.3l3.2-.4c.3,0,.4-.3.4-.5Z"/></g></g></g></g></g></g></svg>