<svg id="Layer_1" data-name="Layer 1" xmlns="http://www.w3.org/2000/svg" width="40" height="40" viewBox="0 0 40 40"><defs><style>.cls-1{fill:#f2f2f2;}.cls-2{fill:#1d4354;}.cls-3{fill:#fff;}.cls-4{fill:rgb(255, 115, 0);}.cls-5{fill:#d1d1d1;}</style></defs><rect class="cls-1" x="3.59" y="0.04" width="32.82" height="39.92" rx="0.5"/><polygon class="cls-2" points="14.21 29.41 17.25 32.36 28.11 21.54 24.67 18.21 14.21 29.41"/><polygon class="cls-3" points="12.22 33.55 13.17 34.48 17.25 32.35 14.22 29.41 12.22 33.55"/><polygon class="cls-2" points="38.74 10.16 35.7 7.21 24.85 18.02 28.28 21.34 38.74 10.16"/><path class="cls-2" d="M37.88,12.36a17.5,17.5,0,0,1-5.8,6.89,22.43,22.43,0,0,1-2.19,1.43l.8.78s5.18-1.91,9.23-9.43a.73.73,0,0,0-.13-.85L38.3,9.74,36.79,11.3Z"/><polyline class="cls-3" points="28.35 21.3 24.9 17.95 24.55 18.31 28 21.65"/><path class="cls-2" d="M13.69,34.21,12.47,33l-.67,1.4a.41.41,0,0,0,.51.51Z"/><path class="cls-4" d="M35.68,7.2a2.14,2.14,0,0,1,3.08,3Z"/><path class="cls-5" d="M8,9H24.24a.63.63,0,1,0,0-1.25H8A.63.63,0,1,0,8,9Z"/><path class="cls-5" d="M8,14.53H21.77a.63.63,0,0,0,.63-.63.63.63,0,0,0-.63-.63H8a.63.63,0,0,0-.63.63A.63.63,0,0,0,8,14.53Z"/><path class="cls-5" d="M8,20.18h9.23a.63.63,0,0,0,0-1.25H8a.63.63,0,1,0,0,1.25Z"/></svg>