<svg id="Layer_1" data-name="Layer 1" xmlns="http://www.w3.org/2000/svg" width="40" height="40" viewBox="0 0 40 40"><defs><style>.cls-1{fill:#d1d1d1;}.cls-2{fill:#f2f2f2;}.cls-3{fill:rgb(255, 115, 0);}.cls-4{fill:#1d4354;}.cls-5{fill:#fff;}</style></defs><path class="cls-1" d="M0,8.74H37.55a0,0,0,0,1,0,0V33.13a.5.5,0,0,1-.5.5H.5a.5.5,0,0,1-.5-.5V8.74a0,0,0,0,1,0,0Z"/><path class="cls-2" d="M11.06,8.74H37.55a0,0,0,0,1,0,0V33.13a.5.5,0,0,1-.5.5h-26a0,0,0,0,1,0,0V8.74A0,0,0,0,1,11.06,8.74Z"/><path class="cls-3" d="M39.7,27.5a.22.22,0,0,0-.23-.18l-1.3.15a.22.22,0,0,1-.15-.12,6.13,6.13,0,0,0-.52-1,.2.2,0,0,1,0-.24l.76-.92a.2.2,0,0,0,0-.28l-2.1-1.75a.2.2,0,0,0-.28,0l-.77.91a.2.2,0,0,1-.23.06,6.22,6.22,0,0,0-1.06-.33.2.2,0,0,1-.16-.18l-.11-1.19a.2.2,0,0,0-.22-.18l-2.72.25a.2.2,0,0,0-.19.22L30.52,24a.19.19,0,0,1-.12.2,5.83,5.83,0,0,0-1,.52.21.21,0,0,1-.24,0l-.91-.77a.21.21,0,0,0-.29,0L26.22,26a.21.21,0,0,0,0,.29l.92.76a.19.19,0,0,1,0,.23,6.51,6.51,0,0,0-.33,1.06.2.2,0,0,1-.06.11l-1.41.16a.2.2,0,0,0-.18.22l.31,2.76a.2.2,0,0,0,.22.18L27,31.66a.21.21,0,0,1,.19.13,6.08,6.08,0,0,0,.51,1,.2.2,0,0,1,0,.24l-.76.91a.21.21,0,0,0,0,.29L29.07,36a.21.21,0,0,0,.29,0l.76-.91a.22.22,0,0,1,.24-.06,6.22,6.22,0,0,0,1.06.33.21.21,0,0,1,.16.18l.11,1.19a.2.2,0,0,0,.22.18l2.72-.25a.2.2,0,0,0,.18-.22l-.11-1.19a.21.21,0,0,1,.13-.2,5.73,5.73,0,0,0,1-.52.19.19,0,0,1,.24,0l.92.77a.21.21,0,0,0,.29,0L39,33.11a.21.21,0,0,0,0-.29l-.92-.76a.22.22,0,0,1-.06-.24,4.75,4.75,0,0,0,.33-1.05.21.21,0,0,1,.09-.13l1.4-.15a.21.21,0,0,0,.18-.23Zm-7.08,4.89a2.82,2.82,0,1,1,2.82-2.82A2.82,2.82,0,0,1,32.62,32.39Z"/><path class="cls-4" d="M37.55,8.74V3.5a.35.35,0,0,0-.35-.34H.34A.34.34,0,0,0,0,3.5V8.74Z"/><circle class="cls-5" cx="3.42" cy="5.83" r="0.69"/><circle class="cls-5" cx="7.09" cy="5.83" r="0.69"/><circle class="cls-5" cx="10.77" cy="5.83" r="0.69"/><path class="cls-3" d="M14.72,15h.85a.63.63,0,0,0,.63-.63.63.63,0,0,0-.63-.63h-.85a.63.63,0,0,0-.63.63A.63.63,0,0,0,14.72,15Z"/><path class="cls-1" d="M18.1,15H21a.63.63,0,0,0,.62-.63.63.63,0,0,0-.62-.63H18.1a.63.63,0,0,0-.62.63A.63.63,0,0,0,18.1,15Z"/><path class="cls-3" d="M14.72,19.67h.85a.63.63,0,1,0,0-1.25h-.85a.63.63,0,1,0,0,1.25Z"/><path class="cls-1" d="M18.1,19.67h7.77a.63.63,0,0,0,0-1.25H18.1a.63.63,0,0,0,0,1.25Z"/><path class="cls-3" d="M14.72,24.34h.85a.63.63,0,1,0,0-1.25h-.85a.63.63,0,1,0,0,1.25Z"/><path class="cls-1" d="M18.1,24.34h4.54a.63.63,0,1,0,0-1.25H18.1a.63.63,0,0,0,0,1.25Z"/><path class="cls-1" d="M23.41,15h9a.63.63,0,0,0,.62-.63.63.63,0,0,0-.62-.63h-9a.63.63,0,0,0-.63.63A.63.63,0,0,0,23.41,15Z"/></svg>