<svg height="43" viewBox="0 0 950 43" width="950" xmlns="http://www.w3.org/2000/svg" xmlns:xlink="http://www.w3.org/1999/xlink"><mask id="a" fill="#fff"><path d="m.448 0h22.544v15.9599h-22.544z" fill="#fff" fill-rule="evenodd"/></mask><g fill="#9f9e9f" fill-rule="evenodd"><g fill-rule="nonzero"><path d="m46.4839253 6.83454329c0 .98009703-.7967951 1.76955561-1.7860002 1.76955561-.9892052 0-1.7867762-.78945858-1.7867762-1.76955561 0-.98009704.7696405-1.76955558 1.7867762-1.76955558 1.0163598.02690462 1.7860002.81636317 1.7860002 1.76955558zm-7.3651175 3.56678441v.435855s-.8518802-1.08925293-2.6650351-1.08925293c-2.9955461 0-5.331622 2.25998843-5.331622 5.39091803 0 3.1040249 2.3081454 5.3916867 5.331622 5.3916867 1.8410854 0 2.6650351-1.1169263 2.6650351-1.1169263v.4635283c0 .2175431.1652555.3812769.3848202.3812769h2.2259056v-10.2383626s-2.0334955 0-2.2259056 0c-.2195647 0-.3848202.1906385-.3848202.3812769zm0 6.5624223c-.4119748.5988201-1.2367005 1.1161575-2.2259056 1.1161575-1.7588456 0-3.1049406-1.0892528-3.1049406-2.9410597 0-1.8510382 1.346095-2.9402911 3.1049406-2.9402911.9620505 0 1.8410854.5442421 2.2259056 1.1161576zm4.260177 3.2938947h2.6378805v-10.2375939h-2.6378805zm39.4076074-10.50971493c-1.8131556 0-2.6650357 1.08925293-2.6650357 1.08925293v-5.74529037h-2.6386563v15.16652107h2.2259059c.2195645 0 .3848205-.1914071.3848205-.3812769v-.4635283s.8518801 1.1169263 2.6658109 1.1169263c2.9955461 0 5.331622-2.2876618 5.331622-5.3916867 0-3.104025-2.3360759-5.39091803-5.3044673-5.39091803zm-.4391297 8.30430443c-1.0171361 0-1.8139309-.5173375-2.225906-1.1161575v-3.6482671c.4119751-.5450108 1.2910098-1.1161576 2.225906-1.1161576 1.7588455 0 3.1049406 1.0884843 3.1049406 2.9402911 0 1.8518069-1.3460951 2.9402911-3.1049406 2.9402911zm-6.2385875-3.8658101v6.0988939h-2.6378805v-5.7998682c0-1.6880731-.5500757-2.3683757-2.0342714-2.3683757-.7967951 0-1.6207448.4081816-2.1428899 1.0070017v7.1343376h-2.6386564v-10.2383626h2.0885807c.2203406 0 .3848202.1906385.3848202.3812769v.435855c.7696404-.7894585 1.7860003-1.08925293 2.803136-1.08925293 1.1544606 0 2.1157353.32669903 2.8853757.98009703.9348958.7625539 1.2917856 1.7426509 1.2917856 3.4583973zm-15.8567652-4.43849433c-1.8139308 0-2.665811 1.08925293-2.665811 1.08925293v-5.74529037h-2.6378804v15.16652107h2.2259055c.2195648 0 .3848203-.1914071.3848203-.3812769v-.4635283s.8518802 1.1169263 2.6658109 1.1169263c2.9955461 0 5.331622-2.2876618 5.331622-5.3916867.0271547-3.104025-2.3089212-5.39091803-5.3044673-5.39091803zm-.4399054 8.30430443c-1.0163598 0-1.8131548-.5173375-2.2259056-1.1161575v-3.6482671c.4127508-.5450108 1.2917856-1.1161576 2.2259056-1.1161576 1.7588456 0 3.1057164 1.0884843 3.1057164 2.9402911 0 1.8518069-1.3468708 2.9402911-3.1057164 2.9402911zm-7.1447769-8.30430443c.7967951 0 1.2095458.13606052 1.2095458.13606052v2.42372221s-2.1987509-.7356493-3.5727763.8163633v7.1612422h-2.6386564v-10.2652672h2.2259056c.2203406 0 .3848202.1906385.3848202.3812769v.435855c.4949905-.5719155 1.5664356-1.08925293 2.3911611-1.08925293zm-27.399044 9.58419593c-.137325-.3266991-.2746499-.6803027-.4119748-.9800971-.2195648-.4896641-.4399054-.9531924-.6323155-1.3882786l-.0271546-.0276733c-1.8961706-4.084122-3.930442-8.22282192-6.073332-12.3069439l-.0830156-.16373386c-.2195648-.40818159-.4391296-.8440365-.6594702-1.27912271-.2746499-.49043287-.5492998-1.00777036-.9892052-1.49820323-.8790349-1.08848423-2.1436658-1.688073-3.4897606-1.688073-1.3740254 0-2.6107259.59958877-3.51769128 1.63426375-.41275077.48966417-.71455528 1.00700166-.98920524 1.49743452-.22034054.43508622-.43990532.87094113-.65947009 1.27989142l-.08301565.16296515c-2.11573533 4.08412196-4.17716135 8.22282186-6.07333192 12.30694386l-.02715465.054578c-.19241011.4358549-.41275071.8986144-.63231547 1.3890473-.13732495.2990257-.27464991.6257247-.41197487.980097-.35766556 1.0070017-.46706001 1.9601941-.32973506 2.9402911.30180457 2.0424453 1.67582996 3.7574229 3.57200053 4.5199769.71455528.2997944 1.45704105.4358549 2.22590563.4358549.22034061 0 .49499052-.0276733.71455528-.0545779.90696538-.109156 1.84186125-.4081817 2.74882661-.9255191 1.12653018-.6264934 2.19797518-1.5251079 3.40752098-2.8319039 1.2087699 1.306796 2.3081454 2.2054105 3.4075209 2.8319039.9069654.5173374 1.8410854.8163631 2.7480508.9255191.2195647.0269046.4949905.0545779.7145553.0545779.7696404 0 1.5392808-.1360605 2.2259056-.4358549 1.9241011-.762554 3.2701959-2.5052049 3.5727764-4.5199769.2195648-.9531924.1101703-1.9056161-.2474953-2.9133864zm-12.3941591 1.4159519c-1.4841957-1.8518068-2.4454703-3.5936891-2.7752054-5.0642191-.13732498-.6264933-.16525544-1.1707355-.0830156-1.6611683.0550851-.4350862.2203405-.8171319.4399053-1.1430621.5221452-.7356493 1.4019559-1.1984089 2.4183157-1.1984089 1.0171357 0 1.9241011.4358549 2.4183157 1.1984089.2203406.3259302.3848203.7079759.4399054 1.1430621.0822398.4904328.0550852 1.0615796-.0822398 1.6611683-.329735 1.4428567-1.2917856 3.1855076-2.7759813 5.0642191zm10.9650486 1.2798914c-.1924101 1.415952-1.1536848 2.6412654-2.5005556 3.1855075-.6594701.2721211-1.3740254.3543723-2.0885806.2721211-.6874007-.0814826-1.3740254-.2990257-2.0885807-.707976-.9892052-.5442421-1.9784104-1.3882786-3.132871-2.6404967 1.8139307-2.2061792 2.9133062-4.2209512 3.3252811-6.0174114.1924101-.8440365.2195648-1.6065905.1373249-2.3145664-.1101703-.6810713-.3576656-1.306796-.7417099-1.8518068-.8518802-1.2253135-2.2809908-1.9332895-3.8753568-1.9332895-1.5935902 0-3.02270065.7356493-3.87458091 1.9332895-.38482022.5450108-.63231547 1.1707355-.74170991 1.8518068-.11017035.7079759-.08301564 1.4974345.1373249 2.3145664.41197494 1.7964602 1.53850508 3.8389055 3.32528112 6.044316-1.1273059 1.2522181-2.1436658 2.0962546-3.13287096 2.6412655-.71455528.4081815-1.40195592.6264933-2.0885807.7079759-.74248577.0814826-1.45704104-.0276733-2.08858066-.272121-1.34687075-.5450109-2.30892129-1.7703243-2.5013314-3.1862763-.0822398-.6803026-.02715464-1.361374.24749527-2.1239279.08301564-.2721211.21956475-.5442421.35766556-.8709411.1924101-.4358549.41197486-.8986144.63153962-1.361374l.0279305-.054578c1.89617057-4.0564486 3.92966609-8.19591722 6.04540145-12.22546126l.08301564-.16296515c.2195647-.40895029.43912949-.8440365.6594701-1.25298679.21956478-.43585491.46706008-.8440365.76886458-1.19764013.5772303-.65339803 1.3468707-1.00777036 2.198751-1.00777036.8518802 0 1.6215206.35437233 2.1987509 1.00777036.3018046.35360363.5492999.76178522.7696405 1.19764013.2195648.40895029.4391295.8440365.6594701 1.25298679l.0822398.16296515c2.0885807 4.05721738 4.1220762 8.19591736 6.0182467 12.25313466v.0269046c.2195648.4358549.4119749.9255191.6323155 1.361374.137325.326699.27465.59882.3568898.8709411.2203406.707976.3025804 1.3890473.1924101 2.0970233z" transform="translate(196.4 7.74)"/><g transform="translate(0 9.982143)"><path d="m40.2607259 13.7101191-.6798247 1.8821428h-.056652c-.1133041-.4244047-.3210283-1.0702381-.6609406-1.8452381l-3.6446155-8.94940475h-3.5690793v14.26369045h2.3605022v-8.8017857c0-.5535714 0-1.18095238-.018884-1.95595236-.018884-.38750003-.0566521-.68273811-.0755361-.90416668h.0566521c.113304.5535714.2454922.9595238.3399123 1.21785713l4.3810921 10.40714291h1.6617936l4.343324-10.49940479c.0944201-.23988095.1888403-.71964285.2832603-1.12559525h.0566521c-.0566521 1.05178575-.0944201 1.99285711-.1133041 2.56488096v9.04166668h2.5115743v-14.24523811h-3.4368912zm9.555313-4.92678576h2.4549223v10.22261906h-2.4549223zm1.2463451-4.31785715c-.4154484 0-.7553607.14761905-1.038621.40595238-.2832602.25833334-.4343323.59047619-.4343323.99642858 0 .38749999.1510721.71964285.4343323.97797619.2832603.25833332.6231726.38749999 1.038621.38749999s.7742448-.14761904 1.038621-.38749999c.2832603-.25833334.4343324-.5904762.4343324-.97797619 0-.38750001-.1510721-.71964287-.4343324-.99642858-.2454922-.25833333-.6042886-.40595238-1.038621-.40595238zm9.9141094 4.22559528c-.4532165-.09226196-.9253169-.14761908-1.3785334-.14761908-1.114157 0-2.1338939.23988095-2.9836747.71964285-.8497809.47976191-1.5296055 1.14404766-1.9639379 1.97440476-.4532164.8488095-.6798246 1.8267857-.6798246 2.952381 0 .9779762.2266082 1.845238.6609406 2.6386905.4343324.7749999 1.038621 1.4023809 1.8506338 1.8267856.7742446.4244048 1.6806775.6458334 2.7004145.6458334 1.1708091 0 2.171662-.239881 2.9647908-.6827381l.018884-.0184524v-2.2142857l-.0944201.0738095c-.3587963.2583333-.7742448.4797619-1.1896931.6089286-.4343325.147619-.8308968.2214286-1.1708091.2214286-.981969 0-1.7562136-.2767858-2.3038502-.8857143-.5665205-.5904763-.8497808-1.402381-.8497808-2.4172619 0-1.0517858.2832603-1.8821429.8686648-2.4910715.5854046-.6089285 1.3596493-.922619 2.3038502-.922619.7931287 0 1.6051415.2583334 2.3416182.775l.0944201.0738095v-2.34345238l-.018884-.01845238c-.3210283-.12916662-.6798247-.2767857-1.1708091-.36904757zm8.1012436-.07380958c-.6042886 0-1.1708091.18452383-1.6617936.57202385-.4154484.33214283-.6987086.81190476-.9442009 1.38392856h-.018884v-1.78988096h-2.4549223v10.22261906h2.4549223v-5.2220238c0-.8857143.1888402-1.6238096.6042886-2.1589286.4154484-.5535714.9442008-.8303572 1.5862575-.8303572.2266082 0 .4532164.0553572.7364767.092262.2643762.0738095.4532164.147619.5854045.2398809l.0944201.0738095v-2.39880948l-.0566521-.01845238c-.1699561-.11071433-.5098685-.16607145-.9253168-.16607145zm6.6849423-.05535713c-1.7184457 0-3.096979.49821428-4.0600639 1.47619044-.9819688.9779762-1.4540693 2.325-1.4540693 4.0226191 0 1.5869048.4909845 2.8785714 1.4351853 3.8196428.9442009.9226191 2.2283142 1.402381 3.8334556 1.402381 1.6806773 0 3.0214432-.4982143 3.9845275-1.4946428.9819695-.9964286 1.4540694-2.3250001 1.4540694-3.967262 0-1.6238095-.4532161-2.9154761-1.3785328-3.85654758-.8875491-.94107143-2.1905459-1.40238096-3.8145718-1.40238096zm1.9639377 7.86071424c-.4532161.5720238-1.170809.8488096-2.0583578.8488096s-1.6051415-.2767858-2.11501-.8857143c-.5098685-.5720239-.7553607-1.402381-.7553607-2.4541666 0-1.0886906.2643763-1.9190477.7553607-2.5095239.5098685-.5904761 1.2085772-.8857143 2.096126-.8857143.8686648 0 1.5484891.2767857 2.0394743.8488096.4909843.5720237.7553603 1.4023809.7553603 2.4910714-.0377683 1.1071428-.2454922 1.9744048-.7175928 2.5464285zm8.7055326-3.395238c-.7742449-.3136906-1.2652293-.5535715-1.4918377-.7565476-.1888401-.1845239-.2832605-.4428572-.2832605-.7750001 0-.2767857.1133042-.5535714.3965647-.7380952s.6042886-.2767857 1.0763892-.2767857c.4154477 0 .8497808.0738095 1.2652293.1845238.4154477.1107143.7931287.2767857 1.095273.4982143l.0944196.0738095v-2.25119046l-.0566521-.01845237c-.2832597-.11071433-.6609407-.22142858-1.1141567-.31369053-.4532169-.0738095-.8686654-.11071425-1.2085772-.11071425-1.1708089 0-2.1338939.2767857-2.889255.88571431-.7553604.5720238-1.1141568 1.3470238-1.1141568 2.2511904 0 .4797619.0755359.9041667.2454922 1.2547619.1699563.3505953.4154485.6827381.7553604.9595238.3399126.2583334.830897.5535715 1.5107215.8303572.566521.239881 1.0008533.4244048 1.2652293.5720238.2643767.1476191.4343322.3136905.5665202.4428571.0944205.1476191.1510726.3321429.1510726.5720239 0 .682738-.5287528 1.0148809-1.6051412 1.0148809-.4154485 0-.8497808-.0738095-1.3596497-.2398809-.5098682-.1660715-.9819688-.4059524-1.3785335-.6827381l-.0944197-.0738095v2.3434523l.0566521.0184524c.3587964.1660714.7931287.2767857 1.3218814.4059524.528752.0922619 1.0008526.1660714 1.4163011.1660714 1.2652293 0 2.3038502-.2767857 3.0403268-.8857143.7553603-.5904761 1.151925-1.3470237 1.151925-2.325 0-.682738-.18884-1.2916666-.6042886-1.7529762-.5476364-.4428571-1.2274609-.9041666-2.2094297-1.2732142zm9.2909366-4.46547624c-1.7184461 0-3.0969789.49821428-4.0600639 1.47619044-.963085.9779762-1.4540693 2.325-1.4540693 4.0226191 0 1.5869048.4909843 2.8785714 1.4351856 3.8196428.9442004.9226191 2.2283135 1.402381 3.8334554 1.402381 1.6806771 0 3.021443-.4982143 3.9845273-1.4946428.9819697-.9964286 1.4540697-2.3250001 1.4540697-3.967262 0-1.6238095-.453216-2.9154761-1.3785331-3.85654758-.8875491-.94107143-2.190546-1.40238096-3.8145717-1.40238096zm1.9450538 7.86071424c-.4532168.5720238-1.1708089.8488096-2.058358.8488096-.9064329 0-1.6051419-.2767858-2.1150101-.8857143-.5098681-.5720239-.7553603-1.402381-.7553603-2.4541666 0-1.0886906.2643759-1.9190477.7553603-2.5095239.5098682-.5904761 1.2085772-.8857143 2.0961263-.8857143.8497808 0 1.5484891.2767857 2.0394735.8488096.4909844.5720237.7553611 1.4023809.7553611 2.4910714 0 1.1071428-.2454922 1.9744048-.7175928 2.5464285zm16.372444-5.6648809v-1.97440476h-2.473807v-3.02619048l-.075536.01845238-2.341618.68273809-.056652.01845238v2.30654763h-3.701268v-1.29166667c0-.59047619.151073-1.05178571.415449-1.34702381s.66094-.44285714 1.151925-.44285714c.339912 0 .698708.07380952 1.095273.23988095l.09442.05535714v-2.08511905l-.056652-.01845238c-.339913-.11071428-.793129-.18452381-1.378534-.18452381-.736476 0-1.378533.16607143-1.963937.44285714-.585405.31369048-1.019737.73809524-1.340766 1.31011905-.321028.55357143-.490984 1.18095238-.490984 1.90059524v1.42083334h-1.718446v1.95595236h1.718446v8.2666667h2.473806v-8.2482143h3.701268v5.2589285c0 2.1589286 1.03862 3.2476191 3.115862 3.2476191.339913 0 .698709-.0553571 1.038622-.1107143.358796-.0738095.623172-.1660714.774244-.239881l.018885-.0184523v-1.9744048l-.094421.0738095c-.151072.092262-.28326.1660715-.509868.2214286-.18884.0553572-.358796.0738096-.490984.0738096-.490985 0-.830897-.1107143-1.07639-.3875-.226608-.2583334-.339912-.6827382-.339912-1.3101191v-4.8345238z"/><path d="m0 0h11.5759029v11.3113096h-11.5759029z"/><path d="m12.78448 0h11.5759029v11.3113096h-11.5759029z"/><path d="m0 12.4922619h11.5759029v11.3113095h-11.5759029z"/><path d="m12.78448 12.4922619h11.5759029v11.3113095h-11.5759029z"/></g><path d="m36.2326174 6.21296046c-4.1567479-4.1415877-9.1555364-6.21296046-14.9977601-6.21296046-5.8433857 0-10.8435687 2.07137276-15.00031658 6.21296046-4.15674784 4.14158764-6.23454072 9.12283974-6.23454072 14.94375614 0 5.8609776 2.07779288 10.8519555 6.23454072 14.9740915 4.15674788 4.1221361 9.15693088 6.1823935 15.00031658 6.1823935 5.8422237 0 10.8410122-2.0602574 14.9977601-6.1823935 4.1567477-4.122136 6.2357027-9.1131139 6.2357027-14.9740915 0-5.8209164-2.078955-10.8021685-6.2357027-14.94375614zm-.6928533 29.16890274c-3.9365831 3.9415474-8.7056595 5.9117432-14.3060683 5.9117432-5.5614075 0-10.3207335-1.9701958-14.27681739-5.9117432-3.95608385-3.9417787-5.93354539-8.6836099-5.93354539-14.2245689 0-5.5800255 1.97746154-10.3317966 5.93354539-14.25392643 3.95608389-3.92212983 8.71540989-5.88377265 14.27681739-5.88377265 5.5611753 0 10.3205013 1.9715828 14.2765852 5.91313026 3.9560838 3.94154742 5.9347061 8.68360982 5.9347061 14.22456882s-1.9688719 10.2827902-5.905223 14.2245689zm1.7249714-24.028232c-1.9211588-3.12393584-4.6265778-5.21272812-8.1146309-6.26753354-1.6860666-.50774076-3.1159012-.7617268-4.2920592-.7617268-1.2939365 0-2.3709004.32222454-3.2334473.96690496-.8625469.6444491-1.4886076.96551706-1.8807378.96551706-.9800929 0-1.4702556-.46864819-1.4702556-1.4061759 0-.70204702.3712228-1.27825761 1.1162234-1.72747519.7450008-.44921757 1.7448397-.67382635 2.9992844-.67382635 1.9985161 0 3.5077989.25398604 4.5273837.76172681l.058773-.1758009c-1.8428721-.66411105-3.841156-.99605091-5.9962455-.99605091-3.6072253 0-6.8209267.87900451-9.642498 2.63562564-3.09754913 1.91414798-5.17435194 4.60945336-6.23157003 8.08499092-.50967622 1.6407314-.76451433 3.0654127-.76451433 4.276357 0 1.2891295.32220644 2.3719243.96894235 3.2509288.64696823.8790045.97056848 1.5125817.97056848 1.9030448 0 .9375277-.47064905 1.4064072-1.41148255 1.4064072-1.60754761 0-2.40992759-1.3659267-2.40992759-4.100556 0-1.6016388.23509222-3.1042739.70550897-4.5106811l-.17631917-.0585232c-.62745464 2.5000739-.9410658 4.4910191-.9410658 5.9742236 0 3.6330644.88113123 6.8546159 2.64525212 9.6660425 1.92139108 3.0859998 4.62541624 5.1553614 8.11486315 6.2087789 1.6454133.5079722 3.0764094.7617269 4.2918269.7617269 1.292775 0 2.3697389-.3307833 3.2322858-.9948944.8625469-.664111 1.4897692-.9960509 1.8818993-.9960509.980093 0 1.4702556.4883102 1.4702556 1.4649305 0 .664111-.3723843 1.2195031-1.1173849 1.6687206-.7450008.4492176-1.7434459.6738264-2.9981228.6738264-1.8428722 0-3.3509934-.2343241-4.5271514-.7032036l-.0590054.1758009c1.3710616.6250184 3.3695778.9375277 5.9964778.9375277 3.6058315 0 6.8195329-.8776166 9.642498-2.6356256 3.0961553-1.914148 5.1727259-4.6082968 6.2313377-8.084991.5099086-1.6786674.7647467-3.0848432.7647467-4.2178338 0-1.3268342-.3236002-2.4292909-.9705685-3.3080641-.6467359-.8790045-.9691746-1.4943077-.9691746-1.8459094 0-.9766203.470649-1.4649305 1.4114825-1.4649305.7045798 0 1.2827858.3809791 1.733689 1.1427059.4509031.7617268.6764709 1.7663364.6764709 3.0163734 0 1.3673146-.2353245 2.8713376-.7057412 4.5106811l.1763191.0587545c.6274546-1.8738989.9410658-3.8845061.9410658-6.0329781 0-3.5928153-.8820605-6.7752743-2.6452521-9.5487648zm-6.1365906 19.0951859c-1.0793177 1.1131362-2.4220707 1.6684323-4.0310493 1.6684323-1.9228689 0-3.4520961-.7028508-4.5888441-2.109015-1.0202598-1.2095788-1.5303897-2.6545976-1.5303897-4.3341313 0-3.0452243 1.3918129-5.289999 4.1779965-6.7350178-.1962396-.1563433-.3924792-.3906269-.5887187-.7030822-1.6480405 1.1718807-3.4520961 2.3044442-5.4128644 3.3967655-.1569451 2.499642-.41201 4.2756182-.7651948 5.3302413-1.1381431 3.4370077-3.0596169 5.1542395-5.7662816 5.1542395-1.0986162 0-1.9423998-.3318824-2.5311186-.9958788-.58848622-.6639963-.88168309-1.4635209-.88168309-2.4008866 0-1.4841046.70520695-2.8694539 2.11794599-4.1583607.7454314-.6639963 1.6664089-1.3279927 2.7652575-1.9919889.5494243-.3124553 1.6861724-.9165508 3.4128017-1.8148307.0785888-.4687986.1374142-.8397669.1767086-1.1131363-.5887188.5467389-1.3734446.8201083-2.3532474.8201083-1.3343827 0-2.1584029-.721353-2.4722932-2.1663718-1.9228689-.1563432-2.90267183-1.2107352-2.94196624-3.1636382-.03929441-1.6783773.43154104-2.5181441 1.41273904-2.5181441.3138903 0 .4708355.1757705.4708355.5273116 0 .0390857-.0490599.2636558-.1471798.6737099-.0981197.4102854-.1471796.7715401-.1471796 1.0826076 0 1.1718807.4317736 1.7577054 1.2950882 1.7577054 0-1.6002056.4989694-3.1613255 1.4996983-4.6845159s2.1277114-2.28478562 3.3835052-2.28478562c1.3341501 0 2.0012252.62491052 2.0012252 1.87357512 0 1.3279926-.5394264 2.6557539-1.6187441 3.9825901-1.0790851 1.3279926-2.2060677 2.1860303-3.3832726 2.5766572.1569451.5858247.4903664.8786213 1.0007288.8786213.8619196 0 1.6861723-.4882257 2.4708982-1.4646772.3924791-1.9906013 1.1565115-2.9864801 2.294422-2.9864801.471068 0 .7063695.2537109.7063695.7615952 0 .6639963-.5494243 1.5817035-1.6468779 2.7521965-.1176507.5858246-.1767086 1.1718806-.1767086 1.7577052 2.0002951-1.2095787 3.5502159-2.2056888 4.6490645-2.9867113-.0785889-.2733694-.1176508-.7225094-.1176508-1.3474199 0-1.4440936.4108476-2.7706986 1.2348679-3.9814337.8240202-1.2109665 1.8247491-1.81621842 3.001954-1.81621842 1.372282 0 2.0591206.66399632 2.0591206 1.99060122 0 1.6404479-1.3734446 3.4945957-4.1194037 5.5633686.235534.5467388.5494244.9177071.9419036 1.1131362.0785888-.1563432.5677926-.2342836 1.4704017-.2342836 1.1379106 0 1.7070984.2927967 1.7070984.8786213 0 .6639964-.6670751.9961102-2.0002952.9961102-.2745959.0390858-.686606 0-1.2360303-.1172575-2.5115877.6639963-3.7659865 2.5193005-3.7659865 5.5633686 0 1.3277613.3813187 2.4702697 1.1465135 3.427294.7651949.956793 1.7363948 1.4341487 2.9138323 1.4341487.9809655 0 1.8038231-.3309574 2.4708982-.9949537.6670751-.663765 1.0007288-1.5231904 1.0007288-2.5775822.0392945-1.9126609-.6277806-2.8696852-2.0000626-2.8696852-.8633147 0-1.3146192.4297127-1.3539137 1.2889067 0 .4297128.1374143.8203396.4120102 1.1718807.2748284.3515411.4120101.6431813.4120101.8774649 0 .5076531-.2745959.7615953-.8240203.7615953-.5887187 0-1.0790851-.2539422-1.4715643-.7615953-.3924792-.507653-.5887187-1.1325635-.5887187-1.8747314 0-.8971235.3422567-1.6587187 1.0288627-2.2836292.6868385-.6249105 1.5206242-.9373657 2.5018222-.9373657 1.2164994 0 2.1765388.44914 2.8829082 1.3474199.7063695.8982799 1.0595543 1.9908325 1.0595543 3.2797393 0 1.3668471-.5394263 2.6069544-1.6185116 3.7200907zm-2.8641176-19.2332697c-.4450993 0-.9176604.4098898-1.4183422 1.2294486-.5004622.8197795-.7506932 1.7686147-.7506932 2.8489323 1.7054818-1.4891043 2.5583326-2.6439874 2.5583326-3.4635462 0-.4098898-.129839-.6148347-.3892972-.6148347zm-10.2764292 0c-.6178483 0-1.2974326.6084542-2.038753 1.8253623-.7413203 1.2169082-1.1105164 2.3068645-1.1105164 3.2726138.9882645-.5020889 1.8313394-1.2349788 2.5314211-2.2007281.7000816-.9657493 1.0502445-1.7963121 1.0502445-2.4914594 0-.2703732-.1442134-.4057886-.4323962-.4057886zm-6.7309349 17.3324683c0 1.0199514.461713 1.5300433 1.3849011 1.5300433 1.2031657 0 2.267175-.8422555 3.1906011-2.5290892.7614339-1.4120438 1.2833291-3.1172279 1.5644958-5.117875-4.0938077 1.9613914-6.139998 3.9999005-6.139998 6.1169209z" transform="translate(366.8)"/></g><g transform="translate(730 1)"><path d="m56.2077 15.7919c-.976 0-1.376.736-1.376 1.376.008.648.416 1.368 1.384 1.368.824 0 1.376-.624 1.376-1.376-.008-.712-.488-1.368-1.384-1.368zm-.008.336c.624 0 1.04.408 1.048 1.024 0 .616-.424 1.056-1.04 1.056s-1.024-.424-1.032-1.032c-.008-.624.4-1.048 1.024-1.048zm-.288 1.2h.24l.328.584h.384l-.352-.616c.248-.024.392-.128.392-.408 0-.336-.192-.448-.496-.456h-.832v1.488h.344zm.344-.632c.192 0 .312.024.312.192-.008.12-.08.168-.24.168h-.416v-.36z"/><path d="m12.2722 18.9682 1.6-.008.008 7.544h-1.6z"/><path d="m12.2722 15.9042 1.592-.008.008 2.384-1.6.008z"/><path d="m49.1198 15.848 1.592-.008.024 10.608h-1.608z"/><path d="m51.84 15.8402h1.592l.024 10.608h-1.6z"/><path d="m.0002 18.9838 8.88-.008c1.488 0 1.912 1.168 1.888 1.872s-.312 1.344-.712 1.536c.736.344 1.208 1.232 1.192 1.976-.064 2-2.008 2.16-2.832 2.16l-8.4.008zm8.296 6.392c.648 0 1.184-.456 1.184-1.104 0-.64-.536-1.168-1.184-1.168l-6.688.008v2.272zm-.248-3.408c.56 0 1.008-.384 1-.928 0-.552-.448-.928-1.008-.92l-6.44.008v1.856z"/><path d="m40.5041 18.9281c-.584 0-1.976.304-2 1.624-.024 1.128.584 1.64.968 1.768-.496.208-.952 1.088-.944 1.848 0 .768.288 2.296 2.784 2.296l6.832-.008-.008-1.128-6.64.008c-.656 0-1.184-.456-1.184-1.104-.008-.64.52-1.168 1.184-1.168l6.296-.008-.008-1.136-6.448.008c-.56 0-1.016-.384-1.016-.936-.008-.552.448-.936 1.008-.936l6.792-.008v-1.128z"/><path d="m35.6398 21.2958h1.624c0-1.856-.848-2.384-3.136-2.36l-4.424.008c-.992 0-2.736.456-2.744 1.984.008 1.528.592 2.152 2.384 2.152l5.288-.008c.6 0 1.224.376 1.224 1.08s-.36 1.216-1.464 1.192l-4.168.008c-.544 0-1.664-.064-1.664-1.232h-1.6c.008.92.192 2.36 2.64 2.36l5.232-.008c1.032 0 2.712-.496 2.712-2.384 0-1.896-1.584-2.152-2.464-2.152l-5.288.008c-.864 0-1.144-.528-1.144-.936s.28-.936 1.144-.936l4.6-.008c.752 0 1.248.296 1.248 1.232"/><path d="m24.216 21.2958h1.624c0-1.856-.848-2.384-3.136-2.36l-4.424.008c-.992 0-2.736.456-2.744 1.984.008 1.528.592 2.152 2.384 2.152l5.288-.008c.6 0 1.224.376 1.224 1.08s-.36 1.216-1.464 1.192l-4.168.008c-.544 0-1.664-.064-1.664-1.232h-1.6c.008.92.192 2.36 2.64 2.36l5.232-.008c1.032 0 2.712-.496 2.712-2.384 0-1.896-1.584-2.152-2.464-2.152l-5.288.008c-.864 0-1.144-.528-1.144-.936s.28-.936 1.144-.936l4.6-.008c.752 0 1.248.296 1.248 1.232"/><path d="m48.6721 39.9999c2.496-.008 1.496-2.352 1.048-3.144-.672-1.152-4.12-7.328-4.12-7.328l-37.176.056s-3.44 6.184-4.104 7.336c-.44.784-1.448 3.072 1.04 3.072z"/><path d="m.448 15.9599 22.544-.008s-5.648-10.352-7-12.736c-1.224-2.168-1.968-3.224-4.352-3.216-2.376 0-3.04 1.056-4.304 3.288-1.224 2.176-6.888 12.672-6.888 12.672" mask="url(#a)" transform="translate(15)"/></g><g fill-rule="nonzero" transform="translate(491.2 15.357143)"><path d="m61.1041835 6.11954579c0-2.16701099-1.5846917-4.09964835-4.4500318-4.09964835-2.8656562 0-4.4335971 1.93263736-4.4335971 4.09964835v.26871062c0 2.16764103 1.5679409 4.13335529 4.4335971 4.13335529 2.8653401 0 4.4500318-1.96571426 4.4500318-4.13335529zm-4.4500318 6.16616851c-3.9781641 0-6.5571599-2.85595606-6.5571599-5.83004397v-.36951648c0-3.02449085 2.5789958-5.83004396 6.5571599-5.83004396 3.9949149 0 6.5742267 2.80555311 6.5742267 5.83004396v.36951648c0 2.97408791-2.5793118 5.83004397-6.5742267 5.83004397z"/><path d="m6.8943888 2.84335531-2.44404092 4.70448352h4.9724681zm4.8378293 9.00542859-1.4832385-2.77216119h-6.59097758l-1.43298611 2.77216119h-2.22501591l6.06822522-11.18945057h1.75314819l6.16967839 11.18945057z"/><path d="m23.5652573 12.2857143c-4.0287326 0-5.8997687-2.184337-5.8997687-5.09069598v-6.53568499h2.0900611v6.56907693c0 2.06683516 1.3653507 3.29320144 3.9610972 3.29320144 2.663698 0 3.7591391-1.22636628 3.7591391-3.29320144v-6.56907693h2.107128v6.53568499c0 2.77216117-1.7869659 5.09069598-6.0176567 5.09069598"/><path d="m41.3151322 2.40673993v9.44204397h-2.107128v-9.44204397h-4.9054648v-1.7474066h11.9174254v1.7474066z"/><path d="m82.0063749 11.8487839v-8.8542198l-.55657.97466667-4.7028746 7.87955313h-1.0284377l-4.652306-7.87955313-.555938-.97466667v8.8542198h-2.0565594v-11.18945057h2.9159086l4.433281 7.67825641.5224363.94064469.5227523-.94064469 4.3827125-7.67825641h2.882723v11.18945057z"/><path d="m95.2047648 2.84335531-2.444041 4.70448352h4.9724681zm4.8378292 9.00542859-1.4832385-2.77216119h-6.5909775l-1.4326701 2.77216119h-2.2250159l6.0682252-11.18945057h1.7531482l6.1693626 11.18945057z"/><path d="m110.796627 2.40673993v9.44204397h-2.106812v-9.44204397h-4.905149v-1.7474066h11.917426v1.7474066z"/><path d="m126.254167 2.40673993v9.44204397h-2.106812v-9.44204397h-4.905465v-1.7474066h11.917425v1.7474066z"/><path d="m136.350808 11.8487839v-10.13098903c.842915 0 1.179828-.45362637 1.179828-1.05846154h.893483v11.18945057z"/><path d="m154.926531 3.81770696c-1.011371-.92394872-2.49461-1.79780952-4.500601-1.79780952-3.000295 0-4.686123 2.05013919-4.686123 4.18375824v.21862271c0 2.11692308 1.702579 4.09933331 4.837829 4.09933331 1.871352 0 3.42191-.89055675 4.399779-1.7978095l1.264214 1.3271722c-1.230712 1.2096703-3.320773 2.2347399-5.798632 2.2347399-4.248073 0-6.827069-2.75546522-6.827069-5.77995606v-.36951648c0-3.02417583 2.814771-5.88013187 6.92789-5.88013187 2.377038 0 4.534418.99104762 5.697811 2.23442491z"/><path d="m58.0416261 4.14910623c.3802122.24413919.4864062.7516337.2398845 1.13249084l-1.9216046 2.96684249c-.2465217.38117216-.7547356.49142857-1.1339996.24728938-.3792641-.24476923-.4870383-.75100367-.2398846-1.13217583l1.9219207-2.96684249c.2468378-.38085714.7544195-.49174359 1.1336836-.24760439"/></g><path d="m7.68812718 12.2990683c-2.61207824 0-4.29511834-1.8695652-4.29511834-4.64720495s1.66957578-4.64720496 4.29511834-4.64720496c1.81768331 0 3.16411542.84130434 3.91811732 2.12329192l2.2620059-1.9363354c-1.1983245-1.82950311-3.1775797-3.13819876-6.18012322-3.13819876-4.77983389 0-7.60734126 3.52546584-7.60734126 7.5984472 0 4.07298135 2.82750737 7.59844725 7.60734126 7.59844725 2.98907922 0 4.96833442-1.3086957 6.18012322-3.1381988l-2.2620059-1.9363354c-.7540019 1.2819876-2.10043401 2.1232919-3.91811732 2.1232919zm21.87952132 2.9512423c4.4836188 0 7.6342699-3.1381988 7.6342699-7.59844725 0-4.46024844-3.1641154-7.5984472-7.6342699-7.5984472s-7.6208056 3.13819876-7.6208056 7.5984472c0 4.47360245 3.1371868 7.59844725 7.6208056 7.59844725zm0-2.9245342c-2.5716853 0-4.36244-1.9229814-4.36244-4.67391305 0-2.76428571 1.7907547-4.67391304 4.36244-4.67391304 2.5986139 0 4.3893686 1.92298137 4.3893686 4.67391304-.0134644 2.76428575-1.804219 4.67391305-4.3893686 4.67391305zm20.021445 2.6841615h3.4334018v-11.73819877h5.0221917l-.2558221-2.99130435h-12.9122837l-.2558221 2.99130435h4.9683344zm25.8784246-3.5521739c0-1.3354038.336608-1.9630435 1.6695758-3.45869568l1.4137537-1.58913043c1.6291828-1.84285714 2.3023988-3.33850932 2.3023988-5.79565218v-.32049689h-3.3930088v.25372671c0 2.10993789-.377001 2.89782608-1.6965045 4.39347826l-.9828954 1.12173913c-.5655014.65434783-.9694311 1.28198758-.9694311 1.28198758s-.4039296-.62763975-.9694311-1.28198758l-.9963597-1.12173913c-1.3195034-1.49565218-1.6965044-2.28354037-1.6965044-4.39347826v-.25372671h-3.4872591v.32049689c0 2.45714286.6866803 3.95279504 2.3158632 5.79565218l1.4137536 1.58913043c1.3464321 1.49565218 1.6695758 2.12329188 1.6695758 3.45869568v3.5521739h3.3930089v-3.5521739z" fill-rule="nonzero" transform="translate(869 13.821429)"/></g></svg>