<?xml version="1.0" encoding="UTF-8"?>
<svg width="142px" height="40px" viewBox="0 0 142 40" version="1.1" xmlns="http://www.w3.org/2000/svg" xmlns:xlink="http://www.w3.org/1999/xlink">
    <!-- Generator: Sketch 55.2 (78181) - https://sketchapp.com -->
    <title>logo-nasdaq</title>
    <desc>Created with Sketch.</desc>
    <defs>
        <polygon id="path-1" points="0 0 13.6784231 0 13.6784231 21.8181818 0 21.8181818"></polygon>
        <polygon id="path-3" points="0 0.0145454545 24.5769231 0.0145454545 24.5769231 30 0 30"></polygon>
        <polygon id="path-5" points="0 0 24.5769231 0 24.5769231 30.7245455 0 30.7245455"></polygon>
    </defs>
    <g id="Page-1" stroke="none" stroke-width="1" fill="none" fill-rule="evenodd">
        <g id="(XL)-&gt;1200---Desktop-v4" transform="translate(-925.000000, -2583.000000)">
            <g id="Quote-Copy" transform="translate(0.000000, 2533.000000)">
                <g id="content" transform="translate(925.000000, 50.000000)">
                    <g id="logo-nasdaq">
                        <path d="M104.949833,30.2981818 C100.131846,30.2981818 97.1380128,27.5109091 97.1380128,23.0181818 C97.1380128,18.3554545 99.900641,15.4545455 104.349064,15.4545455 L104.722269,15.4545455 C105.280256,15.4545455 106.048513,15.4727273 107.098038,15.6036364 L107.098038,9.97545455 L110.240244,9.97545455 L110.240244,29.7909091 C110.240244,29.7909091 107.254603,30.2981818 104.949833,30.2981818 L104.949833,30.2981818 Z M104.921615,17.9254545 C101.877718,17.9254545 100.397641,19.5663636 100.397641,22.94 C100.397641,25.9690909 102.183564,27.8518182 105.052692,27.8518182 C105.604308,27.8518182 106.236026,27.8154545 107.097128,27.7418182 L107.097128,18.1272727 C106.236936,17.9890909 105.543321,17.9254545 104.921615,17.9254545 L104.921615,17.9254545 Z M61.908359,29.8436364 L53.4202179,15.05 L53.4174872,29.8436364 L50.4591538,29.8436364 L50.4591538,11.1154545 L54.6008205,11.1154545 L63.0889615,25.7772727 L63.0853205,11.1154545 L66.0827949,11.1154545 L66.0827949,29.8436364 L61.908359,29.8436364 Z M88.9457051,30.1318182 C87.5166026,30.1318182 86.0265128,29.9718182 84.2524231,29.6309091 L84.060359,29.5945455 L84.060359,26.9781818 L84.3407179,27.0381818 C85.9054487,27.3718182 87.2562692,27.6563636 88.608,27.6563636 C89.6993974,27.6563636 92.2417436,27.4854545 92.2417436,25.8809091 C92.2417436,24.5354545 90.4849487,24.1972727 89.0740513,23.9272727 L88.9848462,23.9090909 C88.7208718,23.86 88.4723718,23.81 88.2630128,23.7572727 C86.1930897,23.2209091 83.9848077,22.4145455 83.9848077,19.6445455 C83.9848077,16.9427273 86.1257308,15.3945455 89.8596026,15.3945455 C91.6518974,15.3945455 92.9526538,15.5854545 93.9985385,15.7418182 L94.5064615,15.8163636 L94.5064615,18.3554545 L94.2361154,18.3063636 C93.0527821,18.0890909 91.6655513,17.8654545 90.3320256,17.8654545 C88.8492179,17.8654545 87.0896923,18.1427273 87.0896923,19.46 C87.0896923,20.5536364 88.5297179,20.8663636 90.1973077,21.2290909 C92.5293846,21.7327273 95.420359,22.3654545 95.420359,25.5436364 C95.420359,28.4590909 93.0627949,30.1318182 88.9457051,30.1318182 L88.9457051,30.1318182 Z M119.061538,30.1318182 C115.809192,30.1318182 112.797154,29.5590909 112.797154,25.4118182 C112.797154,20.8981818 117.454936,20.8981818 120.23941,20.8981818 C120.516128,20.8981818 121.825077,20.9590909 122.2265,20.9763636 C122.222859,18.4445455 122.191,17.8409091 118.514474,17.8409091 C117.057154,17.8409091 115.438718,18.1281818 114.009615,18.3845455 L113.736538,18.4336364 L113.736538,15.9336364 L113.92041,15.8945455 C115.577077,15.5581818 117.174577,15.3945455 118.803026,15.3945455 C122.365769,15.3945455 125.384179,15.7527273 125.384179,20.1672727 L125.384179,29.7945455 L125.167538,29.8190909 C122.699833,30.0954545 120.740962,30.1318182 119.062449,30.1318182 L119.061538,30.1318182 Z M120.161128,23.1318182 C117.475872,23.1318182 115.811923,23.5263636 115.811923,25.49 C115.811923,27.7627273 117.934641,27.9509091 119.926282,27.9509091 C120.669051,27.9509091 122.006218,27.8554545 122.414923,27.8263636 L122.414923,23.21 C121.839641,23.1854545 120.342269,23.1318182 120.161128,23.1318182 L120.161128,23.1318182 Z M74.9714487,30.1318182 C71.7145513,30.1318182 68.7034231,29.5590909 68.7034231,25.4118182 C68.7034231,20.8981818 73.3612051,20.8981818 76.1447692,20.8981818 C76.4223974,20.8981818 77.7340769,20.9590909 78.1364103,20.9763636 C78.1327692,18.4445455 78.0972692,17.8409091 74.4207436,17.8409091 C72.9625128,17.8409091 71.3440769,18.1281818 69.9149744,18.3845455 L69.6418974,18.4336364 L69.6418974,15.9336364 L69.8303205,15.8945455 C71.4354598,15.563069 73.0702007,15.3955399 74.7092949,15.3945455 C78.2711282,15.3945455 81.2904487,15.7527273 81.2904487,20.1672727 L81.2904487,29.7945455 L81.0728974,29.8190909 C78.6061026,30.0954545 76.6463205,30.1318182 74.9714487,30.1318182 L74.9714487,30.1318182 Z M76.0664872,23.1318182 C73.382141,23.1318182 71.7218333,23.5263636 71.7218333,25.49 C71.7218333,27.7627273 73.8409103,27.9509091 75.8325513,27.9509091 C76.5789615,27.9509091 77.9161282,27.8554545 78.3248333,27.8263636 L78.3248333,23.21 C77.745,23.1854545 76.2485385,23.1318182 76.0673974,23.1318182 L76.0664872,23.1318182 Z" id="Shape" fill="#231F20" fill-rule="nonzero"></path>
                        <g id="Group" transform="translate(127.435897, 14.545455)">
                            <g id="Clipped">
                                <mask id="mask-2" fill="white">
                                    <use xlink:href="#path-1"></use>
                                </mask>
                                <g id="a"></g>
                                <path d="M10.4606667,21.6618182 L10.4606667,15.5181818 C9.23455128,15.6890909 8.58371795,15.6890909 8.05758974,15.6890909 C6.81235897,15.6890909 5.42967949,15.4190909 4.35921795,14.9681818 C1.96251282,13.9727273 0.533410256,11.4454545 0.533410256,8.20272727 C0.533410256,6.58454545 0.928461538,3.62545455 3.57002564,2.03090909 C4.89626923,1.24 6.461,0.901818182 8.81492308,0.901818182 C9.65691026,0.901818182 10.7947308,0.965454545 11.8934103,1.02909091 L13.6784231,1.12181818 L13.6784231,20.2381818 L10.4606667,21.6618182 Z M8.58007692,3.37363598 C5.38689744,3.37272727 3.76846154,5 3.76846154,8.20272727 C3.76846154,12.3263636 6.18246154,13.1927273 8.21233333,13.1927273 C8.70660256,13.1927273 9.26185897,13.1927273 10.4916154,13.0363636 L10.4916154,3.46272727 C9.5285641,3.39909091 9.08344872,3.37363598 8.57916667,3.37363598 L8.58007692,3.37363598 Z" id="Shape" fill="#231F20" fill-rule="nonzero" mask="url(#mask-2)"></path>
                            </g>
                        </g>
                        <g id="Group" transform="translate(23.666667, 0.000000)">
                            <g id="Clipped">
                                <mask id="mask-4" fill="white">
                                    <use xlink:href="#path-3"></use>
                                </mask>
                                <g id="c"></g>
                                <path d="M12.7545128,0.0145454545 L2.36120513,28.5327273 C2.09898473,29.2492072 1.44989814,29.7530529 0.689974359,29.83 L0.689974359,29.8436364 L11.6767692,29.8436364 C12.5369615,29.8436364 13.273359,29.2972727 13.5473462,28.5336364 L23.9442949,0.0145454545 L12.7545128,0.0145454545 Z" id="Path" fill="#0996C7" fill-rule="nonzero" mask="url(#mask-4)"></path>
                            </g>
                        </g>
                        <path d="M23.4600385,29.4109091 C24.0972179,29.4109091 24.6552051,29.0945455 24.9965513,28.6154545 C25.0320513,28.5654545 25.1567564,28.3909091 25.2450513,28.1536364 L29.0572051,17.6881818 L26.8270769,11.5763636 C26.5625464,10.946101 25.9766813,10.5086049 25.2965612,10.4334475 C24.616441,10.3582901 23.9489802,10.657286 23.5528846,11.2145455 C23.5164744,11.2645455 23.3681026,11.4872727 23.3043846,11.6763636 L19.4922308,22.1381818 L21.7323718,28.2745455 C22.0293812,28.9639029 22.7086082,29.4106608 23.4600385,29.4109091" id="Path" fill="#0996C7" fill-rule="nonzero"></path>
                        <g id="Group" transform="translate(0.000000, 9.090909)">
                            <g id="Clipped">
                                <mask id="mask-6" fill="white">
                                    <use xlink:href="#path-5"></use>
                                </mask>
                                <g id="e"></g>
                                <path d="M24.2747179,0.894545455 L13.166859,0.894545455 C12.3066667,0.894545455 11.5702692,1.43818182 11.292641,2.20545455 L0.899333333,30.7236364 L12.0891154,30.7236364 L22.4833333,2.20636364 C22.7591494,1.44751555 23.4670357,0.930572359 24.2747179,0.898181818 L24.2747179,0.894545455 Z" id="Path" fill="#0996C7" fill-rule="nonzero" mask="url(#mask-6)"></path>
                            </g>
                        </g>
                    </g>
                </g>
            </g>
        </g>
    </g>
</svg>