<svg id="Layer_1" data-name="Layer 1" xmlns="http://www.w3.org/2000/svg" width="40" height="40" viewBox="0 0 40 40"><defs><style>.cls-1{fill:rgb(255, 115, 0);}.cls-2{fill:#1d4354;}</style></defs><path class="cls-1" d="M1,26.14a.94.94,0,0,1-.7-.31,1,1,0,0,1,0-1.36L19,7.57a.94.94,0,0,1,.7-.26,1,1,0,0,1,.67.32L26,13.7,37.7,2.25a1,1,0,0,1,1.35,1.38L26.65,15.78a1,1,0,0,1-1.39,0L19.58,9.65l-18,16.23A1,1,0,0,1,1,26.14Z"/><path class="cls-1" d="M39,9.17a1,1,0,0,1-1-1V3.33H33.19a1,1,0,0,1,0-1.93H39a1,1,0,0,1,1,1V8.21A1,1,0,0,1,39,9.17Z"/><rect class="cls-2" x="6.05" y="29.07" width="6" height="9.53"/><rect class="cls-2" x="17" y="23.98" width="6" height="14.61"/><rect class="cls-2" x="27.95" y="18.9" width="6" height="19.7"/></svg>