<svg id="Layer_1" data-name="Layer 1" xmlns="http://www.w3.org/2000/svg" width="40" height="40" viewBox="0 0 40 40"><defs><style>.cls-1{fill:#f2f2f2;}.cls-2{fill:#e0e0e0;}.cls-3{fill:#d1d1d1;}.cls-4{fill:rgb(255, 115, 0);}.cls-5{fill:#1d4354;}</style></defs><title>Sales Collateral</title><path class="cls-1" d="M27.17.08H4.11A.52.52,0,0,0,3.59.6v39a.52.52,0,0,0,.52.52H35.89a.52.52,0,0,0,.52-.52V9.32Z"/><polygon class="cls-2" points="36.41 9.32 27.17 9.32 27.17 0.08 36.41 9.32"/><path class="cls-3" d="M9.9,12.41H30.1a.63.63,0,0,0,0-1.25H9.9a.63.63,0,0,0,0,1.25Z"/><path class="cls-3" d="M30.1,16.85H9.9a.63.63,0,0,0,0,1.25H30.1a.63.63,0,0,0,0-1.25Z"/><path class="cls-3" d="M19.68,22.53H9.9a.63.63,0,0,0,0,1.25h9.78a.63.63,0,1,0,0-1.25Z"/><path class="cls-3" d="M15,28.21H9.9a.63.63,0,0,0-.62.63.63.63,0,0,0,.62.63H15a.63.63,0,0,0,.62-.63A.63.63,0,0,0,15,28.21Z"/><path class="cls-3" d="M15,33.9H9.9a.63.63,0,0,0,0,1.25H15a.63.63,0,0,0,0-1.25Z"/><rect class="cls-4" x="25.38" y="21.79" width="5.24" height="13.25"/><rect class="cls-5" x="18.64" y="28.42" width="5.24" height="6.63"/></svg>