<svg id="Layer_1" data-name="Layer 1" xmlns="http://www.w3.org/2000/svg" width="40" height="40" viewBox="0 0 40 40"><defs><style>.cls-1{fill:#f2f2f2;}.cls-2{fill:#e0e0e0;}.cls-3{fill:rgb(255, 115, 0);}.cls-4{fill:#1d4354;}.cls-5{fill:#d1d1d1;}</style></defs><path class="cls-1" d="M27.17,0H4.11a.52.52,0,0,0-.52.52v39a.52.52,0,0,0,.52.52H35.89a.52.52,0,0,0,.52-.52V9.24Z"/><polygon class="cls-2" points="36.41 9.25 27.17 9.25 27.17 0.01 36.41 9.25"/><path class="cls-3" d="M24.13,12.05a.24.24,0,0,0-.25-.2L22.45,12a.19.19,0,0,1-.17-.13,6.94,6.94,0,0,0-.57-1.08.23.23,0,0,1,0-.27l.84-1a.22.22,0,0,0,0-.32L20.22,7.28a.22.22,0,0,0-.32,0l-.84,1a.23.23,0,0,1-.26.06A6.08,6.08,0,0,0,17.63,8a.22.22,0,0,1-.18-.2l-.12-1.31a.22.22,0,0,0-.24-.21l-3,.28a.22.22,0,0,0-.2.24L14,8.13a.23.23,0,0,1-.14.23,6.94,6.94,0,0,0-1.08.57.22.22,0,0,1-.27,0l-1-.85a.23.23,0,0,0-.32,0L9.25,10.42a.23.23,0,0,0,0,.32l1,.84a.23.23,0,0,1,.06.26A6.38,6.38,0,0,0,10,13a.23.23,0,0,1-.06.12l-1.56.17a.23.23,0,0,0-.2.25l.34,3a.21.21,0,0,0,.25.2l1.37-.15a.22.22,0,0,1,.21.14,6.94,6.94,0,0,0,.57,1.08.24.24,0,0,1,0,.27l-.85,1a.22.22,0,0,0,0,.31l2.32,1.93a.23.23,0,0,0,.32,0l.84-1a.23.23,0,0,1,.26-.06,5.68,5.68,0,0,0,1.17.36.21.21,0,0,1,.17.2l.12,1.31a.24.24,0,0,0,.25.21l3-.28a.22.22,0,0,0,.21-.24l-.12-1.32a.21.21,0,0,1,.14-.22,6.94,6.94,0,0,0,1.08-.57.21.21,0,0,1,.26,0l1,.84a.22.22,0,0,0,.31,0l1.93-2.32a.22.22,0,0,0,0-.32l-1-.84a.22.22,0,0,1-.06-.26,5.87,5.87,0,0,0,.36-1.17.19.19,0,0,1,.1-.13l1.54-.17a.24.24,0,0,0,.2-.25Zm-7.81,5.4a3.12,3.12,0,1,1,3.11-3.12A3.12,3.12,0,0,1,16.32,17.45Z"/><path class="cls-4" d="M31.84,23.82a.15.15,0,0,0-.16-.13l-.9.1a.13.13,0,0,1-.11-.08,4,4,0,0,0-.36-.68.15.15,0,0,1,0-.17l.53-.64a.14.14,0,0,0,0-.2L29.37,20.8a.14.14,0,0,0-.2,0l-.53.64a.15.15,0,0,1-.17,0,3.65,3.65,0,0,0-.73-.23.14.14,0,0,1-.12-.12l-.07-.83a.15.15,0,0,0-.16-.13l-1.89.17a.15.15,0,0,0-.13.16l.07.83a.13.13,0,0,1-.08.14,4.1,4.1,0,0,0-.69.36.15.15,0,0,1-.17,0l-.64-.53a.13.13,0,0,0-.2,0l-1.21,1.46a.13.13,0,0,0,0,.2l.64.53a.14.14,0,0,1,0,.17,4.43,4.43,0,0,0-.23.73.12.12,0,0,1,0,.08l-1,.11a.14.14,0,0,0-.13.15L22,26.69a.15.15,0,0,0,.16.13l.87-.1a.13.13,0,0,1,.13.08,4.1,4.1,0,0,0,.36.69.14.14,0,0,1,0,.17L23,28.3a.14.14,0,0,0,0,.2l1.46,1.21a.14.14,0,0,0,.2,0l.54-.64a.13.13,0,0,1,.16,0,4.54,4.54,0,0,0,.74.23.14.14,0,0,1,.11.12l.07.83a.15.15,0,0,0,.16.13l1.9-.18a.14.14,0,0,0,.13-.15l-.08-.83a.13.13,0,0,1,.09-.14,4,4,0,0,0,.68-.36.14.14,0,0,1,.17,0l.64.53a.14.14,0,0,0,.2,0l1.22-1.46a.14.14,0,0,0,0-.2L30.7,27a.14.14,0,0,1,0-.16,3.74,3.74,0,0,0,.23-.74A.16.16,0,0,1,31,26l1-.11a.15.15,0,0,0,.13-.16Zm-4.93,3.41a2,2,0,1,1,2-2A2,2,0,0,1,26.91,27.23Z"/><path class="cls-5" d="M8.31,27H19.12a.63.63,0,1,0,0-1.25H8.31a.63.63,0,1,0,0,1.25Z"/><path class="cls-5" d="M27.56,15.62h3.92a.63.63,0,0,0,0-1.25H27.56a.63.63,0,0,0,0,1.25Z"/><path class="cls-5" d="M8.31,31H20.85a.63.63,0,1,0,0-1.25H8.31a.63.63,0,1,0,0,1.25Z"/><path class="cls-5" d="M8.31,34.94H31.74a.63.63,0,0,0,0-1.25H8.31a.63.63,0,1,0,0,1.25Z"/></svg>