<svg id="Layer_1" data-name="Layer 1" xmlns="http://www.w3.org/2000/svg" width="40" height="40" viewBox="0 0 40 40"><defs><style>.cls-1{fill:#f2f2f2;}.cls-2{fill:#1d4354;}.cls-3{fill:rgb(255, 115, 0);}.cls-4{fill:#fff;}</style></defs><rect class="cls-1" y="17.08" width="22.92" height="22.92" rx="0.5"/><path class="cls-2" d="M11.46,26.59a.7.7,0,0,1-.7-.7v-2.2a.7.7,0,1,1,1.39,0v2.2A.69.69,0,0,1,11.46,26.59Z"/><path class="cls-2" d="M16.18,26.68H6.74a.7.7,0,1,1,0-1.39h9.44a.7.7,0,1,1,0,1.39Z"/><path class="cls-2" d="M15.76,34.09a.67.67,0,0,1-.24,0c-.33-.12-.66-.26-1-.4a12,12,0,0,1-6.23-6.91.71.71,0,0,1,.43-.89.7.7,0,0,1,.89.43,10.54,10.54,0,0,0,5.49,6.1c.29.13.57.25.86.36a.7.7,0,0,1-.23,1.35Z"/><path class="cls-2" d="M7.16,34.09a.7.7,0,0,1-.65-.46.68.68,0,0,1,.41-.89,10.62,10.62,0,0,0,6.36-6.46.69.69,0,1,1,1.31.46A12,12,0,0,1,7.4,34.05.67.67,0,0,1,7.16,34.09Z"/><rect class="cls-3" x="17.08" width="22.92" height="22.92" rx="0.5"/><path class="cls-4" d="M31,15.85l-.6-1.56H26.61L26,15.85H23.64l3.77-8.78h2.35l3.68,8.78Zm-3.7-3.31h2.42l-1.2-3.13Z"/></svg>