<svg id="Layer_1" data-name="Layer 1" xmlns="http://www.w3.org/2000/svg" viewBox="0 0 160 130"><defs><style>.cls-1{fill:#1d4354;}.cls-2{fill:#33637a;}.cls-3{fill:#fff;}.cls-4{fill:rgb(255, 115, 0);}.cls-5{fill:#a7a9a7;}.cls-6{fill:#a7a9a7;}.cls-7{fill:#f3756c;}</style></defs><title>private-2</title><circle class="cls-1" cx="80" cy="64.98" r="64.48"/><path class="cls-2" d="M16.18,74.3a64.5,64.5,0,0,0,127.66,0Z"/><path class="cls-3" d="M101.52,63.74H94.25v-27a14.25,14.25,0,0,0-28.5,0v27H58.48v-27a21.52,21.52,0,1,1,43,0Z"/><rect class="cls-4" x="46.61" y="44.92" width="66.77" height="59.31" rx="0.99" ry="0.99"/><rect class="cls-5" x="98" y="65.39" width="15.39" height="30.64" rx="0.22" ry="0.22"/><rect class="cls-6" x="52" y="53.03" width="54.57" height="2.92"/><rect class="cls-6" x="52" y="61.16" width="36.77" height="2.92"/><rect class="cls-6" x="52" y="69.29" width="36.77" height="2.92"/><rect class="cls-6" x="52" y="77.41" width="36.77" height="2.92"/><rect class="cls-6" x="52" y="85.54" width="36.77" height="2.92"/><rect class="cls-6" x="52" y="93.67" width="36.77" height="2.92"/><rect class="cls-4" x="102.56" y="69.25" width="13.42" height="6.13" rx="0.99" ry="0.99"/><rect class="cls-4" x="102.56" y="77.64" width="13.42" height="6.13" rx="0.99" ry="0.99"/><rect class="cls-4" x="102.56" y="86.03" width="13.42" height="6.13" rx="0.99" ry="0.99"/><rect class="cls-7" x="104.65" y="71.14" width="2.63" height="2.63"/><rect class="cls-2" x="104.65" y="79.4" width="2.63" height="2.63"/><rect class="cls-1" x="104.65" y="87.92" width="2.63" height="2.63"/></svg>