<?xml version="1.0" encoding="utf-8"?>
<!-- Generator: Adobe Illustrator 16.0.0, SVG Export Plug-In . SVG Version: 6.00 Build 0)  -->
<!DOCTYPE svg PUBLIC "-//W3C//DTD SVG 1.1//EN" "http://www.w3.org/Graphics/SVG/1.1/DTD/svg11.dtd" [
	<!ENTITY ns_flows "http://ns.adobe.com/Flows/1.0/">
	<!ENTITY ns_extend "http://ns.adobe.com/Extensibility/1.0/">
	<!ENTITY ns_ai "http://ns.adobe.com/AdobeIllustrator/10.0/">
	<!ENTITY ns_graphs "http://ns.adobe.com/Graphs/1.0/">
	<!ENTITY ns_vars "http://ns.adobe.com/Variables/1.0/">
	<!ENTITY ns_imrep "http://ns.adobe.com/ImageReplacement/1.0/">
	<!ENTITY ns_sfw "http://ns.adobe.com/SaveForWeb/1.0/">
	<!ENTITY ns_custom "http://ns.adobe.com/GenericCustomNamespace/1.0/">
	<!ENTITY ns_adobe_xpath "http://ns.adobe.com/XPath/1.0/">
]>
<svg version="1.1" id="Layer_1" xmlns:x="&ns_extend;" xmlns:i="&ns_ai;" xmlns:graph="&ns_graphs;"
	 xmlns="http://www.w3.org/2000/svg" xmlns:xlink="http://www.w3.org/1999/xlink" xmlns:a="http://ns.adobe.com/AdobeSVGViewerExtensions/3.0/"
	 x="0px" y="0px" width="40px" height="31.971px" viewBox="0 0 40 31.971" style="enable-background:new 0 0 40 31.971;"
	 xml:space="preserve">
<metadata>
	<sfw  xmlns="&ns_sfw;">
		<slices></slices>
		<sliceSourceBounds  width="40" height="31.971" y="-301.32" x="415.622" bottomLeftOrigin="true"></sliceSourceBounds>
	</sfw>
</metadata>
<g>
	<g>
		<g>
			<path style="fill:#F2F2F2;" d="M39.546,31.971H0.453C0.203,31.971,0,31.768,0,31.518V0.229C0,0.104,0.104,0,0.23,0h39.541
				C39.896,0,40,0.104,40,0.229v31.289C40,31.768,39.796,31.971,39.546,31.971"/>
		</g>
		<g>
			<path style="fill:#1D4354;" d="M40,3.912V0.453C40,0.203,39.796,0,39.546,0H0.453C0.203,0,0,0.203,0,0.453v3.459H40z"/>
		</g>
		<g>
			<path style="fill:#F3756C;" d="M4.057,2.027c0,0.322-0.262,0.582-0.582,0.582c-0.322,0-0.584-0.26-0.584-0.582
				s0.262-0.584,0.584-0.584C3.795,1.443,4.057,1.705,4.057,2.027"/>
		</g>
		<g>
			<path style="fill:#FFCC0D;" d="M7.148,2.027c0,0.322-0.262,0.582-0.584,0.582c-0.32,0-0.582-0.26-0.582-0.582
				s0.262-0.584,0.582-0.584C6.886,1.443,7.148,1.705,7.148,2.027"/>
		</g>
		<g>
			<path style="fill:#a7a9a7;" d="M10.24,2.027c0,0.322-0.262,0.582-0.582,0.582c-0.322,0-0.584-0.26-0.584-0.582
				s0.262-0.584,0.584-0.584C9.978,1.443,10.24,1.705,10.24,2.027"/>
		</g>
		<g>
			<g>
				<rect x="21.078" y="17.934" style="fill:#E0E0E0;" width="14.83" height="7.998"/>
			</g>
			
				<line style="fill:none;stroke:#D1D1D1;stroke-width:1.5;stroke-linecap:round;stroke-linejoin:round;stroke-miterlimit:10;" x1="21.972" y1="13.766" x2="34.74" y2="13.766"/>
			<g>
				<g>
					<g>
						<path style="fill:rgb(255, 115, 0);" d="M16.595,14.734c0,3.451-2.799,6.252-6.254,6.252c-3.451,0-6.25-2.801-6.25-6.252
							c0-3.453,2.798-6.252,6.25-6.252C13.796,8.482,16.595,11.281,16.595,14.734"/>
					</g>
					<g>
						<path style="fill:#a7a9a7;" d="M12.501,14.129c0,1.129-0.918,2.045-2.047,2.045c-1.131,0-2.047-0.916-2.047-2.045
							c0-1.131,0.916-2.049,2.047-2.049C11.583,12.08,12.501,12.998,12.501,14.129"/>
					</g>
					<g>
						<path style="fill:#a7a9a7;" d="M12.271,16.365c-0.428,0.348-0.957,0.574-1.537,0.631c-0.092,0.01-0.186,0.018-0.281,0.018
							c-0.098,0-0.189-0.008-0.281-0.018c-0.58-0.057-1.107-0.285-1.533-0.633c-1.229,0.566-2.148,1.68-2.449,3.031
							c1.105,0.988,2.558,1.59,4.152,1.59c1.686,0,3.215-0.67,4.34-1.758C14.345,17.953,13.451,16.906,12.271,16.365"/>
					</g>
				</g>
				
					<line style="fill:none;stroke:#D1D1D1;stroke-width:1.5;stroke-linecap:round;stroke-linejoin:round;stroke-miterlimit:10;" x1="5.678" y1="24.992" x2="15.009" y2="24.992"/>
			</g>
			
				<line style="fill:none;stroke:#D1D1D1;stroke-width:1.5;stroke-linecap:round;stroke-linejoin:round;stroke-miterlimit:10;" x1="21.972" y1="10.396" x2="34.74" y2="10.396"/>
		</g>
	</g>
</g>
</svg>
