<?xml version="1.0" encoding="utf-8"?>
<!-- Generator: Adobe Illustrator 18.1.1, SVG Export Plug-In . SVG Version: 6.00 Build 0)  -->
<svg version="1.1" id="Layer_1" xmlns="http://www.w3.org/2000/svg" xmlns:xlink="http://www.w3.org/1999/xlink" x="0px" y="0px"
	 viewBox="0 0 20 20" enable-background="new 0 0 20 20" xml:space="preserve">
<path fill="#666666" d="M19.4,17.4C19.1,17,18,15.2,18,12c-0.1-6.2-2.7-9.3-7.5-9.4V0.5C10.5,0.2,10.3,0,10,0C9.7,0,9.5,0.2,9.5,0.5
	v2.1C4.6,2.7,2.1,5.8,2,11.9c-0.1,3.6-1.4,5.5-1.4,5.6c-0.1,0.2-0.1,0.4,0,0.6c0.1,0.2,0.3,0.2,0.5,0.2c2.2-0.7,4.9-0.9,6.8-1.1
	c0,0.5,0,1.5,0.5,2.1C8.6,19.6,9.1,20,10,20c0.7,0,1.3-0.2,1.6-0.7c0.6-0.7,0.6-1.7,0.6-2.1c1.8,0.1,4.5,0.4,6.7,1c0,0,0.1,0,0.1,0
	c0,0,0,0,0,0c0.3,0,0.5-0.2,0.5-0.5C19.5,17.6,19.5,17.5,19.4,17.4z M10.9,18.7C10.7,18.9,10.4,19,10,19c-0.4,0-0.7-0.1-0.9-0.3
	c-0.4-0.4-0.3-1.3-0.3-1.6c0.6,0,1,0,1,0h0.3c0,0,0.4,0,1.1,0C11.3,17.5,11.3,18.2,10.9,18.7z M10.2,16.1H9.8
	c-0.2,0-4.4,0.1-7.9,0.9c0.5-1,1-2.7,1.1-5.1c0.1-5.7,2.3-8.4,6.8-8.5l0.4,0c4.5,0,6.7,2.8,6.9,8.5c0,2.4,0.6,4,1,5
	C14.5,16.2,10.4,16.1,10.2,16.1z"/>
</svg>
