<?xml version="1.0" encoding="utf-8"?>
<!-- Generator: Adobe Illustrator 18.1.1, SVG Export Plug-In . SVG Version: 6.00 Build 0)  -->
<svg version="1.1" id="Layer_1" xmlns="http://www.w3.org/2000/svg" xmlns:xlink="http://www.w3.org/1999/xlink" x="0px" y="0px"
	 viewBox="0 0 20 20" enable-background="new 0 0 20 20" xml:space="preserve">
<g>
	<circle fill="rgb(255, 115, 0)" cx="9.1" cy="18.9" r="1.1"/>
	<path fill="rgb(255, 115, 0)" d="M8.9,14.8c-0.3,0-0.5-0.2-0.5-0.5V13c0-2.9,1.7-4,3.2-4.9C12.9,7.2,14,6.5,14,4.6C14,2.5,12.3,1,9.9,1
		C7.8,1,6.3,2.7,6.3,2.7c-0.2,0.2-0.5,0.2-0.7,0C5.4,2.5,5.4,2.2,5.5,2C5.6,2,7.4,0,9.9,0c3,0,5.1,1.9,5.1,4.6C15,7,13.4,8,12.1,8.9
		c-1.4,0.9-2.7,1.7-2.7,4.1v1.4C9.4,14.6,9.1,14.8,8.9,14.8z"/>
</g>
</svg>
