<?xml version="1.0" encoding="utf-8"?>
<!-- Generator: Adobe Illustrator 18.1.1, SVG Export Plug-In . SVG Version: 6.00 Build 0)  -->
<svg version="1.1" xmlns="http://www.w3.org/2000/svg" xmlns:xlink="http://www.w3.org/1999/xlink" x="0px" y="0px"
	 viewBox="0 0 20 20" width="20px" height="20px" enable-background="new 0 0 20 20" xml:space="preserve">
<g id="Pink">
</g>
<g id="Layer_3">
	<g>
		<path fill="rgb(255, 115, 0)" d="M12.8,4c-0.2-0.2-0.5-0.2-0.7,0s-0.2,0.5,0,0.7L15.4,8H5C4.7,8,4.5,8.2,4.5,8.5S4.7,9,5,9h10.3l-3.3,3.3
			c-0.2,0.2-0.2,0.5,0,0.7c0.1,0.1,0.2,0.1,0.4,0.1s0.3,0,0.4-0.1l4.5-4.5L12.8,4z"/>
		<path fill="rgb(255, 115, 0)" d="M11,17H2.4C0.6,17,0,16,0,15.1V2.8C0,0.9,0.8,0,2.4,0H11c0.3,0,0.5,0.2,0.5,0.5S11.3,1,11,1H2.4
			C1.5,1,1,1.3,1,2.8v12.3C1,15.8,1.8,16,2.4,16H11c0.3,0,0.5,0.2,0.5,0.5S11.3,17,11,17z"/>
	</g>
</g>
</svg>
