<?xml version="1.0" encoding="utf-8"?>
<!-- Generator: Adobe Illustrator 19.0.0, SVG Export Plug-In . SVG Version: 6.00 Build 0)  -->
<svg version="1.1" id="Layer_1" xmlns="http://www.w3.org/2000/svg" xmlns:xlink="http://www.w3.org/1999/xlink" x="0px" y="0px"
	 viewBox="7 -8 30 30" style="enable-background:new 7 -8 30 30;" xml:space="preserve">
<style type="text/css">
	.st0{fill:#fff;}
	.st1{enable-background:new    ;}
	.st2{fill:#7D7D7D;}
</style>
<g>
	<circle class="st0" cx="22" cy="7" r="15"/>
	<g class="st1">
		<path class="st2" d="M27.8,12.3c-0.9,1.3-1.7,2-2.6,2c-0.3,0-0.8-0.1-1.4-0.3c-0.6-0.2-1.1-0.3-1.5-0.3c-0.4,0-0.9,0.1-1.4,0.3
			c-0.6,0.2-1,0.3-1.3,0.3c-1,0-2-0.9-3-2.6c-1-1.7-1.5-3.4-1.5-5c0-1.5,0.4-2.8,1.1-3.8c0.8-1,1.7-1.4,2.9-1.4
			c0.5,0,1.1,0.1,1.8,0.3C21.5,1.9,21.9,2,22.1,2c0.3,0,0.8-0.1,1.4-0.3c0.7-0.2,1.2-0.3,1.7-0.3c0.8,0,1.5,0.2,2.1,0.7
			c0.4,0.2,0.7,0.6,1,1c-0.5,0.4-0.9,0.8-1.1,1.2c-0.4,0.6-0.7,1.3-0.7,2.1c0,0.8,0.2,1.6,0.7,2.2c0.5,0.7,1,1.1,1.6,1.3
			C28.7,10.6,28.3,11.4,27.8,12.3z M24.9-0.6c-0.2,0.5-0.5,1-0.9,1.4c-0.4,0.4-0.7,0.6-1.1,0.7c-0.2,0.1-0.6,0.1-1,0.2
			c0-1,0.3-1.9,0.8-2.6c0.5-0.7,1.3-1.2,2.5-1.5c0,0.1,0,0.2,0.1,0.2c0,0.1,0,0.1,0,0.2C25.2-1.6,25.1-1.1,24.9-0.6z"/>
	</g>
</g>
</svg>
