<?xml version="1.0" encoding="utf-8"?>
<!-- Generator: Adobe Illustrator 19.0.0, SVG Export Plug-In . SVG Version: 6.00 Build 0)  -->
<svg version="1.1" id="Layer_1" xmlns="http://www.w3.org/2000/svg" xmlns:xlink="http://www.w3.org/1999/xlink" x="0px" y="0px"
	 viewBox="7 -8 30 30" style="enable-background:new 7 -8 30 30;" xml:space="preserve">
<style type="text/css">
	.st0{fill:#fff;}
	.st1{enable-background:new    ;}
	.st2{fill:#7D7D7D;}
</style>
<g>
	<circle class="st0" cx="22" cy="7" r="15"/>
	<g class="st1">
		<path class="st2" d="M29.2,13.9c-0.2,0.8-0.8,1.4-1.6,1.5c-1.8,0.2-3.7,0.2-5.6,0.2s-3.7,0-5.6-0.2c-0.8-0.1-1.4-0.7-1.6-1.5
			c-0.3-1.1-0.3-2.4-0.3-3.5c0-1.2,0-2.4,0.3-3.5c0.2-0.8,0.8-1.4,1.6-1.5c1.8-0.2,3.7-0.2,5.6-0.2s3.7,0,5.6,0.2
			c0.8,0.1,1.4,0.7,1.6,1.5c0.3,1.1,0.3,2.3,0.3,3.5C29.4,11.5,29.4,12.8,29.2,13.9z M18.8,7.9V6.9h-3.1v0.9h1.1v5.7h1V7.9H18.8z
			 M20.4-2.4l-1.2,4v2.7h-1V1.6c-0.1-0.5-0.3-1.2-0.6-2.1c-0.2-0.6-0.4-1.3-0.7-1.9H18l0.7,2.6l0.7-2.6H20.4z M21.5,13.6v-5h-0.9
			v3.8c-0.2,0.3-0.4,0.4-0.6,0.4c-0.1,0-0.2-0.1-0.2-0.2c0,0,0-0.1,0-0.4V8.6h-0.9v3.9c0,0.4,0,0.6,0.1,0.7c0.1,0.3,0.3,0.4,0.6,0.4
			c0.3,0,0.7-0.2,1-0.6v0.5H21.5z M23.1,2.7c0,0.5-0.1,0.9-0.3,1.2c-0.3,0.3-0.6,0.5-1.1,0.5c-0.5,0-0.8-0.2-1.1-0.5
			c-0.2-0.3-0.3-0.7-0.3-1.2V0.9c0-0.5,0.1-0.9,0.3-1.2c0.3-0.3,0.6-0.5,1.1-0.5c0.5,0,0.8,0.2,1.1,0.5C23,0,23.1,0.4,23.1,0.9V2.7z
			 M22.2,0.7c0-0.5-0.1-0.7-0.4-0.7c-0.3,0-0.4,0.2-0.4,0.7v2.1c0,0.5,0.1,0.7,0.4,0.7c0.3,0,0.4-0.2,0.4-0.7V0.7z M24.9,10.1
			c0-0.5,0-0.8-0.1-1c-0.1-0.4-0.4-0.6-0.7-0.6c-0.3,0-0.6,0.2-0.9,0.5V6.9h-0.9v6.7h0.9v-0.5c0.3,0.4,0.6,0.6,0.9,0.6
			c0.4,0,0.6-0.2,0.7-0.6c0.1-0.2,0.1-0.5,0.1-1V10.1z M24,12.2c0,0.5-0.1,0.7-0.4,0.7c-0.2,0-0.3-0.1-0.5-0.2v-3
			c0.2-0.2,0.3-0.2,0.5-0.2c0.3,0,0.4,0.2,0.4,0.7V12.2z M26.5,4.3h-0.9V3.8c-0.4,0.4-0.7,0.6-1,0.6C24.3,4.4,24,4.3,24,4
			c-0.1-0.2-0.1-0.4-0.1-0.8v-4h0.9V3c0,0.2,0,0.3,0,0.4c0,0.1,0.1,0.2,0.2,0.2c0.2,0,0.4-0.1,0.6-0.4v-3.8h0.9V4.3z M28.3,11.9
			h-0.9c0,0.4,0,0.6,0,0.6c0,0.2-0.2,0.4-0.4,0.4c-0.3,0-0.5-0.2-0.5-0.7v-0.9h1.8v-1c0-0.5-0.1-0.9-0.3-1.2
			c-0.3-0.3-0.6-0.5-1.1-0.5c-0.5,0-0.8,0.2-1.1,0.5c-0.2,0.3-0.3,0.6-0.3,1.2V12c0,0.5,0.1,0.9,0.3,1.2c0.3,0.3,0.6,0.5,1.1,0.5
			c0.5,0,0.8-0.2,1.1-0.5c0.1-0.2,0.2-0.3,0.2-0.5c0-0.1,0-0.3,0-0.6V11.9z M27.4,10.5h-0.9v-0.5c0-0.5,0.2-0.7,0.5-0.7
			c0.3,0,0.5,0.2,0.5,0.7V10.5z"/>
	</g>
</g>
</svg>
